<svg xmlns="http://www.w3.org/2000/svg" width="24" height="24" viewBox="0 0 24 24">
    <g fill="none" fill-rule="evenodd">
        <g>
            <g>
                <g transform="translate(-742 -9492) translate(0 6947) translate(742 2545)">
                    <rect width="24" height="24" fill="#17174A" rx="12"/>
                    <path fill="#FFF" d="M15.905 8.308c-.177.006-.346.087-.47.225-1.687 1.826-3.224 3.627-4.865 5.425l-2.075-1.79c-.142-.123-.322-.18-.502-.158-.18.022-.345.12-.458.272-.237.319-.189.783.106 1.037l2.561 2.212c.273.235.667.21.912-.058 1.836-1.985 3.486-3.943 5.293-5.898.204-.212.265-.538.153-.82-.111-.281-.372-.459-.655-.447z"/>
                </g>
            </g>
        </g>
    </g>
</svg>
