<?xml version="1.0" encoding="UTF-8"?>
<svg width="18px" height="16px" viewBox="0 0 18 16" version="1.1" xmlns="http://www.w3.org/2000/svg" xmlns:xlink="http://www.w3.org/1999/xlink">
    <!-- Generator: sketchtool 60 (101010) - https://sketch.com -->
    <title>C5B1E9FB-591B-499F-B45C-B0D27E5843ED@1x</title>
    <desc>Created with sketchtool.</desc>
    <g id="Page-1" stroke="none" stroke-width="1" fill="none" fill-rule="evenodd">
        <g id="Gomble-Brand-Design-System" transform="translate(-340.000000, -10725.000000)">
            <g id="visibility_off-24px" transform="translate(340.000000, 10724.000000)">
                <path d="M0,0 L18,0 L18,18 L0,18 L0,0 Z M0,0 L18,0 L18,18 L0,18 L0,0 Z M0,0 L18,0 L18,18 L0,18 L0,0 Z M0,0 L18,0 L18,18 L0,18 L0,0 Z" id="Shape"></path>
                <path d="M9,4.5 C11.8425,4.5 14.3775,6.0975 15.615,8.625 C15.1725,9.54 14.55,10.3275 13.8075,10.965 L14.865,12.0225 C15.9075,11.1 16.7325,9.945 17.25,8.625 C15.9525,5.3325 12.75,3 9,3 C8.0475,3 7.1325,3.15 6.27,3.4275 L7.5075,4.665 C7.995,4.5675 8.49,4.5 9,4.5 Z M8.1975,5.355 L9.75,6.9075 C10.1775,7.095 10.5225,7.44 10.71,7.8675 L12.2625,9.42 C12.3225,9.165 12.3675277,8.895 12.3675277,8.6175 C12.375,6.7575 10.86,5.25 9,5.25 C8.7225,5.25 8.46,5.2875 8.1975,5.355 Z M1.5075,2.9025 L3.5175,4.9125 C2.295,5.8725 1.3275,7.1475 0.75,8.625 C2.0475,11.9175 5.25,14.25 9,14.25 C10.14,14.25 11.235,14.0325 12.24,13.635 L14.805,16.2 L15.8625,15.1425 L2.565,1.8375 L1.5075,2.9025 Z M7.1325,8.5275 L9.09,10.485 C9.06,10.4925 9.03,10.5 9,10.5 C7.965,10.5 7.125,9.66 7.125,8.625 C7.125,8.5875 7.1325,8.565 7.1325,8.5275 L7.1325,8.5275 Z M4.5825,5.9775 L5.895,7.29 C5.7225,7.7025 5.625,8.1525 5.625,8.625 C5.625,10.485 7.14,12 9,12 C9.4725,12 9.9225,11.9025 10.3275,11.73 L11.0625,12.465 C10.4025,12.645 9.7125,12.75 9,12.75 C6.1575,12.75 3.6225,11.1525 2.385,8.625 C2.91,7.5525 3.675,6.6675 4.5825,5.9775 Z" id="Shape" fill="#242424" fill-rule="nonzero"></path>
            </g>
        </g>
    </g>
</svg>