<?xml version="1.0" encoding="UTF-8"?>
<svg width="18px" height="12px" viewBox="0 0 18 12" version="1.1" xmlns="http://www.w3.org/2000/svg" xmlns:xlink="http://www.w3.org/1999/xlink">
    <!-- Generator: sketchtool 60 (101010) - https://sketch.com -->
    <title>77E206E9-8C6A-47B7-9F3A-1D66DA5E263F@1x</title>
    <desc>Created with sketchtool.</desc>
    <g id="Page-1" stroke="none" stroke-width="1" fill="none" fill-rule="evenodd">
        <g id="Gomble-Brand-Design-System" transform="translate(-282.000000, -10727.000000)">
            <g id="visibility-24px" transform="translate(282.000000, 10724.000000)">
                <polygon id="Path" points="0 0 18 0 18 18 0 18"></polygon>
                <path d="M9,4.5 C11.8425,4.5 14.3775,6.0975 15.615,8.625 C14.3775,11.1525 11.8425,12.75 9,12.75 C6.1575,12.75 3.6225,11.1525 2.385,8.625 C3.6225,6.0975 6.1575,4.5 9,4.5 M9,3 C5.25,3 2.0475,5.3325 0.75,8.625 C2.0475,11.9175 5.25,14.25 9,14.25 C12.75,14.25 15.9525,11.9175 17.25,8.625 C15.9525,5.3325 12.75,3 9,3 Z M9,6.75 C10.035,6.75 10.875,7.59 10.875,8.625 C10.875,9.66 10.035,10.5 9,10.5 C7.965,10.5 7.125,9.66 7.125,8.625 C7.125,7.59 7.965,6.75 9,6.75 M9,5.25 C7.14,5.25 5.625,6.765 5.625,8.625 C5.625,10.485 7.14,12 9,12 C10.86,12 12.375,10.485 12.375,8.625 C12.375,6.765 10.86,5.25 9,5.25 Z" id="Shape" fill="#242424" fill-rule="nonzero"></path>
            </g>
        </g>
    </g>
</svg>