<svg xmlns="http://www.w3.org/2000/svg" width="20" height="20" viewBox="0 0 20 20">
    <g fill="none" fill-rule="evenodd">
        <g>
            <g>
                <path d="M0 0L22 0 22 22 0 22z" transform="translate(-970 -7240) translate(969 7239)"/>
                <path fill="#82889C" fill-rule="nonzero" d="M16.528 15.232l3.278 3.277c.358.358.358.939 0 1.297s-.939.358-1.297 0l-3.277-3.278c-1.46 1.171-3.277 1.808-5.149 1.805-4.554 0-8.25-3.696-8.25-8.25s3.696-8.25 8.25-8.25 8.25 3.696 8.25 8.25c.003 1.872-.634 3.689-1.805 5.15zm-.028-5.149c0-3.545-2.872-6.416-6.417-6.416s-6.416 2.87-6.416 6.416c0 3.545 2.87 6.417 6.416 6.417 1.67.003 3.273-.647 4.47-1.81l.137-.138c1.163-1.196 1.813-2.8 1.81-4.469z" transform="translate(-970 -7240) translate(969 7239)"/>
            </g>
        </g>
    </g>
</svg>
