<?xml version="1.0" encoding="UTF-8"?>
<svg width="20px" height="20px" viewBox="0 0 20 20" version="1.1" xmlns="http://www.w3.org/2000/svg" xmlns:xlink="http://www.w3.org/1999/xlink">
    <!-- Generator: sketchtool 60 (101010) - https://sketch.com -->
    <title>917018B2-6EEB-4E3A-A459-B0AF248A1060@1x</title>
    <desc>Created with sketchtool.</desc>
    <g id="Page-1" stroke="none" stroke-width="1" fill="none" fill-rule="evenodd">
        <g id="Gomble-Brand-Design-System" transform="translate(-341.000000, -10665.000000)" stroke="#242424" stroke-width="0.81">
            <path d="M359.901637,10683.4246 L354.657253,10678.1731 C355.994908,10676.8814 356.823619,10675.1006 356.823619,10673.1367 C356.823619,10669.2013 353.498893,10666 349.411809,10666 C345.324726,10666 342,10669.2013 342,10673.1367 C342,10677.072 345.324726,10680.2733 349.411809,10680.2733 C351.20582,10680.2733 352.852301,10679.6558 354.135603,10678.6312 L359.392693,10683.8957 C359.46187,10683.9653 359.554341,10684 359.647165,10684 C359.735401,10684 359.823284,10683.9684 359.891755,10683.9052 C360.032226,10683.775 360.036462,10683.5599 359.901637,10683.4246 Z M349.411809,10679.5936 C345.714022,10679.5936 342.705887,10676.6972 342.705887,10673.1367 C342.705887,10669.5761 345.714022,10666.6797 349.411809,10666.6797 C353.109596,10666.6797 356.117732,10669.5761 356.117732,10673.1367 C356.117732,10676.6972 353.109243,10679.5936 349.411809,10679.5936 Z" id="Shape"></path>
        </g>
    </g>
</svg>