<?xml version="1.0" encoding="UTF-8"?>
<svg width="608px" height="543px" viewBox="0 0 608 543" version="1.1" xmlns="http://www.w3.org/2000/svg" xmlns:xlink="http://www.w3.org/1999/xlink">
    <!-- Generator: sketchtool 60 (101010) - https://sketch.com -->
    <title>E4225A4D-AE09-4E6E-9411-B743CFFD1C17</title>
    <desc>Created with sketchtool.</desc>
    <g id="Customer" stroke="none" stroke-width="1" fill="none" fill-rule="evenodd">
        <g id="404-Page-Not-Found" transform="translate(-150.000000, -179.000000)" fill-rule="nonzero">
            <g id="404-Error-Page-not-Found-with-people-connecting-a-plug-amico-1" transform="translate(150.000000, 179.000000)">
                <path d="M305.218,542.128 C472.006,542.128 607.215,476.091 607.215,394.63 C607.215,313.169 472.006,247.132 305.218,247.132 C138.429,247.132 3.22,313.169 3.22,394.63 C3.22,476.091 138.429,542.128 305.218,542.128 Z" id="Path" fill="#F5F5F5"></path>
                <path d="M498.692,413.9 C543.179,413.9 579.242,394.369 579.242,370.276 C579.242,346.184 543.179,326.653 498.692,326.653 C454.206,326.653 418.143,346.184 418.143,370.276 C418.143,394.369 454.206,413.9 498.692,413.9 Z" id="Path" fill="#E6E6E6"></path>
                <path d="M174.3,344.385 C205.116,361.076 206.372,388.628 175.543,405.319 C144.714,422.009 93.513,421.513 62.6836,404.823 C31.8546,388.132 31.8678,361.076 62.6836,344.385 C93.499,327.695 143.458,327.695 174.3,344.385 Z" id="Path" fill="#E6E6E6"></path>
                <path d="M425.665,434.323 L324.506,379.539 C322.732,378.695 320.771,378.255 318.782,378.255 C316.792,378.255 314.831,378.695 313.057,379.539 L211.898,434.323 C208.738,436.034 208.738,438.811 211.898,440.523 L257.969,465.471 L214.938,488.771 C206.2,493.495 191.975,493.495 183.21,488.771 L115.524,452.116 C111.796,450.095 109.734,447.553 109.734,444.974 C109.734,442.395 111.796,439.84 115.524,437.819 L175.503,405.331 C175.819,405.176 176.098,404.963 176.324,404.704 C176.55,404.445 176.717,404.146 176.817,403.825 C176.916,403.504 176.945,403.167 176.902,402.835 C176.859,402.503 176.745,402.182 176.567,401.893 C176.388,401.603 176.149,401.35 175.864,401.15 C175.579,400.949 175.253,400.805 174.907,400.725 C174.56,400.645 174.2,400.632 173.848,400.687 C173.497,400.741 173.16,400.861 172.859,401.041 L112.906,433.504 C107.473,436.455 104.472,440.522 104.472,444.962 C104.472,449.401 107.473,453.456 112.906,456.407 L180.593,493.061 C186.316,495.828 192.662,497.272 199.101,497.272 C205.54,497.272 211.885,495.828 217.609,493.061 L263.284,468.336 L313.11,495.306 C314.884,496.15 316.845,496.59 318.834,496.59 C320.824,496.59 322.785,496.15 324.559,495.306 L425.718,440.523 C428.825,438.811 428.825,436.034 425.665,434.323 Z" id="Path" fill="#E6E6E6"></path>
                <path d="M541.261,349.792 C541.261,349.792 544.936,298.728 543.905,279.905 C543.045,265.025 540.891,258.825 540.441,255.465 C540.441,255.465 536.541,220.745 536.224,191.121 C536.065,176.886 534.664,166.768 526.349,149.854 L472.9,161.845 C471.816,169.359 468.141,219.331 467.268,263.76 C466.515,302.659 467.691,336.71 467.691,336.71 L467.691,338.756 C467.691,341.037 467.163,342.624 465.603,346.27 C463.653,350.967 460.853,355.313 457.327,359.116 C456.23,360.232 448.602,366.482 447.597,367.796 C444.319,371.38 451.114,373.401 456.15,372.756 C461.438,372.087 469.714,370.19 472.014,367.164 C473.574,365.13 474.751,358.05 476.351,356.004 C481.758,349.085 483.978,346.084 484.018,343.902 C484.097,339.909 482.63,338.334 482.101,336.077 C482.537,331.365 493.391,292.615 493.576,278.888 C493.669,272.354 493.193,263.351 493.193,263.351 L501.601,218.066 C504.853,229.375 510.564,257.449 512.494,268.224 C514.834,281.393 520.955,315.196 524.577,335.358 C525.965,343.133 526.613,347.064 527.221,350.672 L527.367,352.21 C527.486,354.169 529.006,375.125 529.825,379.49 C531.544,388.653 540.23,387.5 541.618,380.085 C542.807,373.786 541.327,354.243 541.287,351.85 L541.261,349.792 Z" id="Path" fill="#FFA8A7"></path>
                <path d="M541.261,349.792 C543.72,349.792 542.107,358.732 542.741,364.448 C543.416,370.586 545.557,375.075 546.179,380.097 C547.012,384.486 546.293,389.011 544.129,392.981 C542.424,396.701 533.831,401.661 530.566,396.44 C527.3,391.22 526.6,385.181 526.983,379.452 C527.367,373.724 526.983,369.88 527.102,365.378 C527.221,361.41 524.114,351.28 527.3,350.709 L527.446,352.247 C528.596,354.392 540.203,354.814 541.367,351.912 L541.261,349.792 Z" id="Path" fill="#37474F"></path>
                <path d="M484.573,348.775 C485.327,351.639 484.573,359.501 484.573,359.501 C484.573,359.501 483.251,362.216 478.532,364.014 L476.417,353.078 L484.573,348.775 Z" id="Path" fill="#263238"></path>
                <polygon id="Path" fill="#000000" points="478.505 364.014 468.115 360.815 465.603 352.16 477.289 357.703"></polygon>
                <path d="M467.691,338.756 L467.691,336.71 C466.277,337.355 463.17,348.031 458.966,355.31 C455.132,361.993 447.531,365.713 445.059,368.627 C441.754,372.508 448.179,377.53 458.477,375.46 C463.593,374.43 471.34,371.368 473.442,368.131 C475.544,364.895 476.245,358.943 477.963,356.562 C479.682,354.181 483.767,351.441 484.573,348.738 C485.245,346.298 485.245,343.738 484.573,341.298 C483.767,338.818 483.053,335.854 482.154,336.127 L482.154,337.999 C481.467,339.314 478.968,340.851 473.773,341.124 C471.234,341.236 468.828,340.876 467.691,338.756 Z" id="Path" fill="#37474F"></path>
                <path d="M471.816,161.2 C471.816,161.2 468.286,197.991 467.149,230.566 C466.013,263.14 467.03,305.176 467.03,305.176 C467.03,305.176 470.613,307.582 478.505,307.917 C486.398,308.252 489.081,305.784 489.081,305.784 C489.081,305.784 493.907,291.016 494.66,280.624 C495.139,275 495.139,269.348 494.66,263.723 L501.707,220.249 C501.707,220.249 510.643,263.054 511.661,268.224 C512.679,273.395 521.232,319.139 521.232,319.139 C521.232,319.139 524.59,322.04 533.21,321.892 C540.838,321.755 543.045,319.188 543.045,319.188 C543.045,319.188 544.883,291.14 544.46,279.161 C544.103,268.596 541.525,260.189 541.01,253.332 C540.494,246.475 540.203,207.452 539.688,192.572 C539.172,177.692 537.85,164.92 524.273,147.014 L471.816,161.2 Z" id="Path" fill="#455A64"></path>
                <path d="M501.759,220.286 L495.89,193.006 C495.89,193.006 485.671,190.526 480.898,184.648 C480.898,184.648 482.22,191.146 492.796,195.3 L499.036,222.431 L496.868,250.48 L501.759,220.286 Z" id="Path" fill="#37474F"></path>
                <path d="M397.136,154.417 C400.901,154.956 404.747,154.689 408.387,153.636 C406.788,152.886 405.292,151.958 403.931,150.871 C403.307,150.4 402.903,149.72 402.804,148.975 C402.706,148.23 402.92,147.478 403.403,146.878 C403.892,146.382 405.108,147.535 407.858,148.267 C411.374,149.197 413.926,149.395 417.31,151.23 C418.587,151.927 420.087,152.174 421.54,151.925 C429.79,150.474 449.025,142.005 457.843,137.59 C459.641,130.708 462.76,120.59 466.607,107.967 C470.164,96.336 475.861,91.252 484.957,91.438 L483.648,116.696 C483.648,116.696 479.312,134.143 473.945,148.391 C473.006,150.871 469.238,153.76 462.337,156.166 C453.401,159.278 442.613,162.217 429.433,165.602 C424.092,167.029 418.636,168.045 413.119,168.64 C399.185,169.756 393.845,166.16 391.967,163.581 C386.626,156.463 389.786,153.041 397.136,154.417 Z" id="Path" fill="#FFA8A7"></path>
                <path d="M508.396,91.252 L521.113,92.169 C520.018,97.017 520.329,102.052 522.012,106.75 C523.695,111.447 526.69,115.635 530.685,118.879 L525.013,140.306 C525.198,142.96 529.878,151.888 534.413,161.485 C525.886,172.199 484.058,175.857 470.415,166.445 C472.517,156.352 474.09,148.688 474.513,144.857 L473.826,131.006 C456.719,117.85 477.355,97.799 484.957,91.425 L494.502,91.028 L508.396,91.252 Z" id="Path" fill="#FC68A2"></path>
                <path d="M561.95,198.003 C561.027,197.328 560.296,196.45 559.821,195.446 C559.346,194.443 559.142,193.345 559.227,192.25 C559.451,190.253 559.941,187.748 560.826,186.781 C561.712,185.814 567.265,178.734 569.723,182.85 C572.368,187.339 571.826,189.162 571.826,189.162 L561.95,198.003 Z" id="Path" fill="#F28F8F"></path>
                <path d="M544.817,292.64 C538.849,292.454 533.037,290.803 527.961,287.854 L461.954,252.092 C451.761,246.574 443.446,233.095 443.446,222.047 L443.446,170.103 C443.439,168.365 442.946,166.659 442.015,165.155 C441.084,163.652 439.749,162.405 438.142,161.538 C436.535,160.672 434.714,160.217 432.861,160.218 C431.007,160.22 429.187,160.678 427.582,161.547 L404.473,174.096 C404.173,174.275 403.836,174.396 403.484,174.45 C403.132,174.504 402.772,174.491 402.426,174.412 C402.08,174.332 401.754,174.188 401.469,173.987 C401.183,173.786 400.944,173.534 400.766,173.244 C400.587,172.955 400.473,172.634 400.43,172.302 C400.387,171.97 400.416,171.633 400.516,171.312 C400.615,170.991 400.783,170.692 401.008,170.433 C401.234,170.174 401.513,169.961 401.829,169.806 L425.004,157.244 C427.414,155.94 430.147,155.250999 432.929,155.250999 C435.711,155.250999 438.445,155.935 440.855,157.237 C443.266,158.54 445.269,160.415 446.664,162.673 C448.058,164.931 448.795,167.494 448.8,170.103 L448.8,222.047 C448.8,231.347 456.071,243.127 464.664,247.802 L530.672,283.538 C539.119,288.114 546.959,288.908 552.723,285.795 C558.486,282.683 561.672,275.875 561.672,266.761 L561.672,200.446 C561.672,189.212 569.327,176.266 579.096,170.971 L595.212,162.291 C595.513,162.112 595.849,161.991 596.201,161.937 C596.553,161.883 596.913,161.896 597.259,161.975 C597.605,162.055 597.931,162.199 598.216,162.4 C598.502,162.601 598.741,162.853 598.919,163.143 C599.098,163.433 599.212,163.753 599.255,164.085 C599.298,164.417 599.269,164.754 599.169,165.075 C599.07,165.396 598.902,165.695 598.677,165.954 C598.451,166.213 598.172,166.427 597.856,166.582 L581.74,175.262 C573.729,179.602 566.96,191.121 566.96,200.434 L566.96,266.749 C566.96,277.735 562.836,286.018 555.367,290.073 C552.157,291.796 548.515,292.682 544.817,292.64 Z" id="Path" fill="#37474F"></path>
                <path d="M430.768,177.68 L430.768,181.734 C430.768,188.22 425.916,196.118 419.914,199.355 L379.884,221.042 L339.18,198.995 L339.18,165.937 L378.655,148.8 C384.934,146.084 394.876,146.506 400.877,149.742 L419.888,160.047 C425.876,163.296 430.768,171.194 430.768,177.68 Z" id="Path" fill="#37474F"></path>
                <path d="M378.655,148.8 C384.934,146.084 394.876,146.506 400.877,149.742 L419.888,160.047 C425.876,163.283 425.639,168.119 419.359,170.847 L379.844,187.959 L339.127,165.924 L378.655,148.8 Z" id="Path" fill="#455A64"></path>
                <path d="M383.691,180.023 C385.268,180.988 386.581,182.289 387.523,183.818 C388.464,185.348 389.009,187.064 389.112,188.827 L389.112,216.02 L379.858,220.98 L339.153,198.933 L339.153,165.937 L349.465,161.473 L383.691,180.023 Z" id="Path" fill="#000000" opacity="0.15"></path>
                <path d="M335.677,160.245 C336.286,159.979 336.961,159.871 337.631,159.932 C338.3,159.993 338.94,160.221 339.484,160.592 L379.514,182.28 C381.094,183.246 382.408,184.548 383.35,186.08 C384.291,187.612 384.834,189.33 384.934,191.096 L384.934,223.436 C385.006,224.065 384.897,224.7 384.618,225.276 C384.339,225.852 383.9,226.347 383.348,226.709 C382.423,227.193 379.157,228.966 378.245,229.474 C377.633,229.74 376.956,229.848 376.284,229.787 C375.613,229.726 374.971,229.499 374.424,229.127 L334.381,207.44 C332.804,206.474 331.491,205.174 330.55,203.645 C329.608,202.115 329.064,200.399 328.961,198.636 L328.961,166.296 C328.89,165.667 328.999,165.032 329.275,164.455 C329.552,163.877 329.986,163.379 330.534,163.01 L335.677,160.245 Z" id="Path" fill="#37474F"></path>
                <path d="M374.424,185.033 L334.381,163.358 C331.393,161.733 328.961,163.048 328.961,166.296 L328.961,198.636 C329.064,200.399 329.608,202.115 330.55,203.645 C331.491,205.174 332.804,206.474 334.381,207.44 L374.424,229.127 C377.412,230.752 379.845,229.437 379.845,226.188 L379.845,193.849 C379.741,192.084 379.197,190.366 378.256,188.835 C377.314,187.303 376.002,186.001 374.424,185.033 Z" id="Path" fill="#455A64"></path>
                <path d="M327.004,222.679 L327.004,228.272 C327.004,230.541 327.837,232.116 329.212,232.86 L332.808,234.807 C333.67,235.2 334.629,235.366 335.584,235.287 C336.538,235.209 337.452,234.888 338.228,234.36 L371.278,216.43 L371.278,194.358 L367.682,192.411 L334.566,210.341 C332.361,211.696 330.527,213.519 329.213,215.663 C327.899,217.806 327.142,220.21 327.004,222.679 Z M341.982,215.76 C342.109,216.163 342.18,216.58 342.194,217 C342.1,218.657 341.589,220.27 340.705,221.707 C339.821,223.144 338.587,224.365 337.104,225.271 C336.692,225.497 336.247,225.664 335.782,225.767 C335.666,225.362 335.604,224.946 335.597,224.527 C335.693,222.87 336.203,221.258 337.087,219.821 C337.972,218.384 339.205,217.162 340.687,216.256 C341.098,216.046 341.532,215.88 341.982,215.76 Z" id="Shape" fill="#FC68A2"></path>
                <path d="M332.623,234.682 C332.692,234.739 332.767,234.789 332.847,234.831 L332.715,234.757 L329.238,232.86 C327.85,232.14 327.031,230.566 327.031,228.284 L327.031,222.692 C327.117,220.207 327.887,217.785 329.265,215.661 L332.861,217.608 C331.496,219.736 330.732,222.156 330.64,224.638 L330.64,230.231 C330.543,231.679 331.039,233.107 332.028,234.224 C332.206,234.398 332.406,234.552 332.623,234.682 Z" id="Path" fill="#000000" opacity="0.2"></path>
                <path d="M371.278,194.358 L338.228,212.288 C335.986,213.599 334.138,215.426 332.861,217.595 L329.265,215.648 C330.541,213.483 332.384,211.656 334.619,210.341 L367.735,192.411 L371.278,194.358 Z" id="Path" fill="#FFFFFF" opacity="0.5"></path>
                <path d="M342.194,217 C342.192,216.552 342.13,216.106 342.009,215.673 C344.19,215.115 345.79,216.392 345.79,218.947 C345.695,220.602 345.186,222.214 344.304,223.651 C343.422,225.087 342.192,226.309 340.713,227.218 C338.36,228.458 336.351,227.825 335.796,225.767 C336.262,225.671 336.709,225.504 337.118,225.271 C338.596,224.362 339.825,223.14 340.707,221.703 C341.589,220.266 342.098,218.655 342.194,217 Z" id="Path" fill="#000000" opacity="0.2"></path>
                <path d="M296.479,206.138 L296.479,211.742 C296.479,213.999 297.312,215.586 298.687,216.318 L302.283,218.277 C303.144,218.662 304.099,218.822 305.049,218.739 C305.998,218.656 306.906,218.333 307.677,217.806 L340.727,199.863 L340.727,177.828 L337.131,175.869 L304.081,193.8 C301.87,195.152 300.03,196.974 298.71,199.118 C297.389,201.261 296.625,203.666 296.479,206.138 Z M311.457,199.181 C311.578,199.615 311.64,200.06 311.643,200.508 C311.547,202.165 311.037,203.777 310.152,205.214 C309.268,206.651 308.035,207.873 306.553,208.779 C306.134,208.992 305.691,209.159 305.231,209.275 C305.105,208.851 305.043,208.413 305.046,207.973 C305.141,206.317 305.65,204.706 306.532,203.269 C307.414,201.832 308.644,200.61 310.122,199.702 C310.539,199.471 310.989,199.295 311.457,199.181 Z" id="Shape" fill="#FC68A2"></path>
                <path d="M302.441,218.364 L302.375,218.364 L302.283,218.364 L298.687,216.392 C297.299,215.661 296.479,214.086 296.479,211.804 L296.479,206.212 C296.493,205.017 296.694,203.831 297.074,202.69 C297.472,201.47 298.018,200.297 298.7,199.194 L302.296,201.128 C301.955,201.681 301.651,202.252 301.384,202.839 C300.563,204.506 300.113,206.311 300.062,208.146 L300.062,213.739 C299.949,215.179 300.421,216.605 301.384,217.732 C301.695,217.997 302.053,218.211 302.441,218.364 Z" id="Path" fill="#000000" opacity="0.2"></path>
                <path d="M340.766,177.828 L307.716,195.759 C305.471,197.066 303.622,198.894 302.349,201.066 L298.753,199.132 C300.007,196.964 301.826,195.129 304.041,193.8 L337.091,175.869 L340.766,177.828 Z" id="Path" fill="#FFFFFF" opacity="0.5"></path>
                <path d="M311.629,200.496 C311.632,200.052 311.574,199.611 311.457,199.181 C313.626,198.611 315.238,199.9 315.238,202.455 C315.143,204.11 314.634,205.722 313.753,207.159 C312.871,208.595 311.641,209.817 310.162,210.726 C307.795,211.966 305.799,211.333 305.244,209.262 C305.712,209.17 306.159,209.002 306.566,208.766 C308.044,207.858 309.272,206.636 310.152,205.199 C311.032,203.762 311.538,202.151 311.629,200.496 Z" id="Path" fill="#000000" opacity="0.2"></path>
                <path d="M306.5,185.442005 C306.059,185.443 305.631,185.306 305.284,185.052 C304.936,184.798 304.69,184.442 304.583,184.041 L299.295,164.598 C299.164,164.119 299.24,163.611 299.508,163.186 C299.776,162.76 300.213,162.452 300.723,162.328 C301.233,162.205 301.775,162.277 302.228,162.528 C302.682,162.779 303.011,163.189 303.142,163.668 L308.43,183.123 C308.497,183.359 308.514,183.606 308.478,183.848 C308.442,184.09 308.355,184.323 308.222,184.533 C308.089,184.744 307.913,184.927 307.704,185.072 C307.494,185.218 307.256,185.322 307.002,185.38 C306.838,185.42 306.67,185.441 306.5,185.442005 Z" id="Path" fill="#E0E0E0"></path>
                <path d="M291.614,193.552047 C291.169,193.553 290.736,193.413 290.385,193.155 L270.7,178.56 C270.483,178.413 270.3,178.226 270.162,178.011 C270.023,177.796 269.933,177.557 269.896,177.308 C269.859,177.059 269.877216,176.806 269.947,176.563 C270.017,176.321 270.139,176.094 270.306,175.897 C270.472,175.7 270.679,175.537 270.914,175.417 C271.15,175.297 271.408,175.223 271.675,175.2 C271.942,175.176 272.211,175.204 272.466,175.28 C272.721,175.357 272.957,175.481 273.159,175.646 L292.844,190.228 C293.255,190.536 293.521,190.983 293.583,191.473 C293.645,191.963 293.498,192.456 293.174,192.845 C292.99,193.067 292.753,193.246 292.482,193.369 C292.212,193.492 291.915,193.554 291.614,193.552047 Z" id="Path" fill="#E0E0E0"></path>
                <path d="M264.487,211.358 C263.961,211.376 263.449,211.197 263.063,210.861 C262.678,210.525 262.45,210.06 262.431,209.566 C262.412,209.073 262.602,208.593 262.961,208.231 C263.319,207.869 263.816,207.656 264.341,207.638 L287.357,205.964 C287.617,205.944 287.879,205.972 288.127,206.047 C288.375,206.123 288.605,206.243 288.803,206.402 C289.001,206.562 289.163,206.756 289.281,206.975 C289.398,207.193 289.468,207.431 289.486,207.675 C289.522,208.166 289.352,208.651 289.01,209.024 C288.669,209.398 288.184,209.63 287.662,209.672 L264.646,211.346 L264.487,211.358 Z" id="Path" fill="#E0E0E0"></path>
                <path d="M579.943,177.766 C579.494,173.185 578.77,168.631 577.774,164.126 C574.767,153.557 570.758,143.262 565.797,133.362 C563.589,129.406 558.605,123.64 555.076,118.767 C550.079,111.885 546.562,108.029 542.768,103.354 C534.413,93.099 530.87,92.504 521.114,92.194 C519.792,95.455 516.777,108.822 526.547,119.623 L547.487,140.331 C548.677,142.129 561.474,162.651 563.603,170.227 C563.971,171.574 563.792,173.002 563.1,174.232 C561.428,177.705 560.198,181.351 559.438,185.095 C558.817,187.724 557.151,189.807 557.72,190.216 C558.422,190.656 559.262,190.861 560.104,190.798 C560.946,190.735 561.741,190.408 562.36,189.869 C563.855,188.364 565.074,186.638 565.969,184.76 C566.362,184.736 566.756,184.789 567.126,184.915 C567.496,185.041 567.834,185.238 568.119,185.494 C568.404,185.749 568.629,186.057 568.78,186.398 C568.931,186.739 569.005,187.106 568.996,187.476 C569.115,189.001 568.375,191.121 567.807,193.762 C567.701,194.283 567.569,194.878 567.317,196.317 C567.1,197.288 566.977,198.276 566.947,199.268 C569.591,199.727 572.354,198.214 576.796,194.308 C580.802,190.662 581.066,185.876 579.943,177.766 Z" id="Path" fill="#FFA8A7"></path>
                <path d="M510.67,85.225 C510.749,82.745 519.342,76.942 523.691,70.767 C527.657,65.038 533.355,49.29 520.003,44.256 C520.003,44.256 522.885,36.704 517.65,32.2524 C512.415,27.8008 505.369,30.5536 504.258,32.4136 C503.587,30.0948 502.136,28.041 500.121,26.5576 C498.106,25.0742 495.635,24.2403 493.074,24.18 C490.573,24.0034 488.087,24.6803 486.076,26.0861 C484.065,27.492 482.663,29.5321 482.128,31.8308 C480.015,30.973 477.652,30.8227 475.435,31.4052 C473.218,31.9877 471.282,33.2675 469.952,35.03 C465.048,41.366 471.552,47.17 471.552,47.17 C470.708,47.704 470.035,48.442 469.604,49.307 C469.174,50.172 469.001,51.131 469.106,52.08 C469.489,54.758 472.226,55.416 472.543,56.755 C472.605,57.035 472.567,57.326 472.436,57.585 C472.305,57.843 472.087,58.054 471.817,58.186 C471.546,58.318 471.237,58.363 470.936,58.315 C470.635,58.267 470.36,58.129 470.15,57.92 C470.222,58.27 470.366,58.603 470.575,58.9 C470.784,59.198 471.053,59.453 471.368,59.653 C471.682,59.852 472.035,59.991 472.407,60.062 C472.779,60.133 473.162,60.134 473.535,60.066 C476.615,59.904 479.365,55.974 479.365,55.974 L510.67,85.225 Z" id="Path" fill="#263238"></path>
                <path d="M482.643,43.462 C478.677,45.074 474.936,50.741 474.989,66.588 C474.989,80.017 479.431,83.415 481.599,84.419 C483.767,85.424 488.143,84.903 492.36,84.295 L492.36,92.02 C492.36,92.02 484.732,100.899 491.567,105.313 C509.176,102.424 510.524,91.586 510.524,91.586 L510.842,74.747 C510.842,74.747 513.261,77.128 517.452,73.631 C520.968,70.742 522.237,65.794 519.593,63.066 C516.949,60.338 513.565,60.128 510.498,63.166 C510.498,63.166 504.879,63.513 496.432,58.54 C487.984,53.568 484.97,48.521 482.643,43.462 Z" id="Path" fill="#FFA8A7"></path>
                <path d="M492.783,74.995 C492.801,75.251 492.764,75.508 492.675,75.751 C492.586,75.994 492.447,76.217 492.264,76.409 C492.082,76.6 491.861,76.756 491.615,76.867 C491.368,76.978 491.1,77.041 490.826,77.054 C490.403,77.086 489.979,76.998 489.608,76.802 C489.238,76.605 488.939,76.31 488.75,75.953 C488.561,75.595 488.49,75.193 488.546,74.798 C488.603,74.403 488.784,74.033 489.067,73.735 C489.35,73.437 489.722,73.226 490.134,73.128 C490.546,73.03 490.98,73.051 491.38,73.186 C491.779,73.322 492.127,73.567 492.377,73.889 C492.627,74.211 492.769,74.597 492.783,74.995 Z" id="Path" fill="#B16668"></path>
                <path d="M481.903,62 C481.9,62.349 481.788,62.69 481.581,62.981 C481.373,63.271 481.079,63.497 480.736,63.633 C480.392,63.768 480.014,63.805 479.648,63.741 C479.282,63.677 478.944,63.513 478.676,63.27 C478.408,63.027 478.222,62.716 478.141,62.375 C478.06,62.034 478.088,61.678 478.22,61.351 C478.352,61.025 478.584,60.742 478.886,60.538 C479.188,60.333 479.548,60.217 479.92,60.202 C480.176,60.197 480.431,60.24 480.67,60.328 C480.908,60.415 481.126,60.547 481.31,60.714 C481.495,60.881 481.642,61.081 481.744,61.301 C481.845,61.522 481.9,61.76 481.903,62 Z" id="Path" fill="#263238"></path>
                <path d="M496.537,62.818 C496.555,63.075 496.519,63.331 496.43,63.574 C496.341,63.817 496.201,64.041 496.019,64.232 C495.837,64.424 495.616,64.579 495.369,64.69 C495.122,64.801 494.854,64.864 494.581,64.8770331 C494.028,64.88 493.496,64.679 493.1,64.317 C492.704,63.955 492.476,63.461 492.466,62.942 C492.457,62.692 492.501,62.442 492.595,62.207 C492.69,61.972 492.832,61.757 493.015,61.574 C493.198,61.391 493.418,61.243 493.661,61.14 C493.905,61.036 494.168,60.979 494.436,60.971 C494.703,60.963 494.969,61.004 495.22,61.092 C495.47,61.181 495.699,61.315 495.894,61.486 C496.09,61.658 496.247,61.864 496.357,62.092 C496.468,62.321 496.529,62.568 496.537,62.818 Z" id="Path" fill="#263238"></path>
                <path d="M480.581,54.895 L476.549,57.114 C476.693,57.37 476.891,57.595 477.132,57.776 C477.373,57.956 477.651,58.089 477.948,58.164 C478.246,58.24 478.557,58.257 478.862,58.215 C479.167,58.173 479.46,58.073 479.722,57.92 C480.252,57.616 480.637,57.132 480.797,56.569 C480.957,56.006 480.879,55.406 480.581,54.895 Z" id="Path" fill="#263238"></path>
                <path d="M510.577,60.983 L510.577,68.423 C510.069,68.435 509.563,68.35 509.091,68.172 C508.619,67.994 508.191,67.727 507.833,67.387 C507.475,67.048 507.195,66.644 507.01,66.199 C506.824,65.755 506.738,65.279 506.757,64.802 C506.761,63.831 507.157,62.897 507.866,62.188 C508.575,61.48 509.544,61.049 510.577,60.983 Z" id="Path" fill="#263238"></path>
                <polygon id="Path" fill="#F28F8F" points="487.112 60.227 486.305 70.94 480.277 69.614"></polygon>
                <path d="M492.413,84.32 C496.842,83.836 505.99,81.456 507.484,77.959 C506.892,79.711 505.749,81.254 504.205,82.386 C501.442,84.618 492.4,86.924 492.4,86.924 L492.413,84.32 Z" id="Path" fill="#F28F8F"></path>
                <path d="M545.65,1.4632 C547.337,2.0672 548.918,2.903 550.343,3.9432 C551.723,4.8894 552.91,6.0614 553.846,7.4028 C554.737,8.6932 555.323,10.1477 555.565,11.6684 C555.803,13.2915 555.589,14.9448 554.944,16.4672 C554.482,17.686 553.768,18.8071 552.842,19.7656 C552.014,20.5828 551.066,21.2843 550.026,21.8488 C549.014,22.3912 547.952,22.8476 546.853,23.2128 L543.733,24.2668 C542.815,24.5778 541.93,24.968 541.089,25.4324 C540.296,25.8062 539.632,26.3821 539.172,27.094 C538.961,27.4264 538.66,27.7002 538.3,27.8876 C538.127,27.9767 537.935,28.0286 537.739,28.0393 C537.542,28.05 537.345,28.0194 537.163,27.9496 L533.038,26.4988 C532.842,26.4308 532.663,26.3267 532.511,26.1925 C532.358,26.0583 532.237,25.8968 532.152,25.7176 C532.061,25.5461 532.014,25.3573 532.014,25.1658 C532.014,24.9743 532.061,24.7855 532.152,24.614 C532.682,23.4209 533.465,22.341 534.453,21.4396 C535.348,20.6497 536.348,19.9705 537.427,19.4184 C538.469,18.8936 539.557,18.4539 540.679,18.104 C541.79,17.7568 542.821,17.422 543.786,17.0748 C544.658,16.7747 545.495,16.3924 546.284,15.934 C546.964,15.5302 547.484,14.9293 547.765,14.2228 C548.026,13.6039 548.121,12.9346 548.043,12.2732 C547.964,11.6119 547.715,10.9785 547.316,10.4284 C546.321,9.0735 544.875,8.0661 543.204,7.564 C541.749,7.021 540.151,6.9142 538.628,7.2584 C537.106,7.6026 535.735,8.3808 534.704,9.486 C534.44,9.7473 534.132,9.9653 533.792,10.1308 C533.425,10.2386 533.028,10.212 532.681,10.0564 L528.292,8.5064 C528.136,8.4555 527.992,8.3754 527.869,8.271 C527.746,8.1665 527.647,8.04 527.578,7.8988 C527.502,7.7541 527.463,7.595 527.463,7.4338 C527.463,7.2726 527.502,7.1135 527.578,6.9688 C528.16,5.7044 529.068,4.5963 530.222,3.7448 C531.507,2.7428 532.97,1.9619 534.545,1.4384 C536.275,0.8651 538.091,0.5553 539.926,0.5208 C541.881,0.4861 543.824,0.8061 545.65,1.4632 Z M536.237,31.0992 C536.43,31.1634 536.606,31.2651 536.754,31.3976 C536.902,31.5301 537.019,31.6903 537.097,31.868 C537.178,32.0441 537.22,32.234 537.22,32.426 C537.22,32.618 537.178,32.8079 537.097,32.984 L535.299,37.4604 C535.23,37.6413 535.122,37.8066 534.981,37.9455 C534.839,38.084 534.668,38.194 534.479,38.266 C534.291,38.343 534.089,38.382 533.884,38.382 C533.679,38.382 533.477,38.343 533.289,38.266 L528.623,36.6172 C528.43,36.553 528.253,36.4513 528.105,36.3188 C527.957,36.1863 527.841,36.026 527.763,35.8484 C527.682,35.6723 527.64,35.4824 527.64,35.2904 C527.64,35.0984 527.682,34.9085 527.763,34.7324 L529.561,30.256 C529.632,30.0747 529.741,29.9086 529.881,29.7679 C530.022,29.6273 530.192,29.5149 530.381,29.4376 C530.569,29.3639 530.771,29.326 530.976,29.326 C531.18,29.326 531.382,29.3639 531.571,29.4376 L536.237,31.0992 Z" id="Shape" fill="#FC68A2"></path>
                <path d="M547.937,54.907 C548.075,55.034 548.184,55.186 548.259,55.353 C548.334,55.52 548.372,55.699 548.372,55.881 C548.372,56.062 548.334,56.241 548.259,56.408 C548.184,56.576 548.075,56.727 547.937,56.854 L544.632,60.128 C544.499,60.26 544.34,60.365 544.162,60.438 C543.985,60.51 543.794,60.548 543.601,60.549 C543.407,60.556 543.214,60.526 543.032,60.462 C542.851,60.399 542.685,60.302 542.543,60.177 L539.172,57.139 C539.031,57.015 538.919,56.865 538.842,56.699 C538.764,56.533 538.724,56.353 538.723,56.172 C538.713,55.99 538.743,55.808 538.811,55.637 C538.879,55.467 538.984,55.311 539.119,55.18 L542.437,51.919 C542.714,51.664 543.087,51.521 543.475,51.521 C543.863,51.521 544.236,51.664 544.513,51.919 L547.937,54.907 Z M567.767,32.426 C568.996,33.5185 570.052,34.7713 570.9,36.146 C571.718,37.4486 572.286,38.875 572.579,40.362 C572.827,41.787 572.75,43.245 572.354,44.64 C571.932,45.96 571.222,47.183 570.268,48.231 C569.315,49.28 568.139,50.13 566.815,50.728 C565.781,51.157 564.685,51.441 563.563,51.572 C562.47,51.687 561.369,51.716 560.271,51.658 L557.151,51.497 C556.221,51.45 555.287,51.479 554.362,51.584 C553.533,51.67 552.745,51.97 552.088,52.452 C551.777,52.672 551.406,52.806 551.017,52.836 C550.832,52.856 550.644,52.836 550.467,52.778 C550.291,52.72 550.131,52.626 549.999,52.502 L546.998,49.823 C546.709,49.568 546.538,49.216 546.522,48.844 C546.503,48.66 546.532,48.476 546.606,48.305 C546.679,48.134 546.796,47.983 546.945,47.864 C547.867,47.005 548.964,46.33 550.171,45.88 C551.257,45.502 552.39,45.256 553.542,45.148 C554.655,45.062 555.774,45.062 556.887,45.148 C557.989,45.239 559.02,45.301 559.98,45.334 C560.864,45.376 561.751,45.33 562.624,45.198 C563.377,45.088 564.069,44.748 564.594,44.231 C565.058,43.781 565.398,43.232 565.587,42.632 C565.776,42.032 565.807,41.398 565.678,40.784 C565.349,39.262 564.489,37.8878 563.232,36.8776 C562.177,35.9089 560.828,35.2699 559.37,35.0479 C557.912,34.826 556.417,35.0319 555.089,35.6376 C554.763,35.7722 554.414,35.852 554.058,35.8732 C553.877,35.863 553.701,35.8182 553.539,35.7414 C553.378,35.6646 553.235,35.5575 553.119,35.4268 L549.92,32.5624 C549.69,32.367 549.548,32.0964 549.523,31.806 C549.515,31.6526 549.541,31.4993 549.601,31.3562 C549.66,31.213 549.751,31.0832 549.867,30.9752 C550.867,30.0832 552.083,29.4322 553.41,29.078 C554.918,28.6551 556.493,28.4831 558.063,28.5696 C559.793,28.6684 561.493,29.0285 563.1,29.636 C564.819,30.2716 566.387,31.2198 567.714,32.426 L567.767,32.426 Z" id="Shape" fill="#FC68A2"></path>
                <g id="Group" opacity="0.6" transform="translate(538.000000, 28.000000)" fill="#FFFFFF">
                    <path d="M9.937,26.907 C10.075,27.034 10.184,27.186 10.259,27.353 C10.334,27.52 10.372,27.699 10.372,27.881 C10.372,28.062 10.334,28.241 10.259,28.408 C10.184,28.576 10.075,28.727 9.937,28.854 L6.632,32.128 C6.499,32.26 6.34,32.365 6.162,32.438 C5.985,32.51 5.794,32.548 5.601,32.549 C5.407,32.556 5.214,32.526 5.032,32.462 C4.851,32.399 4.685,32.302 4.543,32.177 L1.172,29.139 C1.031,29.015 0.919,28.865 0.842,28.699 C0.764,28.533 0.724,28.353 0.723,28.172 C0.713,27.99 0.743,27.808 0.811,27.637 C0.879,27.467 0.984,27.311 1.119,27.18 L4.437,23.919 C4.714,23.664 5.087,23.521 5.475,23.521 C5.863,23.521 6.236,23.664 6.513,23.919 L9.937,26.907 Z M29.767,4.426 C30.996,5.5185 32.052,6.7713 32.9,8.146 C33.718,9.4486 34.286,10.875 34.579,12.362 C34.827,13.787 34.75,15.245 34.354,16.64 C33.932,17.96 33.222,19.183 32.268,20.231 C31.315,21.28 30.139,22.13 28.815,22.728 C27.781,23.157 26.685,23.441 25.563,23.572 C24.47,23.687 23.369,23.716 22.271,23.658 L19.151,23.497 C18.221,23.45 17.287,23.479 16.362,23.584 C15.533,23.67 14.745,23.97 14.088,24.452 C13.777,24.672 13.406,24.806 13.017,24.836 C12.832,24.856 12.644,24.836 12.467,24.778 C12.291,24.72 12.131,24.626 11.999,24.502 L8.998,21.823 C8.709,21.568 8.538,21.216 8.522,20.844 C8.503,20.66 8.532,20.476 8.606,20.305 C8.679,20.134 8.796,19.983 8.945,19.864 C9.867,19.005 10.964,18.33 12.171,17.88 C13.257,17.502 14.39,17.256 15.542,17.148 C16.655,17.062 17.774,17.062 18.887,17.148 C19.989,17.239 21.02,17.301 21.98,17.334 C22.864,17.376 23.751,17.33 24.624,17.198 C25.377,17.088 26.069,16.748 26.594,16.231 C27.058,15.781 27.398,15.232 27.587,14.632 C27.776,14.032 27.807,13.398 27.678,12.784 C27.349,11.262 26.489,9.8878 25.232,8.8776 C24.177,7.9089 22.828,7.2699 21.37,7.0479 C19.912,6.826 18.417,7.0319 17.089,7.6376 C16.763,7.7722 16.414,7.852 16.058,7.8732 C15.877,7.863 15.701,7.8182 15.539,7.7414 C15.378,7.6646 15.235,7.5575 15.119,7.4268 L11.92,4.5624 C11.69,4.367 11.548,4.0964 11.523,3.806 C11.515,3.6526 11.541,3.4993 11.601,3.3562 C11.66,3.213 11.751,3.0832 11.867,2.9752 C12.867,2.0832 14.083,1.4322 15.41,1.078 C16.918,0.6551 18.493,0.4831 20.063,0.5696 C21.793,0.6684 23.493,1.0285 25.1,1.636 C26.819,2.2716 28.387,3.2198 29.714,4.426 L29.767,4.426 Z" id="Shape"></path>
                </g>
                <path d="M77.543,366.68 C81.733,369.073 87.299,369.16 92.547,367.437 L96.513,341.397 L78.005,336.958 L77.543,366.68 Z" id="Path" fill="#FFA8A7"></path>
                <path d="M107.407,391.604 C107.87,392.051 107.592,395.324 107.024,396.056 C106.456,396.787 103.27,399.268 97.4,399.367 C91.808,399.454 86.824,398.499 83.704,396.378 C80.584,394.258 79.09,392.038 78.945,389.037 C78.799,386.037 79.328,383.197 77.953,380.829 C76.578,378.46 74.9259,376.476 74.5028,375.311 C74.0062,373.199 74.0062,371.011 74.5028,368.9 L107.407,391.604 Z" id="Path" fill="#263238"></path>
                <path d="M93.83,366.346 C93.856,367.476 94.025,368.6 94.332,369.694 C95.053,372.039 96.069,374.295 97.36,376.414 C98.001,377.521 98.721,378.585 99.514,379.601 C101.088,381.573 103.097,383.222 104.802,385.119 C106.613,386.917 107.701,389.249 107.883,391.716 C107.883,395.833 103.057,396.986 99.369,397.408 C95.361,397.866 91.294,397.472 87.471,396.254 C85.47,395.654 83.696,394.526 82.362,393.004 C81.028,391.482 80.19,389.631 79.949,387.674 C79.803,386.52 79.949,385.367 79.87,384.214 C79.54,381.568 78.513,379.041 76.882,376.861 C75.9332,375.599 75.1352,374.244 74.5022,372.818 C73.4975,370.227 74.5815,367.412 75.454,364.92 C76.208,362.774 76.776,360.183 77.622,360.431 C77.622,360.865 77.622,361.832 77.622,361.832 C77.86,362.316 78.442,362.663 78.587,363.233 C78.724,363.822 78.915,364.398 79.156,364.957 C79.516,365.82 80.153,366.557 80.98,367.065 C81.125,365.515 81.271,363.965 81.403,362.427 C81.365,362.183 81.388,361.934 81.468,361.699 C81.549,361.464 81.685,361.249 81.868,361.071 C82.05,360.893 82.273,360.756 82.52,360.671 C82.767,360.586 83.032,360.554 83.293,360.58 C86.395,360.048 89.564,359.96 92.693,360.319 C92.929,360.336 93.159,360.396 93.37,360.496 C93.58,360.596 93.768,360.734 93.922,360.902 C94.084,361.231 94.134,361.599 94.068,361.956 C93.904,363.414 93.825,364.879 93.83,366.346 Z" id="Path" fill="#FC68A2"></path>
                <path d="M93.83,366.346 C93.856,367.476 94.025,368.6 94.332,369.694 C95.053,372.039 96.069,374.295 97.36,376.414 C98.001,377.521 98.721,378.585 99.514,379.601 C101.088,381.573 103.097,383.222 104.802,385.119 C106.613,386.917 107.701,389.249 107.883,391.716 C107.883,395.833 103.057,396.986 99.369,397.408 C95.361,397.866 91.294,397.472 87.471,396.254 C85.47,395.654 83.696,394.526 82.362,393.004 C81.028,391.482 80.19,389.631 79.949,387.674 C79.803,386.52 79.949,385.367 79.87,384.214 C79.54,381.568 78.513,379.041 76.882,376.861 C75.9332,375.599 75.1352,374.244 74.5022,372.818 C73.4975,370.227 74.5815,367.412 75.454,364.92 C76.208,362.774 76.776,360.183 77.622,360.431 C77.622,360.865 77.622,361.832 77.622,361.832 C77.86,362.316 78.442,362.663 78.587,363.233 C78.724,363.822 78.915,364.398 79.156,364.957 C79.516,365.82 80.153,366.557 80.98,367.065 C81.125,365.515 81.271,363.965 81.403,362.427 C81.365,362.183 81.388,361.934 81.468,361.699 C81.549,361.464 81.685,361.249 81.868,361.071 C82.05,360.893 82.273,360.756 82.52,360.671 C82.767,360.586 83.032,360.554 83.293,360.58 C86.395,360.048 89.564,359.96 92.693,360.319 C92.929,360.336 93.159,360.396 93.37,360.496 C93.58,360.596 93.768,360.734 93.922,360.902 C94.084,361.231 94.134,361.599 94.068,361.956 C93.904,363.414 93.825,364.879 93.83,366.346 Z" id="Path" fill="#000000" opacity="0.2"></path>
                <path d="M97.902,377.307 C96.342,376.067 92.693,375.881 90.683,375.98 C88.648,376.044 86.662,376.586 84.906,377.555 C84.647,377.703 84.341,377.763 84.04,377.725 C83.739,377.687 83.462,377.552 83.254,377.344 C83.132,377.223 83.039,377.079 82.983,376.921 C82.927,376.763 82.908,376.596 82.928,376.43 C82.948,376.265 83.007,376.105 83.1,375.963 C83.193,375.821 83.317,375.7 83.465,375.608 C85.408,374.421 87.665,373.764 89.983,373.711 C94.98,373.637 96.302,374.48 96.302,374.48 C96.302,374.48 98.47,375.968 97.902,377.307 Z" id="Path" fill="#455A64"></path>
                <path d="M101.405,381.697 C99.422,380.457 95.403,380.457 93.394,380.519 C91.395,380.607 89.457,381.189 87.775,382.205 C87.514,382.357 87.206,382.419 86.902,382.38 C86.598,382.342 86.318,382.205 86.109,381.994 C85.986,381.874 85.892,381.729 85.836,381.57 C85.779,381.411 85.761,381.243 85.782,381.076 C85.804,380.91 85.865,380.751 85.96,380.609 C86.055,380.468 86.183,380.348 86.334,380.258 C88.288,379.004 90.579,378.291 92.944,378.2 C97.875,378.113 99.105,379.13 99.105,379.13 C99.671,379.365 100.174,379.718 100.572,380.163 C100.971,380.608 101.256,381.133 101.405,381.697 Z" id="Path" fill="#455A64"></path>
                <path d="M88.277,369.21 C90.365,368.975 92.482,369.249 94.425,370.004 C95.258,370.512 95.747,371.814 95.178,372.112 C93.464,371.365 91.579,371.029 89.692,371.132 C87.844,371.209 86.025,371.582 84.311,372.236 C83.875,372.384 83.373,372.608 82.989,372.806 C82.848,372.874 82.693,372.914 82.535,372.923 C82.377,372.932 82.218,372.91 82.069,372.859 C81.92,372.808 81.784,372.728 81.669,372.625 C81.555,372.522 81.464,372.398 81.403,372.26 C81.32,372.031 81.325,371.782 81.417,371.556 C81.508,371.329 81.681,371.14 81.905,371.02 C83.868,369.998 86.04,369.381 88.277,369.21 Z" id="Path" fill="#455A64"></path>
                <path d="M129.709,356.897 C132.935,364.473 137.985,362.142 145.679,357.777 L146.842,331.911 L127.263,330.212 L129.709,356.897 Z" id="Path" fill="#FFA8A7"></path>
                <path d="M175.212,375.137 C175.569,376.355 175.418,377.654 174.789,378.77 C174.181,379.812 168.06,382.664 160.062,381.746 C154.132,381.062 148.507,378.895 143.775,375.472 C140.827,373.414 137.667,372.905 133.701,372.484 C129.735,372.062 126.761,370.772 125.981,368.987 C125.201,367.201 126.391,364.25 126.391,364.25 L175.212,375.137 Z" id="Path" fill="#263238"></path>
                <path d="M144.066,351.292 C144.789,351.149 145.5,350.958 146.194,350.722 C146.582,350.587 147.009,350.587 147.397,350.722 C147.9,350.932 148.058,351.503 148.177,351.962 C148.29,353.084 148.52,354.193 148.865,355.272 C149.406,356.168 150.124,356.96 150.98,357.604 C152.885,359.203 154.963,360.612 157.18,361.807 C159.732,363.27 162.243,364.424 164.874,365.701 C167.505,366.978 171.193,367.896 173.282,369.421 C176.309,371.578 176.428,376.6 172.727,378.386 C169.541,379.936 161.292,381.374 152.897,378.671 C148.31,377.196 143.418,372.273 137.337,371.516 C133.463,371.045 128.308,370.475 125.968,367.586 C125.122,366.346 125.862,362.75 126.549,358.546 C127.171,354.826 127.739,348.874 129.022,349.271 L129.114,350.412 L130.674,352.16 C131.016,352.501 131.378,352.824 131.758,353.127 C132.176,353.585 132.617,354.024 133.08,354.442 C133.709,354.947 134.49,355.254 135.314,355.322 C135.705,355.345 136.095,355.263 136.438,355.086 C137.099,354.739 137.191,353.921 137.76,353.412 C138.375,352.819 139.113,352.351 139.928,352.036 C141.061,351.658 142.245,351.432 143.445,351.366 C143.653,351.354 143.861,351.329 144.066,351.292 Z" id="Path" fill="#FC68A2"></path>
                <path d="M144.066,351.292 C144.789,351.149 145.5,350.958 146.194,350.722 C146.582,350.587 147.009,350.587 147.397,350.722 C147.9,350.932 148.058,351.503 148.177,351.962 C148.29,353.084 148.52,354.193 148.865,355.272 C149.406,356.168 150.124,356.96 150.98,357.604 C152.885,359.203 154.963,360.612 157.18,361.807 C159.732,363.27 162.243,364.424 164.874,365.701 C167.505,366.978 171.193,367.896 173.282,369.421 C176.309,371.578 176.428,376.6 172.727,378.386 C169.541,379.936 161.292,381.374 152.897,378.671 C148.31,377.196 143.418,372.273 137.337,371.516 C133.463,371.045 128.308,370.475 125.968,367.586 C125.122,366.346 125.862,362.75 126.549,358.546 C127.171,354.826 127.739,348.874 129.022,349.271 L129.114,350.412 L130.674,352.16 C131.016,352.501 131.378,352.824 131.758,353.127 C132.176,353.585 132.617,354.024 133.08,354.442 C133.709,354.947 134.49,355.254 135.314,355.322 C135.705,355.345 136.095,355.263 136.438,355.086 C137.099,354.739 137.191,353.921 137.76,353.412 C138.375,352.819 139.113,352.351 139.928,352.036 C141.061,351.658 142.245,351.432 143.445,351.366 C143.653,351.354 143.861,351.329 144.066,351.292 Z" id="Path" fill="#000000" opacity="0.2"></path>
                <path d="M153.677,359.6 C153.422,359.085 153.036,358.637 152.551,358.298 C152.066,357.958 151.499,357.736 150.901,357.653 C149.156,357.256 145.97,358.323 143.947,359.724 C143.755,359.855 143.6,360.028 143.496,360.228 C143.391,360.428 143.341,360.649 143.349,360.872 C143.357,361.095 143.422,361.312 143.54,361.505 C143.659,361.699 143.825,361.862 144.026,361.981 C144.281,362.125 144.576,362.194 144.873,362.178 C145.17,362.163 145.456,362.064 145.692,361.894 C147.929,360.174 150.797,359.35 153.677,359.6 Z" id="Path" fill="#455A64"></path>
                <path d="M158.978,362.787 C158.622,362.259 158.135,361.819 157.56,361.504 C156.985,361.189 156.338,361.008 155.673,360.976 C152.946,360.951 150.28,361.737 148.058,363.221 C147.87,363.343 147.716,363.506 147.61,363.696 C147.504,363.886 147.448,364.097 147.448,364.312 C147.448,364.526 147.504,364.738 147.61,364.928 C147.716,365.118 147.87,365.281 148.058,365.403 C148.306,365.543 148.593,365.609 148.881,365.591 C149.17,365.573 149.445,365.473 149.671,365.304 C150.92,364.254 152.406,363.482 154.017,363.046 C155.629,362.61 157.325,362.522 158.978,362.787 Z" id="Path" fill="#455A64"></path>
                <path d="M164.874,365.688 C164.462,365.196 163.942,364.792 163.349,364.506 C162.756,364.219 162.104,364.056 161.437,364.027 C158.805,364.047 156.247,364.845 154.126,366.308 C153.942,366.436 153.794,366.604 153.695,366.798 C153.596,366.991 153.548,367.204 153.556,367.419 C153.563,367.634 153.627,367.843 153.74,368.03 C153.853,368.217 154.013,368.375 154.206,368.491 C154.446,368.643 154.732,368.716 155.021,368.701 C155.31,368.685 155.586,368.581 155.805,368.404 C156.985,367.318 158.421,366.507 159.996,366.035 C161.571,365.563 163.241,365.445 164.874,365.688 Z" id="Path" fill="#455A64"></path>
                <path d="M77.027,296.868 C77.622,284.382 80.451,277.884 80.848,274.424 C80.848,274.424 81.932,205.728 83.716,184.884 L149.288,182.268 C150.253,204.588 151.125,264.554 150.61,272.49 C150.12,280.091 146.829,346.022 146.829,346.022 C137.575,348.738 127.699,344.782 127.699,344.782 C127.699,344.782 122.2,307.272 121.301,299.001 C120.663,291.562 120.867,284.08 121.909,276.681 L117.718,223.274 C117.718,223.274 112.655,264.69 110.156,280.314 C107.301,298.183 94.98,353.574 94.98,353.574 C86.122,355.644 77.503,352.061 77.503,352.061 C77.503,352.061 76.155,314.96 77.027,296.868 Z" id="Path" fill="#455A64"></path>
                <path d="M117.732,223.324 L118.974,215.958 C122.795,215.425 132.472,209.758 138.196,204.798 C134.118,210.586 128.601,215.356 122.121,218.699 L121.922,276.706 L117.732,223.324 Z" id="Path" fill="#37474F"></path>
                <path d="M144.621,146.084 C140.166,136.549 132.498,120.491 132.498,120.491 L130.555,94.451 C133.392,94.536 136.221,94.772 139.029,95.158 C143.154,95.765 149.697,99.46 152.685,106.429 C154.919,111.6 166.527,143.146 166.527,143.146 L186.753,133.151 C191.935,130.064 193.773,124.942 197.078,121.991 C200.383,119.04 203.688,118.594 207.35,116.225 C211.012,113.857 212.453,111.96 213.378,114.328 C214.304,116.696 210.205,120.33 209.412,121.235 C208.619,122.14 204.64,124.074 209.716,124.322 C214.793,124.57 225.065,119.933 227.524,119.139 C229.983,118.346 229.771,121.086 228.489,122.785 C227.206,124.484 227.074,129.468 224.933,132.258 C222.659,135.234 221.429,136.512 216.551,138.285 C212.017,139.922 202.617,140.343 197.779,142.96 C192.94,145.576 181.227,155.508 173.414,160.605 C162.931,167.45 157.035,167.896 152.923,162.44 C148.812,156.984 146.194,149.445 144.621,146.084 Z" id="Path" fill="#FFA8A7"></path>
                <path d="M127.818,93.893 C134.693,93.397 142.797,93.794 147.278,97.613 C150.861,100.676 152.209,102.573 156.202,113.162 C158.846,120.268 164.504,136.636 164.504,136.636 C156.735,138.28 149.764,142.286 144.674,148.031 L131.784,120.863 L127.818,93.893 Z" id="Path" fill="#E0E0E0"></path>
                <path d="M166.527,143.084 C163.043,144.241 160.045,146.413 157.973,149.284 C157.973,149.284 158.462,144.324 165.905,141.36 L166.527,143.084 Z" id="Path" fill="#F28F8F"></path>
                <path d="M111.36,92.727 C108.103,92.601 104.846,92.936 101.696,93.719 C95.654,95.22 84.827,98.072 84.827,98.072 C81.39,99.746 80.055,105.326 79.275,108.537 C76.789,118.817 83.241,142.017 84.232,151.057 C85.224,160.096 83.082,187.786 83.082,187.786 C90.472,195.821 130.515,201.153 150.015,187.786 C150.015,187.786 150.861,124.211 148.944,115.084 C146.036,101.271 141.713,94.711 126.47,93.88 L111.36,92.727 Z" id="Path" fill="#F5F5F5"></path>
                <path d="M119.913,58.627 L115.563,60.872 C115.263,60.31 115.2,59.662 115.389,59.059 C115.578,58.456 116.004,57.942 116.581,57.623 C116.869,57.476 117.185,57.386 117.511,57.358 C117.836,57.329 118.165,57.363 118.476,57.457 C118.788,57.551 119.075,57.703 119.322,57.904 C119.569,58.105 119.77,58.351 119.913,58.627 Z" id="Path" fill="#263238"></path>
                <path d="M138.831,60.264 L134.865,57.4 C135.051,57.148 135.29,56.935 135.567,56.772 C135.844,56.61 136.153,56.503 136.476,56.456 C136.799,56.41 137.129,56.426 137.445,56.503 C137.761,56.579 138.057,56.716 138.315,56.904 C138.84,57.297 139.186,57.864 139.282,58.488 C139.378,59.112 139.216,59.747 138.831,60.264 Z" id="Path" fill="#263238"></path>
                <path d="M99.924,45.644 C99.924,45.644 95.244,46.252 93.526,49.6 C92.045,52.477 92.574,59.421 94.57,66.96 C95.698,71.852 97.382,76.616 99.594,81.17 C100.375,82.461 101.651,83.423 103.163,83.861 L102.912,74.859 L102.568,68.659 C102.568,68.659 106.838,63.178 107.314,58.739 C107.922,52.96 106.627,50.592 106.627,50.592 L99.924,45.644 Z" id="Path" fill="#263238"></path>
                <path d="M107.472921,54.324 C107.49,58.768 109.386,63.023 112.744,66.156 C116.103,69.29 120.649,71.046 125.386,71.0400153 C135.248,71.0400153 142.651,63.414 142.572,54.151 C142.493,44.888 135.089,37.4728 125.214,37.5098606 C120.488,37.5428 115.967,39.33 112.642,42.482 C109.317,45.633 107.459,49.891 107.472921,54.324 Z" id="Path" fill="#263238"></path>
                <path d="M102.912,67.605 C101.299,68.919 99.99,65.534 98.642,64.207 C97.293,62.88 92.865,61.095 90.71,65.447 C88.555,69.8 92.64,76.111 95.998,77.326 C97.012,77.686 98.125,77.716 99.159,77.41 C100.192,77.104 101.086,76.481 101.696,75.64 L101.696,95.48 C106.785,104.086 115.762,103.813 120.561,103.329 C125.359,102.846 126.404,98.171 122.901,94.401 L122.901,88.201 C125.567,88.594 128.271,88.714 130.965,88.561 C135.354,87.916 137.575,84.841 138.897,80.34 C141.012,73.16 141.871,61.107 138.897,47.182 C133.979,43.611 116.925,44.206 106.6,50.344 C107.407,62.831 104.445,66.303 102.912,67.605 Z" id="Path" fill="#FFA8A7"></path>
                <path d="M139.769,40.288 C140.433,37.7027 140.731,35.0468 140.655,32.3888 C140.655,31.3472 140.377,30.0824 139.333,29.6856 C138.289,29.2888 137.257,30.008 136.359,30.5784 C132.551,32.984 127.818,33.666 123.231,33.9016 C115.299,34.3108 103.176,33.8272 99.144,41.974 C98.02,44.231 97.822,46.612 100.043,48.174 C102.023,49.418 104.288,50.208 106.653,50.48 C110.619,51.138 114.585,51.956 118.657,52.464 C122.729,52.973 127.567,53.469 131.599,52.303 C134.997,51.324 138.447,50.48 140.972,47.951 C143.161,45.745 144.396,42.854 144.436,39.841 C144.436,39.42 144.343,38.886 143.894,38.775 C143.669,38.748 143.442,38.792 143.246,38.899 L139.769,40.288 Z" id="Path" fill="#263238"></path>
                <path d="M122.861,88.338 C122.861,88.338 113.052,86.515 109.641,84.816 C107.621,83.834 105.962,82.305 104.882,80.426 C105.384,82.303 106.283,84.065 107.526,85.61 C110.051,88.61 122.834,90.78 122.834,90.78 L122.861,88.338 Z" id="Path" fill="#F28F8F"></path>
                <path d="M120.891,64.716 C120.878,65.122 120.738,65.516 120.487,65.849 C120.237,66.181 119.888,66.437 119.483,66.584 C119.079,66.731 118.637,66.764 118.214,66.677 C117.79,66.59 117.403,66.388 117.1,66.096 C116.798,65.804 116.594,65.435 116.515,65.035 C116.435,64.635 116.482,64.222 116.651,63.848 C116.82,63.473 117.103,63.153 117.464,62.928 C117.826,62.703 118.25,62.583 118.683,62.583 C119.277,62.593 119.843,62.822 120.256,63.222 C120.67,63.622 120.898,64.159 120.891,64.716 Z" id="Path" fill="#263238"></path>
                <path d="M124.064,79.038 C124.075,79.562 123.864,80.068 123.477,80.447 C123.091,80.826 122.56,81.046 122.002,81.059 C121.439,81.049 120.904,80.831 120.513,80.452 C120.121,80.074 119.906,79.565 119.913,79.038 C119.908,78.779 119.957,78.521 120.058,78.28 C120.158,78.039 120.309,77.819 120.5,77.632 C120.692,77.446 120.921,77.297 121.174,77.193 C121.427,77.089 121.699,77.034 121.975,77.029 C122.535,77.039 123.068,77.255 123.459,77.631 C123.85,78.007 124.068,78.512 124.064,79.038 Z" id="Path" fill="#B16668"></path>
                <path d="M118.115,58.206 L113.567,60.896 C113.192,60.311 113.073,59.612 113.236,58.946 C113.399,58.28 113.83,57.699 114.44,57.325 C114.741,57.152 115.077,57.037 115.427,56.987 C115.776,56.938 116.133,56.955 116.476,57.037 C116.818,57.119 117.14,57.265 117.422,57.465 C117.703,57.666 117.939,57.918 118.115,58.206 Z" id="Path" fill="#263238"></path>
                <path d="M134.164,55.577 L138.95,57.586 C138.821,57.88 138.629,58.147 138.387,58.371 C138.145,58.594 137.857,58.769 137.54,58.885 C137.224,59.001 136.886,59.055 136.546,59.045 C136.207,59.035 135.873,58.96 135.565,58.826 C134.941,58.547 134.45,58.059 134.19,57.457 C133.931,56.855 133.922,56.185 134.164,55.577 Z" id="Path" fill="#263238"></path>
                <path d="M136.689,64.096 C136.674,64.486 136.536,64.864 136.293,65.182 C136.051,65.501 135.714,65.745 135.325,65.885 C134.935,66.025 134.511,66.055 134.104,65.971 C133.697,65.886 133.325,65.692 133.034,65.411 C132.744,65.13 132.548,64.776 132.471,64.392 C132.393,64.007 132.438,63.61 132.599,63.25 C132.76,62.889 133.031,62.58 133.377,62.363 C133.724,62.145 134.13,62.027 134.547,62.025 C135.124,62.035 135.672,62.258 136.074,62.646 C136.475,63.034 136.696,63.555 136.689,64.096 Z" id="Path" fill="#263238"></path>
                <polygon id="Path" fill="#F28F8F" points="125.875 60.599 126.668 74.388 133.635 72.652"></polygon>
                <path d="M2.4399,117.391 C4.727,118.544 14.0471,124.694 19.1103,125.228 C21.252,125.451 21.8337,125.128 21.7543,124.608 C21.6486,123.888 20.2869,122.81 19.9564,122.227 C19.388,121.21 15.9904,116.994 17.3124,114.787 C18.6344,112.58 19.7846,114.688 22.9309,117.577 C26.0773,120.466 29.303,121.47 32.0659,124.831 C34.8289,128.191 35.7543,133.511 40.3284,137.367 L58.5456,149.036 C58.5456,149.036 67.0328,112.096 70.7609,107.744 C74.7269,103.168 91.741,113.138 88.172,127.683 C84.602,142.228 76.472,167.474 70.8138,172.422 C67.165,175.634 59.4842,172.608 49.8997,164.61 C42.3247,158.286 31.947,148.8 27.5579,145.44 C23.1689,142.079 14.0471,140.269 9.8563,138 C5.3483,135.52 4.3568,134.069 2.625,130.783 C0.9989,127.695 1.726,122.748 0.761,120.863 C-0.2041,118.978 0.1132,116.238 2.4399,117.391 Z" id="Path" fill="#FFA8A7"></path>
                <path d="M84.827,98.072 C90.67,101.494 90.961,106.479 91.252,112.183 C91.335,118.86 90.208,125.501 87.92,131.824 C85.448,139.004 81.522,152.111 81.522,152.111 C81.522,152.111 66.2661,152.446 58.4135,146.084 C58.4135,146.084 61.9961,131.948 64.5211,121.284 C67.0461,110.62 70.1131,99.274 84.827,98.072 Z" id="Path" fill="#E0E0E0"></path>
                <path d="M58.4795,149.06 C62.6438,151.23 65.0895,155.893 65.843,157.74 C65.6627,155.589 64.9408,153.509 63.7366,151.67 C62.5323,149.831 60.8801,148.287 58.9158,147.163 L58.4795,149.06 Z" id="Path" fill="#F28F8F"></path>
                <polygon id="Path" fill="#FC68A2" points="216.749 417.062 318.781 472.316 318.781 492.677 216.749 437.422"></polygon>
                <polygon id="Path" fill="#000000" opacity="0.35" points="216.749 417.062 318.781 472.316 318.781 492.677 216.749 437.422"></polygon>
                <polygon id="Path" fill="#FC68A2" points="420.813 417.062 318.781 472.316 318.781 492.677 420.813 437.422"></polygon>
                <polygon id="Path" fill="#000000" opacity="0.2" points="420.813 417.062 318.781 472.316 318.781 492.677 420.813 437.422"></polygon>
                <polygon id="Path" fill="#FC68A2" points="420.813 417.062 318.781 361.82 216.749 417.062 318.781 472.316"></polygon>
                <polygon id="Path" fill="#000000" opacity="0.15" points="420.813 417.062 318.781 361.82 216.749 417.062 318.781 472.316"></polygon>
                <polygon id="Path" fill="#000000" opacity="0.1" points="318.781 472.316 318.781 466.5 227.484 417.062 216.749 417.062"></polygon>
                <polygon id="Path" fill="#000000" opacity="0.1" points="318.781 361.82 318.781 367.635 410.079 417.062 420.813 417.062"></polygon>
                <polygon id="Path" fill="#FC68A2" points="420.813 417.062 410.079 417.062 318.781 466.5 318.781 472.316"></polygon>
                <polygon id="Path" fill="#FC68A2" points="318.781 361.82 318.781 367.635 227.484 417.062 216.749 417.062"></polygon>
                <path d="M319.151,393.08 L362.989,416.814 C366.268,418.599 366.268,421.476 362.989,423.249 L330.296,441.006 C328.454,441.889 326.415,442.349 324.347,442.349 C322.279,442.349 320.24,441.889 318.398,441.006 L274.56,417.272 C271.282,415.487 271.282,412.61 274.56,410.837 L307.267,393.08 C309.107,392.199 311.143,391.74 313.209,391.74 C315.275,391.74 317.311,392.199 319.151,393.08 Z" id="Path" fill="#37474F"></path>
                <path d="M330.296,441.006 L361.905,423.882 L319.151,400.731 C317.306,399.859 315.269,399.404 313.202,399.404 C311.136,399.404 309.099,399.859 307.253,400.731 L275.644,417.88 L318.398,441.006 C320.24,441.889 322.278,442.349 324.347,442.349 C326.415,442.349 328.454,441.889 330.296,441.006 Z" id="Path" fill="#455A64"></path>
                <path d="M292.672,417.099 L311.854,406.72 C312.211,406.552 312.605,406.464 313.004,406.464 C313.403,406.464 313.797,406.552 314.154,406.72 L316.507,407.96 C317.142,408.295 317.142,408.853 316.507,409.2 L297.325,419.579 C296.971,419.747 296.579,419.834 296.182,419.834 C295.784,419.834 295.393,419.747 295.038,419.579 L292.685,418.339 C292.548,418.295 292.428,418.212 292.343,418.102 C292.258,417.992 292.211,417.859 292.209983,417.723 C292.209,417.587 292.252,417.454 292.335,417.342 C292.418,417.23 292.535,417.145 292.672,417.099 Z" id="Path" fill="#263238"></path>
                <path d="M321.319,432.636 L340.502,422.257 C340.856,422.089 341.248,422.002 341.645,422.002 C342.042,422.002 342.434,422.089 342.789,422.257 L345.155,423.497 C345.79,423.832 345.79,424.39 345.155,424.737 L325.973,435.116 C325.618,435.284 325.227,435.371 324.829,435.371 C324.432,435.371 324.04,435.284 323.686,435.116 L321.333,433.876 C321.195,433.832 321.076,433.749 320.991,433.639 C320.906,433.529 320.859,433.396 320.857935,433.26 C320.856,433.124 320.9,432.991 320.983,432.879 C321.065,432.767 321.183,432.682 321.319,432.636 Z" id="Path" fill="#263238"></path>
                <path d="M274.455,457.275 C274.347,455.393 273.766,453.561 272.76,451.93 C271.753,450.299 270.35,448.914 268.664,447.888 C268.081,447.489 267.395,447.243 266.676,447.178 C265.957,447.113 265.233,447.229 264.579,447.516 L262.081,448.88 C261.492,449.269 261.026,449.798 260.728,450.413 C260.431,451.027 260.313,451.705 260.389,452.377 C260.498,454.259 261.078,456.09 262.082,457.723 C263.085,459.356 264.484,460.744 266.166,461.776 C266.751,462.175 267.44,462.42 268.161,462.486 C268.881,462.551 269.607,462.434 270.264,462.148 L272.749,460.747 C273.334,460.36 273.799,459.835 274.098,459.225 C274.398,458.616 274.521,457.943 274.455,457.275 Z" id="Path" fill="#FC68A2"></path>
                <path d="M266.166,449.289 C267.851,450.315 269.255,451.7 270.261,453.331 C271.267,454.963 271.848,456.794 271.956,458.676 C271.956,462.136 269.312,463.537 266.166,461.813 C264.484,460.781 263.085,459.393 262.082,457.76 C261.078,456.127 260.498,454.296 260.388,452.414 C260.388,448.967 262.98,447.565 266.166,449.289 Z" id="Path" fill="#000000" opacity="0.1"></path>
                <path d="M199.101,488.895 C192.65,489.001 186.278,487.553 180.593,484.691 L112.906,448.037 C107.473,445.086 104.472,441.018 104.472,436.579 C104.472,432.14 107.473,428.085 112.906,425.134 L191.327,382.664 C199.92,378.014 207.191,366.222 207.191,356.909 L207.191,124.124 C207.191,123.466 207.47,122.836 207.966,122.37 C208.462,121.905 209.134,121.644 209.835,121.644 C210.537,121.644 211.209,121.905 211.705,122.37 C212.201,122.836 212.479,123.466 212.479,124.124 L212.479,356.909 C212.479,368.144 204.362,381.35 193.971,386.967 L115.55,429.437 C111.822,431.458 109.76,433.988 109.76,436.579 C109.76,439.171 111.822,441.713 115.55,443.734 L183.237,480.389 C191.975,485.125 206.2,485.125 214.965,480.389 L264.87,453.381 C265.171,453.202 265.508,453.081 265.859,453.027 C266.211,452.973 266.571,452.986 266.918,453.065 C267.264,453.145 267.59,453.289 267.875,453.49 C268.16,453.691 268.399,453.944 268.578,454.233 C268.756,454.523 268.87,454.843 268.913,455.175 C268.956,455.507 268.927,455.844 268.828,456.165 C268.729,456.486 268.561,456.785 268.335,457.044 C268.109,457.303 267.83,457.517 267.514,457.672 L217.609,484.691 C211.925,487.556 205.552,489.003 199.101,488.895 Z" id="Path" fill="#37474F"></path>
                <path d="M80.332,35.1044 C80.293,34.9363 80.292,34.7624 80.328,34.5937 C80.364,34.4251 80.438,34.2654 80.544,34.1248 C80.643,33.9778 80.775,33.8521 80.93,33.756 C81.085,33.6598 81.259,33.5954 81.443,33.5668 L87.868,32.4012 C88.049,32.3627 88.237,32.3605 88.419,32.3947 C88.601,32.4288 88.774,32.4987 88.925,32.5996 C89.232,32.7979 89.446,33.1001 89.52,33.4428 L90.512,38.279 C90.549,38.448 90.548,38.622 90.509,38.791 C90.471,38.96 90.395,39.119 90.287,39.258 C90.19,39.406 90.061,39.534 89.909,39.632 C89.756,39.73 89.583,39.797 89.401,39.829 L82.963,40.982 C82.784,41.019 82.598,41.02 82.419,40.986 C82.239,40.952 82.068,40.883 81.919,40.784 C81.762,40.69 81.628,40.567 81.525,40.421 C81.423,40.276 81.354,40.112 81.324,39.94 L80.332,35.1044 Z M74.9649,8.99 C74.9284,8.8198 74.9282,8.6445 74.9644,8.4742 C75.0006,8.3039 75.0723,8.142 75.1756,7.9979 C75.2788,7.8538 75.4115,7.7303 75.566,7.6345 C75.7204,7.5388 75.8935,7.4727 76.075,7.44 L82.513,6.2744 C82.694,6.2395 82.88,6.2402 83.059,6.2765 C83.239,6.3128 83.409,6.3839 83.558,6.4852 C83.713,6.5773 83.846,6.6988 83.949,6.8418 C84.051,6.9849 84.121,7.1464 84.153,7.316 L88.37,27.9868 C88.407,28.1558 88.406,28.3302 88.368,28.4989 C88.329,28.6675 88.253,28.8268 88.145,28.9664 C88.047,29.1121 87.918,29.2369 87.765,29.333 C87.612,29.429 87.44,29.4942 87.259,29.5244 L80.821,30.69 C80.641,30.725 80.455,30.7243 80.275,30.688 C80.096,30.6517 79.926,30.5806 79.777,30.4792 C79.622,30.3871 79.489,30.2657 79.386,30.1226 C79.284,29.9796 79.214,29.8181 79.182,29.6484 L74.9649,8.99 Z" id="Shape" fill="#FC68A2"></path>
                <path d="M69.5975,55.341 C69.4739,55.213 69.3785,55.063 69.3169,54.9 C69.2553,54.736 69.2287,54.563 69.2385,54.391 C69.2483,54.218 69.2944,54.049 69.3742,53.892 C69.4539,53.736 69.5658,53.597 69.7032,53.481 L74.5814,49.377 C74.7176,49.259 74.8786,49.17 75.0539,49.114 C75.2293,49.059 75.4151,49.038 75.5994,49.054 C75.7826,49.058 75.963,49.097 76.129,49.17 C76.295,49.243 76.444,49.347 76.564,49.476 L80.068,53.196 C80.191,53.325 80.287,53.475 80.348,53.638 C80.41,53.801 80.437,53.974 80.427,54.147 C80.417,54.319 80.371,54.489 80.291,54.645 C80.211,54.801 80.099,54.941 79.962,55.056 L75.1499,59.111 C75.0137,59.228 74.8528,59.318 74.6774,59.373 C74.5021,59.429 74.3162,59.449 74.132,59.433 C73.9487,59.43 73.7683,59.39 73.6022,59.318 C73.436,59.245 73.2878,59.141 73.1669,59.012 L69.5975,55.341 Z M50.6797,35.5012 C50.4309,35.2397 50.3026,34.8964 50.3227,34.5464 C50.3283,34.3736 50.3724,34.2038 50.4521,34.0479 C50.5317,33.8921 50.6453,33.7535 50.7854,33.6412 L55.6636,29.5368 C55.7987,29.417 55.9591,29.3253 56.1345,29.2676 C56.3099,29.2099 56.4963,29.1876 56.6816,29.202 C56.8658,29.2073 57.0468,29.2486 57.213,29.3233 C57.3792,29.3981 57.5269,29.5046 57.6466,29.636 L72.6117,45.334 C72.737,45.462 72.8324,45.613 72.8916,45.778 C72.9508,45.942 72.9725,46.116 72.9554,46.289 C72.9514,46.461 72.9094,46.63 72.8321,46.786 C72.7547,46.942 72.6436,47.081 72.5059,47.194 L67.6145,51.299 C67.4799,51.415 67.3211,51.503 67.1482,51.559 C66.9752,51.614 66.7919,51.636 66.6098,51.621 C66.4243,51.619 66.2413,51.581 66.0728,51.508 C65.9043,51.435 65.7539,51.33 65.6315,51.2 L50.6797,35.5012 Z" id="Shape" fill="#FC68A2"></path>
                <g id="Group" opacity="0.6" transform="translate(50.000000, 29.000000)" fill="#FFFFFF">
                    <path d="M19.5975,26.341 C19.4739,26.213 19.3785,26.063 19.3169,25.9 C19.2553,25.736 19.2287,25.563 19.2385,25.391 C19.2483,25.218 19.2944,25.049 19.3742,24.892 C19.4539,24.736 19.5658,24.597 19.7032,24.481 L24.5814,20.377 C24.7176,20.259 24.8786,20.17 25.0539,20.114 C25.2293,20.059 25.4151,20.038 25.5994,20.054 C25.7826,20.058 25.963,20.097 26.129,20.17 C26.295,20.243 26.444,20.347 26.564,20.476 L30.068,24.196 C30.191,24.325 30.287,24.475 30.348,24.638 C30.41,24.801 30.437,24.974 30.427,25.147 C30.417,25.319 30.371,25.489 30.291,25.645 C30.211,25.801 30.099,25.941 29.962,26.056 L25.1499,30.111 C25.0137,30.228 24.8528,30.318 24.6774,30.373 C24.5021,30.429 24.3162,30.449 24.132,30.433 C23.9487,30.43 23.7683,30.39 23.6022,30.318 C23.436,30.245 23.2878,30.141 23.1669,30.012 L19.5975,26.341 Z M0.6797,6.5012 C0.4309,6.2397 0.3026,5.8964 0.3227,5.5464 C0.3283,5.3736 0.3724,5.2038 0.4521,5.0479 C0.5317,4.8921 0.6453,4.7535 0.7854,4.6412 L5.6636,0.5368 C5.7987,0.417 5.9591,0.3253 6.1345,0.2676 C6.3099,0.2099 6.4963,0.1876 6.6816,0.202 C6.8658,0.2073 7.0468,0.2486 7.213,0.3233 C7.3792,0.3981 7.5269,0.5046 7.6466,0.636 L22.6117,16.334 C22.737,16.462 22.8324,16.613 22.8916,16.778 C22.9508,16.942 22.9725,17.116 22.9554,17.289 C22.9514,17.461 22.9094,17.63 22.8321,17.786 C22.7547,17.942 22.6436,18.081 22.5059,18.194 L17.6145,22.299 C17.4799,22.415 17.3211,22.503 17.1482,22.559 C16.9752,22.614 16.7919,22.636 16.6098,22.621 C16.4243,22.619 16.2413,22.581 16.0728,22.508 C15.9043,22.435 15.7539,22.33 15.6315,22.2 L0.6797,6.5012 Z" id="Shape"></path>
                </g>
            </g>
        </g>
    </g>
</svg>