<?xml version="1.0" encoding="UTF-8"?>
<svg width="182px" height="182px" viewBox="0 0 182 182" version="1.1" xmlns="http://www.w3.org/2000/svg" xmlns:xlink="http://www.w3.org/1999/xlink">
    <!-- Generator: sketchtool 60 (101010) - https://sketch.com -->
    <title>3C7FAABF-165C-4D51-A9C3-7567138FD178@1x</title>
    <desc>Created with sketchtool.</desc>
    <g id="Page-1" stroke="none" stroke-width="1" fill="none" fill-rule="evenodd">
        <g id="Gomble-Brand-Design-System" transform="translate(-778.000000, -9947.000000)">
            <g id="Avatars-Copy" transform="translate(513.000000, 9907.000000)">
                <g id="Components/Avatar/Circle---L" transform="translate(265.000000, 40.000000)">
                    <g id="Group-2">
                        <g id="Group-3">
                            <g id="Group-4">
                                <circle id="Components/Avatar/Circle---S" fill="#DFE7F5" cx="91" cy="91" r="91"></circle>
                                <g id="Group" transform="translate(36.400000, 36.400000)">
                                    <polygon id="Path" points="0 0 109.2 0 109.2 109.2 0 109.2"></polygon>
                                    <path d="M18.2,100.1 C18.2,79.9968351 34.4968351,63.7 54.6,63.7 C74.7031649,63.7 91,79.9968351 91,100.1 L18.2,100.1 L18.2,100.1 Z M54.6,59.15 C39.51675,59.15 27.3,46.93325 27.3,31.85 C27.3,16.76675 39.51675,4.55 54.6,4.55 C69.68325,4.55 81.9,16.76675 81.9,31.85 C81.9,46.93325 69.68325,59.15 54.6,59.15 Z" id="Shape" fill="#A4B3CC" fill-rule="nonzero"></path>
                                </g>
                            </g>
                        </g>
                    </g>
                </g>
            </g>
        </g>
    </g>
</svg>