<?xml version="1.0" encoding="UTF-8"?>
<svg width="54px" height="54px" viewBox="0 0 54 54" version="1.1" xmlns="http://www.w3.org/2000/svg" xmlns:xlink="http://www.w3.org/1999/xlink">
    <!-- Generator: sketchtool 60 (101010) - https://sketch.com -->
    <title>9107B3BE-A5FD-430E-A9A3-1626AC7CE192</title>
    <desc>Created with sketchtool.</desc>
    <defs>
        <linearGradient x1="0%" y1="0%" x2="100%" y2="100%" id="linearGradient-1">
            <stop stop-color="#1E89EE" offset="0%"></stop>
            <stop stop-color="#005AFE" offset="100%"></stop>
        </linearGradient>
        <rect id="path-2" x="0" y="0" width="54" height="54" rx="10"></rect>
    </defs>
    <g id="Page-1" stroke="none" stroke-width="1" fill="none" fill-rule="evenodd">
        <g id="Web-Styleguide" transform="translate(-548.000000, -5024.000000)">
            <g id="Upload-Docs-Fields-and-Avatars" transform="translate(40.000000, 4603.000000)">
                <g id="Group-11" transform="translate(0.000000, 129.000000)">
                    <g id="Group-6-Copy-2" transform="translate(488.000000, 262.000000)">
                        <g id="My-Profile---Uploaded-Doc-ICON" transform="translate(20.000000, 30.000000)">
                            <g id="Group-10">
                                <mask id="mask-3" fill="white">
                                    <use xlink:href="#path-2"></use>
                                </mask>
                                <use id="Rectangle-Copy" fill="url(#linearGradient-1)" xlink:href="#path-2"></use>
                            </g>
                            <g id="2921391" transform="translate(14.000000, 16.000000)" fill="#FFFFFF" fill-rule="nonzero">
                                <g id="Group" transform="translate(4.087302, 0.084291)">
                                    <path d="M4.77430556,15.3660201 L4.0922619,15.3660201 L4.0922619,18.0001197 L4.77430556,18.0001197 C4.90116567,18.0001197 5.00210813,17.9039751 5.00210813,17.7801724 L5.00210813,15.5846504 C5.00210813,15.4621648 4.90116567,15.3660201 4.77430556,15.3660201 L4.77430556,15.3660201 Z" id="Path"></path>
                                    <path d="M9.32080853,15.3660201 L8.86656746,15.3660201 C8.73970734,15.3660201 8.63876488,15.4621648 8.63876488,15.5859674 L8.63876488,17.7801724 C8.63876488,17.902658 8.73834325,18.0001197 8.86656746,18.0001197 L9.32080853,18.0001197 C9.44766865,18.0001197 9.54861111,17.9039751 9.54861111,17.7801724 L9.54861111,15.5846504 C9.54861111,15.4621648 9.44903274,15.3660201 9.32080853,15.3660201 Z" id="Path"></path>
                                    <path d="M12.7310268,9.65792625 C10.2211062,9.65792625 8.18452381,7.69157088 8.18452381,5.26819923 C8.18452381,3.52969349 9.2485119,1.98479406 10.8308532,1.28148946 C11.0859375,0.807351533 11.3942212,0.376676245 11.7679812,-1.16977522e-15 L2.50037202,-1.16977522e-15 C1.11855159,-1.16977522e-15 -2.42310581e-15,1.07998084 -2.42310581e-15,2.4141523 L-2.42310581e-15,18.6573276 C-2.42310581e-15,19.9928161 1.11855159,21.0727969 2.50037202,21.0727969 L15.687004,21.0727969 C17.0688244,21.0727969 18.187376,19.9928161 18.187376,18.6586446 L18.187376,9.6592433 L12.7310268,9.6592433 L12.7310268,9.65792625 Z M6.36619544,17.7801724 C6.36619544,18.6230843 5.64732143,19.3171695 4.77430556,19.3171695 L3.41021825,19.3171695 C3.03782242,19.3171695 2.7281746,19.0181992 2.7281746,18.6586446 L2.7281746,14.7074952 C2.7281746,14.3479406 3.03782242,14.0489703 3.41021825,14.0489703 L4.77430556,14.0489703 C5.64732143,14.0489703 6.36619544,14.7430556 6.36619544,15.5859674 L6.36619544,17.7801724 Z M10.9126984,17.7801724 C10.9126984,18.6230843 10.1938244,19.3171695 9.32080853,19.3171695 L8.86656746,19.3171695 C7.99355159,19.3171695 7.27467758,18.6230843 7.27467758,17.7801724 L7.27467758,15.5846504 C7.27467758,14.7417385 7.99355159,14.0476533 8.86656746,14.0476533 L9.32080853,14.0476533 C10.1938244,14.0476533 10.9126984,14.7417385 10.9126984,15.5846504 L10.9126984,17.7801724 Z M13.4130704,18.0001197 L14.7771577,18.0001197 C15.1536458,18.0001197 15.4592014,18.2951389 15.4592014,18.6586446 C15.4592014,19.0221504 15.1536458,19.3171695 14.7771577,19.3171695 L13.4130704,19.3171695 C12.5359623,19.3171695 11.8211806,18.6283525 11.8211806,17.7801724 L11.8211806,15.5846504 C11.8211806,14.7377874 12.5345982,14.0476533 13.4130704,14.0476533 L14.7771577,14.0476533 C15.1536458,14.0476533 15.4592014,14.3426724 15.4592014,14.7061782 C15.4592014,15.0696839 15.1536458,15.3647031 14.7771577,15.3647031 L13.4130704,15.3647031 C13.2875744,15.3647031 13.1852679,15.4634818 13.1852679,15.5846504 L13.1852679,17.7801724 C13.1866319,17.901341 13.2889385,18.0001197 13.4130704,18.0001197 Z" id="Shape"></path>
                                </g>
                                <path d="M22.7302827,7.98659004 L16.8196925,7.98659004 C15.3151042,7.98659004 14.0915179,6.80519636 14.0915179,5.35249042 C14.0915179,4.07231801 15.0409226,3.00287356 16.2958829,2.76712165 C16.7678571,1.20641762 18.2751736,0.0842911877 20.0021081,0.0842911877 C21.3648313,0.0842911877 22.6266121,0.784961686 23.3154762,1.89523467 C24.7996032,2.15732759 25.9126984,3.4164272 25.9126984,4.91391284 C25.9126984,6.60763889 24.484499,7.98659004 22.7302827,7.98659004 Z" id="Path" fill-opacity="0.7"></path>
                            </g>
                        </g>
                    </g>
                </g>
            </g>
        </g>
    </g>
</svg>