<?xml version="1.0" encoding="UTF-8"?>
<svg width="250px" height="195px" viewBox="0 0 250 195" version="1.1" xmlns="http://www.w3.org/2000/svg" xmlns:xlink="http://www.w3.org/1999/xlink">
    <!-- Generator: sketchtool 60 (101010) - https://sketch.com -->
    <title>7CD19D51-0D72-4A4F-9179-0A2326CCCA71@1x</title>
    <desc>Created with sketchtool.</desc>
    <g id="Page-1" stroke="none" stroke-width="1" fill="none" fill-rule="evenodd">
        <g id="Gomble-Brand-Design-System---Illustrations" transform="translate(-49.000000, -1610.000000)">
            <g id="No-product-in-cart-(1)" transform="translate(49.000000, 1610.000000)">
                <path d="M134.464284,195 C51.1998272,195 0,189.627117 0,183 C0,176.372501 51.1998272,171 134.464284,171 C217.728214,171 250,176.372501 250,183 C250,189.627117 217.728214,195 134.464284,195 Z" id="Fill-34" fill="#FFF0F2" fill-rule="nonzero"></path>
                <g id="Group-92" transform="translate(56.000000, 0.000000)">
                    <g id="Group-90">
                        <polyline id="Fill-246" fill="#FF9A67" fill-rule="nonzero" points="11.8811079 163.909504 7.54263078 178.838373 2.55735369 176.497464 4.93368172 160.042781 11.8811079 163.909504"></polyline>
                        <path d="M2.35120984,174.919461 C1.75452739,174.86917 -0.429840994,178.436993 0.0751168928,180.418273 C0.370148466,181.578764 2.36823089,181.230521 4.94975716,181.533217 C7.53128341,181.835913 9.60974306,182.799984 11.3893886,182.755386 C13.1690342,182.710788 18.765178,182.140506 18.765178,182.140506 L18.5770008,180.64221 C18.5770008,180.64221 15.8044605,180.587175 14.6772886,179.789159 C13.5520079,178.991144 8.87500095,175.376826 8.87500095,175.376826 C8.70762727,175.585581 7.47738341,176.507901 6.16487118,177.075337 C4.85235892,177.643721 4.69255015,177.498541 4.07790103,177.16643 C2.97531509,176.569579 3.29776947,174.998219 2.35120984,174.919461" id="Fill-247" fill="#0C0C0C" fill-rule="nonzero"></path>
                        <polyline id="Fill-248" fill="#FF9A67" fill-rule="nonzero" points="48.5851161 160.853133 49.0617055 176.396881 43.5998389 175.718426 40.7866373 159.333961 48.5851161 160.853133"></polyline>
                        <path d="M42.4603741,173.012195 C41.862746,173.048253 40.2107583,176.89315 40.9927811,178.781439 C41.4504583,179.887844 43.3785653,179.255884 45.9771126,179.184717 C48.5747143,179.112601 50.7694844,179.768284 52.5245441,179.468435 C54.2786581,179.167637 59.7357966,177.799339 59.7357966,177.799339 L59.3367474,176.342795 C59.3367474,176.342795 56.5840651,176.68819 55.3557124,176.060026 C54.1273599,175.430913 48.982274,172.527313 48.982274,172.527313 C48.8470512,172.756944 47.7605406,173.846268 46.5425898,174.597788 C45.3246389,175.348359 45.1459179,175.228799 44.4906074,174.987781 C43.3142635,174.555088 43.4088249,172.953364 42.4603741,173.012195" id="Fill-249" fill="#0C0C0C" fill-rule="nonzero"></path>
                        <path d="M48.9661985,94.3939051 C49.4739933,97.2794762 51.7822371,127.86752 51.9950002,134.543902 C52.1362119,138.994824 51.5582751,151.178658 50.2611899,171.095406 C45.2172117,173.04775 42.0590094,173.04775 40.7865832,171.095406 C38.8779437,168.16689 38.3291164,142.800184 37.7844428,139.40506 C37.2397691,136.009936 31.0005676,108.73927 31.3324781,108.433728 C25.4583238,139.197654 12.1400207,172.999213 9.97666258,174.918936 C8.53442374,176.19875 5.67413492,175.859177 1.39579601,173.900217 C2.8135961,156.904656 4.96251057,145.041581 7.84253943,138.310991 C12.1625827,128.215106 12.0927743,108.114673 11.8811079,101.14665 C11.5392741,89.8935345 16.5079973,79.0370873 16.5079973,79.0370873 C16.5079973,79.0370873 24.1922926,76.4757922 30.3196896,77.1442959 C39.1573953,78.1084965 47.4532161,82.413234 47.4532161,82.413234 C47.4532161,82.413234 48.4593494,91.508334 48.9661985,94.3939051 Z" id="Fill-250" fill="#FFBF00" fill-rule="nonzero"></path>
                        <path d="M37.7833671,25.3072039 C39.9582794,25.6080017 43.0750232,25.8964639 42.6873214,25.6412128 C42.2967829,25.3840639 42.4424074,23.8003684 42.4424074,23.8003684 C42.4424074,23.8003684 47.5090073,26.1222995 49.6347476,28.6937883 C51.7595423,31.2624305 49.3208038,67.8601257 49.3208038,67.8601257 L47.975195,73.9045473 L48.4962283,79.8702117 C49.1129885,82.2459794 48.9393107,84.1338935 47.975195,85.5339546 C46.5290215,87.6340464 19.3286034,86.72175 15.2924596,85.5339546 C11.2563158,84.3461593 12.1780307,80.9964188 12.1780307,80.9964188 L13.9529483,79.209661 L14.6404097,73.4348473 L14.4976219,70.5037295 C14.4976219,70.5037295 12.4078149,30.2574854 15.7382675,26.7693699 C19.0677744,23.2803056 34.5276181,19.9336462 34.5276181,19.9336462 C34.5276181,19.9336462 35.6103461,25.0064062 37.7833671,25.3072039 Z" id="Fill-258" fill="#B1E5FF" fill-rule="nonzero"></path>
                        <path d="M57.6744931,73.6786803 L62.4925356,75.8523843 L65.6422097,77.1503303 L66.7958497,80.6033292 L65.6089927,83.5989321 L61.9370598,86.0104567 L61.9101917,84.6944612 C61.9101917,84.6944612 64.0596398,83.3210864 63.9783601,82.4969139 C63.7105332,79.7787425 61.1391559,80.7674281 61.1391559,80.7674281 C61.1391559,80.7674281 60.5020584,81.801552 59.2253235,81.2392162 C58.4851579,80.9126355 57.0951987,78.7772431 57.0951987,78.7772431 L54.4883971,77.5373382 L57.6744931,73.6786803" id="Fill-260" fill="#F29F77" fill-rule="nonzero" transform="translate(60.642123, 79.844568) rotate(29.000000) translate(-60.642123, -79.844568) "></path>
                        <path d="M49.6347476,28.6937883 C51.7595423,31.2624305 52.4129616,32.1230908 53.5581002,35.4584352 C54.3208955,37.6807329 54.3208955,46.735411 53.5581002,62.6224693 L62.7951437,74.7585026 L58.5741692,78.8539599 L46.4839617,69.7579028 C47.1673255,40.6675007 48.2175874,26.9794624 49.6347476,28.6937883 Z" id="Fill-258" fill="#B1E5FF" fill-rule="nonzero"></path>
                        <path d="M51.906113,74.013332 L57.4572129,76.5153303 L61.0863125,78.0088421 L62.4105255,81.9943605 L61.0371274,85.4556496 L56.7996467,88.2466653 L56.7708923,86.7270184 C56.7708923,86.7270184 59.251332,85.1374235 59.1590154,84.1858187 C58.8548248,81.0473674 55.8885883,82.1934442 55.8885883,82.1934442 C55.8885883,82.1934442 55.152326,83.3887148 53.6813148,82.7415007 C52.8285218,82.3656241 51.2296295,79.9020592 51.2296295,79.9020592 L48.226315,78.4746524 L51.906113,74.013332" id="Fill-260" fill="#FEB08A" fill-rule="nonzero"></path>
                        <path d="M47.1369265,81.110072 C21.7921984,77.2825165 8.78477174,72.5024623 8.11464662,66.7699081 C7.10851336,58.1701283 8.72886589,28.700667 15.7382675,26.7693699 C22.7476691,24.8380729 22.7561235,27.0807875 24.5825954,38.9541237 C25.1726737,42.7900423 19.7192547,56.3682615 20.5756556,60.0320978 C20.7814397,60.9124789 31.5218344,65.010041 52.7968398,72.3247842 L47.1369265,81.110072 Z" id="Fill-258" fill="#B1E5FF" fill-rule="nonzero"></path>
                        <path d="M48.700481,64.8037544 C49.6858108,60.1579944 49.7964476,41.7837103 49.7973933,41.598677" id="Fill-259" stroke="#0C0C0C" stroke-width="0.839552239"></path>
                        <path d="M42.3147495,22.8752017 L42.1227899,22.821115 C39.3351197,21.1007796 38.2155128,17.4864618 38.1691777,17.3327418 C38.1105496,17.1372707 38.2202408,16.9332596 38.4140917,16.8734796 C38.611725,16.8155974 38.8121951,16.9247196 38.8708232,17.118293 C38.8821706,17.1534018 39.959225,20.6215907 42.5067092,22.1938996 C42.6797565,22.3001751 42.7327109,22.5269595 42.6277477,22.6996573 C42.5577723,22.812575 42.4376794,22.8752017 42.3147495,22.8752017" id="Fill-281" fill="#1D1119" fill-rule="nonzero"></path>
                        <path d="M36.7857443,14.4130108 C36.7857443,14.4130108 36.7583215,18.0728752 34.5276181,19.9336462 C32.2978602,21.7925196 36.8736864,26.4582061 39.1214109,26.7134572 C42.4452443,27.0920639 43.8873056,25.4239173 43.8873056,25.4239173 L44.2891916,23.359135 L36.7857443,14.4130108" id="Fill-282" fill="#FEB08A" fill-rule="nonzero"></path>
                        <path d="M39.6575741,13.3929552 C39.6575741,13.3929552 38.9464723,9.2520042 42.7591881,7.90173531 C46.5719039,6.55241534 50.6484458,5.69651758 50.6484458,5.69651758 C50.6484458,5.69651758 52.5292721,9.28236864 52.4053967,10.9989086 C52.2815213,12.7144997 49.9666582,24.853635 45.5837372,24.272915 C41.198925,23.6931439 36.9446075,17.6591596 36.9446075,17.6591596 C36.9446075,17.6591596 34.8150847,12.6499752 36.3706198,11.7428375 C37.9252093,10.8366486 39.6575741,13.3929552 39.6575741,13.3929552" id="Fill-283" fill="#FFB69E" fill-rule="nonzero"></path>
                        <path d="M39.7597004,13.574193 C41.1667741,12.7135508 40.2429092,9.17229753 42.3781057,8.43026642 C44.5133021,7.68823531 49.0295547,6.64635535 51.0068335,7.55539087 C52.059302,8.0393242 52.5756072,10.0746909 52.5756072,10.0746909 C52.5756072,10.0746909 54.0252335,9.86498642 54.05833,7.3048842 C54.0923721,4.74193537 52.6389634,1.87913765 51.6186458,1.39994877 C47.1411634,-0.704686755 43.1771495,1.84402876 43.1771495,1.84402876 C43.1771495,1.84402876 41.1043636,-1.07000897 38.5975408,0.42828656 C36.090718,1.9256332 35.174418,5.91855757 35.174418,5.91855757 C35.174418,5.91855757 33.6548163,4.53982205 33.0571883,6.82095087 C32.4595602,9.10207976 32.7129848,10.5728575 32.7129848,10.5728575 C32.7129848,10.5728575 31.3626479,9.12580198 31.3333339,11.4259086 C31.3040198,13.7250664 32.0321427,15.4045996 32.8500988,15.9492618 C33.6690005,16.494873 36.4169549,18.4552773 36.4169549,18.4552773 L36.6108057,16.3487441 C36.6108057,16.3487441 35.7049075,12.8473441 36.6599777,11.797873 C37.6141022,10.7484019 38.3516812,14.4338864 39.7597004,13.574193" id="Fill-284" fill="#202C52" fill-rule="nonzero"></path>
                        <path d="M40.4698566,12.4858175 C40.4698566,12.4858175 41.282139,16.7605618 41.6452548,17.2701152 C42.0093162,17.7787196 46.0168284,17.6544152 47.7737792,17.8328063 C49.9468003,18.0529485 50.604002,19.4497129 50.604002,19.4497129 C50.604002,19.4497129 50.6531739,22.6598039 50.3136985,23.8857684 C49.8702055,25.485595 48.2730634,27.3909639 44.6589267,25.793035 C42.1521039,24.6847328 40.025418,22.8827928 38.8575846,21.4575618 C38.3280408,20.8113684 38.0112601,20.0237907 37.9393935,19.1897173 L37.7531075,17.0319441 L38.7450566,12.7913597 L40.4698566,12.4858175" id="Fill-285" fill="#202C52" fill-rule="nonzero"></path>
                        <polyline id="Path-2" stroke="#0C0C0C" stroke-width="0.839552239" points="24.5825954 38.9541237 23.2974343 57.5369041 17.4900182 61.33177 25.7700299 59.2839174 52.3450836 72.4096115 47.4532161 82.413234 15.2924596 72.4096115"></polyline>
                    </g>
                    <g id="Group-88" transform="translate(53.899999, 79.706665)" fill-rule="nonzero">
                        <path d="M39.8595221,92.4189298 C41.9966098,92.4189298 43.7365396,94.364152 43.7365396,96.7572498 C43.7365396,99.1484498 41.9966098,101.095569 39.8595221,101.095569 C37.7214888,101.095569 35.981559,99.1484498 35.981559,96.7572498 C35.981559,94.364152 37.7214888,92.4189298 39.8595221,92.4189298 Z M73.2170022,92.4189298 C75.3550355,92.4189298 77.0949653,94.364152 77.0949653,96.7572498 C77.0949653,99.1484498 75.3550355,101.095569 73.2170022,101.095569 C71.0799144,101.095569 69.3399846,99.1484498 69.3399846,96.7572498 C69.3399846,94.364152 71.0799144,92.4189298 73.2170022,92.4189298 Z M19.4002172,91.5108431 C19.3340242,91.7233942 19.37374,91.9539742 19.5051804,92.1333142 C19.6375663,92.3126542 19.846547,92.4189298 20.0678207,92.4189298 L36.4430187,92.4189298 C35.3139555,93.4721964 34.5829959,95.0160386 34.5829959,96.7572498 C34.5829959,99.9236913 36.9498678,102.498976 39.8595221,102.498976 C42.7682308,102.498976 45.1351028,99.9236913 45.1351028,96.7572498 C45.1351028,95.0160386 44.4041431,93.4721964 43.2760256,92.4189298 L69.8004986,92.4189298 C68.6723811,93.4721964 67.9414215,95.0160386 67.9414215,96.7572498 C67.9414215,99.9236913 70.3082934,102.498976 73.2170022,102.498976 C76.1266565,102.498976 78.4925829,99.9236913 78.4925829,96.7572498 C78.4925829,95.0160386 77.7616232,93.4721964 76.6335057,92.4189298 L82.5019864,92.4189298 C82.8887425,92.4189298 83.2017408,92.1048475 83.2017408,91.716752 C83.2017408,91.3286564 82.8887425,91.0155231 82.5019864,91.0155231 L21.0143804,91.0155231 L23.7538242,82.075092 C24.535847,79.5254275 26.510289,77.7007142 28.906475,77.3145164 L65.9423936,71.348852 C66.323476,71.2881231 66.5835199,70.9275453 66.5230006,70.546092 C66.4615357,70.1627409 66.0955831,69.8998986 65.7211199,69.9644231 L28.6861469,75.9291386 C25.7575803,76.4007364 23.3576119,78.5974142 22.4176715,81.6632742 L19.4002172,91.5108431 L19.4002172,91.5108431 Z" id="Fill-278" fill="#202D51"></path>
                        <path d="M1.39856313,3.27556439 C1.39856313,2.24317329 2.13330523,1.40340664 3.03731223,1.40340664 C3.939428,1.40340664 4.67417009,2.24317329 4.67417009,3.27556439 C4.67417009,4.30795548 3.939428,5.14772213 3.03731223,5.14772213 C2.13330523,5.14772213 1.39856313,4.30795548 1.39856313,3.27556439 Z M14.7667085,18.3771308 L21.2583488,18.3771308 L23.2800715,32.5051372 L17.1222331,32.8600217 L14.7667085,18.3771308 Z M22.7675487,67.5646833 L21.8900189,62.1693011 L27.4010574,61.3048634 L28.7466662,70.7121475 L27.036996,70.9930186 C26.1405539,71.1419942 25.2129066,70.9199542 24.4431768,70.3648542 C23.565647,69.7328942 22.9547803,68.7118898 22.7675487,67.5646833 Z M90.455546,60.522979 L88.784646,60.7981568 L89.5364092,51.5626213 L94.1424951,50.8405169 L93.1155583,57.6013502 C92.8857741,59.1243168 91.8143934,60.2980923 90.455546,60.522979 Z M98.4544951,22.4288863 L97.5741285,28.2256484 L91.4049425,28.5814817 L92.234246,18.3771308 L95.4086723,18.3771308 C96.2559425,18.3771308 97.0464758,18.7557374 97.6337022,19.4398863 C98.3202179,20.2426463 98.6199776,21.3329197 98.4544951,22.4288863 Z M24.6814715,32.4244817 L22.6720417,18.3771308 L32.1896468,18.3771308 L33.6629135,31.9073372 L24.6814715,32.4244817 Z M24.8809961,33.8183995 L33.8151573,33.3031528 L35.0851169,44.9583548 L26.593503,45.7876836 L24.8809961,33.8183995 Z M28.5840206,59.6983945 L26.7930276,47.1778059 L35.2364152,46.3532214 L36.5546011,58.4496568 L28.5840206,59.6983945 Z M37.7290537,69.2280853 L30.1272626,70.4834653 L28.7835451,61.0875679 L36.706845,59.8454723 L37.7290537,69.2280853 Z M47.8234834,67.5618366 L39.1105958,69.000352 L38.0893327,59.6291256 L47.2466588,58.1925079 L47.8234834,67.5618366 Z M57.4592903,65.9714988 L49.2106992,67.3331544 L48.6338746,57.9761612 L57.3042096,56.6164035 L57.4592903,65.9714988 Z M68.5636355,64.1372967 L58.8540709,65.73997 L58.6989902,56.3981591 L68.5636355,54.8505213 L68.5636355,64.1372967 Z M77.9951899,62.58017 L69.9621986,63.9067167 L69.9621986,54.6313279 L78.4443565,53.3019347 L77.9951899,62.58017 Z M88.1160969,51.7846613 L87.3633881,61.0325323 L79.4051004,62.3476922 L79.8533215,53.0808436 L88.1160969,51.7846613 Z M88.2324074,50.3461458 L79.9223513,51.6499191 L80.3923215,41.9446837 L88.9841706,41.105866 L88.2324074,50.3461458 Z M91.2895776,29.9934283 L97.3594741,29.6432884 L95.936325,39.0183104 L90.5122829,39.5477904 L91.2895776,29.9934283 Z M89.8806127,30.0740839 L89.0995355,39.6853793 L80.4613513,40.5289415 L80.9417232,30.5883817 L89.8806127,30.0740839 Z M81.532732,18.3771308 L90.8309548,18.3771308 L89.9959776,28.6621373 L81.010753,29.1802306 L81.532732,18.3771308 Z M69.9621986,18.3771308 L80.1341688,18.3771308 L79.6074618,29.2608862 L69.9621986,29.8159862 L69.9621986,18.3771308 Z M58.0682657,18.3771308 L68.5636355,18.3771308 L68.5636355,29.8966417 L58.2696814,30.4896972 L58.0682657,18.3771308 Z M46.1913536,18.3771308 L56.6697026,18.3771308 L56.872064,30.5703528 L46.9781045,31.1396861 L46.1913536,18.3771308 Z M35.0614766,31.8266817 L33.5957749,18.3771308 L44.7899536,18.3771308 L45.5823782,31.2203417 L35.0614766,31.8266817 Z M36.4770608,44.8217148 L35.2127748,33.2234461 L45.6693746,32.6209017 L46.3615641,43.8576437 L36.4770608,44.8217148 Z M47.1596623,56.7862546 L37.9370888,58.2323612 L36.628359,46.2165814 L46.4485606,45.2582037 L47.1596623,56.7862546 Z M57.2805692,55.1997124 L48.5468781,56.5680102 L47.8405045,45.1234615 L57.0980657,44.2191704 L57.2805692,55.1997124 Z M68.5636355,53.4300347 L58.6753499,54.9805191 L58.4956832,44.0825304 L68.5636355,43.0994815 L68.5636355,53.4300347 Z M78.987139,42.0822726 L78.5124408,51.8700613 L69.9621986,53.2108413 L69.9621986,42.9628415 L78.987139,42.0822726 Z M69.9621986,31.2212906 L79.5393776,30.6690372 L79.0552232,40.6665304 L69.9621986,41.5537415 L69.9621986,31.2212906 Z M57.075371,42.8110193 L47.7544536,43.7210037 L47.0651009,32.5402461 L56.8957043,31.9737595 L57.075371,42.8110193 Z M58.2923762,31.8931039 L68.5636355,31.3009972 L68.5636355,41.6903815 L58.4720428,42.6753281 L58.2923762,31.8931039 Z M94.3637688,49.3849214 L89.6527197,50.1231569 L90.3969179,40.9682771 L95.7188337,40.4492349 L94.3637688,49.3849214 Z M19.5666453,47.8828303 L25.3991926,47.3125481 L27.2024785,59.9156901 L21.6640172,60.7839234 L19.5666453,47.8828303 Z M17.3491804,34.2520416 L23.4795961,33.8990549 L25.199668,45.9233747 L19.3406435,46.4946059 L17.3491804,34.2520416 Z M1.42108547e-14,3.27556439 C1.42108547e-14,5.0822488 1.3626298,6.55017989 3.03731223,6.55017989 C4.48693852,6.55017989 5.69921569,5.44567324 5.99802972,3.97774215 L7.35498583,3.97774215 C9.47127004,3.97774215 11.2821208,5.66486657 11.6603665,7.99154209 L21.3878979,67.7905186 C21.6365944,69.3258209 22.4328013,70.6438275 23.6261663,71.5063675 C24.4800557,72.1202986 25.4729505,72.441972 26.4828662,72.441972 C26.7419644,72.441972 27.0048451,72.4201475 27.2639434,72.3774475 L90.6815478,61.9064589 C92.6418057,61.5838368 94.1755916,59.9375145 94.498046,57.8129523 L95.5987408,50.5596458 C95.8417636,50.4192102 95.9873881,50.1430836 95.9419986,49.8479791 C95.9193039,49.7084925 95.8483829,49.5946259 95.7604408,49.4968903 L99.8360366,22.6395396 C100.06393,21.1383974 99.6478594,19.6382041 98.6937355,18.5261063 C97.8370092,17.5250286 96.6691758,16.9746731 95.4086723,16.9746731 L14.5378699,16.9746731 L13.0390717,7.76570653 C12.5511349,4.75772881 10.159677,2.57338663 7.35498583,2.57338663 L5.99802972,2.57338663 C5.69921569,1.10450665 4.48693852,-4.26325641e-13 3.03731223,-4.26325641e-13 C1.3626298,-4.26325641e-13 1.42108547e-14,1.46982886 1.42108547e-14,3.27556439 L1.42108547e-14,3.27556439 Z" id="Fill-279" fill="#FF5BA8"></path>
                    </g>
                    <g id="Group-105" transform="translate(83.078947, 35.244444)">
                        <path d="M20.5671049,41.276666 C31.9260033,41.276666 41.1342099,32.0365695 41.1342099,20.638333 C41.1342099,9.24009639 31.9260033,0 20.5671049,0 C9.2082065,0 0,9.24009639 0,20.638333 C0,32.0365695 9.2082065,41.276666 20.5671049,41.276666 Z" id="Oval" stroke="#7263EE" stroke-width="2" stroke-linecap="round" stroke-linejoin="round" stroke-dasharray="4"></path>
                        <ellipse id="Oval" fill="#7263EE" fill-rule="nonzero" cx="29.7868416" cy="15.6566664" rx="2.83684206" ry="2.84666662"></ellipse>
                        <ellipse id="Oval-Copy-7" fill="#7263EE" fill-rule="nonzero" cx="12.7657893" cy="15.6566664" rx="2.83684206" ry="2.84666662"></ellipse>
                        <path d="M26.9499995,29.8899995 C25.2526345,27.9922217 23.1250029,27.0433329 20.5671049,27.0433329 C18.0092069,27.0433329 15.8815754,27.9922217 14.1842103,29.8899995" id="Oval" stroke="#7263EE" stroke-width="4.19999993" stroke-linecap="round" stroke-linejoin="round"></path>
                    </g>
                </g>
            </g>
        </g>
    </g>
</svg>