<?xml version="1.0" encoding="UTF-8"?>
<svg width="207px" height="200px" viewBox="0 0 207 200" version="1.1" xmlns="http://www.w3.org/2000/svg" xmlns:xlink="http://www.w3.org/1999/xlink">
    <!-- Generator: sketchtool 60 (101010) - https://sketch.com -->
    <title>79894D54-2E2D-480F-9370-D21AED6E9E85@1x</title>
    <desc>Created with sketchtool.</desc>
    <g id="Page-1" stroke="none" stroke-width="1" fill="none" fill-rule="evenodd">
        <g id="Gomble-Brand-Design-System---Illustrations" transform="translate(-689.000000, -1605.000000)">
            <g id="No-addresses-saved-found" transform="translate(689.000000, 1610.000000)">
                <path d="M111.336427,195 C42.3934572,195 0,190.522597 0,185 C0,179.477085 42.3934572,175 111.336427,175 C180.278961,175 207,179.477085 207,185 C207,190.522597 180.278961,195 111.336427,195 Z" id="Fill-34" fill="#FFF0F2" fill-rule="nonzero"></path>
                <g id="5283" transform="translate(20.000000, 31.000000)">
                    <path d="M41.1517958,4.51941943 C41.1517958,4.51941943 37.2308896,0.234359994 36.0196865,0.091562725 C34.8084835,-0.0513613623 29.8193898,2.34347312 29.5333586,3.28864901 C29.248593,4.23369807 35.0223741,2.34347312 35.3425772,3.28864901 C35.6640459,4.23369807 36.0196865,4.87653942 37.6586709,4.94793805 C39.2989208,5.01933668 40.7240146,5.94777256 40.7240146,5.94777256 L41.1517958,4.51941943" id="Fill-9" fill="#FFB27D" fill-rule="nonzero"></path>
                    <path d="M45.8548581,154.751151 C44.6094832,153.988973 45.3182332,148.306251 45.3182332,148.306251 C45.3182332,148.306251 51.1223893,143.653292 51.919733,147.215614 C52.7183423,150.777937 57.4340608,152.377114 60.1184514,152.813369 C61.9725921,153.113928 62.5459202,154.142423 62.7231077,154.751151 L45.8548581,154.751151" id="Fill-10" fill="#233862" fill-rule="nonzero"></path>
                    <path d="M44.8145144,151.139369 C43.3274051,150.576296 35.0451553,130.655697 35.3906709,124.186701 C35.4311709,123.419451 35.2818272,117.125465 35.0451553,115.821774 C34.8616397,114.805961 34.6148429,113.621479 34.3199522,112.308911 C33.8668585,110.310256 33.3023897,108.009774 32.6733742,105.540624 C30.9128898,98.6049381 28.6702023,90.3582059 27.122343,83.7932091 C29.8991242,77.554135 33.456796,72.0932179 36.7208428,70.2284833 C39.0495927,70.5131901 41.2948114,70.9443719 42.9578426,71.304916 C44.2829519,72.0844674 45.2726707,72.7521651 46.0079988,73.3213251 C46.2661863,74.61487 46.6433425,76.7728082 46.9483581,79.5516482 C47.14453,81.3697137 47.3090613,83.454985 47.3862644,85.7354296 C47.9393425,101.917429 45.1157332,119.500769 52.314608,148.200992 C52.517108,149.001214 47.1179519,152.009342 44.8145144,151.139369" id="Fill-11" fill="#FFBF00" fill-rule="nonzero"></path>
                    <path d="M34.4224679,22.949398 L34.4174054,23.9586171 C34.4174054,23.9586171 34.6907804,27.1149947 30.8129054,27.5757252 C26.9337649,28.0379774 23.9949838,26.3449548 24.1000306,23.9094117 C24.4493431,22.0234985 24.8328274,20.7285581 24.8594056,19.1680604 C24.8682649,18.5882477 24.8290306,17.9729259 24.7214524,17.2782159 L32.2367335,17.1278095 L34.4515772,17.4902559 L34.4224679,22.949398" id="Fill-13" fill="#FFB27D" fill-rule="nonzero"></path>
                    <path d="M34.4515772,17.4902559 L34.4224679,22.949398 C33.6238585,23.3213557 32.7227335,23.5483603 31.7127648,23.5483603 C28.2588743,23.5483603 26.0263118,21.0102213 24.8594056,19.1680604 C24.868265,18.5882477 24.8290306,17.9729259 24.7214525,17.2782159 L32.2367335,17.1278095 L34.4515772,17.4902559" id="Fill-14" fill="#E8945B" fill-rule="nonzero"></path>
                    <path d="M34.8894835,20.1430386 C34.8894835,20.1430386 25.2644056,22.0913463 24.1455931,16.0662145 C23.0267806,10.0409561 21.0308901,6.23450847 27.1286711,4.73577124 C33.2277178,3.23690719 34.8527803,5.31292077 35.7134053,7.23294801 C36.5752959,9.15310205 37.3650459,19.480794 34.8894835,20.1430386" id="Fill-15" fill="#FFB27D" fill-rule="nonzero"></path>
                    <path d="M27.9589211,154.751151 C27.9589211,154.751151 27.4336868,151.867305 26.5996399,150.19711 C25.7668587,148.528182 20.4664213,149.590919 20.4664213,149.590919 C20.4664213,149.590919 19.4058276,150.501473 19.1780151,154.751151 L27.9589211,154.751151" id="Fill-16" fill="#233862" fill-rule="nonzero"></path>
                    <path d="M38.3471709,73.4173265 C38.3471709,73.4173265 33.0707804,96.9743099 31.3786398,107.607761 C30.7458273,111.586047 29.4270461,124.332542 29.2220148,128.355215 C28.9385148,133.876878 27.122343,150.775401 27.122343,150.775401 C27.122343,150.775401 24.0569994,148.835082 19.5096089,150.646046 C19.5096089,150.646046 18.361687,143.071196 17.6301558,127.206242 C17.4162652,122.554551 18.3135932,115.569406 18.2047495,113.300629 C17.6693902,102.143165 14.1117184,73.2962151 16.9403902,71.4449233 C19.7677964,69.5937583 38.3471709,73.4173265 38.3471709,73.4173265" id="Fill-17" fill="#FFBF00" fill-rule="nonzero"></path>
                    <path d="M37.285522,2.19341267 C37.285522,2.19341267 34.6011314,1.9864454 31.4358034,0.607170887 C30.5500562,0.221391815 28.8270688,0.988834071 27.0496785,2.29086091 C24.7599156,-0.375293198 21.0231884,1.38413628 22.6181229,7.18167892 C19.0134127,5.38466531 21.6887576,11.3606682 22.0482038,11.7700417 C19.4255435,11.7030791 24.0369598,17.2402627 24.0369598,17.2402627 C24.0369598,17.2402627 24.7166004,16.3001595 24.4343661,14.7449882 C24.1521317,13.1899437 25.4924285,13.1899437 27.1858348,12.4830592 C28.8779753,11.7763015 27.4680691,9.79705017 28.9488503,8.59544795 C30.4308971,7.39371892 35.8616939,8.10047659 35.7920845,7.18167892 C37.8082251,6.44575301 37.285522,2.40037993 37.285522,2.19341267 Z" id="Fill-18" fill="#202C52" fill-rule="nonzero"></path>
                    <path d="M27.5212498,16.0600215 C27.7250816,16.3488167 29.1068379,17.1435443 31.1223221,17.8476868 C32.0828505,18.1832631 33.4392557,16.6162382 34.7176286,16.8879647 C36.2861322,17.2213605 36.0764387,18.9400636 36.7731519,17.3248797 C37.469865,15.7096958 36.3132213,21.3104482 36.0319892,22.3387437 C35.6645862,23.6806217 34.3427917,25.2791409 31.353765,23.9402334 C29.2805285,23.011585 25.895666,21.2831349 24.9301366,20.0882326 C24.4923257,19.5464694 24.2305588,18.8860588 24.1713983,18.1865706 L24.4702958,15.2965557 L27.4146726,11.0206262 C27.2855972,14.0954071 27.321123,15.7752055 27.5212498,16.0600215 Z" id="Fill-285" fill="#202C52" fill-rule="nonzero" transform="translate(30.582218, 17.732952) rotate(-12.000000) translate(-30.582218, -17.732952) "></path>
                    <ellipse id="Oval" fill="#FFB27D" fill-rule="nonzero" cx="24.5531243" cy="13.6963633" rx="1.26562497" ry="2.02909085"></ellipse>
                    <path d="M40.1544833,2.43503585 C40.1544833,2.43503585 39.3444833,2.76450947 38.8572177,3.91322853 C38.2345302,5.3829244 38.7420459,6.18504938 38.7420459,6.18504938 C38.7420459,6.18504938 48.9290612,15.4426496 48.2658737,17.1278095 C47.9203581,18.0081814 40.0279208,22.6455417 36.7486865,24.5429952 C35.3995303,24.4301271 34.3566553,24.4396385 34.3224835,24.4396385 L34.3212178,24.4415407 C34.3212178,24.4415407 32.089921,31.2529451 24.1012963,23.9101726 C22.6977181,25.9558766 11.8196715,30.9787642 13.7092497,39.6481817 C14.153484,41.6852621 14.5369684,43.606938 14.8672965,45.419677 C17.1125152,57.7027783 16.9365933,64.9491692 16.498687,68.9457174 C16.1582339,72.0644301 14.8672965,72.3783051 16.022812,73.2080765 C16.022812,73.2080765 18.2692964,74.2171688 22.4724369,75.0898041 C25.5972649,75.7384791 29.8016711,76.3146141 34.9679522,76.348593 C43.1869207,76.399075 46.2965613,73.5616456 46.2965613,73.5616456 C48.4734362,71.4295783 44.1690457,63.0397947 44.5132957,56.9835924 C44.6904832,53.876674 44.4968426,43.2399261 44.4652019,38.3523535 C44.4664676,38.3520999 44.4677332,38.3508317 44.4689988,38.3493099 C44.4702644,38.3476613 44.4727957,38.3458858 44.4753269,38.3424617 C44.8702019,37.9095044 56.8923733,24.6552293 59.2590921,17.1312336 C59.2590921,17.1294582 59.2616233,17.1294582 59.2616233,17.1278095 C59.3793264,16.7482427 59.4742483,16.3842745 59.5413264,16.035905 C60.2602014,12.3325606 40.1544833,2.43503585 40.1544833,2.43503585" id="Fill-19" fill="#B1E5FF" fill-rule="nonzero"></path>
                    <path d="M14.0446402,62.2303142 C14.0446402,62.2303142 19.0413276,59.2036715 20.5904526,59.5874233 C22.1383119,59.9710483 25.4985462,61.4342765 25.2897181,62.3288519 C25.0821556,63.2235542 21.1789682,63.8339301 20.5005932,63.728671 C19.8209526,63.6234119 18.7249214,63.7469329 18.2794214,64.1314456 C17.835187,64.5160851 14.2939684,64.6596433 13.8623902,63.6210024 C13.4295465,62.5823615 14.0446402,62.2303142 14.0446402,62.2303142" id="Fill-21" fill="#FFB27D" fill-rule="nonzero"></path>
                    <path d="M24.1000306,23.9094117 C24.1000306,23.9094117 17.9744058,24.3540362 14.6470777,26.3088116 C12.492984,27.5738229 0.0145546871,47.4965783 0.0145546871,50.4287414 C0.0145546871,53.361285 13.1182028,63.7634192 13.1182028,63.7634192 C13.1182028,63.7634192 15.550734,64.5730265 15.6367965,60.6920097 C15.6367965,60.6920097 9.09984352,51.0099491 9.44409352,49.8886228 C9.66051534,49.1842746 19.2944526,41.440503 19.2944526,41.440503 L24.1000306,23.9094117" id="Fill-22" fill="#B1E5FF" fill-rule="nonzero"></path>
                    <line x1="7.46228177" y1="50.8845259" x2="17.5963649" y2="42.4129087" id="Path-102" stroke="#0C0C0C" stroke-width="0.755596995"></line>
                    <line x1="44.5499988" y1="38.7274515" x2="53.6830409" y2="26.9425386" id="Path-103" stroke="#0C0C0C" stroke-width="0.755596995" stroke-linecap="round"></line>
                    <path d="M43.6414533,34.0885313 C44.6992352,39.6381162 44.8689342,44.8462529 44.1505502,49.7129411" id="Path-104" stroke="#0C0C0C" stroke-width="0.755596995"></path>
                    <line x1="49.1165198" y1="17.7328855" x2="46.9483581" y2="14.5523889" id="Path-106" stroke="#0C0C0C" stroke-width="0.755596995"></line>
                </g>
                <g id="3163164" transform="translate(89.000000, 0.000000)">
                    <g id="Group" transform="translate(15.652174, 48.987692)" fill="#FFE3E7" fill-rule="nonzero">
                        <path d="M0,22.611959 C0,10.1237189 10.0110242,0 22.3602484,0 C34.7094727,0 44.7204969,10.1237189 44.7204969,22.611959 C44.7204969,29.4466756 42.4425663,36.0819177 38.2546584,41.4464018 L22.3602484,65.3169231 L6.46583853,41.4464018 C2.2779306,36.0819177 0,29.4466756 0,22.611959 Z M22.7902532,37.1340005 C30.910291,37.1340005 37.4928823,30.5128573 37.4928823,22.3452631 C37.4928823,14.1776691 30.910291,7.55652587 22.7902532,7.55652587 C14.6702154,7.55652587 8.08762411,14.1776691 8.08762411,22.3452631 C8.08762411,30.5128573 14.6702154,37.1340005 22.7902532,37.1340005 Z" id="Combined-Shape"></path>
                    </g>
                    <g id="Group-2" transform="translate(10.621118, 0.000000)">
                        <g id="2983814" transform="translate(10.062112, 9.572308)" fill-rule="nonzero">
                            <path d="M32.0556502,8.07227026 L32.0556502,29.4511736 C32.0556502,31.0158066 30.7915807,32.2890811 29.2382591,32.2890811 L24.5426072,32.2890811 L7.51304303,32.2890811 L2.81739113,32.2890811 C1.26406949,32.2890811 0,31.0158066 0,29.4511736 L0,2.83790752 C0,1.27327451 1.26406949,0 2.81739113,0 L7.51304303,0 L24.5426072,0.146309899 C24.6014594,0.182887373 24.6559289,0.226401955 24.7060159,0.276853645 L31.780798,7.40315475 C31.9567285,7.58099696 32.0556502,7.82127309 32.0556502,8.07227026 Z" id="Path" fill="#6D89CF"></path>
                            <path d="M24.5426072,0.146309899 C24.5426072,8.718178 24.5463011,8.12026243 24.5344681,8.29047383 C24.426155,9.7535728 23.2347116,10.9101778 21.7859465,10.9101778 L10.2697037,10.9101778 C8.74956466,10.9101778 7.51304303,9.63690326 7.51304303,8.07227026 L7.51304303,-2.84217094e-14 L24.0417376,-2.84217094e-14 C24.2207985,-2.84217094e-14 24.3942246,0.0510823353 24.5426072,0.146309899 Z" id="Path" stroke="#FFFFFF" stroke-width="1.88059687" fill="#EBEAFF"></path>
                            <path d="M24.5426072,21.1897095 L24.5426072,32.2890811 L7.51304303,32.2890811 L7.51304303,21.1897095 C7.51304303,20.6675345 7.92438211,20.2437403 8.43213863,20.2437403 L23.6235116,20.2437403 C24.1312681,20.2437403 24.5426072,20.6675345 24.5426072,21.1897095 Z" id="Path" stroke="#FFFFFF" stroke-width="1.88059687" fill="#EBEAFF"></path>
                            <path d="M24.5426072,19.0455127 L24.5426072,22.1356786 L7.51304303,22.1356786 L7.51304303,19.0455127 C7.51304303,17.4783571 8.74706031,16.2076051 10.2697037,16.2076051 L21.7859465,16.2076051 C23.3085899,16.2076051 24.5426072,17.4783571 24.5426072,19.0455127 Z" id="Path" stroke="#FFFFFF" stroke-width="1.88059687" fill="#EBEAFF"></path>
                        </g>
                        <g id="Group-127" stroke-linecap="round" stroke-linejoin="round" stroke="#FF5BA8" stroke-width="8.99999976">
                            <ellipse id="Oval" cx="25.9099372" cy="26.0986147" rx="25.9099372" ry="26.0986147"></ellipse>
                            <line x1="9.91439827" y1="7.82200965" x2="42.7242634" y2="44.7213684" id="Path-101"></line>
                        </g>
                    </g>
                    <g id="Group-177" transform="translate(0.223604, 113.854156)" fill-rule="nonzero">
                        <polygon id="Path" fill="#FFF7F8" points="46.3975174 68.2449259 3.46583867 68.2449259 3.46583867 35.8116937 24.931678 3.37846167 46.3975174 33.1089244"></polygon>
                        <polygon id="Path" fill="#FFE3E7" points="46.3975174 33.1089244 86.6459661 33.1089244 86.6459661 68.2449259 46.3975174 68.2449259"></polygon>
                        <path d="M24.931678,33.1089244 C29.3773989,33.1089244 32.9813678,36.7391375 32.9813678,41.2172324 L32.9813678,68.2449259 L16.8819882,68.2449259 L16.8819882,41.2172324 C16.8819882,36.7391375 20.4859571,33.1089244 24.931678,33.1089244 Z" id="Path" fill="#FF5BA8"></path>
                        <polygon id="Path" fill="#B1E5FF" points="57.130437 43.9200017 73.2298165 43.9200017 73.2298165 54.7310791 57.130437 54.7310791"></polygon>
                        <path d="M3.76454911,35.3603652 L24.1303654,4.58918335 C24.4386207,4.12343333 25.0633464,3.99757834 25.5257293,4.30807835 C25.6247791,4.37459239 25.7113254,4.45828324 25.7813431,4.5552587 L46.0961456,32.6915206 C46.285492,32.9537679 46.5879811,33.1089244 46.9099049,33.1089244 L87.972556,33.1089244 C88.5282714,33.1089244 88.9787672,32.6551478 88.9787672,32.0953859 C88.9787672,31.8833475 88.9127469,31.6766487 88.7900009,31.504389 L66.8228305,0.676095195 C66.6338216,0.410844298 66.3295288,0.253553515 66.0053857,0.253553515 L23.6507445,0.253553515 C23.3147588,0.253553515 23.000942,0.422472897 22.8142224,0.703831441 L0.561811092,34.2348947 C0.252979793,34.7002573 0.377146252,35.3296887 0.839144639,35.6407689 C1.00465015,35.7522098 1.19925475,35.8116937 1.39833318,35.8116937 L2.92733077,35.8116937 C3.26376069,35.8116937 3.57793136,35.6423303 3.76454911,35.3603652 Z" id="Path-75" fill="#FF9E7F"></path>
                    </g>
                </g>
            </g>
        </g>
    </g>
</svg>