<?xml version="1.0" encoding="UTF-8"?>
<svg width="249px" height="223px" viewBox="0 0 249 223" version="1.1" xmlns="http://www.w3.org/2000/svg" xmlns:xlink="http://www.w3.org/1999/xlink">
    <!-- Generator: sketchtool 60 (101010) - https://sketch.com -->
    <title>29B895C1-4E2E-4673-B588-AF31C18AF65E@1x</title>
    <desc>Created with sketchtool.</desc>
    <g id="Page-1" stroke="none" stroke-width="1" fill="none" fill-rule="evenodd">
        <g id="Gomble-Brand-Design-System---Illustrations" transform="translate(-50.000000, -688.000000)">
            <g id="No-Discount-added" transform="translate(50.000000, 681.000000)">
                <path d="M133.926427,230 C50.9950279,230 0,224.850987 0,218.5 C0,212.148647 50.9950279,207 133.926427,207 C216.857301,207 249,212.148647 249,218.5 C249,224.850987 216.857301,230 133.926427,230 Z" id="Fill-34" fill="#FFF0F2" fill-rule="nonzero"></path>
                <g id="Group-92" transform="translate(30.000000, 0.000000)">
                    <g id="Group-90" transform="translate(0.000000, 35.811497)">
                        <polyline id="Fill-246" fill="#FF9A67" fill-rule="nonzero" points="11.835793 163.404274 7.51386296 178.287126 2.54759987 175.953433 4.91486451 159.54947 11.835793 163.404274"></polyline>
                        <path d="M2.34224226,174.380295 C1.74783557,174.330159 -0.428201567,177.886984 0.0748303948,179.862157 C0.368736709,181.019071 2.35919838,180.671902 4.93087864,180.973664 C7.50255887,181.275427 9.57309121,182.236526 11.3459491,182.192066 C13.1188071,182.147606 18.6936071,181.579081 18.6936071,181.579081 L18.5061476,180.085404 C18.5061476,180.085404 15.7441818,180.030538 14.621309,179.234982 C13.5003201,178.439427 8.84115143,174.836249 8.84115143,174.836249 C8.67441612,175.044362 7.44886445,175.963839 6.14135817,176.529525 C4.83385187,177.096158 4.67465262,176.951425 4.0623478,176.620338 C2.96396715,176.025326 3.28519168,174.45881 2.34224226,174.380295" id="Fill-247" fill="#0C0C0C" fill-rule="nonzero"></path>
                        <polyline id="Fill-248" fill="#FF9A67" fill-rule="nonzero" points="48.399811 160.357324 48.8745827 175.853161 43.4335479 175.176797 40.6310758 158.842835 48.399811 160.357324"></polyline>
                        <path d="M42.298429,172.478907 C41.7030803,172.514854 40.0573933,176.3479 40.8364334,178.230369 C41.292365,179.333363 43.2131181,178.703351 45.8017545,178.632403 C48.3894489,178.56051 50.5758481,179.214171 52.3242139,178.915246 C54.0716377,178.615376 59.5079625,177.251296 59.5079625,177.251296 L59.1104353,175.799241 C59.1104353,175.799241 56.3682517,176.143572 55.1445841,175.517344 C53.9209165,174.890169 48.7954541,171.995519 48.7954541,171.995519 C48.660747,172.224443 47.5783805,173.310409 46.365075,174.059613 C45.1517694,174.807871 44.97373,174.688679 44.3209189,174.448404 C43.1490616,174.017045 43.2432624,172.420257 42.298429,172.478907" id="Fill-249" fill="#0C0C0C" fill-rule="nonzero"></path>
                        <path d="M48.77944,94.102948 C49.285298,96.9796247 51.5847381,127.473385 51.7966897,134.129188 C51.9373629,138.56639 51.3616303,150.712669 50.0694922,170.568027 C45.0447519,172.514353 41.8985951,172.514353 40.6310219,170.568027 C38.7296621,167.648537 38.182928,142.360021 37.6403318,138.975361 C37.0977355,135.590703 30.8823305,108.404096 31.2129751,108.099495 C25.361225,138.768595 12.0937183,172.465966 9.93861129,174.37977 C8.50187319,175.65564 5.6524936,175.317114 1.39047241,173.364192 C2.80286496,156.421018 4.94358341,144.594509 7.81262775,137.884665 C12.1161942,127.8199 12.0466521,107.781423 11.835793,100.834878 C11.495263,89.6164493 16.4450353,78.7934657 16.4450353,78.7934657 C16.4450353,78.7934657 24.1000224,76.2400654 30.2040494,76.9065086 C39.0080479,77.8677371 47.2722281,82.1592058 47.2722281,82.1592058 C47.2722281,82.1592058 48.274524,91.2262713 48.77944,94.102948 Z" id="Fill-250" fill="#FFBF00" fill-rule="nonzero"></path>
                        <path d="M37.6392603,25.2291977 C39.8058773,25.5290683 42.9107337,25.8166414 42.5245107,25.5621771 C42.1354617,25.3058208 42.2805308,23.7270068 42.2805308,23.7270068 C42.2805308,23.7270068 47.3278065,26.0417809 49.4454392,28.6053434 C51.5621299,31.166068 49.1326928,67.6509557 49.1326928,67.6509557 L47.7922162,73.676746 L48.3112623,79.6240221 C48.9256701,81.9924668 48.7526547,83.8745616 47.7922162,85.2703073 C46.3515584,87.3639257 19.2548835,86.4544414 15.2341337,85.2703073 C11.2133839,84.0861731 12.1315833,80.7467578 12.1315833,80.7467578 L13.8997313,78.9655075 L14.5845707,73.2084938 L14.4423276,70.2864108 C14.4423276,70.2864108 12.3604911,30.1642206 15.6782413,26.6868568 C18.9950494,23.208547 34.3959287,19.8722033 34.3959287,19.8722033 C34.3959287,19.8722033 35.4745272,24.9293271 37.6392603,25.2291977 Z" id="Fill-258" fill="#B1E5FF" fill-rule="nonzero"></path>
                        <path d="M57.4522535,73.451631 L62.2534228,75.6197558 L65.3920283,76.914455 L66.5425379,80.3565746 L65.3609328,83.3420605 L61.7031215,85.744598 L61.675943,84.4328769 C61.675943,84.4328769 63.8171366,83.0646384 63.7358973,82.2431228 C63.4682025,79.5337141 60.906497,80.5183844 60.906497,80.5183844 C60.906497,80.5183844 60.2720407,81.5489454 58.9997812,80.9880435 C58.2622101,80.6622959 56.8766508,78.5334216 56.8766508,78.5334216 L54.2789586,77.2967431 L57.4522535,73.451631" id="Fill-260" fill="#F29F77" fill-rule="nonzero" transform="translate(60.410748, 79.598115) rotate(29.000000) translate(-60.410748, -79.598115) "></path>
                        <path d="M49.4454392,28.6053434 C51.5621299,31.166068 52.213057,32.0240755 53.353828,35.3491391 C54.113714,37.5645869 54.113714,46.5913551 53.353828,62.4294436 L62.5556412,74.5280691 L58.3507655,78.6109027 L46.3066705,69.5428831 C46.9874279,40.5421483 48.0336841,26.8963017 49.4454392,28.6053434 Z" id="Fill-258" fill="#B1E5FF" fill-rule="nonzero"></path>
                        <path d="M51.7081416,73.7851954 L57.2380694,76.2794817 L60.8533275,77.7683899 L62.1724899,81.7416235 L60.80433,85.1922436 L56.5830111,87.9746563 L56.5543664,86.4596935 C56.5543664,86.4596935 59.0253456,84.8749983 58.9333812,83.9263268 C58.6303508,80.7975493 55.6754275,81.9400935 55.6754275,81.9400935 C55.6754275,81.9400935 54.9419734,83.1316798 53.4765727,82.4864607 C52.6270322,82.1117427 51.0342381,79.6557714 51.0342381,79.6557714 L48.0423784,78.2327644 L51.7081416,73.7851954" id="Fill-260" fill="#FEB08A" fill-rule="nonzero"></path>
                        <path d="M46.9571448,80.8600606 C21.7090823,77.0443031 8.75126636,72.2789828 8.08369712,66.5640985 C7.08140127,57.9908263 8.69557374,28.6122009 15.6782413,26.6868568 C22.6609089,24.7615127 22.6693309,26.9973144 24.4888367,38.8340526 C25.0766644,42.6581475 19.6440449,56.1945136 20.4971795,59.8470566 C20.7021787,60.724724 31.4016092,64.809656 52.5954711,72.1018524 L46.9571448,80.8600606 Z" id="Fill-258" fill="#B1E5FF" fill-rule="nonzero"></path>
                        <path d="M48.5147359,64.6040051 C49.4963076,59.9725652 49.6065225,41.6549174 49.6074645,41.4704544" id="Fill-259" stroke="#0C0C0C" stroke-width="0.839552239"></path>
                        <path d="M42.1533598,22.8046918 L41.9621323,22.7507719 C39.1850944,21.0357391 38.0697577,17.4325621 38.0235993,17.2793159 C37.9651948,17.0844473 38.0744677,16.881065 38.2675792,16.8214693 C38.4644588,16.7637655 38.6641643,16.8725514 38.7225687,17.065528 C38.7338728,17.1005287 39.8068193,20.5580273 42.3445873,22.1254897 C42.5169746,22.2314377 42.569727,22.457523 42.4651642,22.6296885 C42.3954557,22.7422582 42.2758208,22.8046918 42.1533598,22.8046918" id="Fill-281" fill="#1D1119" fill-rule="nonzero"></path>
                        <path d="M36.6454424,14.3685846 C36.6454424,14.3685846 36.6181242,18.0171679 34.3959287,19.8722033 C32.1746752,21.7253469 36.7330491,26.3766521 38.9722007,26.6311164 C42.2833568,27.0085561 43.7199181,25.3455513 43.7199181,25.3455513 L44.1202713,23.2871335 L36.6454424,14.3685846" id="Fill-282" fill="#FEB08A" fill-rule="nonzero"></path>
                        <path d="M39.5063189,13.3516732 C39.5063189,13.3516732 38.7979293,9.22348609 42.5961032,7.87737923 C46.3942772,6.53221837 50.4552711,5.6789588 50.4552711,5.6789588 C50.4552711,5.6789588 52.3289239,9.25375694 52.205521,10.9650059 C52.082118,12.6753089 49.7760838,24.7770269 45.4098795,24.1980969 C41.041791,23.6201129 36.8036997,17.6047275 36.8036997,17.6047275 C36.8036997,17.6047275 34.6822989,12.6109833 36.2319011,11.7066417 C37.7805614,10.803246 39.5063189,13.3516732 39.5063189,13.3516732" id="Fill-283" fill="#FFB69E" fill-rule="nonzero"></path>
                        <path d="M39.6080557,13.5323523 C41.0097628,12.6743629 40.0894215,9.14402511 42.2164743,8.40428121 C44.343527,7.66453732 48.8425545,6.62586881 50.812292,7.53210235 C51.8607462,8.01454402 52.3750823,10.0436369 52.3750823,10.0436369 C52.3750823,10.0436369 53.8191797,9.83457887 53.85215,7.28236784 C53.8860622,4.72731897 52.4381968,1.87334545 51.4217708,1.3956336 C46.9613656,-0.702514649 43.0124705,1.83834478 43.0124705,1.83834478 C43.0124705,1.83834478 40.9475903,-1.06671081 38.4503287,0.426966422 C35.9530669,1.91969768 35.0402617,5.90031438 35.0402617,5.90031438 C35.0402617,5.90031438 33.5264559,4.52582863 32.9311072,6.79992616 C32.3357585,9.07402377 32.5882165,10.540268 32.5882165,10.540268 C32.5882165,10.540268 31.2430298,9.09767287 31.2138276,11.3906897 C31.1846254,13.6827606 31.9099711,15.3571169 32.7248075,15.9001003 C33.540586,16.4440296 36.2780595,18.3983913 36.2780595,18.3983913 L36.471171,16.2983512 C36.471171,16.2983512 35.5687279,12.8077438 36.5201554,11.7615076 C37.4706409,10.7152713 38.2054067,14.3893958 39.6080557,13.5323523" id="Fill-284" fill="#202C52" fill-rule="nonzero"></path>
                        <path d="M40.3155033,12.4473315 C40.3155033,12.4473315 41.1246877,16.7088996 41.4864186,17.2168823 C41.8490914,17.723919 45.8413189,17.5999977 47.5915686,17.777839 C49.7563017,17.9973026 50.4109968,19.3897617 50.4109968,19.3897617 C50.4109968,19.3897617 50.4599812,22.589958 50.1218006,23.8121436 C49.6799991,25.407039 48.0889485,27.3065347 44.4885962,25.7135313 C41.9913345,24.6086453 39.8727598,22.8122596 38.7093806,21.3914216 C38.1818565,20.7472201 37.866284,19.9620699 37.7946915,19.1305675 L37.609116,16.9794453 L38.5972818,12.751932 L40.3155033,12.4473315" id="Fill-285" fill="#202C52" fill-rule="nonzero"></path>
                        <polyline id="Path-2" stroke="#0C0C0C" stroke-width="0.839552239" points="24.4888367 38.8340526 23.2085772 57.359554 17.4233107 61.1427227 25.6717423 59.1011823 52.1454379 72.1864182 47.2722281 82.1592058 15.2341337 72.1864182"></polyline>
                    </g>
                    <g id="Group-128" transform="translate(122.257144, 107.531691) rotate(10.000000) translate(-122.257144, -107.531691) translate(79.757144, 6.031691)">
                        <g id="Group-125" transform="translate(0.471003, 0.000000)">
                            <path d="M58.9649902,22.658129 C65.5409782,62.4596271 65.6144549,82.3483388 59.18542,82.3242853" id="Path-100" stroke="#202D51" stroke-width="2" stroke-linecap="round" stroke-linejoin="round" transform="translate(61.458851, 52.491207) scale(-1, 1) rotate(-138.000000) translate(-61.458851, -52.491207) "></path>
                            <path d="M2.61544758,41.0446588 L32.7976858,2.75868786 C34.8735996,0.125404734 38.6822294,-0.319363951 41.3044985,1.7652692 C41.6713642,2.05691757 42.0033336,2.3902812 42.2937621,2.75868786 L72.4760005,41.0446588 C74.1698389,43.1932821 75.0914478,45.8533776 75.0914478,48.5937833 L75.0914478,148.765771 C75.0914478,155.482877 69.6689341,160.928166 62.979924,160.928166 L12.1115238,160.928166 C5.42251393,160.928166 1.59161573e-12,155.482877 1.59161573e-12,148.765771 L1.59161573e-12,48.5937833 C1.59161573e-12,45.8533776 0.921608917,43.1932821 2.61544758,41.0446588 Z M37.5457239,32.6148972 C41.5591299,32.6148972 44.8126382,29.3477234 44.8126382,25.3174603 C44.8126382,21.2871972 41.5591299,18.0200235 37.5457239,18.0200235 C33.532318,18.0200235 30.2788096,21.2871972 30.2788096,25.3174603 C30.2788096,29.3477234 33.532318,32.6148972 37.5457239,32.6148972 Z" id="Combined-Shape" fill="#FFE3E7" fill-rule="nonzero"></path>
                            <path d="M55.6563239,25.8647583 C62.0015161,65.6179772 61.9277219,85.5066908 55.4349412,85.530899" id="Path-100" stroke="#202D51" stroke-width="2" stroke-linecap="round" stroke-linejoin="round" transform="translate(57.897725, 55.697829) rotate(138.000000) translate(-57.897725, -55.697829) "></path>
                            <g id="%" transform="translate(15.475836, 39.865628)" fill="#7263EE" font-family="Poppins-Light, Poppins" font-size="107.999997" font-weight="300">
                                <text>
                                    <tspan x="0.269144578" y="113.654825">%</tspan>
                                </text>
                            </g>
                        </g>
                        <g id="Group-127" stroke-linecap="round" stroke-linejoin="round" transform="translate(0.387498, 83.218950)" stroke="#FF5BA8" stroke-width="8.99999976">
                            <ellipse id="Oval" cx="31.1871739" cy="31.3181665" rx="31.1871739" ry="31.3181665"></ellipse>
                            <line x1="11.9337249" y1="9.38636029" x2="51.4261776" y2="53.6653488" id="Path-101"></line>
                        </g>
                    </g>
                    <g id="Group-88" transform="translate(53.694423, 115.272476)" fill-rule="nonzero">
                        <path d="M39.7074967,92.1340603 C41.8364335,92.1340603 43.5697271,94.0732866 43.5697271,96.459008 C43.5697271,98.8428374 41.8364335,100.783955 39.7074967,100.783955 C37.5776179,100.783955 35.8443243,98.8428374 35.8443243,96.459008 C35.8443243,94.0732866 37.5776179,92.1340603 39.7074967,92.1340603 Z M72.9377503,92.1340603 C75.0676291,92.1340603 76.8009228,94.0732866 76.8009228,96.459008 C76.8009228,98.8428374 75.0676291,100.783955 72.9377503,100.783955 C70.8088135,100.783955 69.0755198,98.8428374 69.0755198,96.459008 C69.0755198,94.0732866 70.8088135,92.1340603 72.9377503,92.1340603 Z M19.3262242,91.2287727 C19.2602837,91.4406687 19.299848,91.6705379 19.430787,91.8493251 C19.5626681,92.0281123 19.7708517,92.1340603 19.9912814,92.1340603 L36.3040239,92.1340603 C35.1792671,93.1840804 34.4510953,94.7231639 34.4510953,96.459008 C34.4510953,99.6156894 36.8089399,102.183036 39.7074967,102.183036 C42.6051115,102.183036 44.9629561,99.6156894 44.9629561,96.459008 C44.9629561,94.7231639 44.2347844,93.1840804 43.1109695,92.1340603 L69.5342775,92.1340603 C68.4104626,93.1840804 67.6822908,94.7231639 67.6822908,96.459008 C67.6822908,99.6156894 70.0401355,102.183036 72.9377503,102.183036 C75.8363072,102.183036 78.1932098,99.6156894 78.1932098,96.459008 C78.1932098,94.7231639 77.4650381,93.1840804 76.3412232,92.1340603 L82.1873213,92.1340603 C82.5726024,92.1340603 82.8844068,91.8209462 82.8844068,91.4340469 C82.8844068,91.0471476 82.5726024,90.7349795 82.1873213,90.7349795 L20.9342309,90.7349795 L23.6632264,81.8221061 C24.4422665,79.2803006 26.409178,77.4612118 28.7962248,77.0762044 L65.6908873,71.1289283 C66.0705163,71.0683866 66.3295684,70.7089203 66.2692799,70.3286427 C66.2080494,69.9464733 65.8434925,69.6844412 65.4704576,69.7487668 L28.5767371,75.6950969 C25.6593401,76.165241 23.2685252,78.3551478 22.3321699,81.4115577 L19.3262242,91.2287727 L19.3262242,91.2287727 Z" id="Fill-278" fill="#202D51"></path>
                        <path d="M1.39322897,3.26546789 C1.39322897,2.236259 2.12516874,1.39908082 3.02572783,1.39908082 C3.92440291,1.39908082 4.65634267,2.236259 4.65634267,3.26546789 C4.65634267,4.29467676 3.92440291,5.13185494 3.02572783,5.13185494 C2.12516874,5.13185494 1.39322897,4.29467676 1.39322897,3.26546789 Z M14.7103878,18.3204856 L21.1772688,18.3204856 L23.1912806,32.4049443 L17.0569284,32.7587349 L14.7103878,18.3204856 Z M22.6807126,67.3564239 L21.8065297,61.9776723 L27.296549,61.1158991 L28.6370256,70.4941864 L26.9338761,70.7741918 C26.0408531,70.9227082 25.1167438,70.7013526 24.3499498,70.1479636 C23.4757669,69.5179515 22.8672301,68.5000942 22.6807126,67.3564239 Z M90.1105459,60.3364247 L88.4460187,60.6107543 L89.1949146,51.4036862 L93.7834329,50.6838076 L92.7604128,57.4238014 C92.531505,58.9420737 91.4642106,60.1122312 90.1105459,60.3364247 Z M98.0789868,22.3597521 L97.2019778,28.1386465 L91.0563213,28.493383 L91.8824619,18.3204856 L95.0447808,18.3204856 C95.8888195,18.3204856 96.6763377,18.6979253 97.2613243,19.3799654 C97.9452217,20.180251 98.2438381,21.2671637 98.0789868,22.3597521 Z M24.5873357,32.3245374 L22.5855699,18.3204856 L32.0668746,18.3204856 L33.5345221,31.808987 L24.5873357,32.3245374 Z M24.7860992,33.7141586 L33.6861853,33.2005001 L34.9513013,44.8197765 L26.4920746,45.646549 L24.7860992,33.7141586 Z M28.4750003,59.5143819 L26.6908382,47.0323863 L35.1020224,46.2103436 L36.4151808,58.2694932 L28.4750003,59.5143819 Z M37.585154,69.0146987 L30.0123563,70.2662091 L28.6737638,60.8992733 L36.566844,59.6610064 L37.585154,69.0146987 Z M47.6410832,67.353586 L38.9614268,68.7876673 L37.9440588,59.4453266 L47.0664587,58.013137 L47.6410832,67.353586 Z M57.2401388,65.7681502 L49.0230081,67.1256086 L48.4483836,57.7974572 L57.0856496,56.4418907 L57.2401388,65.7681502 Z M68.3021317,63.9396017 L58.6295997,65.537335 L58.4751105,56.224319 L68.3021317,54.6814516 L68.3021317,63.9396017 Z M77.6977139,62.3872747 L69.6953607,63.7097325 L69.6953607,54.4629339 L78.1451674,53.1376383 L77.6977139,62.3872747 Z M87.7800195,51.6250418 L87.0301816,60.8444074 L79.102247,62.1555135 L79.5487585,52.9172287 L87.7800195,51.6250418 Z M87.8958864,50.1909603 L79.617525,51.4907149 L80.0857027,41.8153946 L88.6447823,40.9791625 L87.8958864,50.1909603 Z M90.9413964,29.9009775 L96.9881421,29.5519168 L95.570421,38.8980415 L90.1670663,39.4258895 L90.9413964,29.9009775 Z M89.5378053,29.9813844 L88.7597072,39.5630543 L80.1544693,40.4040163 L80.6330091,30.4940969 L89.5378053,29.9813844 Z M81.2217637,18.3204856 L90.4845228,18.3204856 L89.6527303,28.57379 L80.7017756,29.0902863 L81.2217637,18.3204856 Z M69.6953607,18.3204856 L79.8285347,18.3204856 L79.3038366,29.1706933 L69.6953607,29.7240823 L69.6953607,18.3204856 Z M57.8467916,18.3204856 L68.3021317,18.3204856 L68.3021317,29.8044891 L58.0474391,30.3957167 L57.8467916,18.3204856 Z M46.0151784,18.3204856 L56.4535626,18.3204856 L56.6551522,30.4761236 L46.7989286,31.0437021 L46.0151784,18.3204856 Z M34.9277511,31.72858 L33.4676396,18.3204856 L44.6191234,18.3204856 L45.4085257,31.124109 L34.9277511,31.72858 Z M36.3379362,44.6835576 L35.0784723,33.1210391 L45.4951903,32.520352 L46.1847397,43.7224582 L36.3379362,44.6835576 Z M46.979794,56.6112183 L37.7923956,58.0528675 L36.4886574,46.0741248 L46.2714044,45.1187011 L46.979794,56.6112183 Z M57.0620994,55.0295664 L48.3617189,56.3936466 L47.6580393,44.9843742 L56.880292,44.0828705 L57.0620994,55.0295664 Z M68.3021317,53.2653435 L58.4515603,54.8110487 L58.2725789,43.9466516 L68.3021317,42.9666329 L68.3021317,53.2653435 Z M78.6858797,41.9525594 L78.212992,51.7101786 L69.6953607,53.0468258 L69.6953607,42.8304141 L78.6858797,41.9525594 Z M69.6953607,31.125055 L79.236012,30.5745039 L78.7537042,40.5411811 L69.6953607,41.4256575 L69.6953607,31.125055 Z M56.8576838,42.6790598 L47.5723167,43.5862393 L46.8855932,32.439945 L56.6787024,31.8752045 L56.8576838,42.6790598 Z M58.0700473,31.7947975 L68.3021317,31.2045159 L68.3021317,41.5618763 L58.2490287,42.5437869 L58.0700473,31.7947975 Z M94.0038626,49.2326988 L89.3107816,49.9686587 L90.0521414,40.8419977 L95.3537592,40.3245553 L94.0038626,49.2326988 Z M19.4920175,47.7352376 L25.3023193,47.1667132 L27.0987274,59.7310077 L21.58139,60.5965648 L19.4920175,47.7352376 Z M17.2830101,34.1464641 L23.3900442,33.7945655 L25.1035557,45.7818219 L19.2668777,46.3512922 L17.2830101,34.1464641 Z M1.42108547e-14,3.26546789 C1.42108547e-14,5.06658342 1.35743269,6.52998981 3.02572783,6.52998981 C4.4698252,6.52998981 5.67747872,5.42888765 5.97515306,3.96548128 L7.32693369,3.96548128 C9.43514633,3.96548128 11.2390905,5.64740535 11.6158935,7.96690919 L21.3063238,67.5815631 C21.5540718,69.112133 22.347242,70.426077 23.5360554,71.2859584 C24.3866881,71.8979971 25.3757959,72.2186789 26.3818598,72.2186789 C26.6399698,72.2186789 26.9018479,72.1969218 27.1599579,72.1543534 L90.3356856,61.7156402 C92.2884671,61.3940125 93.8164031,59.7527649 94.1376277,57.6347513 L95.2341243,50.4038022 C95.4762202,50.2637995 95.6212894,49.988524 95.576073,49.6943291 C95.5534648,49.5552725 95.4828143,49.4417568 95.3952076,49.3443225 L99.4552589,22.5697561 C99.6822827,21.0732411 99.2677995,19.5776719 98.3173146,18.469002 C97.4638559,17.47101 96.3004767,16.9223508 95.0447808,16.9223508 L14.482422,16.9223508 L12.9893403,7.74176974 C12.5032645,4.74306372 10.1209277,2.56545449 7.32693369,2.56545449 L5.97515306,2.56545449 C5.67747872,1.10110215 4.4698252,-4.26325641e-13 3.02572783,-4.26325641e-13 C1.35743269,-4.26325641e-13 1.42108547e-14,1.4652983 1.42108547e-14,3.26546789 L1.42108547e-14,3.26546789 Z" id="Fill-279" fill="#FF5BA8"></path>
                    </g>
                </g>
            </g>
        </g>
    </g>
</svg>