<?xml version="1.0" encoding="UTF-8"?>
<svg width="250px" height="269px" viewBox="0 0 250 269" version="1.1" xmlns="http://www.w3.org/2000/svg" xmlns:xlink="http://www.w3.org/1999/xlink">
    <!-- Generator: sketchtool 60 (101010) - https://sketch.com -->
    <title>51C0D8A7-147D-48A3-9A40-D029D60D9EC8@1x</title>
    <desc>Created with sketchtool.</desc>
    <defs>
        <linearGradient x1="50%" y1="9.02979782%" x2="50%" y2="100%" id="linearGradient-1">
            <stop stop-color="#435489" offset="0%"></stop>
            <stop stop-color="#2D3F5C" offset="100%"></stop>
        </linearGradient>
        <linearGradient x1="50%" y1="9.02979782%" x2="50%" y2="100%" id="linearGradient-2">
            <stop stop-color="#435489" offset="0%"></stop>
            <stop stop-color="#2D3F5C" offset="100%"></stop>
        </linearGradient>
        <linearGradient x1="52.9606269%" y1="46.0007341%" x2="17.1409981%" y2="1.32720974%" id="linearGradient-3">
            <stop stop-color="#638DEE" offset="0%"></stop>
            <stop stop-color="#AFDEFD" offset="100%"></stop>
        </linearGradient>
        <linearGradient x1="50%" y1="0%" x2="47.2210679%" y2="100%" id="linearGradient-4">
            <stop stop-color="#FEA1CF" offset="0%"></stop>
            <stop stop-color="#FC68A2" offset="100%"></stop>
        </linearGradient>
        <linearGradient x1="49.9103478%" y1="0%" x2="49.9471827%" y2="74.3248717%" id="linearGradient-5">
            <stop stop-color="#FFDED1" offset="0%"></stop>
            <stop stop-color="#FFBAA4" offset="100%"></stop>
        </linearGradient>
        <linearGradient x1="49.9016062%" y1="0%" x2="49.9420327%" y2="74.3248717%" id="linearGradient-6">
            <stop stop-color="#FFDED1" offset="0%"></stop>
            <stop stop-color="#FFBAA4" offset="100%"></stop>
        </linearGradient>
        <linearGradient x1="41.2871461%" y1="23.6377154%" x2="41.2871461%" y2="211.533926%" id="linearGradient-7">
            <stop stop-color="#FFDED1" offset="0%"></stop>
            <stop stop-color="#FFBAA4" offset="100%"></stop>
        </linearGradient>
        <linearGradient x1="50%" y1="9.02979782%" x2="50%" y2="100%" id="linearGradient-8">
            <stop stop-color="#2D3F5C" offset="0%"></stop>
            <stop stop-color="#435489" offset="100%"></stop>
        </linearGradient>
        <linearGradient x1="50%" y1="9.02979782%" x2="50%" y2="100%" id="linearGradient-9">
            <stop stop-color="#2D3F5C" offset="0%"></stop>
            <stop stop-color="#435489" offset="100%"></stop>
        </linearGradient>
    </defs>
    <g id="Page-1" stroke="none" stroke-width="1" fill="none" fill-rule="evenodd">
        <g id="Gomble-Brand-Design-System---Illustrations" transform="translate(-50.000000, -1958.000000)">
            <g id="No-designer" transform="translate(50.000000, 1958.000000)">
                <g id="Group-38-Copy" transform="translate(35.552632, 119.000000) scale(-1, 1) translate(-35.552632, -119.000000) translate(0.052632, 0.000000)" fill-rule="nonzero">
                    <path d="M52.9298254,98.1963044 C53.7859657,103.455954 54.3719306,107.277006 54.3719306,107.277006 C47.9192989,110.091041 40.5403515,111.241918 33.3438602,111.469989 C30.9438601,111.547182 28.5578952,111.519111 26.2350881,111.417357 C22.6175442,111.255954 19.1473687,110.912094 15.9824564,110.484024 C6.65964922,109.231392 0,107.277006 0,107.277006 C0,97.5366553 2.59649126,89.6454272 5.55789482,83.1331463 C8.89122825,75.7752515 12.6912282,70.1717426 13.7333335,65.6208654 C15.035088,59.9226197 12.2596493,46.6313914 10.249123,38.343672 C9.22807035,34.1436719 8.40701767,31.2278825 8.40701767,31.2278825 C1.40000002,20.9517419 4.76491235,14.9261278 4.76491235,14.9261278 C4.76491235,14.9261278 8.0280703,13.5654261 12.1122809,12.3198119 L12.1754388,12.3001628 C13.5789475,11.8734961 15.0736845,11.4612154 16.5614038,11.1219172 C18.112281,10.77104 19.6631582,10.4991102 21.0912284,10.3727944 C25.0807021,10.0250751 25.2912284,0.96086443 25.2912284,0.96086443 C25.2912284,0.96086443 26.9157899,0.234197755 30.8210531,0.349285476 C33.2526321,0.422267933 35.6631584,0.96086443 35.6631584,0.96086443 C35.6631584,0.96086443 35.6631584,8.12858384 39.0210532,9.62086456 C40.7438603,10.3896365 44.0280708,11.7924435 47.242106,13.1527945 L47.242106,13.1556015 C47.3473691,13.2005138 47.4596498,13.2454261 47.564913,13.2903383 L48.6245621,13.7391103 C49.0912288,13.9356015 49.5508779,14.1317418 50,14.3201629 C50.2245622,14.4152506 50.4421061,14.5078822 50.6631587,14.6005138 L51.7263166,15.0492857 C54.1263166,16.0619173 55.8666675,16.791391 55.8666675,16.791391 C57.3649132,20.66297 52.1298254,29.3594613 52.1298254,29.3594613 C52.3122815,29.926128 52.4315797,30.5826193 52.4947376,31.3149 C52.5017552,31.4215667 52.5087727,31.5306895 52.519299,31.6401632 C52.7052639,34.4664789 52.1649131,38.3577071 51.3578955,42.5963037 C49.9298253,50.0770055 47.6736849,58.6524442 47.1368428,64.4208654 C46.9508779,66.4419181 46.9719305,68.1226198 47.3192989,69.2875321 C47.333334,69.3401637 47.3473691,69.3927953 47.364913,69.4419181 C47.5859656,70.1085847 47.8350884,71.0173567 48.0982463,72.1085848 C49.5719305,78.168234 51.5859657,89.9436728 52.9298254,98.1963044" id="Fill-20" fill="url(#linearGradient-1)"></path>
                    <path d="M59.5964921,235.782271 L34.7894742,219.655955 C33.0947374,218.55771 32.084211,216.666482 32.1087724,214.645429 L33.6035093,89.7506904 C33.6035093,88.6664798 31.1228075,87.554199 30.0385969,87.554199 C28.9543864,87.554199 25.7263161,88.0103395 25.7263161,89.09455 L28.6140355,215.462973 C28.6491232,216.873499 27.9473689,218.203324 26.7649127,218.971745 L0.901754404,235.782271 C0.171929827,236.255955 0.508771938,237.38578 1.37543861,237.38578 L27.7649127,225.817359 C29.3473689,225.122622 31.1508776,225.122622 32.7333339,225.817359 L59.1228079,237.38578 C59.9894746,237.38578 60.3263167,236.255955 59.5964921,235.782271" id="Fill-21" fill="url(#linearGradient-2)"></path>
                    <path d="M52.9298254,98.1963044 C48.8842112,98.6419184 41.4982462,99.140164 33.5052637,98.0980588 C31.0000004,97.771743 28.4350882,97.2980588 25.8947372,96.6208658 C18.0315792,94.5261289 10.417544,90.5120939 5.55789482,83.1331463 C8.89122825,75.7752515 12.6912282,70.1717426 13.7333335,65.6208654 C15.035088,59.919111 12.2596493,46.6313914 10.249123,38.3401632 L12.1157896,12.3205137 L12.1157896,12.3170049 L12.1754388,12.2987593 C12.1754388,12.2987593 13.5894739,11.8699874 14.0526318,11.7313909 C14.7473687,11.5229698 16.5614038,11.1233207 16.5614038,11.1233207 C16.5614038,11.1233207 15.0736845,27.774549 38.6631585,28.7541982 C46.08772,29.0626192 50.2596499,30.0748999 52.4912289,31.3159526 C53.3403517,40.7857773 45.28772,63.1998127 47.364913,69.4419181 C48.8210533,73.8103392 51.3438604,88.4594623 52.9298254,98.1963044" id="Fill-24" fill="url(#linearGradient-3)"></path>
                    <path d="M47.242106,13.1534962 C47.242106,13.1534962 46.7157902,46.7717423 26.9543864,59.0278828 C7.19298256,71.2805146 21.2280705,143.641919 15.480702,170.32613 C9.73333351,197.010341 67.0631589,175.238411 69.9684221,145.122621 C72.8701765,115.003322 44.9298253,68.5892865 45.1719305,62.8278829 C45.4140358,57.0699881 52.473685,20.2587595 51.7263166,15.0482331 L47.242106,13.1534962" id="Fill-34" fill="url(#linearGradient-4)"></path>
                    <path d="M8.40701767,31.2278825 C1.40000002,20.9517419 4.76491235,14.9261278 4.76491235,14.9261278 C11.1754388,19.0047244 8.51929837,30.6247246 8.40701767,31.2278825" id="Fill-134" fill="#0B0754"></path>
                </g>
                <g id="Group" transform="translate(0.000000, 42.982456)">
                    <path d="M132.577066,225.438596 C50.4812335,225.438596 0,217.190749 0,207.017544 C0,196.843753 50.4812335,188.596491 132.577066,188.596491 C214.67238,188.596491 246.491228,196.843753 246.491228,207.017544 C246.491228,217.190749 214.67238,225.438596 132.577066,225.438596 Z" id="Fill-34" fill="#EDF2FB" fill-rule="nonzero"></path>
                    <g id="Group-25" transform="translate(60.350881, 0.000000)">
                        <g id="Group-23">
                            <g id="Group-2" transform="translate(0.000000, 66.000009)" fill-rule="nonzero">
                                <rect id="Rectangle" fill="url(#linearGradient-5)" x="16.3508778" y="13.2631589" width="5.68421097" height="125.052641"></rect>
                                <rect id="Rectangle-Copy-3" fill="url(#linearGradient-6)" x="143.508785" y="13.2631589" width="5.68421097" height="119.368431"></rect>
                                <rect id="Rectangle-Copy-2" fill="url(#linearGradient-6)" x="33.4035107" y="13.2631589" width="5.68421097" height="119.368431"></rect>
                                <rect id="Rectangle-Copy-4" fill="url(#linearGradient-5)" x="160.561418" y="13.2631589" width="5.68421097" height="125.052641"></rect>
                                <rect id="Rectangle" fill="url(#linearGradient-7)" x="0" y="3.63797881e-12" width="189.473699" height="13.2631589" rx="5.68421097"></rect>
                            </g>
                            <g id="Group-26" transform="translate(66.666667, 0.000000)">
                                <path d="M33.9303805,26.3210503 L47.8674116,26.3210503 C50.7974277,26.3210503 53.1726751,28.6962976 53.1726751,31.6263138 L53.1726751,42.7324438 C53.1726751,45.6624599 50.7974277,48.0377073 47.8674116,48.0377073 L5.49734157,48.0377073 C2.56732545,48.0377073 0.192078079,50.4129546 0.192078079,53.3429708 L0.192078079,62.611958 C0.192078079,65.5419741 2.56732545,67.9172215 5.49734157,67.9172215 L76.5906497,67.9172215 C79.5206659,67.9172215 81.8959132,65.5419741 81.8959132,62.611958 L81.8959132,51.070506 C81.8959132,49.3955375 80.538083,48.0377073 78.8631146,48.0377073 C77.1881461,48.0377073 75.8303159,46.679877 75.8303159,45.0049086 L75.8303159,33.1566829 C75.8303159,31.4817145 77.1881461,30.1238842 78.8631146,30.1238842 C80.538083,30.1238842 81.8959132,28.766054 81.8959132,27.0910855 L81.8959132,20.4029565 C81.8959132,15.0342363 77.5437056,10.6820287 72.1749854,10.6820287 L20.7009506,10.6820287 C17.7709345,10.6820287 15.3956871,13.0572761 15.3956871,15.9872922 L15.3956871,28.0199872 C15.3956871,31.9268992 18.5628651,35.0940772 22.4697771,35.0940772 L25.1573536,35.0940772 C27.5799581,35.0940772 29.543867,33.1301682 29.543867,30.7075637 C29.543867,28.2849592 31.5077761,26.3210503 33.9303805,26.3210503 Z" id="Path-2" fill="#FFBF00" fill-rule="nonzero"></path>
                                <rect id="Rectangle" fill="url(#linearGradient-8)" fill-rule="nonzero" x="21.1684883" y="34.4842127" width="2.65263175" height="10.610527"></rect>
                                <rect id="Rectangle" fill="#395C84" fill-rule="nonzero" x="29.1263836" y="14.5894746" width="23.8736857" height="7.95789524" rx="2.65263175"></rect>
                                <polyline id="Path-15" stroke="#67A5E3" stroke-width="1.32631587" points="31.7790154 17.4537246 34.9462992 17.4537246 34.9462992 19.7871627 38.0119739 19.7871627 38.0119739 17.2421063 43.2274172 17.2421063 43.2274172 21.1166161 47.8794029 21.1166161 47.8794029 17.2421063 50.9343145 17.2421063"></polyline>
                                <circle id="Oval" fill="#FFE3E7" fill-rule="nonzero" cx="64.9369122" cy="23.8736857" r="6.63157936"></circle>
                                <rect id="Rectangle" fill="#FFE3E7" fill-rule="nonzero" x="55.6527011" y="33.1578968" width="5.30526349" height="7.95789524" rx="2.65263175"></rect>
                                <rect id="Rectangle-Copy-5" fill="#FFE3E7" fill-rule="nonzero" x="68.9158597" y="33.1578968" width="5.30526349" height="7.95789524" rx="2.65263175"></rect>
                                <rect id="Rectangle" fill="url(#linearGradient-9)" fill-rule="nonzero" x="63.6105963" y="3.97894761" width="7.95789524" height="6.63157936"></rect>
                                <rect id="Rectangle" fill="url(#linearGradient-8)" fill-rule="nonzero" x="58.3053328" y="0" width="2.65263175" height="10.610527"></rect>
                                <path d="M41.3872484,68.3031835 C52.324534,68.3031835 45.4850596,46.8070175 59.991071,46.8070175 C74.4970824,46.8070175 85.42223,40.1754382 88.1137941,46.8070175 C78.4317441,50.8058245 100.365169,191.450199 81.0954733,209.68838 C56.4688466,228.619848 -1.31420989,214.684282 26.5687554,207.017544 C27.6292029,198.347785 34.7872293,197.816732 40.8751247,198.631598 C40.3035125,157.570385 33.0833879,68.3031835 41.3872484,68.3031835 Z" id="Rectangle" fill="#B1E5FF" fill-rule="nonzero" transform="translate(54.232334, 131.522930) scale(-1, 1) translate(-54.232334, -131.522930) "></path>
                                <path d="M30.2436356,45.0947396 C43.6724563,47.5123111 52.1421448,60.2585089 55.6527011,83.3333333 C60.9185354,117.94557 50.9343145,240.68263 50.3673792,177.367753 C49.9526124,131.046923 54.2323341,113.824543 50.9343145,84.3211639 C48.7356347,64.6522446 41.8387418,51.5767698 30.2436356,45.0947396 Z" id="Rectangle" fill="#8DC9E7" fill-rule="nonzero" opacity="0.300455729"></path>
                                <path d="M36.140347,124.561403 C43.5743556,125.903343 48.2630575,132.978468 50.2064527,145.78678 C53.1215454,164.999248 47.5944194,233.127808 47.2805719,197.983155 C47.0509627,172.271512 49.4201573,162.71176 47.5944194,146.335103 C46.3772608,135.417331 42.5592366,128.159431 36.140347,124.561403 Z" id="Rectangle-Copy" fill="#8DC9E7" fill-rule="nonzero" opacity="0.300455729" transform="translate(43.596487, 166.228070) rotate(180.000000) translate(-43.596487, -166.228070) "></path>
                            </g>
                        </g>
                    </g>
                </g>
            </g>
        </g>
    </g>
</svg>