<?xml version="1.0" encoding="UTF-8"?>
<svg width="232px" height="230px" viewBox="0 0 232 230" version="1.1" xmlns="http://www.w3.org/2000/svg" xmlns:xlink="http://www.w3.org/1999/xlink">
    <!-- Generator: sketchtool 60 (101010) - https://sketch.com -->
    <title>6A7E6A30-919F-4ED5-83EE-76984F222757@1x</title>
    <desc>Created with sketchtool.</desc>
    <defs>
        <linearGradient x1="50%" y1="9.02979782%" x2="50%" y2="100%" id="linearGradient-1">
            <stop stop-color="#435489" offset="0%"></stop>
            <stop stop-color="#2D3F5C" offset="100%"></stop>
        </linearGradient>
        <linearGradient x1="50.447865%" y1="29.0444821%" x2="50%" y2="100%" id="linearGradient-2">
            <stop stop-color="#2D3F5C" offset="0%"></stop>
            <stop stop-color="#435489" offset="100%"></stop>
        </linearGradient>
        <linearGradient x1="48.1652983%" y1="-12.6508175%" x2="50%" y2="100%" id="linearGradient-3">
            <stop stop-color="#2D3F5C" offset="0%"></stop>
            <stop stop-color="#435489" offset="100%"></stop>
        </linearGradient>
        <linearGradient x1="53.4836877%" y1="46.0007341%" x2="11.3357227%" y2="1.32720974%" id="linearGradient-4">
            <stop stop-color="#638DEE" offset="0%"></stop>
            <stop stop-color="#AFDEFD" offset="100%"></stop>
        </linearGradient>
        <linearGradient x1="54.6668942%" y1="46.0007341%" x2="43.0593633%" y2="-53.865354%" id="linearGradient-5">
            <stop stop-color="#638DEE" offset="0%"></stop>
            <stop stop-color="#AFDEFD" offset="100%"></stop>
        </linearGradient>
        <linearGradient x1="52.5569988%" y1="24.4606452%" x2="52.5569988%" y2="74.9623536%" id="linearGradient-6">
            <stop stop-color="#F5B097" offset="0%"></stop>
            <stop stop-color="#FFC0A9" offset="100%"></stop>
        </linearGradient>
        <linearGradient x1="54.2348906%" y1="46.0007341%" x2="2.99837408%" y2="1.32720974%" id="linearGradient-7">
            <stop stop-color="#638DEE" offset="0%"></stop>
            <stop stop-color="#AFDEFD" offset="100%"></stop>
        </linearGradient>
        <linearGradient x1="66.046101%" y1="42.7199773%" x2="13.7239587%" y2="57.1068905%" id="linearGradient-8">
            <stop stop-color="#CB7E2C" offset="0%"></stop>
            <stop stop-color="#FBB655" offset="100%"></stop>
        </linearGradient>
        <linearGradient x1="68.4247791%" y1="0%" x2="36.6324391%" y2="98.810909%" id="linearGradient-9">
            <stop stop-color="#CB7E2C" offset="0%"></stop>
            <stop stop-color="#FBB655" offset="100%"></stop>
        </linearGradient>
        <linearGradient x1="80.1384562%" y1="102.896846%" x2="40.7387797%" y2="88.1065321%" id="linearGradient-10">
            <stop stop-color="#F59A35" offset="0%"></stop>
            <stop stop-color="#FFCE70" offset="100%"></stop>
        </linearGradient>
        <linearGradient x1="52.4104413%" y1="102.896846%" x2="49.2592976%" y2="88.1065321%" id="linearGradient-11">
            <stop stop-color="#F59A35" offset="0%"></stop>
            <stop stop-color="#FFCE70" offset="100%"></stop>
        </linearGradient>
        <linearGradient x1="80.8626202%" y1="48.6789238%" x2="44.8988503%" y2="50.5541545%" id="linearGradient-12">
            <stop stop-color="#FEA037" offset="0%"></stop>
            <stop stop-color="#CB7E2C" offset="100%"></stop>
        </linearGradient>
        <linearGradient x1="184.57812%" y1="57.960271%" x2="8.64560519%" y2="55.7345256%" id="linearGradient-13">
            <stop stop-color="#F59A35" offset="0%"></stop>
            <stop stop-color="#FFCE70" offset="100%"></stop>
        </linearGradient>
        <linearGradient x1="184.57812%" y1="58.0627516%" x2="8.64560519%" y2="55.808352%" id="linearGradient-14">
            <stop stop-color="#F59A35" offset="0%"></stop>
            <stop stop-color="#FFCE70" offset="100%"></stop>
        </linearGradient>
        <radialGradient cx="50%" cy="28.9822971%" fx="50%" fy="28.9822971%" r="270.149185%" gradientTransform="translate(0.500000,0.289823),scale(0.176410,1.000000),translate(-0.500000,-0.289823)" id="radialGradient-15">
            <stop stop-color="#503921" offset="0%"></stop>
            <stop stop-color="#E59C42" stop-opacity="0" offset="100%"></stop>
        </radialGradient>
        <linearGradient x1="50%" y1="1.9847973%" x2="50%" y2="97.7486275%" id="linearGradient-16">
            <stop stop-color="#FFCE70" offset="0%"></stop>
            <stop stop-color="#FAB453" offset="100%"></stop>
        </linearGradient>
    </defs>
    <g id="Page-1" stroke="none" stroke-width="1" fill="none" fill-rule="evenodd">
        <g id="Gomble-Brand-Design-System---Illustrations" transform="translate(-382.000000, -681.000000)">
            <g id="Group-109" transform="translate(379.000000, 681.000000)">
                <g id="Add-Product" transform="translate(33.000000, 0.000000)">
                    <path d="M108.647141,220 C41.3694607,220 0,213.24 0,204.901961 C0,196.563442 41.3694607,189.803922 108.647141,189.803922 C175.924397,189.803922 202,196.563442 202,204.901961 C202,213.24 175.924397,220 108.647141,220 Z" id="Fill-34" fill="#EDF2FB" fill-rule="nonzero"></path>
                    <g id="Group-31" transform="translate(51.758007, 0.000000)">
                        <g id="Group-29">
                            <g id="Group-36" transform="translate(13.715868, 0.000000)">
                                <path d="M64.8433971,144.381295 L9.62385883,144.381295 C4.47853094,144.381295 0.30741854,140.209643 0.30741854,135.06365 L0.30741854,9.31764605 C0.30741854,4.17165224 4.47853094,0 9.62385883,0 L64.8433971,0 C68.9596594,0 72.2965491,3.33732179 72.2965491,7.45411686 L72.2965491,136.927178 C72.2965491,141.043974 68.9596594,144.381295 64.8433971,144.381295 Z" id="Fill-40" fill="url(#linearGradient-1)" fill-rule="nonzero"></path>
                                <polygon id="Fill-42" fill="#FFFFFF" fill-rule="nonzero" points="4.65822024 126.833038 68.4111984 126.833038 68.4111984 12.8117636 4.65822024 12.8117636"></polygon>
                                <rect id="Rectangle" fill="#FC68A2" fill-rule="nonzero" x="15" y="90" width="43.8505338" height="13.6601307" rx="3.88799933"></rect>
                                <g id="Add" transform="translate(26.441281, 91.588235)" fill="#FFFFFF" font-family="Helvetica" font-size="8" font-weight="normal">
                                    <g id="Order">
                                        <text>
                                            <tspan x="0" y="8">Order</tspan>
                                        </text>
                                    </g>
                                </g>
                                <path d="M27.050155,6.05837447 C26.58083,6.05837447 26.1970299,6.44233603 26.1970299,6.91149815 C26.1970299,7.38077209 26.58083,7.76462184 27.050155,7.76462184 L48.9746085,7.76462184 C49.4438216,7.76462184 49.8277336,7.38077209 49.8277336,6.91149815 C49.8277336,6.44233603 49.4438216,6.05837447 48.9746085,6.05837447 L27.050155,6.05837447 Z" id="Fill-44" fill="#FFFFFF" fill-rule="nonzero"></path>
                                <path d="M22.3030858,6.91149815 C22.3030858,7.38077209 22.6869977,7.76462184 23.1562109,7.76462184 C23.6253123,7.76462184 24.0092242,7.38077209 24.0092242,6.91149815 C24.0092242,6.44233603 23.6253123,6.05837447 23.1562109,6.05837447 C22.6869977,6.05837447 22.3030858,6.44233603 22.3030858,6.91149815 Z" id="Fill-45" fill="#FFFFFF" fill-rule="nonzero"></path>
                                <path d="M36.5253438,132.302596 C38.9378173,132.302596 40.893599,134.258631 40.893599,136.671417 C40.893599,139.084203 38.9378173,141.040237 36.5253438,141.040237 C34.1127583,141.040237 32.1570884,139.084203 32.1570884,136.671417 C32.1570884,134.258631 34.1127583,132.302596 36.5253438,132.302596 Z" id="Fill-46" fill="#FFFFFF" fill-rule="nonzero"></path>
                            </g>
                            <g id="Group-28" transform="translate(0.704481, 144.667959)">
                                <rect id="Rectangle" fill="#FFB290" fill-rule="nonzero" x="8.1518854" y="0" width="81.9070391" height="61.1111111"></rect>
                                <rect id="Rectangle" fill="#FAA079" fill-rule="nonzero" x="0" y="0" width="98.2108099" height="5.82352891"></rect>
                                <rect id="Rectangle" stroke="#FFFBFA" stroke-width="1.07999991" x="12.8101057" y="10.4535948" width="72.9787836" height="22.9490197"></rect>
                                <rect id="Rectangle" stroke="#FFFBFA" stroke-width="1.07999991" x="12.8101057" y="33.4601307" width="72.9787836" height="22.2300654"></rect>
                                <rect id="Rectangle" fill="#FFFBFA" fill-rule="nonzero" x="43.0885372" y="38.2483634" width="12.4219206" height="2.71764682"></rect>
                                <rect id="Rectangle" fill="#FFFBFA" fill-rule="nonzero" x="43.0885372" y="13.8039206" width="12.4219206" height="2.71764682"></rect>
                            </g>
                        </g>
                    </g>
                </g>
                <g id="Group-105" transform="translate(124.000000, 44.000000)">
                    <path d="M10.5,21 C16.2989899,21 21,16.2989899 21,10.5 C21,4.70101013 16.2989899,0 10.5,0 C4.70101013,0 0,4.70101013 0,10.5 C0,16.2989899 4.70101013,21 10.5,21 Z" id="Oval" stroke="#7263EE" stroke-width="2" stroke-linecap="round" stroke-linejoin="round" stroke-dasharray="4"></path>
                    <circle id="Oval" fill="#7263EE" fill-rule="nonzero" cx="15.2068966" cy="7.96551724" r="1.44827586"></circle>
                    <circle id="Oval-Copy-7" fill="#7263EE" fill-rule="nonzero" cx="6.51724138" cy="7.96551724" r="1.44827586"></circle>
                    <path d="M13.7586207,15.2068966 C12.8920752,14.2413793 11.8058683,13.7586207 10.5,13.7586207 C9.19413173,13.7586207 8.10792483,14.2413793 7.24137931,15.2068966" id="Oval" stroke="#7263EE" stroke-width="2" stroke-linecap="round" stroke-linejoin="round"></path>
                </g>
                <g id="Group-108" transform="translate(149.000000, 22.000000)" fill-rule="nonzero">
                    <path d="M37.8531375,178.957546 C32.9392651,182.793344 29.6300951,184.711243 27.9256277,184.711243 C26.2211604,184.711243 25.8260367,185.615082 26.7402567,187.42276 C38.7626355,187.42276 45.7542849,187.42276 47.7152047,187.42276 C49.6761246,187.42276 49.6761246,184.601022 47.7152047,178.957546 L37.8531375,178.957546 Z" id="Path-93" fill="#023B4C"></path>
                    <path d="M59.9275022,178.957546 C57.5204142,182.413778 55.5211039,184.319632 53.9295712,184.675107 C52.3380384,185.030582 51.9367946,185.994717 52.7258399,187.567512 C62.9084532,187.567512 68.8021342,187.567512 70.4068828,187.567512 C71.7188749,187.567512 70.6378024,184.929992 70.4068828,184.078049 C70.2529363,183.510086 70.1304599,181.803252 70.0394535,178.957546 L59.9275022,178.957546 Z" id="Path-93-Copy" fill="#023B4C"></path>
                    <polygon id="Path-80" fill="url(#linearGradient-2)" points="34.2900202 81.9010813 56.7605435 81.9010813 53.1199115 141.02513 49.7349789 180.923986 34.2900202 180.923986"></polygon>
                    <polygon id="Path-80" fill="url(#linearGradient-3)" points="49.0328779 81.9010813 73.2378551 81.9010813 72.2828786 131.412533 72.2828786 180.923986 56.8379202 180.923986 54.5911997 131.412533"></polygon>
                    <path d="M41.5491767,28.0536839 C33.0291416,33.490139 27.4668618,41.7950281 24.8623371,52.968351 C26.3975472,53.5634743 29.1786871,54.7398322 33.205757,56.4974248 L39.6619389,47.4005393 L41.5491767,28.0536839 Z" id="Path-88" fill="url(#linearGradient-4)"></path>
                    <path d="M34.2900202,46.8105614 C34.2900202,33.6236671 41.134373,24.8791941 53.7273049,24.0906195 C66.3202367,23.302045 77.5016448,31.0178776 72.2567868,45.6651299 C68.7602148,55.4299647 69.0872375,67.5086151 73.2378551,81.9010813 L34.2900202,81.9010813 C34.2900202,67.2986642 34.2900202,55.6018243 34.2900202,46.8105614 Z" id="Path-81" fill="url(#linearGradient-5)"></path>
                    <path d="M49.2502568,16.9587394 L60.0166085,16.9587394 C59.0534582,21.5535731 59.2579361,24.4271767 60.6300422,25.5795502 C61.012555,25.9008064 58.8892687,28.2825403 54.2601833,32.7247519 C49.6600314,28.3932669 47.4847993,26.1616721 47.734487,26.0299677 C49.2905572,25.2091762 49.7958138,22.1854335 49.2502568,16.9587394 Z" id="Rectangle" fill="url(#linearGradient-6)"></path>
                    <path d="M56.8737771,21.6766484 C56.2655022,21.7847016 55.0992498,22.8628939 54.4317644,24.7987806 C53.9867741,26.0893717 54.3098632,29.347968 55.4010319,34.5745695 L59.4835387,31.0368315 C61.0419398,32.2877248 61.8952441,32.8503649 62.0434517,32.7247519 C62.265763,32.5363322 60.7178294,30.7583746 60.4887009,30.1849076 C60.2595723,29.6114406 56.8737771,27.1662874 56.8737771,21.6766484 Z" id="Path-11" fill="#ADDCFD" transform="translate(58.151817, 28.125609) scale(-1, 1) translate(-58.151817, -28.125609) "></path>
                    <path d="M49.4316933,22.0223407 C48.8234185,22.130394 47.7311744,23.0480417 47.3505903,24.7987806 C47.0968674,25.9659399 46.970006,29.3192346 46.970006,34.8586648 L51.6784961,31.0368315 C53.2368972,32.2877248 54.0902015,32.8503649 54.238409,32.7247519 C54.4607203,32.5363322 52.9127868,30.7583746 52.6836582,30.1849076 C52.4545297,29.6114406 49.4316933,27.5119797 49.4316933,22.0223407 Z" id="Path-11" fill="#ADDCFD"></path>
                    <ellipse id="Oval" fill="#FFC0A9" cx="54.2803557" cy="13.4817213" rx="7.80504267" ry="10.0745046"></ellipse>
                    <ellipse id="Oval" fill="#FFC0A9" transform="translate(61.906612, 14.762632) rotate(11.000000) translate(-61.906612, -14.762632) " cx="61.9066123" cy="14.7626318" rx="1.56060813" ry="2.32549199"></ellipse>
                    <ellipse id="Oval-Copy" fill="#FFC0A9" transform="translate(47.350590, 14.724276) rotate(-14.000000) translate(-47.350590, -14.724276) " cx="47.3505902" cy="14.724276" rx="1.56036477" ry="2.32586029"></ellipse>
                    <path d="M58.9633813,6.45925938 C58.8496646,10.2762341 59.4737103,12.1847214 60.8355185,12.1847214 L60.8355185,14.724276 L61.4923365,14.7626318 L61.7572792,12.5373919 C64.3767908,7.97154206 64.2884766,5.06208416 61.4923365,3.80901822 C60.8091018,4.42244756 59.9661167,5.30586129 58.9633813,6.45925938 Z" id="Path-6" fill="#023B4C"></path>
                    <path d="M59.4602894,6.3815171 C54.8130749,8.62381961 51.2099604,9.154942 48.650946,7.97488437 C49.5900039,9.52612016 48.417386,12.4250388 47.6640922,13.0934628 C47.6640922,14.0935598 47.8316685,14.9979412 48.166821,15.806607 L47.2558173,15.6302467 L46.475313,13.0934628 C44.9774865,11.5253179 44.2285732,9.28800266 44.2285732,6.3815171 C44.2285732,2.02178874 58.0614559,-4.1191198 61.6265955,3.90021823 C62.5434149,4.73187046 61.8213128,5.55897008 59.4602894,6.3815171 Z" id="Path-5" fill="#023B4C"></path>
                    <path d="M67.2620415,27.21828 C73.9417492,30.2513714 77.8487364,33.0175396 78.9830034,35.5167846 C80.1172712,38.0160296 82.3443077,44.7330989 85.6641144,55.6679924 L72.0035914,55.6679924 L69.3796211,47.4901108 L67.2620415,27.21828 Z" id="Path-82" fill="url(#linearGradient-7)"></path>
                    <polygon id="Path-91" fill="#FFA800" points="12.4732036 47.3706821 12.4732036 86.2142756 63.2330714 86.2142756 63.2330714 47.3706821"></polygon>
                    <path d="M12.0403195,72.8785688 C10.6837124,73.825542 9.53952218,75.9978483 11.317389,79.154872 C12.5026336,81.259555 14.1786103,82.0484102 16.3453191,81.5214376 C17.46764,78.7332985 17.46764,77.1320164 16.3453191,76.7175913 C15.2229982,76.3031661 14.4600732,75.5224781 14.0565444,74.3755282 C14.3016838,74.1360571 14.8793757,73.8692183 15.7896201,73.5750112 C15.7896201,72.2396774 13.3969267,71.9315949 12.0403195,72.8785688 Z" id="Path-94" fill="#FFC0A9"></path>
                    <polygon id="Path-90" fill="#FFBF00" points="12.4732036 47.3706821 44.4019216 47.3706821 33.205757 59.4359685 0.697512661 59.4359685"></polygon>
                    <polygon id="Path-91" fill="#EB9500" points="44.154079 47.3706821 44.154079 86.2142756 63.2330714 86.2142756 63.2330714 47.3706821"></polygon>
                    <polygon id="Path-92" fill="#FFBF00" points="44.2285732 47.3587805 50.5339483 58.1584391 71.4049065 58.1584391 63.6937155 47.3587805"></polygon>
                    <path d="M72.943532,55.6198772 L73.2378551,62.9035814 L51.7803985,76.8985118 C48.1011004,75.5194988 45.9307967,74.9143376 45.2694871,75.0830281 C45.4833375,76.0079802 46.0534048,77.0658921 47.4888501,76.8985118 C47.7159057,77.0345951 48.0207398,77.4111024 48.4033523,78.0280345 C47.4385227,78.2346802 46.795527,78.6320591 46.1482561,78.6765635 C43.2451243,78.8761757 42.9904252,77.4853596 42.0580292,78.0280345 C40.9177499,78.6917025 40.6239502,82.4111648 41.5491767,83.1545189 C42.4744034,83.8978738 45.0075049,84.8983818 46.5629403,84.8983818 C47.5998973,84.8983818 49.8594297,83.8992817 53.3415377,81.9010813 C71.7385117,76.6603675 81.7406888,73.2174453 83.3480686,71.572315 C84.9554483,69.9271844 85.3277235,64.6257435 84.4648949,55.6679924 L72.943532,55.6198772 Z" id="Path-89" fill="#FFC0A9"></path>
                </g>
                <g id="Group-88" transform="translate(0.000000, 155.000000)" fill-rule="nonzero">
                    <polygon id="Path-30" fill="url(#linearGradient-8)" points="43.8200342 56.8844483 74.3602154 42.345456 104.900397 49.3337728 78.9075662 65.6522732"></polygon>
                    <polygon id="Path-28" fill="url(#linearGradient-9)" points="43.8200342 10.6389881 74.3602154 6.57431516 74.3602154 42.345456 43.8200342 56.8844483"></polygon>
                    <polygon id="Path-29" fill="#CD741A" points="74.3602154 6.57431516 74.3602154 42.345456 104.900397 49.3337728 104.900397 10.6389881"></polygon>
                    <polygon id="Path-27" fill="#FFA500" points="78.9075662 17.7710015 78.9075662 65.6522732 104.900397 49.3337728 104.900397 10.6389881"></polygon>
                    <polygon id="Path-33" fill="url(#linearGradient-10)" points="78.9075662 17.7710015 101.566473 17.7710015 101.566473 62.1902818 78.9075662 65.6522732"></polygon>
                    <polygon id="Path-31" fill="url(#linearGradient-11)" points="43.8200342 10.6389881 37.6308962 14.9863938 37.6308962 49.3337728 43.8200342 56.8844483"></polygon>
                    <polygon id="Path-26" fill="url(#linearGradient-12)" points="43.8200342 10.6389881 73.3195259 6.57431516 104.900397 10.6389881 78.9075662 17.7710015"></polygon>
                    <polygon id="Path-32" fill="url(#linearGradient-13)" points="43.8200342 10.6389881 52.7714332 0 89.6303057 3.89767408 78.9075662 17.7710015"></polygon>
                    <polygon id="Path-34" fill="url(#linearGradient-14)" points="43.8200342 56.8844483 32.5068477 62.4676451 68.7534209 74.9999957 78.9075662 65.6522732"></polygon>
                    <g id="Group-90" transform="translate(0.000000, 21.634615)">
                        <path d="M14.7308058,3.21202635 C8.51202008,3.81694462 3.54724554,8.92739899 3.10680846,15.1452975 C2.88753629,18.2396977 3.76840438,21.1149367 5.38911748,23.4416109 C5.99939792,24.3178721 6.10011479,25.4499541 5.69099132,26.4347589 L4.66698765,28.8974855 L8.85844369,27.8160478 C9.54164087,27.6395344 10.2632519,27.6953653 10.9108994,27.9758307 C12.8547989,28.8181818 15.0441684,29.2032208 17.3435815,28.9824959 C23.4476176,28.3970576 28.3833578,23.4826463 28.9687714,17.3931706 C29.7545486,9.22394309 22.92195,2.4157356 14.7308058,3.21202635" id="Fill-27" fill="#FF5BA8" transform="translate(16.052054, 16.096154) rotate(-105.000000) translate(-16.052054, -16.096154) "></path>
                        <path d="M11.7369861,13.2248344 C11.7369861,12.6896004 11.908351,12.1473319 12.251086,11.5980128 C12.593821,11.0486937 13.0938695,10.5937516 13.7512465,10.2331729 C14.4086235,9.87259413 15.1755518,9.69230748 16.0520546,9.69230748 C16.8667525,9.69230748 17.5859233,9.84301587 18.2095888,10.1444371 C18.833254,10.4458584 19.3150423,10.8557289 19.6549681,11.3740607 C19.9948938,11.8923927 20.164854,12.4557885 20.164854,13.0642651 C20.164854,13.5431587 20.0679346,13.9628885 19.8740926,14.3234673 C19.6802507,14.684046 19.4498913,14.9953222 19.1830074,15.2573052 C18.9161236,15.5192881 18.4371445,15.9601453 17.746056,16.57989 C17.5550233,16.7545453 17.4019185,16.9080707 17.2867371,17.0404707 C17.1715557,17.1728706 17.0858732,17.2940008 17.0296871,17.4038646 C16.9735011,17.5137284 16.9299576,17.6235906 16.8990552,17.7334544 C16.8681528,17.8433182 16.8218001,18.0362813 16.7599954,18.3123494 C16.6532419,18.8982898 16.3189398,19.1912556 15.7570791,19.1912556 C15.4649116,19.1912556 15.2191012,19.0954783 15.0196406,18.9039209 C14.8201801,18.7123635 14.7204513,18.4278486 14.7204513,18.0503678 C14.7204513,17.5771082 14.7934921,17.1672377 14.9395759,16.8207441 C15.0856597,16.4742505 15.2794987,16.1700167 15.5210988,15.9080338 C15.7626989,15.6460508 16.0885732,15.3347746 16.4987315,14.9741959 C16.8583223,14.6586896 17.118179,14.4206548 17.2783092,14.2600846 C17.4384396,14.0995144 17.5732841,13.9206362 17.6828469,13.7234448 C17.7924097,13.5262532 17.8471904,13.3121629 17.8471904,13.0811671 C17.8471904,12.6304437 17.6800393,12.2501515 17.3457322,11.9402792 C17.0114251,11.6304069 16.5802035,11.475473 16.0520546,11.475473 C15.4340078,11.475473 14.9789074,11.6318153 14.6867399,11.9445047 C14.3945723,12.2571941 14.1473573,12.7177701 13.9450875,13.3262467 C13.7540549,13.9628935 13.3916602,14.2812122 12.8578925,14.2812122 C12.5432505,14.2812122 12.2777754,14.1699415 12.061459,13.9473968 C11.8451426,13.7248522 11.7369861,13.4840004 11.7369861,13.2248344 Z M15.8497857,22.487154 C15.5070506,22.487154 15.2078643,22.3758834 14.9522177,22.1533387 C14.6965711,21.930794 14.5687497,21.6195178 14.5687497,21.2195008 C14.5687497,20.8645561 14.6923572,20.5659563 14.9395759,20.3236925 C15.1867946,20.0814287 15.4901948,19.9602986 15.8497857,19.9602986 C16.2037579,19.9602986 16.5015396,20.0814287 16.7431396,20.3236925 C16.9847397,20.5659563 17.105538,20.8645561 17.105538,21.2195008 C17.105538,21.6138837 16.9791212,21.9237514 16.726284,22.1491131 C16.4734466,22.3744748 16.1812835,22.487154 15.8497857,22.487154 Z" id="?" fill="#FFFFFF"></path>
                    </g>
                    <path d="M33.4326919,47.0192279 L32.8054475,46.908139 C32.9513297,46.0879404 33.0269723,45.2520817 33.0313931,44.4230742 L33.6684611,44.4264999 C33.6640405,45.2907426 33.5849595,46.1633047 33.4326919,47.0192279 Z M29.1113971,47.2992642 C28.3962086,47.1401167 27.6620971,47.0590961 26.9304116,47.0590961 L26.675195,47.062472 L26.6596686,46.436974 C27.5262403,46.4162366 28.4000902,46.4996685 29.2487095,46.6891987 L29.1113971,47.2992642 Z M22.1403657,48.8017329 L21.6895574,48.3417494 C22.2571682,47.7869902 23.0330356,47.371169 24.0618923,47.0709639 L24.2785984,47.6783209 C23.3312549,47.954708 22.623978,48.3293442 22.1403657,48.8017329 Z M33.4933636,49.5414492 C32.8828228,49.0940469 32.2272463,48.6245063 31.5174223,48.2337373 L31.2953144,48.1153224 L31.5993054,47.5222185 C31.6786297,47.5628914 31.7574421,47.6051089 31.8357428,47.6478412 C32.5803671,48.0581744 33.2835382,48.5616949 33.8843554,49.0018893 L33.4933636,49.5414492 Z M61.0284264,50.4665526 L60.8349617,49.8547997 C61.6320361,49.5893596 62.4257249,49.3120118 63.2150608,49.0242449 L63.4240027,49.63054 C62.6307975,49.9202915 61.8313048,50.1996239 61.0284264,50.4665526 Z M55.9471063,51.6731665 L55.8001386,51.1116192 C56.5812359,50.9360242 57.3950996,50.7368086 58.2171551,50.5193204 L58.3891796,51.0755196 C57.5589325,51.2947905 56.7373589,51.4957888 55.9471063,51.6731665 Z M31.6470595,52.046012 L31.0689766,51.7277738 C31.5006119,51.0075504 31.870585,50.2410201 32.168105,49.4498583 L32.7950039,49.6661223 C32.4841237,50.4927534 32.0982212,51.2932751 31.6470595,52.046012 Z M38.023973,52.3272874 C37.2754056,52.0594242 36.573501,51.731576 35.9374152,51.3540853 C35.8377045,51.2951347 35.7384849,51.2330814 35.6397565,51.1710282 L35.9688511,50.5965183 C36.0616852,50.6554689 36.1550106,50.7133853 36.2498095,50.7692333 C36.8520034,51.1270738 37.5175603,51.4378573 38.2287975,51.6927927 L38.023973,52.3272874 Z M50.8822807,52.8834771 L50.7976715,52.1867232 C51.6041179,52.0636391 52.4352218,51.9096484 53.2682596,51.729631 L53.3867125,52.4198782 C52.5430381,52.6026067 51.7003306,52.7587663 50.8822807,52.8834771 Z M43.1981249,53.2031443 L42.7962265,53.1738867 C42.0225236,53.1130858 41.3211431,53.031256 40.6527686,52.9219972 L40.7600385,52.3377598 C41.4099684,52.4438185 42.0933898,52.5238197 42.8481627,52.5832492 L43.2418095,52.6111353 L43.1981249,53.2031443 Z M45.6796388,53.1819965 L45.6766861,52.4347237 C46.507876,52.4301145 47.3636719,52.3903598 48.2189757,52.3166119 L48.2657271,53.0615801 C47.3961518,53.1364803 46.5255923,53.1773873 45.6796388,53.1819965 Z M20.9886486,53.3638694 C20.6193801,52.6496501 20.4246566,51.8645871 20.4246566,51.0930181 C20.4246566,51.0298854 20.42617,50.9667526 20.4291968,50.9031379 L20.4367637,50.7677157 L21.0890371,50.8134991 L21.0824791,50.9277163 C21.0804612,50.9836201 21.0789478,51.0385601 21.0789478,51.0930181 C21.0789478,51.7691651 21.2499615,52.4583241 21.5753415,53.087242 L20.9886486,53.3638694 Z M28.0560573,55.8004147 L27.7838268,55.2434516 C28.4247325,54.9257338 29.0447341,54.4343238 29.627203,53.7811841 L30.0851965,54.1960355 C29.4504669,54.9080296 28.7672775,55.4482456 28.0560573,55.8004147 Z M25.4535985,56.1925722 C24.5333766,56.1280829 23.6527604,55.8209911 22.907097,55.3030296 L23.2576811,54.7502645 C23.91142,55.2037366 24.685443,55.4734655 25.496138,55.5297657 L25.4535985,56.1925722 L25.4535985,56.1925722 Z" id="Fill-15" fill="#3BB4A3" transform="translate(41.924330, 50.307823) rotate(-13.000000) translate(-41.924330, -50.307823) "></path>
                    <g id="2932706" transform="translate(63.075342, 50.663462) scale(-1, 1) translate(-63.075342, -50.663462) translate(52.075342, 39.663462)">
                        <path d="M10.9617692,21.6346141 C16.3802867,21.6346141 20.7728536,20.0847754 20.7728536,18.1730758 L1.15068486,18.1730758 C1.15068486,20.0848997 5.54325172,21.6346141 10.9617692,21.6346141 Z" id="Path" fill="url(#radialGradient-15)"></path>
                        <path d="M9.47919805,18.9546046 C10.1019372,18.9546046 10.8127431,18.9546046 11.6116158,18.9546046 C13.0374692,18.9546046 14.224114,0.00354807671 12.1423886,0.00354807671 C11.3372647,0.00354807671 10.4495346,0.00354807671 9.47919805,0.00354807671 C4.26034581,0.00354807671 0.0296301352,4.24588659 0.0296301352,9.47907635 C0.0296301352,14.7122661 4.26034581,18.9546046 9.47919805,18.9546046 Z" id="Oval" fill="url(#linearGradient-16)"></path>
                        <ellipse id="Oval" fill="#FFF438" cx="12.3559102" cy="9.47907635" rx="9.44956792" ry="9.47552827"></ellipse>
                        <path d="M12.3559102,12.5348358 C14.1793286,12.5348358 15.8717847,13.1769944 17.2712908,14.2744318 C17.4116168,14.3844655 17.5938421,14.2016097 17.4847141,14.0603789 C16.2296765,12.4362252 14.3971101,11.4124753 12.3559102,11.4124753 C10.3147103,11.4124753 8.48214402,12.4362685 7.22710642,14.0603789 C7.11797834,14.2015664 7.30020368,14.3844655 7.44052971,14.2744318 C8.8400358,13.1769944 10.5324487,12.5348358 12.3559102,12.5348358 L12.3559102,12.5348358 Z" id="Path" fill="#15120B"></path>
                        <path d="M9.33540559,9.99605712 C8.79274265,9.99605712 8.35282141,9.55492731 8.35282141,9.01077353 L8.35282141,6.5006823 C8.35282141,5.95652849 8.79274265,5.51539871 9.33540559,5.51539871 C9.8780686,5.51539871 10.3179898,5.95652849 10.3179898,6.5006823 L10.3179898,9.01077353 C10.3179466,9.55492731 9.8780686,9.99605712 9.33540559,9.99605712 L9.33540559,9.99605712 Z" id="Path" fill="#15120B"></path>
                        <path d="M15.3764148,9.99605712 C14.8337519,9.99605712 14.3938306,9.55492731 14.3938306,9.01077353 L14.3938306,6.5006823 C14.3938306,5.95652849 14.8337519,5.51539871 15.3764148,5.51539871 C15.9190778,5.51539871 16.358999,5.95652849 16.358999,6.5006823 L16.358999,9.01077353 C16.358999,9.55492731 15.9190778,9.99605712 15.3764148,9.99605712 L15.3764148,9.99605712 Z" id="Path" fill="#15120B"></path>
                    </g>
                </g>
            </g>
        </g>
    </g>
</svg>