<?xml version="1.0" encoding="UTF-8"?>
<svg width="197px" height="195px" viewBox="0 0 197 195" version="1.1" xmlns="http://www.w3.org/2000/svg" xmlns:xlink="http://www.w3.org/1999/xlink">
    <!-- Generator: sketchtool 60 (101010) - https://sketch.com -->
    <title>16E2EFEF-D410-4C9F-9ACA-9B417FD30238@1x</title>
    <desc>Created with sketchtool.</desc>
    <defs>
        <linearGradient x1="-10.0310065%" y1="59.0367882%" x2="0%" y2="44.8950585%" id="linearGradient-1">
            <stop stop-color="#FFCF00" offset="0%"></stop>
            <stop stop-color="#FFA200" offset="100%"></stop>
        </linearGradient>
    </defs>
    <g id="Page-1" stroke="none" stroke-width="1" fill="none" fill-rule="evenodd">
        <g id="Gomble-Brand-Design-System---Illustrations" transform="translate(-410.000000, -1610.000000)">
            <g id="No-Reviews" transform="translate(410.000000, 1610.000000)">
                <path d="M105.957856,195 C40.3454641,195 0,190.970337 0,186 C0,181.029376 40.3454641,177 105.957856,177 C171.569833,177 197,181.029376 197,186 C197,190.970337 171.569833,195 105.957856,195 Z" id="Fill-34" fill="#FFF0F2" fill-rule="nonzero"></path>
                <g id="Group-124" transform="translate(60.000000, 178.000000)" fill-rule="nonzero">
                    <polygon id="Star-Copy" fill="url(#linearGradient-1)" points="9.8009627 11.3193119 0 9.51854605 0 6.4302359 9.47840073 5.79975203 10.6184016 1.44452075 18.1636 4.47335244 28.1058952 2.13791664 28.1058952 5.40729176 23.9823737 8.53754387 28.7510191 9.88945766 28.7510191 12.9611385 18.6855162 12.3882703 11.6622339 15.630567"></polygon>
                    <polygon id="Star-Copy-4" fill="#FFBF00" points="9.51934931 8.23100179 -1.71547444e-12 6.4302359 9.19678734 4.35523128 10.3367882 0 17.8819866 3.02883169 28.1058952 2.13791664 23.5722969 6.08484218 28.7510191 9.88945766 18.4039028 9.29996013 11.3806205 12.5422569"></polygon>
                </g>
                <g id="Group-124-Copy-2" transform="translate(138.000000, 176.000000)" fill-rule="nonzero">
                    <polygon id="Star-Copy" fill="url(#linearGradient-1)" points="9.8009627 11.3193119 0 9.51854605 0 6.4302359 9.47840073 5.79975203 10.6184016 1.44452075 18.1636 4.47335244 28.1058952 2.13791664 28.1058952 5.40729176 23.9823737 8.53754387 28.7510191 9.88945766 28.7510191 12.9611385 18.6855162 12.3882703 11.6622339 15.630567"></polygon>
                    <polygon id="Star-Copy-4" fill="#FFBF00" points="9.51934931 8.23100179 -1.71547444e-12 6.4302359 9.19678734 4.35523128 10.3367882 0 17.8819866 3.02883169 28.1058952 2.13791664 23.5722969 6.08484218 28.7510191 9.88945766 18.4039028 9.29996013 11.3806205 12.5422569"></polygon>
                </g>
                <g id="Group-124" transform="translate(31.000000, 178.000000)" fill-rule="nonzero">
                    <polygon id="Star-Copy" fill="#FFD997" points="9.8009627 11.3193119 0 9.51854605 0 6.4302359 9.47840073 5.79975203 10.6184016 1.44452075 18.1636 4.47335244 28.1058952 2.13791664 28.1058952 5.40729176 23.9823737 8.53754387 28.7510191 9.88945766 28.7510191 12.9611385 18.6855162 12.3882703 11.6622339 15.630567"></polygon>
                    <polygon id="Star-Copy-4" fill="#FFBF00" points="9.51934931 8.23100179 -1.71547444e-12 6.4302359 9.19678734 4.35523128 10.3367882 0 17.8819866 3.02883169 28.1058952 2.13791664 23.5722969 6.08484218 28.7510191 9.88945766 18.4039028 9.29996013 11.3806205 12.5422569"></polygon>
                </g>
                <g id="Group-124-Copy" transform="translate(63.000000, 173.000000)" fill-rule="nonzero">
                    <polygon id="Star-Copy" fill="#FFD997" points="9.8009627 11.3193119 0 9.51854605 0 6.4302359 9.47840073 5.79975203 10.6184016 1.44452075 18.1636 4.47335244 28.1058952 2.13791664 28.1058952 5.40729176 23.9823737 8.53754387 28.7510191 9.88945766 28.7510191 12.9611385 18.6855162 12.3882703 11.6622339 15.630567"></polygon>
                    <polygon id="Star-Copy-4" fill="#FFBF00" points="9.51934931 8.23100179 -1.71547444e-12 6.4302359 9.19678734 4.35523128 10.3367882 0 17.8819866 3.02883169 28.1058952 2.13791664 23.5722969 6.08484218 28.7510191 9.88945766 18.4039028 9.29996013 11.3806205 12.5422569"></polygon>
                </g>
                <g id="Group-85" transform="translate(32.000000, 0.000000)" fill-rule="nonzero">
                    <g id="Group-113">
                        <rect id="Rectangle" fill="#FFE3E7" x="0.614019595" y="0" width="126.25354" height="47.8975818" rx="10"></rect>
                        <polygon id="Star" fill="#FFFFFF" points="26.8306017 32.625889 17.0981467 37.774121 18.9568802 26.8699908 11.0831588 19.1476429 21.9643742 17.5567517 26.8306017 7.63584636 31.6968291 17.5567517 42.5780445 19.1476429 34.7043231 26.8699908 36.5630566 37.774121"></polygon>
                        <polygon id="Star-Copy-2" fill="#FFFFFF" points="61.3261044 32.625889 51.5936494 37.774121 53.4523829 26.8699908 45.5786615 19.1476429 56.4598769 17.5567517 61.3261044 7.63584636 66.1923317 17.5567517 77.0735473 19.1476429 69.1998258 26.8699908 71.0585591 37.774121"></polygon>
                        <polygon id="Star-Copy-3" fill="#FFFFFF" points="98.5812474 32.625889 88.8487926 37.774121 90.7075259 26.8699908 82.8338044 19.1476429 93.71502 17.5567517 98.5812474 7.63584636 103.447475 17.5567517 114.32869 19.1476429 106.454969 26.8699908 108.313702 37.774121"></polygon>
                    </g>
                </g>
                <g id="Group-3" transform="translate(102.500000, 112.000000) scale(-1, 1) translate(-102.500000, -112.000000) translate(75.000000, 32.000000)">
                    <g id="Group" transform="translate(26.852372, 0.000000)" fill-rule="nonzero">
                        <path d="M14.0557897,21.4902373 L5.91527311,25.7747963 L7.47013236,16.7002571 C3.5187534,13.0208984 1.27939102,10.9594892 0.752045223,10.5160293 C0.224699416,10.0725695 3.20114412,9.50125627 9.68137932,8.80208984 C12.3562525,3.39202012 13.8145227,0.689092765 14.05619,0.693302871 C14.2978574,0.697529403 15.6545434,3.449592 18.1262482,8.9494956 C24.8503541,9.39451945 27.9384912,9.87764897 27.3906597,10.3988842 C26.8428282,10.9201193 24.5931521,13.0204923 20.6416316,16.7000033 L22.1961415,25.7744826 L14.0557897,21.4902373 Z" id="Star-Copy" fill="#FFD863" transform="translate(14.072542, 13.234050) rotate(-1.000000) translate(-14.072542, -13.234050) "></path>
                        <polygon id="Star-Copy" fill="#FFBF00" transform="translate(14.069245, 13.993652) rotate(-1.000000) translate(-14.069245, -13.993652) " points="14.0690395 21.837026 6.33554867 25.907357 7.81266492 17.2865447 1.55632032 11.1813923 10.2025625 9.92347034 14.0694197 2.07994761 17.9359751 9.92332134 26.5821688 11.1809101 20.3255892 17.2863036 21.8023737 25.907059"></polygon>
                    </g>
                    <g id="Group-73" transform="translate(0.000000, 15.826076)">
                        <path d="M28.5157687,10.09483 L31.3191678,11.412031 C31.3191678,11.412031 33.7878643,8.12360415 34.2170151,7.22235666 C34.6454879,6.32110922 34.4621201,4.01616974 34.2170151,0.166375234 C32.7478687,0.50131646 30.8322488,2.28654073 30.8322488,3.3691024 C30.8322488,4.01759106 30.0600888,6.25950026 28.5157687,10.09483 Z" id="Fill-418" fill="#F1A076" fill-rule="nonzero"></path>
                        <path d="M32.6317888,136.702026 C32.6317888,140.516937 28.4108491,139.869003 23.6336568,142.561872 C21.3984233,143.821857 18.5523216,142.941917 16.7957736,141.362407 C16.7957736,141.362407 17.1478852,136.423807 18.0576901,133.904045 C18.9284604,131.485825 25.4284591,132.978879 26.4583703,133.904045 C27.5933743,134.926993 32.6317888,132.887114 32.6317888,136.702026 Z" id="Fill-114" fill="#0F0E1D" fill-rule="nonzero"></path>
                        <path d="M5.09531254,139.420798 C3.82017926,139.420798 2.64848907,139.066473 1.58024197,138.357823 C1.58024197,138.357823 1.27120949,135.630259 1.94485583,133.560646 C2.58959984,131.574435 3.5989577,130.672455 3.35662289,128.269232 C4.17700406,129.439953 5.51095718,130.749679 7.37404502,130.403714 C7.49232899,130.668577 10.8992312,132.060214 13.61714,132.060214 C15.8119741,132.060214 16.8656254,135.235164 14.4662292,136.5705 C11.3001195,137.215876 7.47794171,139.420798 5.09531254,139.420798 Z" id="Fill-115" fill="#030231" fill-rule="nonzero"></path>
                        <path d="M13.762373,102.703814 C13.3311104,106.36612 10.7400122,123.682488 10.958761,131.352635 C11.0302976,133.860978 2.09504118,133.80138 2.09504118,132.139864 C2.09504118,128.440023 -0.141433121,72.6182238 0.928589983,71.5809574 C2.49478742,70.0627057 7.30396939,71.984342 15.3561359,77.3458669 C14.6751586,91.0111799 14.1439043,99.463829 13.762373,102.703814 Z" id="Fill-419" fill="#FFBF00" fill-rule="nonzero"></path>
                        <path d="M26.5104245,134.032965 C26.7715495,135.462921 18.3172445,136.678368 17.7555321,134.734095 C17.3810572,133.437913 15.7303175,115.861246 12.8033131,82.0040939 L27.1267198,78.5375475 L27.1267198,104.566839 C26.541773,123.257619 26.3363413,133.079661 26.5104245,134.032965 Z" id="Fill-421" fill="#FFBF00" fill-rule="nonzero"></path>
                        <g id="Group-110" stroke-linecap="round" stroke-linejoin="round" transform="translate(5.385311, 86.046609)" stroke="#222D57" stroke-width="0.550000012">
                            <path d="M0.0840445223,0.29212935 C1.80307711,1.34367927 3.78583039,1.79170123 6.03230438,1.63619521 C6.55996789,2.96302195 7.39292872,6.19123876 8.53118685,11.3208457" id="Path-79"></path>
                        </g>
                        <path d="M25.0800782,63.2791015 C26.4445059,70.3831832 27.1267198,76.0975171 27.1267198,80.4221027 C27.1267198,86.908982 7.20621563,88.4147932 3.49587283,83.170045 C1.02231096,79.6735462 1.09423427,74.4286044 3.71164276,67.4352194 L11.9307205,63.5583101 L25.0800782,63.2791015 Z" id="Fill-423" fill="#FFBF00" fill-rule="nonzero"></path>
                        <g id="Group-111" transform="translate(0.119696, 3.968414)">
                            <path d="M11.6598738,26.0473533 C11.6598738,28.1825939 13.5647584,30.043391 17.3745276,31.6297444 C21.5704493,24.8517283 24.3682955,20.5501309 25.7680662,18.7249523 C27.8677224,15.9871845 33.4204441,4.60108071 33.2721471,4.51764543 C32.7829703,4.24242325 31.7662957,2.92146497 30.2221234,0.554770607 C29.3380931,1.66219434 21.6335162,12.1980085 19.2411263,14.1330335 C16.8487364,16.0680584 11.6598738,22.8444924 11.6598738,26.0473533 Z" id="Fill-424" fill="#B1E5FF" fill-rule="nonzero"></path>
                            <path d="M6.22929275,24.4305053 C6.22929275,24.4305053 3.71690155,24.4910369 1.57342338,28.1451246 C-0.570054779,31.7992123 0.0301776605,67.9805765 0.294000801,68.0428126 C9.72708654,70.2680868 18.6396763,70.2680868 27.0317699,68.0428126 C27.826351,64.2496799 24.6508115,45.9949914 24.0294533,37.6082231 C23.6563074,33.4616257 22.52731,27.4139502 19.3590667,24.9077311 C15.7673068,22.066492 6.22929275,24.4305053 6.22929275,24.4305053 Z" id="Fill-424" fill="#B1E5FF" fill-rule="nonzero"></path>
                            <path d="M31.335087,23.5433884 C28.9268983,25.2529117 10.7809597,28.3184983 8.63748154,31.972586 C6.49400335,35.6266737 7.87771606,43.656672 24.0294533,37.6082231 C26.0630856,36.4971329 35.4270651,32.8625498 36.901734,30.7271313 C38.3764029,28.5930581 45.32193,8.2628149 45.32193,8.2628149 L40.4307573,6.60453713 C40.2532257,7.49457263 40.066899,7.88470044 39.8717773,7.77492042 C39.138012,7.36208719 33.7432758,21.833865 31.335087,23.5433884 Z" id="Fill-424" fill="#B1E5FF" fill-rule="nonzero"></path>
                            <path d="M8.86386944,28.2643878 C8.7590616,28.2643878 8.67173404,28.1830376 8.66511643,28.0774468 C8.65967365,27.9671481 8.74299665,27.8736498 8.85318037,27.8669075 C9.02181495,27.857466 25.8275044,26.8608674 30.3951432,24.0024719 C34.9634537,21.1447488 41.4707158,9.40694274 41.5359029,9.28856256 C41.5883215,9.19170613 41.7106025,9.15738704 41.8053247,9.21050477 C41.9013904,9.26362223 41.936308,9.38467745 41.8832176,9.48086135 C41.6150774,9.96716188 35.2603663,21.4278508 30.6053794,24.3400642 C25.9517363,27.2522775 9.5706568,28.2239268 8.87529079,28.2643878 L8.86386944,28.2643878" id="Fill-425" fill="#1D1119" fill-rule="nonzero" transform="translate(25.286574, 18.724972) rotate(-8.000000) translate(-25.286574, -18.724972) "></path>
                            <path d="M18.3582394,23.9641294 C20.0855278,25.1289426 21.0596679,26.3194485 21.2806596,27.535647" id="Path-97" stroke="#1D1119" stroke-width="0.550000012" stroke-linecap="round"></path>
                            <path d="M14.3718836,39.8647046 C11.8666261,39.8647046 8.80845169,39.0387853 7.45404052,37.0049253 C7.39290394,36.9134554 7.41776168,36.7897021 7.50913065,36.7298431 C7.59982785,36.668639 7.72277291,36.6928516 7.78458139,36.7849941 C9.39428826,39.2022205 13.7773133,39.8035005 16.1932173,39.2936904 C18.6548059,38.7764819 24.0294533,37.6082231 24.0294533,37.6082231 L24.114104,37.9962976 C24.114104,37.9962976 18.7374411,39.1645564 16.2751807,39.6837825 C15.7148737,39.8021554 15.0638695,39.8647046 14.3718836,39.8647046" id="Fill-426" fill="#1D1119" fill-rule="nonzero"></path>
                        </g>
                        <path d="M44.9084272,12.2312286 L45.8828804,10.022214 C45.8828804,10.022214 48.8335619,7.71932489 48.9692717,6.23361174 C49.1049816,4.74655341 48.4250887,4.24145128 48.3437971,3.68187076 C48.2631774,3.12161766 48.4640549,1.62110787 47.8379084,1.54577972 C47.2131056,1.47112415 44.2839228,4.2111855 44.2839228,4.2111855 C44.2839228,4.2111855 44.7468143,0.350617963 44.2039749,0.0203847472 C43.6624792,-0.308503324 42.3665173,3.45117831 42.3665173,3.45117831 C42.3665173,3.45117831 42.3765948,6.63850053 42.1333919,7.43482662 C42.0039856,7.85737859 41.3256256,9.13797843 40.7173271,10.2470442 C40.3586079,10.9010706 41.7556413,11.5624654 44.9084272,12.2312286 Z" id="Fill-429" fill="#FEB08A" fill-rule="nonzero"></path>
                        <g id="Group-13" transform="translate(9.775311, 21.136668) rotate(-5.000000) translate(-9.775311, -21.136668) translate(2.275311, 11.136668)">
                            <path d="M4.23511428,14.2388805 L2.48424759,18.4010899 C6.37792418,19.264879 8.80640925,19.5004775 9.76970286,19.1078855 C10.7329965,18.7152935 11.1305078,17.8215217 10.9622368,16.4265702 C12.0600048,16.2435701 12.6088887,15.8292315 12.6088887,15.1835545 C12.6088887,14.5378774 12.6088887,13.095912 12.6088887,10.8576583 C13.8139878,10.0477288 13.8139878,9.39029953 12.6088887,8.8853703 C11.4037897,8.38044107 10.5698774,7.15190588 10.1071517,5.19976468 C8.64658229,3.57486912 7.53784363,2.98508548 6.7809357,3.43041375 C5.64557393,4.09840616 0.046957296,7.67963802 1.74140513,10.4679436 C2.87103702,12.326814 3.7022734,13.5837929 4.23511428,14.2388805 Z" id="Path-35" fill="#FFC0A9" fill-rule="nonzero"></path>
                            <path d="M2.62606494,18.5193138 C3.19516829,19.5071437 5.70889747,19.4677358 10.1672525,18.4010899" id="Path-95" stroke="#1D1119" stroke-width="0.550000012" stroke-linecap="round" transform="translate(6.396659, 18.816427) scale(-1, 1) translate(-6.396659, -18.816427) "></path>
                            <path d="M9.44345975,11.6866469 L10.3538874,10.958812 L9.89867359,9.63541895 C10.3248536,8.70894588 10.1731156,7.90013571 9.44345975,7.2089885 C10.6651896,6.12714717 11.2587599,3.26000538 9.89867359,1.22706712 C8.53858733,-0.805871132 6.78387056,0.116054929 6.49395081,0.946061208 C4.77413762,1.02727801 4.15404896,1.85113507 4.43474494,2.5689281 C4.71544093,3.28672112 -1.01607348,4.37944191 0.776422738,9.49715122 C-1.50547966,12.3784615 3.37382845,16.1806113 4.84646034,16.1806113 C5.82821493,16.1806113 6.7991561,15.0062906 7.75928385,12.6576492 C6.45286313,11.6729046 6.03108544,10.6654945 6.49395081,9.63541895 C6.95681619,8.60534342 7.70387142,8.72573454 8.73511644,9.99659239 L9.44345975,11.6866469 Z" id="Path-36" fill="#202C52" fill-rule="nonzero"></path>
                            <path d="M9.44345975,11.6866469 L10.3538874,10.958812 C10.883766,12.0538747 11.3492168,12.601406 11.7502399,12.601406 C12.151263,12.601406 12.4210696,12.0538747 12.5596595,10.958812 L12.8249031,10.7840768 L13.333185,11.6927414 C13.1711595,12.1207472 13.0017322,12.4236354 12.8249031,12.601406 C12.5596595,12.8680619 13.6497937,13.061779 13.8520816,12.9649204 C14.0543695,12.8680619 14.6627528,16.5457545 13.512713,17.3113399 C12.7460199,17.8217302 11.8010819,18.1849802 10.6778988,18.4010899 C10.8956182,16.3621345 10.950048,15.0926323 10.8411883,14.5925834 C10.7323287,14.0925344 10.2664192,13.1238889 9.44345975,11.6866469 Z" id="Path-37" fill="#202C52" fill-rule="nonzero"></path>
                        </g>
                    </g>
                </g>
            </g>
        </g>
    </g>
</svg>