<?xml version="1.0" encoding="UTF-8"?>
<svg width="188px" height="132px" viewBox="0 0 188 132" version="1.1" xmlns="http://www.w3.org/2000/svg" xmlns:xlink="http://www.w3.org/1999/xlink">
    <!-- Generator: sketchtool 60 (101010) - https://sketch.com -->
    <title>C2816855-093C-4901-8256-D0A0C04F0B00@1x</title>
    <desc>Created with sketchtool.</desc>
    <g id="Page-2" stroke="none" stroke-width="1" fill="none" fill-rule="evenodd">
        <g id="Gomble-Brand-Design-System---Illustrations" transform="translate(-436.000000, -712.000000)" fill-rule="nonzero">
            <g id="No-saved-card" transform="translate(436.000000, 710.000000)">
                <g id="Group-133" transform="translate(111.885910, 63.500000) rotate(16.000000) translate(-111.885910, -63.500000) translate(43.885910, 17.000000)">
                    <path d="M135.931205,9.60000038 L135.931205,82.7520033 C135.931205,88.0800035 131.659205,92.3520037 126.331204,92.3520037 L9.78719967,92.3520037 C4.45919946,92.3520037 0.187199292,88.0800035 0.187199292,82.7520033 L0.187199292,9.60000038 C0.187199292,4.32000017 4.45919946,-7.2475359e-13 9.78719967,-7.2475359e-13 L126.331204,-7.2475359e-13 C131.659205,-7.2475359e-13 135.931205,4.32000017 135.931205,9.60000038 Z" id="Path" fill="#6EB6DA"></path>
                    <path d="M117.387199,79.6000004 L18.9871995,79.6000004 C16.3362326,79.6000004 14.1871993,77.4509671 14.1871993,74.8000002 C14.1871993,72.1490333 16.3362326,70 18.9871995,70 L117.387199,70 C120.038166,70 122.187199,72.1490333 122.187199,74.8000002 C122.187199,77.4509671 120.038166,79.6000004 117.387199,79.6000004 Z" id="Path" fill="#FFFFFF"></path>
                    <rect id="Rectangle" fill="#233862" x="0" y="17.5632007" width="135.792005" height="15.5904006"></rect>
                </g>
                <g id="Group-131" transform="translate(0.000000, 40.585591)">
                    <path d="M127.115205,92.8736052 L10.5328004,92.8736052 C5.22880017,92.8736052 0.932799997,88.577605 0.932799997,83.2736048 L0.932799997,10.1072019 C0.932799997,4.80800166 5.22880017,0.50720149 10.5328004,0.50720149 L127.115205,0.50720149 C132.419205,0.50720149 136.715205,4.80800166 136.715205,10.1072019 L136.715205,83.2688048 C136.715205,88.572805 132.419205,92.8736052 127.115205,92.8736052 Z" id="Path" fill="#B1E5FF"></path>
                    <g id="Group" transform="translate(0.932800, 0.269601)" fill="#A7E1FD">
                        <path d="M62.0160025,0.237600009 C32.0640013,22.9416009 10.9920004,52.0296021 0.0960000038,83.9496033 C0.0480000019,83.5656033 -6.8278716e-15,83.1816033 -6.8278716e-15,82.7496033 L-6.8278716e-15,9.59760038 C-6.8278716e-15,5.0376002 3.16800013,1.19760005 7.4400003,0.237600009 L62.0160025,0.237600009 L62.0160025,0.237600009 Z" id="Path"></path>
                        <path d="M73.7712029,92.6040037 C103.723204,69.9000028 124.795205,40.8120016 135.691205,8.89200035 C135.739205,9.27600037 135.787205,9.66000038 135.787205,10.0920004 L135.787205,83.2440033 C135.787205,87.8040035 132.619205,91.6440036 128.347205,92.6040037 L73.7712029,92.6040037 Z" id="Path"></path>
                    </g>
                    <circle id="Oval" fill="#FFBF00" cx="93.8368037" cy="26.6000025" r="11.6928005"></circle>
                    <circle id="Oval" fill="#7263EE" cx="110.627204" cy="26.6000025" r="11.6928005"></circle>
                    <path d="M41.1088016,56.0336037 L18.4000007,56.0336037 C15.7504006,56.0336037 13.6000005,53.8880036 13.6000005,51.2336035 C13.6000005,48.5792034 15.7504006,46.4336033 18.4000007,46.4336033 L41.1088016,46.4336033 C43.7584017,46.4336033 45.9088018,48.5792034 45.9088018,51.2336035 C45.9088018,53.8832036 43.7584017,56.0336037 41.1088016,56.0336037 Z" id="Path" fill="#FFFFFF"></path>
                    <path d="M61.3936024,31.4000027 L18.4000007,31.4000027 C15.7504006,31.4000027 13.6000005,29.2544026 13.6000005,26.6000025 C13.6000005,23.9456024 15.7504006,21.8000023 18.4000007,21.8000023 L61.3936024,21.8000023 C64.0432025,21.8000023 66.1936026,23.9456024 66.1936026,26.6000025 C66.1936026,29.2544026 64.0432025,31.4000027 61.3936024,31.4000027 Z" id="Path" fill="#FFFFFF"></path>
                    <path d="M32.4592013,80.6672047 L18.3952007,80.6672047 C15.7456006,80.6672047 13.5952005,78.5216046 13.5952005,75.8672045 C13.5952005,73.2128044 15.7456006,71.0672043 18.3952007,71.0672043 L32.4592013,71.0672043 C35.1088014,71.0672043 37.2592014,73.2128044 37.2592014,75.8672045 C37.2592014,78.5168046 35.1136014,80.6672047 32.4592013,80.6672047 Z" id="Path" fill="#FFFFFF"></path>
                    <path d="M61.3936024,80.6672047 L47.3296018,80.6672047 C44.6800017,80.6672047 42.5296017,78.5216046 42.5296017,75.8672045 C42.5296017,73.2128044 44.6800017,71.0672043 47.3296018,71.0672043 L61.3936024,71.0672043 C64.0432025,71.0672043 66.1936026,73.2128044 66.1936026,75.8672045 C66.1936026,78.5168046 64.0432025,80.6672047 61.3936024,80.6672047 Z" id="Path" fill="#DAEFF6"></path>
                    <path d="M90.3232035,80.6672047 L76.259203,80.6672047 C73.6096029,80.6672047 71.4592028,78.5216046 71.4592028,75.8672045 C71.4592028,73.2128044 73.6096029,71.0672043 76.259203,71.0672043 L90.3232035,71.0672043 C92.9728037,71.0672043 95.1232037,73.2128044 95.1232037,75.8672045 C95.1232037,78.5168046 92.9728037,80.6672047 90.3232035,80.6672047 Z" id="Path" fill="#FFFFFF"></path>
                    <path d="M119.252805,80.6672047 L105.188804,80.6672047 C102.539204,80.6672047 100.388804,78.5216046 100.388804,75.8672045 C100.388804,73.2128044 102.539204,71.0672043 105.188804,71.0672043 L119.252805,71.0672043 C121.902405,71.0672043 124.052805,73.2128044 124.052805,75.8672045 C124.052805,78.5168046 121.902405,80.6672047 119.252805,80.6672047 Z" id="Path" fill="#DAEFF6"></path>
                </g>
            </g>
        </g>
    </g>
</svg>