<?xml version="1.0" encoding="UTF-8"?>
<svg width="234px" height="233px" viewBox="0 0 234 233" version="1.1" xmlns="http://www.w3.org/2000/svg" xmlns:xlink="http://www.w3.org/1999/xlink">
    <!-- Generator: sketchtool 60 (101010) - https://sketch.com -->
    <title>3A47F450-1EE1-4AEA-8911-6167958B9C6A@1x</title>
    <desc>Created with sketchtool.</desc>
    <g id="Page-1" stroke="none" stroke-width="1" fill="none" fill-rule="evenodd">
        <g id="Gomble-Brand-Design-System---Illustrations" transform="translate(-689.000000, -1253.000000)">
            <g id="No-wishlist-items-adde-Copy" transform="translate(689.000000, 1255.000000)">
                <path d="M125.85857,231 C47.9230386,231 0,226.074857 0,220 C0,213.924793 47.9230386,209 125.85857,209 C203.793608,209 234,213.924793 234,220 C234,226.074857 203.793608,231 125.85857,231 Z" id="Fill-34" fill="#FFF0F2" fill-rule="nonzero"></path>
                <g id="Group-3" transform="translate(102.000000, 148.000000)" fill-rule="nonzero">
                    <g id="Group-72" transform="translate(0.000000, 3.146113)">
                        <path d="M14.1314349,17.7888076 C13.9347941,17.7863627 13.7721406,17.6213806 13.7767885,17.4265103 C13.7939895,16.7916875 14.246749,1.87275467 21.4593401,1.06219 C22.8030525,0.907967526 24.0193123,1.29173044 25.0717049,2.19315486 C29.2630676,5.78331075 29.5883746,16.5107396 29.600728,16.9650384 C29.6053683,17.1611042 29.4487839,17.3213043 29.2509293,17.3272819 C29.0931311,17.3356506 28.8879934,17.1778415 28.8831381,16.9841668 C28.8807104,16.8741786 28.5541895,6.1120796 24.600738,2.72635817 C23.6940053,1.95046367 22.6913799,1.63843214 21.5406669,1.76276654 C14.9459163,2.50518639 14.4992261,17.2950028 14.4955846,17.4432476 C14.4907292,17.6357269 14.3256481,17.7911448 14.1314349,17.7888076" id="Fill-7" fill="#130C5C"></path>
                        <polyline id="Fill-8" fill="#FFBF00" points="9.03091184 11.4716097 8.05013538 67.8596523 47.2302124 62.9687672 46.1074176 11.7776636 9.03091184 11.4716097"></polyline>
                        <polyline id="Fill-9" fill="#FFBF00" points="1.88872296 11.4943246 5.70743918 11.5505142 4.46811647 61.7600937 1.11910481e-13 63.2126539 1.88872296 11.4943246"></polyline>
                        <polyline id="Fill-10" fill="#EB9500" points="5.55206866 11.6353964 9.1498674 11.641374 8.11446848 67.4507834 4.28240014 61.543704 5.55206866 11.6353964"></polyline>
                        <polyline id="Fill-11" fill="#FFD24D" points="0.0594777796 63.2485196 4.67204029 61.5556592 8.20429207 67.5512074 0.0594777796 63.2485196"></polyline>
                        <path d="M20.3948093,16.7619183 C20.1969546,16.7594084 20.0355149,16.5944262 20.0401613,16.399556 C20.0573639,15.7647332 20.5113372,0.842213754 27.7239283,0.0340401315 C29.0615714,-0.122573395 30.2814728,0.262385045 31.3350792,1.16500499 C35.5252281,4.75516088 35.8505352,15.4825897 35.8628901,15.9368885 C35.8675288,16.1329543 35.7121583,16.2955454 35.5130898,16.3003275 C35.3467948,16.3194559 35.1501539,16.1520827 35.1452986,15.9572124 C35.1428709,15.8472243 34.8163501,5.08273421 30.8628985,1.6982083 C29.9561658,0.91992275 28.9547542,0.609086746 27.8052551,0.73342115 C21.206863,1.475841 20.7613866,16.2680484 20.7589589,16.4174888 C20.7528898,16.6087725 20.5890224,16.765386 20.3948093,16.7619183" id="Fill-12" fill="#130C5C"></path>
                    </g>
                    <g id="Group-72" transform="translate(21.082350, 0.000000)">
                        <path d="M15.5445787,19.5676888 C15.3282738,19.5649995 15.1493549,19.3835191 15.1544677,19.1691618 C15.1733888,18.4708566 15.6714242,2.06003018 23.6052746,1.16840903 C25.0833582,0.998764298 26.4212441,1.42090351 27.578876,2.4124704 C32.1893751,6.36164199 32.5472128,18.1618139 32.5608014,18.6615426 C32.5659058,18.877215 32.393663,19.0534351 32.1760229,19.0600105 C32.0024449,19.069216 31.7767935,18.895626 31.7714526,18.6825838 C31.7687822,18.5615968 31.4096092,6.72328773 27.0608124,2.99899405 C26.0634064,2.14551008 24.9605184,1.80227539 23.6947341,1.93904324 C16.4405083,2.75570509 15.949149,19.0245034 15.9451434,19.1875728 C15.9398025,19.3993 15.7582132,19.5702598 15.5445787,19.5676888" id="Fill-7" fill="#130C5C"></path>
                        <polyline id="Fill-8" fill="#FF5BA8" points="9.93400322 12.618771 8.85514912 74.6456196 51.9532347 69.265646 50.7181604 12.9554303 9.93400322 12.618771"></polyline>
                        <polyline id="Fill-9" fill="#FF5BA8" points="2.0775953 12.6437574 6.27818324 12.7055659 4.91492822 67.9361048 1.11910481e-13 69.5339214 2.0775953 12.6437574"></polyline>
                        <polyline id="Fill-10" fill="#C3407E" points="6.10727566 12.7989363 10.0648543 12.8055117 8.92591554 74.1958638 4.71064025 67.6980761 6.10727566 12.7989363"></polyline>
                        <polyline id="Fill-11" fill="#FE7CB9" points="0.0654255591 69.5733737 5.13924442 67.7112269 9.02472148 74.3063302 0.0654255591 69.5733737"></polyline>
                        <path d="M22.4342907,18.4381104 C22.2166505,18.4353496 22.0390669,18.2538692 22.044178,18.0395119 C22.0631008,17.3412068 22.5624713,0.926435149 30.4963218,0.0374441455 C31.9677293,-0.134830738 33.3096209,0.288623556 34.4685879,1.28150552 C39.0777518,5.23067708 39.4355895,17.030849 39.4491799,17.5305777 C39.4542826,17.7462501 39.283375,17.9251003 39.0643996,17.9303606 C38.8814751,17.9514018 38.6651702,17.7672913 38.6598293,17.552934 C38.6571589,17.4319471 38.2979859,5.59100775 33.9491891,1.86802917 C32.9517831,1.01191505 31.8502303,0.669995433 30.5857812,0.806763284 C23.3275498,1.62342513 22.8375257,17.8948536 22.8348553,18.059238 C22.8281792,18.2696501 22.6479251,18.441925 22.4342907,18.4381104" id="Fill-12" fill="#130C5C"></path>
                    </g>
                    <g id="Group-72" transform="translate(51.108726, 9.438340)">
                        <path d="M14.1314349,17.7888076 C13.9347941,17.7863627 13.7721406,17.6213806 13.7767885,17.4265103 C13.7939895,16.7916875 14.246749,1.87275467 21.4593401,1.06219 C22.8030525,0.907967526 24.0193123,1.29173044 25.0717049,2.19315486 C29.2630676,5.78331075 29.5883746,16.5107396 29.600728,16.9650384 C29.6053683,17.1611042 29.4487839,17.3213043 29.2509293,17.3272819 C29.0931311,17.3356506 28.8879934,17.1778415 28.8831381,16.9841668 C28.8807104,16.8741786 28.5541895,6.1120796 24.600738,2.72635817 C23.6940053,1.95046367 22.6913799,1.63843214 21.5406669,1.76276654 C14.9459163,2.50518639 14.4992261,17.2950028 14.4955846,17.4432476 C14.4907292,17.6357269 14.3256481,17.7911448 14.1314349,17.7888076" id="Fill-7" fill="#130C5C"></path>
                        <polyline id="Fill-8" fill="#FFBF00" points="9.03091184 11.4716097 8.05013538 67.8596523 47.2302124 62.9687672 46.1074176 11.7776636 9.03091184 11.4716097"></polyline>
                        <polyline id="Fill-9" fill="#FFBF00" points="1.88872296 11.4943246 5.70743918 11.5505142 4.46811647 61.7600937 1.11910481e-13 63.2126539 1.88872296 11.4943246"></polyline>
                        <polyline id="Fill-10" fill="#EB9500" points="5.55206866 11.6353964 9.1498674 11.641374 8.11446848 67.4507834 4.28240014 61.543704 5.55206866 11.6353964"></polyline>
                        <polyline id="Fill-11" fill="#FFD24D" points="0.0594777796 63.2485196 4.67204029 61.5556592 8.20429207 67.5512074 0.0594777796 63.2485196"></polyline>
                        <path d="M20.3948093,16.7619183 C20.1969546,16.7594084 20.0355149,16.5944262 20.0401613,16.399556 C20.0573639,15.7647332 20.5113372,0.842213754 27.7239283,0.0340401315 C29.0615714,-0.122573395 30.2814728,0.262385045 31.3350792,1.16500499 C35.5252281,4.75516088 35.8505352,15.4825897 35.8628901,15.9368885 C35.8675288,16.1329543 35.7121583,16.2955454 35.5130898,16.3003275 C35.3467948,16.3194559 35.1501539,16.1520827 35.1452986,15.9572124 C35.1428709,15.8472243 34.8163501,5.08273421 30.8628985,1.6982083 C29.9561658,0.91992275 28.9547542,0.609086746 27.8052551,0.73342115 C21.206863,1.475841 20.7613866,16.2680484 20.7589589,16.4174888 C20.7528898,16.6087725 20.5890224,16.765386 20.3948093,16.7619183" id="Fill-12" fill="#130C5C"></path>
                    </g>
                </g>
                <g id="Group-115" transform="translate(42.000000, 0.000000)">
                    <g id="Group" transform="translate(48.743987, 0.000000)">
                        <g id="Group-85" transform="translate(72.191531, 66.587604) rotate(10.000000) translate(-72.191531, -66.587604) translate(33.691531, 20.587604)" fill-rule="nonzero">
                            <g id="Group-113" transform="translate(0.253216, 0.254886)">
                                <path d="M3.01503704,9.09494702e-13 L72.066564,9.09494702e-13 C73.7312154,9.09494702e-13 75.0808035,1.40586156 75.0808035,3.1409083 L75.0808035,86.9450306 C75.0808035,88.6792745 73.7312154,90.0851361 72.066564,90.0851361 L3.01503704,90.0851361 C1.35038564,90.0851361 -1.13686838e-13,88.6792745 -1.13686838e-13,86.9450306 L-1.13686838e-13,3.1409083 C-1.13686838e-13,1.40586156 1.35038564,9.09494702e-13 3.01503704,9.09494702e-13" id="Fill-176" fill="#FFF3F4"></path>
                                <rect id="Rectangle" fill="#FFFFFF" x="5.63718543" y="4.58794676" width="64.9497785" height="63.6577614" rx="11.6999997"></rect>
                            </g>
                        </g>
                        <g id="Group-85">
                            <g id="Group-113">
                                <path d="M3.35004125,14.6559414 L80.0739622,14.6559414 C81.923575,14.6559414 83.4231173,16.2180099 83.4231173,18.1458396 L83.4231173,111.261533 C83.4231173,113.188471 81.923575,114.750539 80.0739622,114.750539 L3.35004125,114.750539 C1.50042853,114.750539 0,113.188471 0,111.261533 L0,18.1458396 C0,16.2180099 1.50042853,14.6559414 3.35004125,14.6559414" id="Fill-176" fill="#FFE3E7" fill-rule="nonzero"></path>
                                <rect id="Rectangle" fill="#FFFFFF" fill-rule="nonzero" x="6.33038795" y="19.7536602" width="72.1664227" height="70.7308478" rx="13"></rect>
                                <g id="Group-83" transform="translate(55.007527, 0.000000)" fill-rule="nonzero">
                                    <ellipse id="Oval" stroke="#FFFFFF" stroke-width="3.35820896" fill="#EBEAFF" cx="19.9407221" cy="20.0722676" rx="19.5108226" ry="19.6395322"></ellipse>
                                    <path d="M20.2572415,30.5863126 C21.7519213,29.7483543 31.6519398,23.8941528 31.6519398,15.9663527 C31.6519398,12.5527476 28.8948694,9.55822268 25.7511138,9.55822268 C23.6213639,9.5620582 21.6581312,10.7292648 20.6117361,12.613914 C20.5334453,12.7354392 20.4001124,12.8085157 20.2572415,12.8085157 C20.1143705,12.8085157 19.9810376,12.7354392 19.9027468,12.613914 C18.8563517,10.7292648 16.893119,9.5620582 14.7633691,9.55822268 C11.6196135,9.55822268 8.86254313,12.5527476 8.86254313,15.9663527 C8.86254313,23.8941528 18.7625617,29.7483543 20.2572415,30.5863126 Z" id="Path" fill="#FF5BA8"></path>
                                </g>
                                <g id="Group-112" transform="translate(42.569957, 54.370106) scale(-1, 1) translate(-42.569957, -54.370106) translate(20.569957, 38.870106)">
                                    <path d="M10.2992443,8.68578577 L8.58558854,6.15061663 L6.82865861,8.68578577 C6.57478239,9.04007238 6.35985635,9.29271558 6.18387399,9.44372294 C6.00789162,9.59473037 5.78431082,9.67023294 5.51312489,9.67023294 C5.21308938,9.67023294 4.95777453,9.57585473 4.74717268,9.38709551 C4.53657084,9.19833622 4.43127149,8.98199235 4.43127149,8.73805733 C4.43127149,8.48831435 4.59282665,8.13112912 4.91594181,7.66649098 L7.05368409,4.58247074 L5.15827697,2.01245388 C4.82939189,1.58847158 4.66495182,1.21967059 4.66495182,0.906039845 C4.66495182,0.66210482 4.76303888,0.450116848 4.95921595,0.270069569 C5.15539301,0.0900222896 5.41215031,0 5.72949556,0 C6.00645142,0 6.23580204,0.0784065097 6.41755429,0.235221882 C6.59930657,0.392037254 6.81134772,0.638872566 7.05368409,0.975735212 L8.58558854,3.08402023 L10.0742188,0.975735212 C10.3223251,0.62725661 10.5372511,0.377517356 10.7190034,0.226509961 C10.9007557,0.0755025649 11.1272214,0 11.3984074,0 C11.7099827,0 11.9681824,0.0885703165 12.1730144,0.265713607 C12.3778463,0.442856898 12.4802607,0.656296843 12.4802607,0.906039845 C12.4802607,1.08608712 12.4384294,1.25887184 12.3547657,1.42439917 C12.271102,1.58992651 12.1427234,1.78594279 11.9696259,2.01245388 L10.0742188,4.58247074 L12.2119611,7.66649098 C12.5466161,8.14855306 12.713941,8.51154612 12.713941,8.75548114 C12.713941,9.00522418 12.6100842,9.2201161 12.4023673,9.40016338 C12.1946504,9.58021067 11.9378931,9.67023294 11.6320877,9.67023294 C11.3609017,9.67023294 11.1315511,9.59182639 10.9440289,9.43501107 C10.7565067,9.27819568 10.5415807,9.0284564 10.2992443,8.68578577 Z" id="x" fill="#FFE3E7" fill-rule="nonzero"></path>
                                    <path d="M36.000619,8.68578577 L34.2869632,6.15061663 L32.5300333,8.68578577 C32.276157,9.04007238 32.061231,9.29271558 31.8852486,9.44372294 C31.7092663,9.59473037 31.4856855,9.67023294 31.2144995,9.67023294 C30.914464,9.67023294 30.6591492,9.57585473 30.4485473,9.38709551 C30.2379455,9.19833622 30.1326462,8.98199235 30.1326462,8.73805733 C30.1326462,8.48831435 30.2942013,8.13112912 30.6173165,7.66649098 L32.7550587,4.58247074 L30.8596516,2.01245388 C30.5307665,1.58847158 30.3663265,1.21967059 30.3663265,0.906039845 C30.3663265,0.66210482 30.4644136,0.450116848 30.6605906,0.270069569 C30.8567676,0.0900222896 31.113525,0 31.4308702,0 C31.7078261,0 31.9371767,0.0784065097 32.1189289,0.235221882 C32.3006813,0.392037254 32.5127224,0.638872566 32.7550587,0.975735212 L34.2869632,3.08402023 L35.7755934,0.975735212 C36.0236997,0.62725661 36.2386258,0.377517356 36.4203781,0.226509961 C36.6021303,0.0755025649 36.828596,0 37.099782,0 C37.4113573,0 37.6695571,0.0885703165 37.874389,0.265713607 C38.079221,0.442856898 38.1816354,0.656296843 38.1816354,0.906039845 C38.1816354,1.08608712 38.1398042,1.25887184 38.0561404,1.42439917 C37.9724766,1.58992651 37.844098,1.78594279 37.6710006,2.01245388 L35.7755934,4.58247074 L37.9133357,7.66649098 C38.2479907,8.14855306 38.4153157,8.51154612 38.4153157,8.75548114 C38.4153157,9.00522418 38.3114588,9.2201161 38.1037419,9.40016338 C37.896025,9.58021067 37.6392677,9.67023294 37.3334623,9.67023294 C37.0622764,9.67023294 36.8329258,9.59182639 36.6454036,9.43501107 C36.4578814,9.27819568 36.2429553,9.0284564 36.000619,8.68578577 Z" id="x-copy" fill="#FFE3E7" fill-rule="nonzero"></path>
                                    <path d="M0,24.9547201 C1.94723345,24.9547201 3.75129715,25.9844517 4.75098237,27.6665071 L5.52518785,28.9691736 C6.31348688,30.2955537 8.02072637,30.727539 9.33841397,29.9340397 C9.73212137,29.6969527 10.0614235,29.3654782 10.2969568,28.9691736 L11.4579581,27.0156902 C12.2177233,25.7373206 13.5888196,24.9547201 15.0687256,24.9547201 C16.5486317,24.9547201 17.919728,25.7373206 18.6794932,27.0156902 L19.8404945,28.9691736 C20.6287936,30.2955537 22.336033,30.727539 23.6537206,29.9340397 C24.047428,29.6969527 24.3767303,29.3654782 24.6122634,28.9691736 L25.7732647,27.0156902 C26.5330299,25.7373206 27.9041263,24.9547201 29.3840324,24.9547201 C30.8639384,24.9547201 32.2350348,25.7373206 32.9948,27.0156902 L34.1558013,28.9691736 C34.9441003,30.2955537 36.6513398,30.727539 37.9690274,29.9340397 C38.3627348,29.6969527 38.6920369,29.3654782 38.9275702,28.9691736 L40.0885715,27.0156902 C40.8483367,25.7373206 42.2194331,24.9547201 43.6993391,24.9547201" id="Path-98" stroke="#FFE3E7" stroke-width="4.19999993" stroke-linecap="round" transform="translate(21.849670, 27.643073) scale(-1, 1) rotate(-180.000000) translate(-21.849670, -27.643073) "></path>
                                </g>
                                <line x1="6.33038795" y1="102.272983" x2="32.5346496" y2="102.272983" id="Path-96" stroke="#FFFFFF" stroke-width="10" stroke-linecap="round"></line>
                            </g>
                        </g>
                    </g>
                    <g id="Group-73" transform="translate(0.000000, 55.437692)">
                        <path d="M43.308129,13.7638401 L46.6364545,15.3362625 C46.6364545,15.3362625 49.5674056,11.4106689 50.0769132,10.3347954 C50.585616,9.25892191 50.3679133,6.50737653 50.0769132,1.91164454 C48.3326745,2.31148409 46.0583617,4.44261403 46.0583617,5.73493361 C46.0583617,6.50907343 45.1416175,9.18537559 43.308129,13.7638401 Z" id="Fill-418" fill="#F1A076" fill-rule="nonzero"></path>
                        <path d="M38.7419733,163.189458 C38.7419733,167.743548 33.7306779,166.97007 28.0589736,170.18471 C25.4052008,171.688829 22.0261767,170.638393 19.9407215,168.752836 C19.9407215,168.752836 20.3587648,162.857332 21.4389273,159.849339 C22.4727463,156.962565 30.1898462,158.744913 31.4126044,159.849339 C32.7601339,161.070495 38.7419733,158.635368 38.7419733,163.189458 Z" id="Fill-114" fill="#0F0E1D" fill-rule="nonzero"></path>
                        <path d="M6.0493914,166.43502 C4.53549402,166.43502 3.14440907,166.012042 1.87613657,165.166083 C1.87613657,165.166083 1.50923888,161.910025 2.30902305,159.439403 C3.07449305,157.068343 4.27284953,155.991595 3.98513839,153.122723 C4.95913297,154.520284 6.54286401,156.083782 8.75480835,155.670782 C8.89524054,155.986966 12.9400728,157.648247 16.1669002,157.648247 C18.7727091,157.648247 20.0236528,161.438377 17.1749783,163.032448 C13.416026,163.802871 8.87815925,166.43502 6.0493914,166.43502 Z" id="Fill-115" fill="#030231" fill-rule="nonzero"></path>
                        <path d="M16.3393276,122.603741 C15.8273126,126.975656 12.7510407,147.64725 13.0107494,156.803568 C13.095681,159.797928 2.48733007,159.726782 2.48733007,157.74333 C2.48733007,153.326607 -0.167915961,86.6887562 1.1024651,85.4505082 C2.96192735,83.6380799 8.67161123,85.9320533 18.2315168,92.3324285 C17.423029,108.645538 16.7922993,118.735975 16.3393276,122.603741 Z" id="Fill-419" fill="#FFBF00" fill-rule="nonzero"></path>
                        <path d="M31.4744057,160.003239 C31.7844254,161.710263 21.7470823,163.161216 21.0801913,160.84022 C20.6355973,159.292889 18.6757626,138.310561 15.2006871,97.8932361 L32.2061,93.75501 L32.2061,124.827747 C31.5116241,147.140058 31.2677259,158.865221 31.4744057,160.003239 Z" id="Fill-421" fill="#FFBF00" fill-rule="nonzero"></path>
                        <g id="Group-110" stroke-linecap="round" stroke-linejoin="round" transform="translate(6.393692, 102.719030)" stroke="#222D57" stroke-width="0.5">
                            <path d="M0.0997815551,0.348732434 C2.14069678,1.60403104 4.49471345,2.13886188 7.16183155,1.95322496 C7.78829814,3.53713811 8.77722786,7.39085535 10.1286207,13.5143766" id="Path-79"></path>
                        </g>
                        <path d="M29.7762321,75.5400822 C31.396144,84.0206535 32.2061,90.8421984 32.2061,96.0047174 C32.2061,103.748496 8.55555344,105.546074 4.15046238,99.2851013 C1.21373499,95.1111198 1.29912568,88.8499168 4.40663446,80.5014911 L14.1647048,75.8733902 L29.7762321,75.5400822 Z" id="Fill-423" fill="#FFBF00" fill-rule="nonzero"></path>
                        <g id="Group-111" transform="translate(0.142109, 10.530197)">
                            <path d="M13.843143,25.3014353 C13.843143,27.8504009 16.1047104,30.0717466 20.6278451,31.9654724 C32.4046226,27.4355068 39.1239477,24.081111 40.7858205,21.9022853 C43.2786297,18.6340466 47.5136885,3.58813125 47.3376234,3.48852953 C46.75685,3.1599802 45.7594191,2.00486067 44.3453308,0.0231709306 C43.2957689,1.34516947 35.8770909,14.1106786 33.0367346,16.4206347 C30.1963783,18.7305907 13.843143,21.477987 13.843143,25.3014353 Z" id="Fill-424" fill="#B1E5FF" fill-rule="nonzero"></path>
                            <path d="M7.39570533,23.3713063 C7.39570533,23.3713063 4.41287793,23.4435665 1.86804123,27.8056715 C-0.676795475,32.1677765 0.0358283184,75.3596542 0.349051389,75.433949 C11.5484484,78.0903938 22.1298883,78.0903938 32.093371,75.433949 C33.0367346,70.9058582 29.2665869,49.1141347 28.5288816,39.1023433 C28.0858654,34.1522997 26.7454674,26.9328245 22.9839819,23.9409995 C18.719678,20.5492409 7.39570533,23.3713063 7.39570533,23.3713063 Z" id="Fill-424" fill="#B1E5FF" fill-rule="nonzero"></path>
                            <path d="M37.2024688,22.3123013 C34.3433554,24.3530624 12.7996554,28.0126383 10.2548187,32.3747433 C7.709982,36.7368483 9.35278996,46.3227417 28.5288816,39.1023433 C30.9433041,37.7759679 42.060655,33.4371467 43.8114504,30.8879688 C45.5622456,28.3403967 53.8082976,4.07095859 53.8082976,4.07095859 L48.0012704,2.09137235 C47.7904967,3.15386145 47.569281,3.61958051 47.3376234,3.48852953 C46.4664633,2.99570554 40.0615822,20.2715401 37.2024688,22.3123013 Z" id="Fill-424" fill="#B1E5FF" fill-rule="nonzero"></path>
                            <path d="M10.5129609,27.9615825 C10.3885149,27.9615825 10.2848976,27.8646523 10.2771444,27.7386214 C10.2707712,27.6069702 10.3697907,27.4952926 10.5006258,27.4871458 C10.7008664,27.4757247 30.6563814,26.2710634 36.082438,22.8550842 C41.5092917,19.4399071 49.246376,5.42341868 49.3238835,5.28205752 C49.386211,5.16639937 49.531435,5.12532516 49.6438578,5.18864323 C49.757876,5.25195983 49.7992275,5.3964241 49.736103,5.51128019 C49.4172841,6.0919858 41.8615834,19.7775606 36.3317638,23.2578572 C30.8035396,26.7381522 11.3522174,27.9126522 10.5265224,27.9615825 L10.5129609,27.9615825" id="Fill-425" fill="#1D1119" fill-rule="nonzero" transform="translate(30.021398, 16.560266) rotate(-8.000000) translate(-30.021398, -16.560266) "></path>
                            <path d="M21.7957534,22.8145652 C23.8464703,24.2050731 25.0030146,25.6262518 25.2653862,27.0781014" id="Path-97" stroke="#1D1119" stroke-width="0.7" stroke-linecap="round"></path>
                            <path d="M17.0629669,41.7960415 C14.088609,41.7960415 10.4578025,40.8100917 8.84978272,38.3821503 C8.77719849,38.2729572 8.80671076,38.1252253 8.91518829,38.053768 C9.02286812,37.980705 9.16883421,38.009609 9.24221607,38.1196051 C11.1533348,41.0051941 16.3570654,41.7229784 19.2253387,41.1143873 C22.1478508,40.4969644 28.5288816,39.1023433 28.5288816,39.1023433 L28.6293829,39.5656112 C28.6293829,39.5656112 22.2459592,40.9602322 19.3226494,41.5800639 C18.657427,41.7213726 17.8845246,41.7960415 17.0629669,41.7960415" id="Fill-426" fill="#1D1119" fill-rule="nonzero"></path>
                        </g>
                        <path d="M53.3173679,14.6011557 L54.4742839,11.9641216 C54.4742839,11.9641216 57.9774698,9.21502399 58.1385908,7.44143848 C58.2997118,5.66624724 57.4925115,5.06327635 57.3959984,4.39527131 C57.3002829,3.72646338 57.538774,1.9352143 56.7953838,1.84529054 C56.053589,1.75616968 52.5759272,5.02714627 52.5759272,5.02714627 C52.5759272,5.02714627 53.1254935,0.418553822 52.4810094,0.0243345029 C51.8381206,-0.368279035 50.2994945,4.11987981 50.2994945,4.11987981 C50.2994945,4.11987981 50.311459,7.92477869 50.0227173,8.87540122 C49.8690801,9.37982699 49.0636996,10.9085563 48.3414995,12.2325151 C47.9156113,13.0132659 49.5742341,13.8028127 53.3173679,14.6011557 Z" id="Fill-429" fill="#FEB08A" fill-rule="nonzero"></path>
                        <g id="Group-13" transform="translate(11.208515, 25.329647) rotate(-5.000000) translate(-11.208515, -25.329647) translate(2.708515, 13.329647)">
                            <path d="M5.02812412,16.9978109 L2.94941397,21.9664915 C7.57216743,22.9976486 10.4553776,23.2788968 11.5990444,22.8102361 C12.7427113,22.3415753 13.2146552,21.274626 13.014876,19.6093881 C14.3181971,19.3909299 14.9698576,18.8963089 14.9698576,18.1255253 C14.9698576,17.3547416 14.9698576,15.6333805 14.9698576,12.9614419 C16.4006071,11.9945803 16.4006071,11.2097673 14.9698576,10.6070027 C13.5391081,10.0042383 12.5490487,8.53766161 11.9996793,6.20727289 C10.2656236,4.267537 8.94927755,3.56347668 8.05064144,4.09509191 C6.70268725,4.89251476 0.05574988,9.16764732 2.06747694,12.496216 C3.40862832,14.7152617 4.39551071,16.2157934 5.02812412,16.9978109 Z" id="Path-35" fill="#FFC0A9" fill-rule="nonzero"></path>
                            <path d="M3.11778557,22.1076225 C3.79345146,23.2868547 6.77786733,23.239811 12.0710332,21.9664915" id="Path-95" stroke="#1D1119" stroke-width="0.7" stroke-linecap="round" transform="translate(7.594409, 22.462304) scale(-1, 1) translate(-7.594409, -22.462304) "></path>
                            <path d="M11.2117181,13.9510556 L12.2926155,13.0821952 L11.7521645,11.5023811 C12.2581451,10.3963942 12.0779948,9.43086873 11.2117181,8.6058046 C12.6622078,7.31434534 13.366922,3.89166516 11.7521645,1.46482408 C10.1374069,-0.962017002 8.05412582,0.138541773 7.70991964,1.12937036 C5.66807764,1.22632375 4.93187961,2.20981164 5.26513491,3.06668449 C5.5983902,3.92355735 -1.20632957,5.2280041 0.921805089,11.3373225 C-1.78737529,14.7769165 4.00556564,19.3157722 5.75394252,19.3157722 C6.91952709,19.3157722 8.07227352,17.9139147 9.21218173,15.1101997 C7.66113843,13.9346506 7.16038436,12.7320444 7.70991964,11.5023811 C8.25945486,10.2727178 9.14639349,10.4164359 10.3707354,11.9335356 L11.2117181,13.9510556 Z" id="Path-36" fill="#202C52" fill-rule="nonzero"></path>
                            <path d="M11.2117135,13.9510556 L12.2926155,13.0821952 C12.9217118,14.3894376 13.4743167,15.0430588 13.9504299,15.0430588 C14.4265431,15.0430588 14.7468699,14.3894376 14.9114104,13.0821952 L15.2263199,12.8736033 L15.8297758,13.9583311 C15.6374115,14.4692674 15.4362596,14.8308433 15.2263199,15.0430588 C14.9114104,15.361382 16.2056682,15.5926338 16.4458338,15.4770079 C16.6859994,15.361382 17.4083002,19.7516657 16.0429197,20.6655912 C15.132666,21.2748748 14.0107917,21.7085083 12.6772968,21.9664915 C12.9357833,19.5324674 13.0004049,18.016986 12.8711617,17.4200474 C12.7419184,16.8231088 12.188769,15.6667782 11.2117135,13.9510556 Z" id="Path-37" fill="#202C52" fill-rule="nonzero"></path>
                        </g>
                    </g>
                </g>
            </g>
        </g>
    </g>
</svg>