<svg xmlns="http://www.w3.org/2000/svg" xmlns:xlink="http://www.w3.org/1999/xlink" width="54" height="54" viewBox="0 0 54 54">
    <defs>
        <linearGradient id="5h1bedzl6b" x1="0%" x2="100%" y1="0%" y2="100%">
            <stop offset="0%" stop-color="#FD3DA1"/>
            <stop offset="100%" stop-color="#FD207A"/>
        </linearGradient>
        <rect id="4rh0nk99oa" width="54" height="54" x="0" y="0" rx="10"/>
    </defs>
    <g fill="none" fill-rule="evenodd">
        <g>
            <g>
                <g transform="translate(-365 -7130) translate(0 6947) translate(365 183)">
                    <mask id="gc6v9jkuwc" fill="#fff">
                        <use xlink:href="#4rh0nk99oa"/>
                    </mask>
                    <use fill="url(#5h1bedzl6b)" xlink:href="#4rh0nk99oa"/>
                    <g mask="url(#gc6v9jkuwc)">
                        <g fill="#FFF" fill-rule="nonzero">
                            <g>
                                <path d="M4.583 16.042h-.458v.917h.458c.257 0 .458-.202.458-.458.001-.258-.201-.459-.458-.459zM9.395 16.042h-.687v2.75h.687c.128 0 .23-.1.23-.23V16.27c0-.128-.1-.228-.23-.228z" transform="translate(14 16) translate(4)"/>
                                <path d="M12.833 10.083c-2.53 0-4.583-2.053-4.583-4.583 0-1.815 1.072-3.428 2.668-4.162.257-.495.567-.945.944-1.338H2.52C1.127 0 0 1.127 0 2.52v16.958C0 20.872 1.127 22 2.52 22h13.293c1.392 0 2.52-1.128 2.52-2.52v-9.396h-5.5v-.001zm-8.25 8.25h-.458v1.145c0 .376-.312.688-.688.688-.375 0-.687-.312-.687-.688v-4.125c0-.375.312-.687.688-.687h1.145c1.008 0 1.833.825 1.833 1.833.001 1.009-.824 1.834-1.833 1.834zm6.417.23c0 .88-.725 1.604-1.605 1.604H8.02c-.375 0-.687-.312-.687-.687v-4.125c0-.376.312-.688.687-.688h1.375c.88 0 1.605.725 1.605 1.605v2.29zm3.895-1.605c.38 0 .688.308.688.687 0 .38-.308.688-.688.688h-1.604v1.145c0 .38-.308.688-.688.688-.38 0-.687-.308-.687-.688V16.27c0-.884.719-1.604 1.604-1.604h1.375c.38 0 .688.308.688.687 0 .38-.308.688-.688.688H13.52c-.126 0-.23.103-.23.23v.687h1.605z" transform="translate(14 16) translate(4)"/>
                            </g>
                            <path fill-opacity=".7" d="M22.792 8.25h-5.958c-1.516 0-2.75-1.233-2.75-2.75 0-1.337.957-2.453 2.222-2.7.476-1.628 1.995-2.8 3.736-2.8 1.374 0 2.646.732 3.34 1.89C24.878 2.165 26 3.48 26 5.043c0 1.768-1.44 3.208-3.208 3.208z" transform="translate(14 16)"/>
                        </g>
                    </g>
                </g>
            </g>
        </g>
    </g>
</svg>
