<?xml version="1.0" encoding="UTF-8"?>
<svg width="165px" height="49px" viewBox="0 0 165 49" version="1.1" xmlns="http://www.w3.org/2000/svg" xmlns:xlink="http://www.w3.org/1999/xlink">
    <!-- Generator: sketchtool 60 (101010) - https://sketch.com -->
    <title>016F0818-F455-4774-AB31-B25ABE72392D@1x</title>
    <desc>Created with sketchtool.</desc>
    <g id="Page-1" stroke="none" stroke-width="1" fill="none" fill-rule="evenodd">
        <g id="Gomble-Consumer-Landing-Page" transform="translate(-1195.000000, -1832.000000)">
            <g id="Group-11" transform="translate(0.000000, 1720.000000)">
                <g id="Group-22" transform="translate(80.000000, 60.000000)">
                    <g id="Group-14" transform="translate(935.990000, 0.000000)">
                        <g id="Group-13">
                            <g id="Group-12" transform="translate(0.000000, 52.000000)">
                                <g id="aivalable-on-the-app-store-2" transform="translate(180.000000, 0.000000)">
                                    <path d="M162.912153,42.8672425 C162.912153,45.4392811 160.828835,47.5224976 158.252036,47.5224976 L5.74796387,47.5224976 C3.17238014,47.5224976 1.08187076,45.4392811 1.08187076,42.8672425 L1.08187076,5.74310198 C1.08187076,3.17238014 3.17248143,1.08176947 5.74796387,1.08176947 L158.250719,1.08176947 C160.828734,1.08176947 162.912153,3.17238014 162.912153,5.74310198 L162.912153,42.8672425 Z" id="Path" fill="#FFFFFF" fill-rule="nonzero"></path>
                                    <path d="M158.252036,48.6054826 L5.74796387,48.6054826 C2.57923014,48.6054826 0,46.0323298 0,42.8672425 L0,5.74431746 C0,2.5767992 2.57923014,0 5.74796387,0 L158.250719,0 C161.415807,0 163.998685,2.5767992 163.998685,5.74431746 L163.998685,42.8672425 C164.001114,46.0323298 161.418238,48.6054826 158.252036,48.6054826 Z" id="Path" fill="#A6A6A6" fill-rule="nonzero"></path>
                                    <path d="M162.912153,42.8672425 C162.912153,45.4392811 160.828835,47.5224976 158.252036,47.5224976 L5.74796387,47.5224976 C3.17238014,47.5224976 1.08187076,45.4392811 1.08187076,42.8672425 L1.08187076,5.74310198 C1.08187076,3.17238014 3.17248143,1.08176947 5.74796387,1.08176947 L158.250719,1.08176947 C160.828734,1.08176947 162.912153,3.17238014 162.912153,5.74310198 L162.912153,42.8672425 Z" id="Path" fill="#000000" fill-rule="nonzero"></path>
                                    <path d="M36.6197199,24.0468846 C36.5844712,20.1294205 39.8273487,18.2235615 39.9756362,18.1348321 C38.1390591,15.4571488 35.2925265,15.0912919 34.2921936,15.0621206 C31.9013615,14.810518 29.5822423,16.4927303 28.36434,16.4927303 C27.1221283,16.4927303 25.2466561,15.08643 23.2253273,15.127756 C20.6242186,15.1678666 18.1909463,16.6738356 16.8562575,19.0124024 C14.1021008,23.7806964 16.1561461,30.7878885 18.7950356,34.6421481 C20.1149362,36.5309905 21.6574705,38.6374023 23.6762671,38.5632586 C25.651408,38.4830374 26.3891991,37.3052457 28.7727384,37.3052457 C31.1342978,37.3052457 31.8272178,38.5632586 33.8861249,38.5158552 C36.0060082,38.4830374 37.3404944,36.6197199 38.6144096,34.7150764 C40.1398261,32.5527529 40.7523224,30.4208162 40.7767331,30.3114238 C40.728013,30.2944072 36.6610459,28.7410348 36.6197199,24.0468846 L36.6197199,24.0468846 Z M32.7302117,12.5266474 C33.7924323,11.1981373 34.5193855,9.39073141 34.3176172,7.55658519 C32.7799447,7.62465159 30.8571704,8.6201226 29.7497747,9.91946144 C28.7701048,11.0644354 27.8949655,12.9411231 28.1210432,14.7059875 C29.8483292,14.8348275 31.6217018,13.8344946 32.7302117,12.5266474 L32.7302117,12.5266474 Z" id="Shape" fill="#FFFFFF" fill-rule="nonzero"></path>
                                    <g id="Group" transform="translate(52.000000, 22.000000)" fill="#FFFFFF" fill-rule="nonzero">
                                        <path d="M13.6720266,16.449414 L10.9116912,16.449414 L9.39964487,11.6981366 L4.1438456,11.6981366 L2.70351208,16.449414 L0.0162062843,16.449414 L5.22450089,0.273921655 L8.440638,0.273921655 L13.6720266,16.449414 Z M8.94394441,9.70476362 L7.57653918,5.48100079 C7.43189809,5.04950847 7.15963252,4.03337445 6.76085664,2.43381419 L6.71233907,2.43381419 C6.55189686,3.12177096 6.29543241,4.13790498 5.9441612,5.48100079 L4.59984992,9.70476362 L8.94394441,9.70476362 Z M27.0398814,10.474157 C27.0398814,12.4578062 26.5014276,14.0257642 25.4232033,15.1769168 C24.4582203,16.2014578 23.2585501,16.7132725 21.8278391,16.7132725 C20.2829751,16.7132725 19.1720343,16.1625627 18.4974477,15.0590161 L18.4974477,21.1789142 L15.9060628,21.1789142 L15.9060628,8.61934773 C15.9060628,7.37338834 15.8733464,6.09602928 15.8101419,4.78575119 L18.0891506,4.78575119 L18.2337917,6.63448307 L18.2823093,6.63448307 C19.1465094,5.24155294 20.4580029,4.54498658 22.2180054,4.54498658 C23.5939189,4.54498658 24.7425393,5.08830226 25.6614357,6.17614909 C26.5791165,7.26652816 27.0398814,8.69835337 27.0398814,10.474157 L27.0398814,10.474157 Z M24.3997764,10.5689637 C24.3997764,9.43371352 24.1445274,8.4978006 23.6315985,7.76000951 C23.0712663,6.99304711 22.3188895,6.60905946 21.3756838,6.60905946 C20.7363459,6.60905946 20.1553506,6.82288112 19.6363443,7.24464967 C19.1161226,7.67006463 18.7757906,8.22553503 18.6166652,8.91349179 C18.5364441,9.23437622 18.4963335,9.49570256 18.4963335,9.70243397 L18.4963335,11.6483023 C18.4963335,12.4954858 18.7564444,13.2114997 19.2766661,13.7973568 C19.7968878,14.3807831 20.4726899,14.6736104 21.3040723,14.6736104 C22.280197,14.6736104 23.0398666,14.2957001 23.583081,13.545653 C24.1275108,12.7932762 24.3997764,11.8014516 24.3997764,10.5689637 L24.3997764,10.5689637 Z M40.4549371,10.474157 C40.4549371,12.4578062 39.9164833,14.0257642 38.8383602,15.1769168 C37.8720605,16.2014578 36.6736058,16.7132725 35.2417806,16.7132725 C33.6969165,16.7132725 32.5859758,16.1625627 31.9113892,15.0590161 L31.9113892,21.1789142 L29.3200043,21.1789142 L29.3200043,8.61934773 C29.3200043,7.37338834 29.2871866,6.09602928 29.2239821,4.78575119 L31.5029908,4.78575119 L31.6476319,6.63448307 L31.6962508,6.63448307 C32.5592354,5.24155294 33.8707289,4.54498658 35.6318456,4.54498658 C37.0065437,4.54498658 38.1551641,5.08830226 39.0765926,6.17614909 C39.9931593,7.26652816 40.4549371,8.69835337 40.4549371,10.474157 Z M37.8137179,10.5689637 C37.8137179,9.43371352 37.5573547,8.4978006 37.0443246,7.76000951 C36.4839923,6.99304711 35.7340465,6.60905946 34.7908407,6.60905946 C34.1515028,6.60905946 33.5705075,6.82288112 33.0490703,7.24464967 C32.5288486,7.67006463 32.1898334,8.22553503 32.0305054,8.91349179 C31.9514997,9.23437622 31.9089582,9.49570256 31.9089582,9.70243397 L31.9089582,11.6483023 C31.9089582,12.4954858 32.1702846,13.2114997 32.6880753,13.7973568 C33.2082971,14.3795676 33.8840991,14.6736104 34.7179125,14.6736104 C35.6950501,14.6736104 36.4547197,14.2957001 36.9969212,13.545653 C37.5414523,12.7932762 37.8137179,11.8014516 37.8137179,10.5689637 L37.8137179,10.5689637 Z M55.4538532,11.9120595 C55.4538532,13.2891885 54.9725265,14.4086376 54.0160519,15.2728377 C52.9633524,16.2160435 51.4939489,16.6888618 49.6098671,16.6888618 C47.8693121,16.6888618 46.4739511,16.3533917 45.4213529,15.6812361 L46.0205803,13.5213436 C47.1570459,14.1947147 48.405335,14.5301848 49.7642319,14.5301848 C50.7414709,14.5301848 51.5011404,14.308969 52.0432406,13.8701838 C52.586455,13.4301832 52.8612528,12.8418951 52.8612528,12.1077504 C52.8612528,11.4502817 52.6339597,10.8995719 52.1878817,10.4511643 C51.7393728,10.0038709 50.9979353,9.58696419 49.9563777,9.20409073 C47.1242282,8.14784615 45.7069887,6.6029821 45.7069887,4.57071406 C45.7069887,3.24341938 46.2077628,2.15678802 47.2069815,1.30717357 C48.206099,0.458774585 49.5309627,0.0346763838 51.1791418,0.0346763838 C52.6510776,0.0346763838 53.8774881,0.291140832 54.8510807,0.802854258 L54.2008035,2.91524212 C53.2843381,2.41932982 52.2498708,2.17137367 51.0927421,2.17137367 C50.1788089,2.17137367 49.4615796,2.39623587 48.9486507,2.84352931 C48.5171583,3.24341938 48.2983735,3.73092467 48.2983735,4.30938772 C48.2983735,4.94761146 48.5476464,5.47755695 49.0434574,5.89324814 C49.4737343,6.27602032 50.2589287,6.69302827 51.394179,7.14032172 C52.7871091,7.70186947 53.8104346,8.35579304 54.465675,9.10695431 C55.1256759,9.85791301 55.4538532,10.7950414 55.4538532,11.9120595 L55.4538532,11.9120595 Z M64.0436903,6.7305053 L61.1872314,6.7305053 L61.1872314,12.3933862 C61.1872314,13.8337197 61.6905378,14.5520632 62.699379,14.5520632 C63.1623723,14.5520632 63.5465625,14.5130669 63.8504303,14.4317316 L63.9220418,16.3995796 C63.4116452,16.5905099 62.7393882,16.6864309 61.9067904,16.6864309 C60.8833635,16.6864309 60.0835834,16.3740548 59.5062345,15.7493025 C58.9313166,15.1245502 58.6421357,14.0780294 58.6421357,12.6048782 L58.6421357,6.72564342 L56.9403746,6.72564342 L56.9403746,4.78088931 L58.6421357,4.78088931 L58.6421357,2.6453062 L61.1872314,1.87712833 L61.1872314,4.78088931 L64.0436903,4.78088931 L64.0436903,6.7305053 L64.0436903,6.7305053 Z M76.9057065,10.5215603 C76.9057065,12.3142793 76.3928789,13.786215 75.3693507,14.9373677 C74.2985205,16.1224522 72.8739881,16.7131712 71.0981845,16.7131712 C69.38437,16.7131712 68.0218266,16.1455461 67.0056926,15.0115114 C65.9895586,13.8749444 65.4814915,12.4432205 65.4814915,10.7160358 C65.4814915,8.90852862 66.0065752,7.42818584 67.053096,6.2771345 C68.1020477,5.12486769 69.5145267,4.54883557 71.290229,4.54883557 C73.0016126,4.54883557 74.376412,5.11757486 75.4167541,6.25282508 C76.4111109,7.35404209 76.9057065,8.77614353 76.9057065,10.5215603 L76.9057065,10.5215603 Z M74.2195149,10.5811184 C74.2195149,9.51261786 73.9886766,8.59615249 73.5254807,7.82919009 C72.9821651,6.90300094 72.2042634,6.44000766 71.1966377,6.44000766 C70.1586252,6.44000766 69.3625928,6.90300094 68.8203913,7.82919009 C68.3560812,8.59615249 68.1251417,9.52841899 68.1251417,10.629636 C68.1251417,11.6993521 68.3560812,12.6181471 68.8203913,13.3827798 C69.3807235,14.308969 70.1622716,14.7720636 71.1747592,14.7720636 C72.1653683,14.7720636 72.9420545,14.2992452 73.5036023,13.3596859 C73.9801683,12.5744914 74.2195149,11.6519487 74.2195149,10.5811184 L74.2195149,10.5811184 Z M85.3326704,7.06475992 C85.076206,7.01725525 84.8015095,6.99294582 84.5158737,6.99294582 C83.6042702,6.99294582 82.8992968,7.33581002 82.4034858,8.02609644 C81.973209,8.6338321 81.7567538,9.40200997 81.7567538,10.3294146 L81.7567538,16.4493127 L79.1653689,16.4493127 L79.1653689,8.45890552 C79.1653689,7.11580971 79.1398441,5.89061462 79.0900097,4.78696666 L81.3472413,4.78696666 L81.442048,7.01847072 L81.5137608,7.01847072 C81.7884573,6.2516096 82.2187342,5.63283341 82.8094533,5.16973884 C83.3868021,4.75293347 84.0102376,4.54498658 84.6824946,4.54498658 C84.9218411,4.54498658 85.1382963,4.56200318 85.3303408,4.59249125 L85.3326704,7.06475992 L85.3326704,7.06475992 Z M96.9221895,10.0657586 C96.9221895,10.5300686 96.8917014,10.9213491 96.8272814,11.2411194 L89.0531268,11.2411194 C89.0822982,12.3933862 89.4591956,13.2758184 90.1810842,13.883554 C90.8363246,14.4257555 91.6834068,14.6979198 92.7238502,14.6979198 C93.8749016,14.6979198 94.9249675,14.5155991 95.86949,14.1473113 L96.2754574,15.9449934 C95.1718095,16.42632 93.8688242,16.6657679 92.3652862,16.6657679 C90.5567662,16.6657679 89.1369944,16.1332901 88.1038437,15.0710695 C87.0731241,14.0075321 86.55665,12.5781378 86.55665,10.7877486 C86.55665,9.03007575 87.0367612,7.5655341 87.9980977,6.39746616 C89.0046093,5.15039259 90.3646204,4.52675451 92.0761053,4.52675451 C93.7571021,4.52675451 95.0295993,5.1502913 95.8937994,6.39746616 C96.5781098,7.38564434 96.9221895,8.61083943 96.9221895,10.0657586 L96.9221895,10.0657586 Z M94.451035,9.39360296 C94.469267,8.62420962 94.2991011,7.96177775 93.9478298,7.40144547 C93.4992196,6.67945551 92.8089332,6.319676 91.8839595,6.319676 C91.036776,6.319676 90.3463883,6.67094721 89.8213047,7.37592057 C89.3898124,7.93625285 89.133348,8.60962396 89.0544436,9.39117202 L94.451035,9.39360296 Z" id="Shape"></path>
                                    </g>
                                    <text id="Coming-Soon-on" font-family="Inter-Regular, Inter" font-size="11" font-weight="normal" letter-spacing="0.6" fill="#FFFFFF">
                                        <tspan x="52" y="16">Coming Soon on</tspan>
                                    </text>
                                </g>
                            </g>
                        </g>
                    </g>
                </g>
            </g>
        </g>
    </g>
</svg>