<?xml version="1.0" encoding="UTF-8"?>
<svg width="49px" height="35px" viewBox="0 0 49 35" version="1.1" xmlns="http://www.w3.org/2000/svg" xmlns:xlink="http://www.w3.org/1999/xlink">
    <!-- Generator: sketchtool 60 (101010) - https://sketch.com -->
    <title>3BDC827E-1B5C-4EE1-B79F-6A7E325414BA@1x</title>
    <desc>Created with sketchtool.</desc>
    <g id="Page-1" stroke="none" stroke-width="1" fill="none" fill-rule="evenodd">
        <g id="Gomble-Consumer-Landing-Page" transform="translate(-614.000000, -1951.000000)">
            <g id="Group-11" transform="translate(0.000000, 1720.000000)">
                <g id="Group-22" transform="translate(80.000000, 60.000000)">
                    <g id="Group-21" transform="translate(530.660000, 0.000000)">
                        <g id="Group-20" transform="translate(0.000000, 160.000000)">
                            <g id="Group-19">
                                <g id="Group" transform="translate(4.000000, 11.000000)" fill="#FFFFFF" fill-rule="nonzero">
                                    <path d="M47.9165236,18.0782609 C47.9169611,17.8459173 47.8398435,17.620073 47.6973913,17.4365217 L44.6713043,13.5652174 L44.6713043,13.5652174 L41.3113043,6.52173913 C40.2674153,4.34758084 38.0726321,2.96140198 35.6608696,2.95304348 L29.5408696,2.95304348 L29.5408696,1.33565217 C29.5408696,0.759355044 29.0736884,0.292173913 28.4973913,0.292173913 L6.18782609,0.292173913 C5.61152896,0.292173913 5.14434783,0.759355044 5.14434783,1.33565217 C5.14434783,1.9119493 5.61152896,2.37913043 6.18782609,2.37913043 L27.453913,2.37913043 L27.453913,14.0556522 C27.453913,14.6319493 27.9210942,15.0991304 28.4973913,15.0991304 L43.2365217,15.0991304 L45.8452174,18.4330435 L45.8452174,27.3391304 L41.8278261,27.3391304 C41.3378504,24.5705122 38.9316406,22.5527501 36.12,22.5527501 C33.3083594,22.5527501 30.9021496,24.5705122 30.4121739,27.3391304 L20.0608696,27.3391304 C19.5708939,24.5705122 17.1646841,22.5527501 14.3530435,22.5527501 C11.5414029,22.5527501 9.13519305,24.5705122 8.64521739,27.3391304 L5.66608696,27.3391304 C5.08978983,27.3391304 4.6226087,27.8063116 4.6226087,28.3826087 C4.6226087,28.9589058 5.08978983,29.426087 5.66608696,29.426087 L8.65565217,29.426087 C9.16963701,32.1707521 11.5658842,34.1599164 14.3582609,34.1599164 C17.1506375,34.1599164 19.5468847,32.1707521 20.0608696,29.426087 L30.4017391,29.426087 C30.915724,32.1707521 33.3119712,34.1599164 36.1043478,34.1599164 C38.8967244,34.1599164 41.2929717,32.1707521 41.8069565,29.426087 L45.8295652,29.426087 C46.9821595,29.426087 47.9165236,28.4917247 47.9165236,27.3391304 L47.9165236,18.0782609 Z M29.5408696,5.03478261 L35.6765217,5.03478261 C37.2858278,5.03531193 38.7514767,5.96098489 39.4434783,7.41391304 L42.12,13.0278261 L29.5408696,13.0278261 L29.5408696,5.03478261 Z M14.3530435,32.0765254 C12.8474964,32.0786318 11.4891194,31.1730572 10.9119963,29.7825158 C10.3348733,28.3919745 10.6528089,26.7906717 11.7173925,25.7260882 C12.7819761,24.6615046 14.3832788,24.3435689 15.7738202,24.920692 C17.1643616,25.497815 18.0699362,26.8561921 18.0678298,28.3617391 C18.0649523,30.4121654 16.4034697,32.073648 14.3530435,32.0765254 L14.3530435,32.0765254 Z M36.1043478,32.0765217 C34.5992738,32.0765217 33.2424979,31.1696058 32.6670196,29.7788964 C32.0915414,28.388187 32.4107662,26.7877402 33.4757608,25.7242392 C34.5407555,24.6607383 36.1416488,24.34376 37.5315491,24.9211896 C38.9214494,25.4986192 39.8264587,26.8566666 39.8243515,28.3617391 C39.8214692,30.4142006 38.1568113,32.0765217 36.1043478,32.0765217 Z" id="Shape"></path>
                                    <path d="M9.39130435,18.2608696 C9.39130435,17.6845724 8.92412322,17.2173913 8.34782609,17.2173913 L2.60869565,17.2173913 C2.03239852,17.2173913 1.56521739,17.6845724 1.56521739,18.2608696 C1.56521739,18.8371667 2.03239852,19.3043478 2.60869565,19.3043478 L8.34782609,19.3043478 C8.92412322,19.3043478 9.39130435,18.8371667 9.39130435,18.2608696 Z" id="Path"></path>
                                    <path d="M1.04347826,14.0869565 L13.0434783,14.0869565 C13.6197754,14.0869565 14.0869565,13.6197754 14.0869565,13.0434783 C14.0869565,12.4671811 13.6197754,12 13.0434783,12 L1.04347826,12 C0.467181131,12 0,12.4671811 0,13.0434783 C0,13.6197754 0.467181131,14.0869565 1.04347826,14.0869565 Z" id="Path"></path>
                                    <path d="M1.04347826,7.82608696 C1.04347826,8.40238409 1.51065939,8.86956522 2.08695652,8.86956522 L14.0869565,8.86956522 C14.6632537,8.86956522 15.1304348,8.40238409 15.1304348,7.82608696 C15.1304348,7.24978983 14.6632537,6.7826087 14.0869565,6.7826087 L2.08695652,6.7826087 C1.51065939,6.7826087 1.04347826,7.24978983 1.04347826,7.82608696 Z" id="Path"></path>
                                </g>
                                <rect id="Rectangle" x="0" y="0" width="56" height="56"></rect>
                            </g>
                        </g>
                    </g>
                </g>
            </g>
        </g>
    </g>
</svg>