<?xml version="1.0" encoding="UTF-8"?>
<svg width="60px" height="60px" viewBox="0 0 60 60" version="1.1" xmlns="http://www.w3.org/2000/svg" xmlns:xlink="http://www.w3.org/1999/xlink">
    <!-- Generator: sketchtool 60 (101010) - https://sketch.com -->
    <title>CA5C532A-74C3-4667-8341-9FD5C166EB93@1x</title>
    <desc>Created with sketchtool.</desc>
    <g id="Page-1" stroke="none" stroke-width="1" fill="none" fill-rule="evenodd">
        <g id="Gomble-Consumer-Landing-Page" transform="translate(-105.000000, -1318.000000)">
            <g id="Group-46" transform="translate(0.000000, 920.000000)">
                <g id="Group-45" transform="translate(80.000000, 70.000000)">
                    <g id="Group-43" transform="translate(0.000000, 205.000000)">
                        <g id="Group-42" transform="translate(0.000000, 98.000000)">
                            <g id="Elements-/-Buttons-/-Combined-/-Icon-/-1">
                                <g id="Button" transform="translate(25.000000, 25.000000)">
                                    <path d="M16.8676658,-6.81473887e-16 L43.1323342,6.81473887e-16 C48.9975891,-3.95955953e-16 51.1244722,0.61069481 53.2687217,1.757452 C55.4129712,2.90420919 57.0957908,4.58702875 58.242548,6.73127827 C59.3893052,8.87552778 60,11.0024109 60,16.8676658 L60,43.1323342 C60,48.9975891 59.3893052,51.1244722 58.242548,53.2687217 C57.0957908,55.4129712 55.4129712,57.0957908 53.2687217,58.242548 C51.1244722,59.3893052 48.9975891,60 43.1323342,60 L16.8676658,60 C11.0024109,60 8.87552778,59.3893052 6.73127827,58.242548 C4.58702875,57.0957908 2.90420919,55.4129712 1.757452,53.2687217 C0.61069481,51.1244722 2.63970635e-16,48.9975891 -4.54315924e-16,43.1323342 L4.54315924e-16,16.8676658 C-2.63970635e-16,11.0024109 0.61069481,8.87552778 1.757452,6.73127827 C2.90420919,4.58702875 4.58702875,2.90420919 6.73127827,1.757452 C8.87552778,0.61069481 11.0024109,3.95955953e-16 16.8676658,-6.81473887e-16 Z" id="Base" fill="#FFE2ED"></path>
                                    <g id="Select-dress" transform="translate(17.000000, 15.000000)">
                                        <g id="27257" fill-rule="nonzero">
                                            <path d="M5.84153996,12.0647451 C5.79818314,10.500872 5.75109829,8.86488014 5.70028536,7.15676954 L2.57313075,19.6602938 C0.417308696,19.5956528 0,18.881641 0,18.881641 C0,18.881641 3.12920124,3.86122071 3.58120039,1.91463651 C3.89775789,0.55121295 5.16958207,0.158506249 5.90336311,0.0455790993 C6.21731714,-0.0027376797 7.44006039,9.35654193e-05 7.44005561,9.35654193e-05 C7.06001,5.29511618 14.2012603,5.16295618 13.8019258,9.35654193e-05 C13.8019181,9.35654193e-05 14.8145265,-0.00222849687 15.0800177,0.0329547364 C15.7952251,0.127734944 17.1607973,0.494954914 17.4904329,1.91463651 C17.942432,3.86122071 21.0714286,18.881641 21.0714286,18.881641 C21.0714286,18.881641 20.6544269,19.5956528 18.4982978,19.6599119 L15.0212711,6.99979775 C14.993336,8.63293743 14.9665021,10.1911165 14.9407691,11.6743348 C15.140025,16.2885398 16.0348763,21.1093672 20.4034797,28.834961 C20.2158524,29.1002749 17.5083744,30.2082721 15.633046,28.834961 C15.0935538,29.9808273 12.2126925,30.3370158 10.8626122,28.834961 C9.16148586,30.2189283 7.08938039,29.5598645 6.0921785,28.834961 C4.27716207,30.0195803 1.5677579,29.0809821 1.32174475,28.834961 C4.73789268,22.356308 5.61605607,16.788901 5.84153996,12.0647451 Z" id="Combined-Shape" stroke="#242424" stroke-width="1.42857143" fill="#FFFFFF" stroke-linejoin="round"></path>
                                            <polygon id="Rectangle" fill="#FC68A2" points="6.52062229 11.4207365 15.3571429 11.4285714 15.4383259 13.5860063 6.45620929 13.5842143"></polygon>
                                            <path d="M10.8930541,10.7142857 C10.5972295,10.7142857 10.3571429,10.4752717 10.3571429,10.1785714 C10.3571429,9.88187118 10.5972295,9.64285714 10.8930541,9.64285714 C11.1882878,9.64285714 11.4285714,9.88285557 11.4285714,10.1785714 C11.4285714,10.4740904 11.1882878,10.7142857 10.8930541,10.7142857 Z" id="Path" fill="#FC68A2"></path>
                                            <path d="M10.8930541,8.92857143 C10.5972295,8.92857143 10.3571429,8.68955739 10.3571429,8.39285714 C10.3571429,8.09615689 10.5972295,7.85714286 10.8930541,7.85714286 C11.1882878,7.85714286 11.4285714,8.09714129 11.4285714,8.39285714 C11.4285714,8.688573 11.1882878,8.92857143 10.8930541,8.92857143 Z" id="Path" fill="#FC68A2"></path>
                                            <path d="M10.8930541,7.14285714 C10.5972295,7.14285714 10.3571429,6.90388704 10.3571429,6.60724129 C10.3571429,6.31059554 10.5972295,6.07142857 10.8930541,6.07142857 C11.1882878,6.07142857 11.4285714,6.31157975 11.4285714,6.60724129 C11.4285714,6.90290282 11.1882878,7.14285714 10.8930541,7.14285714 Z" id="Path" fill="#FC68A2"></path>
                                        </g>
                                        <g id="Oval" transform="translate(13.214286, 3.571429)">
                                            <g id="path-1-link" transform="translate(0.714286, 0.714286)" fill="#FFFFFF" fill-rule="nonzero">
                                                <circle id="path-1" cx="5.71428571" cy="5.71428571" r="5.71428571"></circle>
                                            </g>
                                            <circle stroke="#FFE2ED" stroke-width="1.42857143" cx="6.42857143" cy="6.42857143" r="6.42857143"></circle>
                                            <g id="path-1-link" transform="translate(0.714286, 0.714286)" stroke="#242424" stroke-width="1.42857143">
                                                <circle id="path-1" cx="5.71428571" cy="5.71428571" r="5.71428571"></circle>
                                            </g>
                                        </g>
                                        <polyline id="Path-7" stroke="#FC68A2" stroke-width="1.42857143" stroke-linecap="round" stroke-linejoin="round" points="16.9067462 10.7142857 18.0891055 12.6391587 22.555958 8.39285714"></polyline>
                                    </g>
                                </g>
                            </g>
                        </g>
                    </g>
                </g>
            </g>
        </g>
    </g>
</svg>