<?xml version="1.0" encoding="UTF-8"?>
<svg width="30px" height="29px" viewBox="0 0 30 29" version="1.1" xmlns="http://www.w3.org/2000/svg" xmlns:xlink="http://www.w3.org/1999/xlink">
    <!-- Generator: sketchtool 60 (101010) - https://sketch.com -->
    <title>FA3C1D1E-20F1-4BF6-8CA4-190D3F15295A@1x</title>
    <desc>Created with sketchtool.</desc>
    <g id="Page-1" stroke="none" stroke-width="1" fill="none" fill-rule="evenodd">
        <g id="Gomble-Consumer-Landing-Page" transform="translate(-1110.000000, -1335.000000)">
            <g id="Group-46" transform="translate(0.000000, 920.000000)">
                <g id="Group-45" transform="translate(80.000000, 70.000000)">
                    <g id="Group-43" transform="translate(0.000000, 205.000000)">
                        <g id="Group-42" transform="translate(0.000000, 98.000000)">
                            <g id="Group-34-Copy-3" transform="translate(990.000000, 0.000000)">
                                <g id="Group-31" transform="translate(25.000000, 25.000000)">
                                    <g id="Group-33">
                                        <g id="Elements-/-Buttons-/-Combined-/-Icon-/-1">
                                            <g id="Button">
                                                <g id="Get-fitted-dresss" transform="translate(16.000000, 15.000000)">
                                                    <path d="M12.9424553,15.0977529 C14.4081696,17.6143801 16.1483843,18.5140931 16.1483843,22.5603847 C16.1483843,24.6950752 16.2663265,26.8457463 17.232483,28.7570278 L17.8125,30 L-5.68434189e-14,30 L0.579693837,28.8529115 C1.59431969,26.8457463 1.65345236,24.6950752 1.65345236,22.5603847 C1.65345236,18.4504902 3.30762097,17.5507773 4.72486591,15.0977529 C4.71988269,14.6445915 4.78430322,13.758235 4.72486591,12.931169 C3.76894122,10.8002537 3.26392856,11.0335619 3.26392856,8.05893578 L3.26392856,2.8125 L4.87440475,2.8125 L4.87440475,6.10898122 C6.58181972,6.35156687 8.04979594,7.35195341 8.90091834,8.75984553 C9.75224341,7.35161234 11.2205085,6.350276 12.9283713,6.108267 C12.9271226,5.74759 12.9271226,4.65856344 12.9283713,2.84118739 L14.537585,2.84118739 L14.537585,8.05893578 C14.537585,11.1521972 13.9979821,10.5269766 12.9424553,12.931169 C12.9254595,13.7154221 12.9254595,14.4376167 12.9424553,15.0977529 Z" id="Combined-Shape" stroke="#242424" stroke-width="1.25" fill="#FFFFFF" fill-rule="nonzero" stroke-linejoin="round"></path>
                                                    <g id="Group-4" transform="translate(5.000000, 12.812500)" fill="#FC68A2" fill-rule="nonzero">
                                                        <polygon id="Path" points="0.0866709522 0.0354856853 7.30889319 0.0354856853 7.30889319 2.56673568 0.0866709522 2.56673568"></polygon>
                                                    </g>
                                                    <g id="Group-3" transform="translate(20.357352, 10.321425) rotate(-31.000000) translate(-20.357352, -10.321425) translate(16.357352, 0.821425)">
                                                        <path d="M0.97876003,1.33320628 C4.25595027,2.24012598 5.98218349,3.76985427 6.15745964,5.9223912" id="Path-8" stroke="#242424" stroke-width="0.625" stroke-linecap="round" transform="translate(3.568110, 3.627799) scale(-1, 1) rotate(63.000000) translate(-3.568110, -3.627799) "></path>
                                                        <polygon id="Combined-Shape" stroke="#242424" stroke-width="1.25" fill="#FFFFFF" fill-rule="nonzero" stroke-linejoin="round" points="3.99804703 3.81818181 9.09494702e-13 7.45014219 9.09494702e-13 14.9687859 7.99609406 14.9687859 7.99609406 7.45014219"></polygon>
                                                        <path d="M5.20238094,7.36363637 C5.20238094,7.97475559 4.72068716,8.45454547 4.10714284,8.45454547 C3.49359856,8.45454547 3.01190476,7.97475559 3.01190476,7.36363637 C3.01190476,6.75295487 3.49359856,6.27272728 4.10714284,6.27272728 C4.72068716,6.27272728 5.20238094,6.75295487 5.20238094,7.36363637 Z" id="Path" fill="#FC68A2" fill-rule="nonzero"></path>
                                                        <path d="M1.05297105,1.13530535 C4.33549881,2.03967768 6.06422962,3.56626708 6.23916343,5.71507355" id="Path-8" stroke="#242424" stroke-width="0.625" stroke-linecap="round" transform="translate(3.646067, 3.425189) rotate(37.000000) translate(-3.646067, -3.425189) "></path>
                                                        <polygon id="Path" stroke="#242424" stroke-width="1.25" fill="#FFFFFF" fill-rule="nonzero" stroke-linejoin="round" points="0 14.9687859 7.99609406 14.9687859 7.99609406 18.1545815 0 18.1545815"></polygon>
                                                    </g>
                                                </g>
                                            </g>
                                        </g>
                                    </g>
                                </g>
                            </g>
                        </g>
                    </g>
                </g>
            </g>
        </g>
    </g>
</svg>