<?xml version="1.0" encoding="UTF-8"?>
<svg width="165px" height="49px" viewBox="0 0 165 49" version="1.1" xmlns="http://www.w3.org/2000/svg" xmlns:xlink="http://www.w3.org/1999/xlink">
    <!-- Generator: sketchtool 60 (101010) - https://sketch.com -->
    <title>8F6F78B0-A392-4B1A-B501-315130BFA0CA@1x</title>
    <desc>Created with sketchtool.</desc>
    <defs>
        <linearGradient x1="61.024%" y1="4.84%" x2="26.11536%" y2="71.968%" id="linearGradient-1">
            <stop stop-color="#00A0FF" offset="0%"></stop>
            <stop stop-color="#00A1FF" offset="0.7%"></stop>
            <stop stop-color="#00BEFF" offset="26%"></stop>
            <stop stop-color="#00D2FF" offset="51.2%"></stop>
            <stop stop-color="#00DFFF" offset="76%"></stop>
            <stop stop-color="#00E3FF" offset="100%"></stop>
        </linearGradient>
        <linearGradient x1="107.724138%" y1="49.4235294%" x2="-130.669951%" y2="49.4235294%" id="linearGradient-2">
            <stop stop-color="#FFE000" offset="0%"></stop>
            <stop stop-color="#FFBD00" offset="40.9%"></stop>
            <stop stop-color="#FFA500" offset="77.5%"></stop>
            <stop stop-color="#FF9C00" offset="100%"></stop>
        </linearGradient>
        <linearGradient x1="86.3892216%" y1="30.8292932%" x2="-49.8862275%" y2="136.002473%" id="linearGradient-3">
            <stop stop-color="#FF3A44" offset="0%"></stop>
            <stop stop-color="#C31162" offset="100%"></stop>
        </linearGradient>
        <linearGradient x1="-18.5808383%" y1="-11.6832997%" x2="42.2754491%" y2="35.0657182%" id="linearGradient-4">
            <stop stop-color="#32A071" offset="0%"></stop>
            <stop stop-color="#2DA771" offset="6.9%"></stop>
            <stop stop-color="#15CF74" offset="47.6%"></stop>
            <stop stop-color="#06E775" offset="80.1%"></stop>
            <stop stop-color="#00F076" offset="100%"></stop>
        </linearGradient>
    </defs>
    <g id="Page-1" stroke="none" stroke-width="1" fill="none" fill-rule="evenodd">
        <g id="Gomble-Consumer-Landing-Page" transform="translate(-1015.000000, -1832.000000)">
            <g id="Group-11" transform="translate(0.000000, 1720.000000)">
                <g id="Group-22" transform="translate(80.000000, 60.000000)">
                    <g id="Group-14" transform="translate(935.990000, 0.000000)">
                        <g id="Group-13">
                            <g id="Group-12" transform="translate(0.000000, 52.000000)">
                                <g id="google-play-badge-1">
                                    <path d="M157.925926,48.5925926 L6.07407407,48.5925926 C2.67259259,48.5925926 0,45.92 0,42.5185185 L0,6.07407407 C0,2.67259259 2.67259259,0 6.07407407,0 L157.925926,0 C161.327407,0 164,2.67259259 164,6.07407407 L164,42.5185185 C164,45.92 161.327407,48.5925926 157.925926,48.5925926 Z" id="Path" fill="#000000" fill-rule="nonzero"></path>
                                    <path d="M157.925926,0.971851852 C160.72,0.971851852 163.028148,3.28 163.028148,6.07407407 L163.028148,42.5185185 C163.028148,45.3125926 160.72,47.6207407 157.925926,47.6207407 L6.07407407,47.6207407 C3.28,47.6207407 0.971851852,45.3125926 0.971851852,42.5185185 L0.971851852,6.07407407 C0.971851852,3.28 3.28,0.971851852 6.07407407,0.971851852 L157.925926,0.971851852 M157.925926,0 L6.07407407,0 C2.67259259,0 0,2.79407407 0,6.07407407 L0,42.5185185 C0,45.92 2.67259259,48.5925926 6.07407407,48.5925926 L157.925926,48.5925926 C161.327407,48.5925926 164,45.92 164,42.5185185 L164,6.07407407 C164,2.79407407 161.327407,0 157.925926,0 Z" id="Shape" fill="#A6A6A6" fill-rule="nonzero"></path>
                                    <path d="M82.8,26.7096296 C79.8844444,26.7096296 77.5762963,28.8962963 77.5762963,31.9333333 C77.5762963,34.8488889 79.8844444,37.157037 82.8,37.157037 C85.7155556,37.157037 88.0237037,34.9703704 88.0237037,31.9333333 C88.0237037,28.7748148 85.7155556,26.7096296 82.8,26.7096296 Z M82.8,34.9703704 C81.2207407,34.9703704 79.8844444,33.6340741 79.8844444,31.8118519 C79.8844444,29.9896296 81.2207407,28.6533333 82.8,28.6533333 C84.3792593,28.6533333 85.7155556,29.8681481 85.7155556,31.8118519 C85.7155556,33.6340741 84.3792593,34.9703704 82.8,34.9703704 Z M71.5022222,26.7096296 C68.5866667,26.7096296 66.2785185,28.8962963 66.2785185,31.9333333 C66.2785185,34.8488889 68.5866667,37.157037 71.5022222,37.157037 C74.4177778,37.157037 76.7259259,34.9703704 76.7259259,31.9333333 C76.7259259,28.7748148 74.4177778,26.7096296 71.5022222,26.7096296 Z M71.5022222,34.9703704 C69.922963,34.9703704 68.5866667,33.6340741 68.5866667,31.8118519 C68.5866667,29.9896296 69.922963,28.6533333 71.5022222,28.6533333 C73.0814815,28.6533333 74.4177778,29.8681481 74.4177778,31.8118519 C74.4177778,33.6340741 73.0814815,34.9703704 71.5022222,34.9703704 Z M58.0177778,28.2888889 L58.0177778,30.4755556 L63.2414815,30.4755556 C63.12,31.6903704 62.6340741,32.6622222 62.0266667,33.2696296 C61.2977778,33.9985185 60.082963,34.8488889 58.0177778,34.8488889 C54.7377778,34.8488889 52.3081481,32.2977778 52.3081481,29.0177778 C52.3081481,25.7377778 54.8592593,23.1866667 58.0177778,23.1866667 C59.7185185,23.1866667 61.0548148,23.9155556 62.0266667,24.7659259 L63.6059259,23.1866667 C62.2696296,21.9718519 60.5688889,21 58.1392593,21 C53.7659259,21 50,24.6444444 50,29.0177778 C50,33.3911111 53.7659259,37.0355556 58.1392593,37.0355556 C60.5688889,37.0355556 62.2696296,36.3066667 63.7274074,34.7274074 C65.1851852,33.2696296 65.6711111,31.2044444 65.6711111,29.6251852 C65.6711111,29.1392593 65.6711111,28.6533333 65.5496296,28.2888889 L58.0177778,28.2888889 L58.0177778,28.2888889 Z M113.17037,29.9896296 C112.684444,28.7748148 111.46963,26.7096296 108.797037,26.7096296 C106.124444,26.7096296 103.937778,28.7748148 103.937778,31.9333333 C103.937778,34.8488889 106.124444,37.157037 109.04,37.157037 C111.348148,37.157037 112.805926,35.6992593 113.291852,34.8488889 L111.591111,33.6340741 C110.983704,34.4844444 110.254815,35.0918519 109.04,35.0918519 C107.825185,35.0918519 107.096296,34.6059259 106.488889,33.5125926 L113.413333,30.597037 L113.17037,29.9896296 L113.17037,29.9896296 Z M106.124444,31.6903704 C106.124444,29.7466667 107.703704,28.6533333 108.797037,28.6533333 C109.647407,28.6533333 110.497778,29.1392593 110.740741,29.7466667 L106.124444,31.6903704 Z M100.414815,36.6711111 L102.722963,36.6711111 L102.722963,21.4859259 L100.414815,21.4859259 L100.414815,36.6711111 Z M96.7703704,27.802963 C96.162963,27.1955556 95.1911111,26.5881481 93.9762963,26.5881481 C91.4251852,26.5881481 88.9955556,28.8962963 88.9955556,31.8118519 C88.9955556,34.7274074 91.3037037,36.9140741 93.9762963,36.9140741 C95.1911111,36.9140741 96.162963,36.3066667 96.6488889,35.6992593 L96.7703704,35.6992593 L96.7703704,36.4281481 C96.7703704,38.3718519 95.677037,39.4651852 93.9762963,39.4651852 C92.64,39.4651852 91.6681481,38.4933333 91.4251852,37.642963 L89.4814815,38.4933333 C90.0888889,39.8296296 91.5466667,41.5303704 94.0977778,41.5303704 C96.7703704,41.5303704 98.957037,39.9511111 98.957037,36.1851852 L98.957037,26.9525926 L96.7703704,26.9525926 L96.7703704,27.802963 L96.7703704,27.802963 Z M94.0977778,34.9703704 C92.5185185,34.9703704 91.1822222,33.6340741 91.1822222,31.8118519 C91.1822222,29.9896296 92.5185185,28.6533333 94.0977778,28.6533333 C95.677037,28.6533333 96.8918519,29.9896296 96.8918519,31.8118519 C96.8918519,33.6340741 95.677037,34.9703704 94.0977778,34.9703704 Z M123.739259,21.4859259 L118.272593,21.4859259 L118.272593,36.6711111 L120.580741,36.6711111 L120.580741,30.9614815 L123.739259,30.9614815 C126.29037,30.9614815 128.72,29.1392593 128.72,26.2237037 C128.72,23.3081481 126.29037,21.4859259 123.739259,21.4859259 L123.739259,21.4859259 Z M123.860741,28.7748148 L120.580741,28.7748148 L120.580741,23.5511111 L123.860741,23.5511111 C125.561481,23.5511111 126.533333,25.0088889 126.533333,26.1022222 C126.411852,27.4385185 125.44,28.7748148 123.860741,28.7748148 Z M137.831111,26.5881481 C136.13037,26.5881481 134.42963,27.317037 133.822222,28.8962963 L135.887407,29.7466667 C136.373333,28.8962963 137.102222,28.6533333 137.952593,28.6533333 C139.167407,28.6533333 140.260741,29.3822222 140.382222,30.597037 L140.382222,30.7185185 C140.017778,30.4755556 139.045926,30.1111111 138.074074,30.1111111 C135.887407,30.1111111 133.700741,31.3259259 133.700741,33.5125926 C133.700741,35.5777778 135.522963,36.9140741 137.466667,36.9140741 C139.045926,36.9140741 139.774815,36.1851852 140.382222,35.4562963 L140.503704,35.4562963 L140.503704,36.6711111 L142.69037,36.6711111 L142.69037,30.84 C142.447407,28.1674074 140.382222,26.5881481 137.831111,26.5881481 L137.831111,26.5881481 Z M137.588148,34.9703704 C136.859259,34.9703704 135.765926,34.6059259 135.765926,33.6340741 C135.765926,32.4192593 137.102222,32.0548148 138.195556,32.0548148 C139.167407,32.0548148 139.653333,32.2977778 140.260741,32.5407407 C140.017778,33.9985185 138.802963,34.9703704 137.588148,34.9703704 L137.588148,34.9703704 Z M150.343704,26.9525926 L147.792593,33.5125926 L147.671111,33.5125926 L144.998519,26.9525926 L142.568889,26.9525926 L146.577778,36.1851852 L144.26963,41.2874074 L146.577778,41.2874074 L152.773333,26.9525926 L150.343704,26.9525926 L150.343704,26.9525926 Z M129.934815,36.6711111 L132.242963,36.6711111 L132.242963,21.4859259 L129.934815,21.4859259 L129.934815,36.6711111 Z" id="Shape" fill="#FFFFFF" fill-rule="nonzero"></path>
                                    <path d="M12.6340741,9.11111111 C12.2696296,9.47555556 12.1481481,10.082963 12.1481481,10.8118519 L12.1481481,37.6592593 C12.1481481,38.3881481 12.3911111,38.9955556 12.7555556,39.36 L12.877037,39.4814815 L27.9407407,24.4177778 L27.9407407,24.1748148 L12.6340741,9.11111111 Z" id="Path" fill="url(#linearGradient-1)" fill-rule="nonzero"></path>
                                    <path d="M32.8,29.52 L27.8192593,24.5392593 L27.8192593,24.1748148 L32.8,19.1940741 L32.9214815,19.3155556 L38.8740741,22.717037 C40.5748148,23.6888889 40.5748148,25.2681481 38.8740741,26.24 L32.8,29.52 L32.8,29.52 Z" id="Path" fill="url(#linearGradient-2)" fill-rule="nonzero"></path>
                                    <path d="M32.9214815,29.3985185 L27.8192593,24.2962963 L12.6340741,39.4814815 C13.2414815,40.0888889 14.0918519,40.0888889 15.1851852,39.602963 L32.9214815,29.3985185" id="Path" fill="url(#linearGradient-3)" fill-rule="nonzero"></path>
                                    <path d="M32.9214815,19.1940741 L15.1851852,9.11111111 C14.0918519,8.5037037 13.2414815,8.62518519 12.6340741,9.23259259 L27.8192593,24.2962963 L32.9214815,19.1940741 L32.9214815,19.1940741 Z" id="Path" fill="url(#linearGradient-4)" fill-rule="nonzero"></path>
                                    <path d="M32.8,29.277037 L15.1851852,39.2385185 C14.2133333,39.8459259 13.362963,39.7244444 12.7555556,39.2385185 L12.6340741,39.36 L12.7555556,39.4814815 C13.362963,39.9674074 14.2133333,40.0888889 15.1851852,39.4814815 L32.8,29.277037 Z" id="Path" fill="#000000" fill-rule="nonzero" opacity="0.2"></path>
                                    <path d="M12.6340741,39.2385185 C12.2696296,38.8740741 12.1481481,38.2666667 12.1481481,37.5377778 L12.1481481,37.6592593 C12.1481481,38.3881481 12.3911111,38.9955556 12.7555556,39.36 L12.7555556,39.2385185 L12.6340741,39.2385185 Z M38.8740741,25.8755556 L32.8,29.277037 L32.9214815,29.3985185 L38.8740741,25.997037 C39.7244444,25.5111111 40.0888889,24.9037037 40.0888889,24.2962963 C40.0888889,24.9037037 39.602963,25.3896296 38.8740741,25.8755556 L38.8740741,25.8755556 Z" id="Shape" fill="#000000" fill-rule="nonzero" opacity="0.12"></path>
                                    <path d="M15.1851852,9.23259259 L38.8740741,22.717037 C39.602963,23.202963 40.0888889,23.6888889 40.0888889,24.2962963 C40.0888889,23.6888889 39.7244444,23.0814815 38.8740741,22.5955556 L15.1851852,9.11111111 C13.4844444,8.13925926 12.1481481,8.86814815 12.1481481,10.8118519 L12.1481481,10.9333333 C12.1481481,9.11111111 13.4844444,8.26074074 15.1851852,9.23259259 Z" id="Path" fill="#FFFFFF" fill-rule="nonzero" opacity="0.25"></path>
                                    <text id="Coming-Soon-on" font-family="Inter-Regular, Inter" font-size="9.11111111" font-weight="normal" letter-spacing="0.6" fill="#FFFFFF">
                                        <tspan x="50" y="15">COMING SOON ON</tspan>
                                    </text>
                                </g>
                            </g>
                        </g>
                    </g>
                </g>
            </g>
        </g>
    </g>
</svg>