<?xml version="1.0" encoding="UTF-8"?>
<svg width="57px" height="43px" viewBox="0 0 57 43" version="1.1" xmlns="http://www.w3.org/2000/svg" xmlns:xlink="http://www.w3.org/1999/xlink">
    <!-- Generator: sketchtool 60 (101010) - https://sketch.com -->
    <title>801E9E7C-7E6C-4D5A-A8B8-0E00157E4DA9@1x</title>
    <desc>Created with sketchtool.</desc>
    <g id="Page-1" stroke="none" stroke-width="1" fill="none" fill-rule="evenodd">
        <g id="Gomble-Consumer-Landing-Page" transform="translate(-610.000000, -1787.000000)">
            <g id="Group-11" transform="translate(0.000000, 1720.000000)">
                <g id="Group-22" transform="translate(80.000000, 60.000000)">
                    <g id="Group-21" transform="translate(530.660000, 0.000000)">
                        <g id="Group-17">
                            <g id="Group-23">
                                <rect id="Rectangle" x="0" y="0" width="56" height="56"></rect>
                                <g id="Group-16" transform="translate(0.000000, 7.000000)">
                                    <circle id="Oval" stroke="#FFFFFF" stroke-width="1.5" cx="28" cy="21.4468085" r="20.6968085"></circle>
                                    <g id="Group-15" transform="translate(20.255319, 30.978723)" fill="#FFFFFF" fill-rule="nonzero">
                                        <path d="M8.85722591,4.76595745 C8.7599362,4.76595745 8.66372226,4.7411323 8.57140798,4.69211138 L7.73943642,4.23448952 C7.73910024,4.23448952 7.73889854,4.23448952 7.73869683,4.23462938 L6.90739763,4.68616733 C6.82503419,4.73085259 6.7126165,4.75749592 6.60625001,4.75749592 C6.45644941,4.75749592 6.32594539,4.70679668 6.22757991,4.61029329 C6.0859148,4.49225147 6.02547012,4.28281115 6.06547522,4.04616806 L6.22354578,3.10064467 C6.2218649,3.09239293 6.21843589,3.08127406 6.21514135,3.07351183 L5.55616663,2.40232379 C5.38303532,2.22519113 5.32064082,1.99057601 5.3886831,1.77435248 C5.45659091,1.55770938 5.6406816,1.40708018 5.88118283,1.37176553 L6.79383694,1.23631114 C6.8009639,1.23197548 6.81037686,1.22491255 6.81656252,1.2191783 L7.22703499,0.359668791 C7.34187316,0.119599136 7.55480785,-0.0183727342 7.79066984,0.00197689287 C7.99230898,0.0184803705 8.17149147,0.153445251 8.26985695,0.36288557 L8.67589188,1.22400346 C8.68201031,1.22973772 8.6912888,1.23680065 8.69841576,1.24106638 L9.61106986,1.3814858 C9.85069704,1.41847877 10.0338464,1.56987719 10.1012836,1.78659023 C10.168788,2.00400257 10.1049143,2.23847783 9.93037105,2.41414196 L9.26857244,3.08169364 C9.26514343,3.08966566 9.26157995,3.10113418 9.25989907,3.10966564 L9.41359932,4.05504917 C9.44667917,4.2614825 9.39793346,4.45134242 9.27590111,4.5898038 C9.24389703,4.63001355 9.08320428,4.76595745 8.85722591,4.76595745 Z M7.73607465,3.7559586 C7.84963534,3.7559586 7.93051959,3.80693757 7.9570776,3.82365083 L8.77930001,4.27581815 C8.84646824,4.31134258 8.92352007,4.28309087 8.94826272,4.26574823 C8.97791356,4.22015388 8.9740139,4.16441967 8.96897124,4.13288125 L8.8126488,3.17197326 C8.79126792,3.03637901 8.85030066,2.85008552 8.94395965,2.75574996 L9.61671764,2.07714934 C9.64556165,2.04812839 9.69087835,1.9907858 9.67225413,1.9308558 C9.65450397,1.87386286 9.59338694,1.85302372 9.54517912,1.84554121 L8.61766597,1.70288403 C8.49065819,1.68365329 8.33494087,1.56561146 8.2779252,1.44505216 L7.86469608,0.56903918 C7.85138346,0.540507744 7.81420225,0.474493834 7.75496781,0.469738595 C7.75483334,0.469738595 7.75469887,0.469738595 7.75442993,0.469738595 C7.68490846,0.469738595 7.64530678,0.538829424 7.6311201,0.56854967 L7.21405855,1.44197524 C7.15616882,1.56330377 7.0036788,1.67840854 6.87411607,1.69840852 L5.94451863,1.83631045 C5.90491695,1.84211464 5.83620231,1.86071602 5.81757809,1.92015651 C5.79855045,1.98036623 5.84366545,2.03826827 5.87224051,2.067499 L6.54177121,2.7493164 C6.63616979,2.84588972 6.69372334,3.03337202 6.6703254,3.16770753 L6.50996883,4.12700713 C6.49732857,4.2015525 6.50922924,4.24113287 6.51440637,4.24910489 C6.52388657,4.25630768 6.52718111,4.2586853 6.53545107,4.26728669 C6.55205823,4.28462933 6.58305378,4.28833562 6.60631725,4.28833562 C6.64887729,4.28833562 6.68807556,4.27581815 6.69930388,4.27008389 L7.51816453,3.82511936 C7.58459316,3.77987466 7.65949346,3.7559586 7.73607465,3.7559586 Z" id="Shape"></path>
                                        <path d="M2.18470236,4.17021277 C2.1238963,4.17021277 2.06376258,4.15469705 2.00606616,4.12405897 L1.48608393,3.83804531 C1.48587382,3.83804531 1.48574776,3.83804531 1.48562169,3.83813273 L0.966059687,4.12034394 C0.914582539,4.14827223 0.844321486,4.16492431 0.777842426,4.16492431 C0.684217051,4.16492431 0.602652036,4.13323728 0.541173614,4.07292267 C0.45263292,3.99914653 0.414854997,3.86824633 0.439858183,3.7203444 L0.538652285,3.12939228 C0.53760173,3.12423494 0.5354586,3.11728565 0.533399514,3.11243426 L0.121540312,2.69294173 C0.0133332465,2.58223382 -0.0256633191,2.43559937 0.0168631081,2.30045966 C0.0593054909,2.16505772 0.174362168,2.07091447 0.324675439,2.04884282 L0.895084256,1.96418383 C0.899538605,1.96147404 0.905421708,1.95705971 0.909287747,1.9534758 L1.16583304,1.41628236 C1.23760689,1.26623882 1.37069108,1.1800064 1.51810482,1.19272492 C1.64412928,1.20303959 1.75611834,1.28739264 1.81759676,1.41829284 L2.07136859,1.95649153 C2.07519261,1.96007544 2.08099167,1.96448977 2.08544602,1.96715585 L2.65585484,2.05491799 C2.80562182,2.07803859 2.92009019,2.17266261 2.96223841,2.30810826 C3.00442866,2.44399097 2.96450761,2.590538 2.85541808,2.70032809 L2.44179395,3.11754789 C2.43965082,3.1225304 2.43742364,3.12969822 2.43637309,3.13503039 L2.53243575,3.72589509 C2.55311065,3.85491592 2.52264458,3.97357838 2.44637436,4.06011674 C2.42637181,4.08524783 2.32593885,4.17021277 2.18470236,4.17021277 Z M1.48398282,3.53896349 C1.55495825,3.53896349 1.60551091,3.57082534 1.62210967,3.58127113 L2.13599868,3.8638757 C2.17797882,3.88607848 2.22613621,3.86842115 2.24160037,3.85758201 C2.26013214,3.82908553 2.25769486,3.79425166 2.2545432,3.77454014 L2.15684167,3.17397265 C2.14347862,3.08922624 2.18037408,2.97279281 2.23891095,2.91383309 L2.6593847,2.4897077 C2.6774122,2.47156961 2.70573514,2.43573049 2.694095,2.39827424 C2.68300115,2.36265365 2.64480301,2.34962919 2.61467312,2.34495262 L2.0349774,2.25579188 C1.95559754,2.24377267 1.85827421,2.16999653 1.82263942,2.09464696 L1.56437122,1.54713885 C1.55605083,1.5293067 1.53281258,1.48804801 1.49579105,1.48507598 C1.49570701,1.48507598 1.49562296,1.48507598 1.49545487,1.48507598 C1.45200396,1.48507598 1.42725291,1.52825775 1.41838623,1.54683291 L1.15772276,2.09272389 C1.12154168,2.16855422 1.02623542,2.2404947 0.945258717,2.25299468 L0.364260315,2.3391834 C0.339509262,2.34281101 0.296562613,2.35443688 0.284922475,2.39158718 C0.273030203,2.42921826 0.301227073,2.46540703 0.319086492,2.48367624 L0.737543174,2.90981211 C0.796542288,2.97017044 0.832513258,3.08734687 0.817889546,3.17130657 L0.717666691,3.77086882 C0.709766525,3.81745967 0.717204448,3.84219741 0.720440154,3.84717992 C0.726365279,3.85168166 0.728424365,3.85316767 0.733593091,3.85854354 C0.743972564,3.86938269 0.763344781,3.87169912 0.777884449,3.87169912 C0.804484477,3.87169912 0.828983397,3.8638757 0.836001098,3.86029179 L1.347789,3.58218896 C1.3893069,3.55391102 1.43611958,3.53896349 1.48398282,3.53896349 Z" id="Shape-Copy"></path>
                                        <path d="M14.6953407,4.17021277 C14.6345346,4.17021277 14.5744009,4.15469705 14.5167045,4.12405897 L13.9967222,3.83804531 C13.9965121,3.83804531 13.9963861,3.83804531 13.99626,3.83813273 L13.476698,4.12034394 C13.4252208,4.14827223 13.3549598,4.16492431 13.2884807,4.16492431 C13.1948553,4.16492431 13.1132903,4.13323728 13.0518119,4.07292267 C12.9632712,3.99914653 12.9254933,3.86824633 12.9504965,3.7203444 L13.0492906,3.12939228 C13.04824,3.12423494 13.0460969,3.11728565 13.0440378,3.11243426 L12.6321786,2.69294173 C12.5239715,2.58223382 12.484975,2.43559937 12.5275014,2.30045966 C12.5699438,2.16505772 12.6850005,2.07091447 12.8353137,2.04884282 L13.4057226,1.96418383 C13.4101769,1.96147404 13.41606,1.95705971 13.419926,1.9534758 L13.6764713,1.41628236 C13.7482452,1.26623882 13.8813294,1.1800064 14.0287431,1.19272492 C14.1547676,1.20303959 14.2667566,1.28739264 14.3282351,1.41829284 L14.5820069,1.95649153 C14.5858309,1.96007544 14.59163,1.96448977 14.5960843,1.96715585 L15.1664931,2.05491799 C15.3162601,2.07803859 15.4307285,2.17266261 15.4728767,2.30810826 C15.515067,2.44399097 15.4751459,2.590538 15.3660564,2.70032809 L14.9524322,3.11754789 C14.9502891,3.1225304 14.9480619,3.12969822 14.9470114,3.13503039 L15.043074,3.72589509 C15.0637489,3.85491592 15.0332829,3.97357838 14.9570127,4.06011674 C14.9370101,4.08524783 14.8365771,4.17021277 14.6953407,4.17021277 Z M13.9946211,3.53896349 C14.0655966,3.53896349 14.1161492,3.57082534 14.132748,3.58127113 L14.646637,3.8638757 C14.6886171,3.88607848 14.7367745,3.86842115 14.7522387,3.85758201 C14.7707704,3.82908553 14.7683332,3.79425166 14.7651815,3.77454014 L14.66748,3.17397265 C14.6541169,3.08922624 14.6910124,2.97279281 14.7495492,2.91383309 L15.170023,2.4897077 C15.1880505,2.47156961 15.2163734,2.43573049 15.2047333,2.39827424 C15.1936394,2.36265365 15.1554413,2.34962919 15.1253114,2.34495262 L14.5456157,2.25579188 C14.4662358,2.24377267 14.3689125,2.16999653 14.3332777,2.09464696 L14.0750095,1.54713885 C14.0666891,1.5293067 14.0434509,1.48804801 14.0064293,1.48507598 C14.0063453,1.48507598 14.0062613,1.48507598 14.0060932,1.48507598 C13.9626423,1.48507598 13.9378912,1.52825775 13.9290245,1.54683291 L13.6683611,2.09272389 C13.63218,2.16855422 13.5368737,2.2404947 13.455897,2.25299468 L12.8748986,2.3391834 C12.8501476,2.34281101 12.8072009,2.35443688 12.7955608,2.39158718 C12.7836685,2.42921826 12.8118654,2.46540703 12.8297248,2.48367624 L13.2481815,2.90981211 C13.3071806,2.97017044 13.3431516,3.08734687 13.3285278,3.17130657 L13.228305,3.77086882 C13.2204048,3.81745967 13.2278427,3.84219741 13.2310785,3.84717992 C13.2370036,3.85168166 13.2390627,3.85316767 13.2442314,3.85854354 C13.2546109,3.86938269 13.2739831,3.87169912 13.2885227,3.87169912 C13.3151228,3.87169912 13.3396217,3.8638757 13.3466394,3.86029179 L13.8584273,3.58218896 C13.8999452,3.55391102 13.9467579,3.53896349 13.9946211,3.53896349 Z" id="Shape-Copy-2"></path>
                                    </g>
                                    <rect id="Rectangle" fill="#242424" x="0" y="13.106383" width="56" height="16.6808511"></rect>
                                    <text id="ORIGINAL" font-family="Inter-SemiBold, Inter" font-size="11" font-weight="500" fill="#FFFFFF">
                                        <tspan x="1.54" y="25.4893617">ORIGINAL</tspan>
                                    </text>
                                    <text id="100%" font-family="Inter-SemiBold, Inter" font-size="4.76595745" font-weight="500" fill="#FFFFFF">
                                        <tspan x="21.4468085" y="11.5531915">100%</tspan>
                                    </text>
                                </g>
                            </g>
                        </g>
                    </g>
                </g>
            </g>
        </g>
    </g>
</svg>