<?xml version="1.0" encoding="UTF-8"?>
<svg width="60px" height="60px" viewBox="0 0 60 60" version="1.1" xmlns="http://www.w3.org/2000/svg" xmlns:xlink="http://www.w3.org/1999/xlink">
    <!-- Generator: sketchtool 60 (101010) - https://sketch.com -->
    <title>E2BEC819-B039-42D2-BE84-48FE6788F45D@1x</title>
    <desc>Created with sketchtool.</desc>
    <g id="Page-1" stroke="none" stroke-width="1" fill="none" fill-rule="evenodd">
        <g id="Gomble-Consumer-Landing-Page" transform="translate(-765.000000, -1318.000000)">
            <g id="Group-46" transform="translate(0.000000, 920.000000)">
                <g id="Group-45" transform="translate(80.000000, 70.000000)">
                    <g id="Group-43" transform="translate(0.000000, 205.000000)">
                        <g id="Group-42" transform="translate(0.000000, 98.000000)">
                            <g id="Group-34-Copy-2" transform="translate(660.000000, 0.000000)">
                                <g id="Group-31" transform="translate(25.000000, 25.000000)">
                                    <g id="Group-33">
                                        <g id="Elements-/-Buttons-/-Combined-/-Icon-/-1">
                                            <g id="Button">
                                                <path d="M16.8676658,-6.81473887e-16 L43.1323342,6.81473887e-16 C48.9975891,-3.95955953e-16 51.1244722,0.61069481 53.2687217,1.757452 C55.4129712,2.90420919 57.0957908,4.58702875 58.242548,6.73127827 C59.3893052,8.87552778 60,11.0024109 60,16.8676658 L60,43.1323342 C60,48.9975891 59.3893052,51.1244722 58.242548,53.2687217 C57.0957908,55.4129712 55.4129712,57.0957908 53.2687217,58.242548 C51.1244722,59.3893052 48.9975891,60 43.1323342,60 L16.8676658,60 C11.0024109,60 8.87552778,59.3893052 6.73127827,58.242548 C4.58702875,57.0957908 2.90420919,55.4129712 1.757452,53.2687217 C0.61069481,51.1244722 2.63970635e-16,48.9975891 -4.54315924e-16,43.1323342 L4.54315924e-16,16.8676658 C-2.63970635e-16,11.0024109 0.61069481,8.87552778 1.757452,6.73127827 C2.90420919,4.58702875 4.58702875,2.90420919 6.73127827,1.757452 C8.87552778,0.61069481 11.0024109,3.95955953e-16 16.8676658,-6.81473887e-16 Z" id="Base" fill="#FFE2ED"></path>
                                                <g id="Dress-prepared" transform="translate(15.000000, 15.000000)">
                                                    <path d="M9.52864195,11.8428103 L17.5222941,11.8428103 C18.4260328,11.8428103 19.1586578,12.5754353 19.1586578,13.479174 L19.1586578,21.2072437 C19.1586578,22.1109824 18.4260328,22.8436074 17.5222941,22.8436074 L1.6363637,22.8436074 C0.732624982,22.8436074 0,23.5762324 0,24.4799711 L0,28.3636363 C0,29.267375 0.732624982,30 1.6363637,30 L27.9090909,30 C28.8128295,30 29.5454545,29.267375 29.5454545,28.3636363 L29.5454545,23.9403174 C29.5454545,23.3346212 29.0544407,22.8436074 28.4487445,22.8436074 C27.8430483,22.8436074 27.3520345,22.3525936 27.3520345,21.7468974 L27.3520345,14.3084961 C27.3520345,13.7027999 27.8430483,13.211786 28.4487445,13.211786 C29.0544407,13.211786 29.5454545,12.7207723 29.5454545,12.115076 L29.5454545,8.65134759 C29.5454545,6.13268695 27.5036767,4.09090909 24.985016,4.09090909 L4.46969685,4.09090909 C3.56595814,4.09090909 2.83333315,4.82353409 2.83333315,5.72727277 L2.83333315,12.4428898 C2.83333315,13.8556936 3.97863695,15.0009974 5.39144077,15.0009974 L6.37045486,15.0009974 C7.24256414,15.0009974 7.94954841,14.2940131 7.94954841,13.4219039 C7.94954841,12.5497946 8.65653268,11.8428103 9.52864195,11.8428103 Z" id="Path-2" stroke="#242424" stroke-width="1.81818182" fill="#FFFFFF" fill-rule="nonzero" stroke-linejoin="round"></path>
                                                    <rect id="Rectangle" fill="#13133B" fill-rule="nonzero" x="5" y="14.5454545" width="1" height="3.63636364" rx="0.409090925"></rect>
                                                    <g id="Group-5" transform="translate(7.272727, 6.818182)">
                                                        <rect id="Rectangle" fill="#FC68A2" fill-rule="nonzero" x="1.77635684e-15" y="0" width="8.66310195" height="2.27272727" rx="0.81818185"></rect>
                                                        <polyline id="Path-15" stroke="#FFFFFF" stroke-width="0.5" stroke-linecap="round" points="0.962566882 0.630247823 2.11188681 0.630247823 2.11188681 1.31462711 3.22433557 1.31462711 3.22433557 0.568181818 5.11687609 0.568181818 5.11687609 1.70454545 6.80495336 1.70454545 6.80495336 0.568181818 7.9134965 0.568181818"></polyline>
                                                    </g>
                                                    <circle id="Oval" fill="#FC68A2" fill-rule="nonzero" cx="23.4090909" cy="8.86363636" r="2.5"></circle>
                                                    <rect id="Rectangle" fill="#FC68A2" fill-rule="nonzero" x="22.7272727" y="17.7272727" width="1.81818182" height="2.72727273" rx="0.81818185"></rect>
                                                    <rect id="Rectangle-Copy-5" fill="#FC68A2" fill-rule="nonzero" x="22.7272727" y="12.7272727" width="1.81818182" height="2.72727273" rx="0.81818185"></rect>
                                                    <rect id="Rectangle" fill="#242424" fill-rule="nonzero" x="20.4545455" y="0.909090909" width="2.72727273" height="2.27272727" rx="0.454545455"></rect>
                                                    <rect id="Rectangle" fill="#242424" fill-rule="nonzero" x="10.4545455" y="0" width="1" height="3.63636364" rx="0.409090909"></rect>
                                                </g>
                                            </g>
                                        </g>
                                    </g>
                                </g>
                            </g>
                        </g>
                    </g>
                </g>
            </g>
        </g>
    </g>
</svg>