<?xml version="1.0" encoding="UTF-8"?>
<svg width="49px" height="42px" viewBox="0 0 49 42" version="1.1" xmlns="http://www.w3.org/2000/svg" xmlns:xlink="http://www.w3.org/1999/xlink">
    <!-- Generator: sketchtool 60 (101010) - https://sketch.com -->
    <title>337F2FB9-2712-433C-B9BA-B19B7CF7ABBD@1x</title>
    <desc>Created with sketchtool.</desc>
    <g id="Page-1" stroke="none" stroke-width="1" fill="none" fill-rule="evenodd">
        <g id="Gomble-Consumer-Landing-Page" transform="translate(-614.000000, -1867.000000)">
            <g id="Group-11" transform="translate(0.000000, 1720.000000)">
                <g id="Group-22" transform="translate(80.000000, 60.000000)">
                    <g id="Group-21" transform="translate(530.660000, 0.000000)">
                        <g id="Group-18" transform="translate(0.000000, 80.000000)">
                            <g id="Return">
                                <rect id="Rectangle" x="0" y="0" width="56" height="56"></rect>
                                <g id="Group" transform="translate(4.000000, 7.000000)" fill="#FFFFFF" fill-rule="nonzero">
                                    <path d="M45.4285714,19.7142857 L44.4800936,20.6999766 C44.470269,15.1807251 42.3168187,9.99335673 38.4130058,6.08954386 C34.5003977,2.17684211 29.298152,0.0219883041 23.7646784,0.0219883041 C16.0304094,0.0219883041 8.99471345,4.28135673 5.40304094,11.1378713 C5.04327485,11.8244678 5.30835088,12.6727485 5.99504094,13.0324211 C6.68145029,13.3920936 6.49737678,12.6865965 6.85714286,12 C9.96263993,6.07148538 17.3134035,1.71428571 24,1.71428571 C33.862924,1.71428571 42.8376809,10.7129023 42.8571429,20.5714286 C42.8571429,20.5714286 42.5714286,20.2857143 42,19.7142857 C41.1428571,18.8571429 39.9766884,19.1661688 39.4285714,19.7142857 C38.8804545,20.2624027 39.7375973,20.8804545 40.2857143,21.4285714 L42.8571429,24 C43.1312013,24.2740585 43.3551746,24.8571429 43.7142857,24.8571429 C44.0733968,24.8571429 44.2974637,24.274152 44.5714286,24 C45.7142857,22.8571429 46.5714286,22 47.1428571,21.4285714 C47.8583265,20.7131021 48,20.5714286 47.1428571,19.7142857 C46.8241565,19.3955851 45.9766884,19.1661688 45.4285714,19.7142857 Z" id="Path"></path>
                                    <path d="M40.186113,36.8351546 L39.2376351,37.8208454 C39.2278105,32.301594 37.0743603,27.1142256 33.1705474,23.2104127 C29.2579392,19.2977109 24.0556936,17.1428571 18.5222199,17.1428571 C10.7879509,17.1428571 3.75225499,21.4022256 0.160582477,28.2587402 C-0.199183605,28.9453367 0.0658924182,29.7936174 0.752582477,30.1532899 C1.43899183,30.5129624 1.25491832,29.8074653 1.6146844,29.1208688 C4.72018147,23.1923542 12.070945,18.8351546 18.7575415,18.8351546 C28.6204655,18.8351546 37.5952224,27.8337711 37.6146844,37.6922974 C37.6146844,37.6922974 37.3289701,37.4065831 36.7575415,36.8351546 C35.9003987,35.9780117 34.7342299,36.2870376 34.186113,36.8351546 C33.637996,37.3832715 34.4951389,38.0013233 35.0432558,38.5494403 L37.6146844,41.1208688 C37.8887429,41.3949273 38.1127161,41.9780117 38.4718273,41.9780117 C38.8309384,41.9780117 39.0550052,41.3950209 39.3289701,41.1208688 C40.4718273,39.9780117 41.3289701,39.1208688 41.9003987,38.5494403 C42.6158681,37.8339709 42.7575415,37.6922974 41.9003987,36.8351546 C41.5816981,36.5164539 40.7342299,36.2870376 40.186113,36.8351546 Z" id="Path-Copy" transform="translate(21.245660, 29.560434) scale(-1, -1) translate(-21.245660, -29.560434) "></path>
                                </g>
                                <text id="30" font-family="Inter-SemiBold, Inter" font-size="11" font-weight="500" fill="#FFFFFF">
                                    <tspan x="21.2480469" y="32">30</tspan>
                                </text>
                            </g>
                        </g>
                    </g>
                </g>
            </g>
        </g>
    </g>
</svg>