<svg xmlns="http://www.w3.org/2000/svg" width="98" height="100" viewBox="0 0 98 100">
    <g fill="none" fill-rule="evenodd">
        <g>
            <g fill="#E3F8FA" fill-rule="nonzero">
                <path d="M22.098 44.094C9.912 44.094 0 34.206 0 22.05S9.912 0 22.098 0c12.187 0 22.099 9.888 22.099 22.044s-9.912 22.05-22.099 22.05z" transform="translate(14.144)"/>
            </g>
            <path fill="#E3F8FA" fill-rule="nonzero" d="M20.998 52.608c38.833 0 33.605-.186 35.178 0 6.491.449 15.955 7.382 17 11.224-8.254 1.253-14.578 8.379-14.578 16.976 0 4.396 1.653 8.408 4.373 11.446l-.012.036H3.315C1.505 92.29 0 90.79 0 88.983v-15.43C0 62 9.415 52.608 20.998 52.608z"/>
            <g>
                <path fill="#00D498" d="M0 17.172c0 9.48 7.687 17.171 17.178 17.171 9.483 0 17.173-7.69 17.173-17.171C34.35 7.69 26.663 0 17.178 0 7.69 0 0 7.692 0 17.172z" transform="translate(63.65 65.657)"/>
                <path fill="#FFF" d="M12.39 16.656l2.612 2.654 7.984-8.608c.719-.785 1.89-.803 2.612-.041l.127.138c.723.76.723 2.011.007 2.79l-9.38 10.064c-.701.766-1.858.788-2.582.05l-.055-.057-.077-.077-3.99-4.054c-.732-.747-.742-1.965-.02-2.716l.132-.136c.722-.75 1.904-.753 2.63-.007z" transform="translate(63.65 65.657)"/>
            </g>
        </g>
    </g>
</svg>
