<svg width="12" height="15" viewBox="0 0 12 15" fill="none" xmlns="http://www.w3.org/2000/svg">
<path fill-rule="evenodd" clip-rule="evenodd" d="M1.75733 10.5766L6 14.8193L10.2427 10.5766C12.5858 8.23345 12.5858 4.43447 10.2426 2.09133C7.89949 -0.251799 4.10051 -0.251799 1.75737 2.09133C-0.585776 4.43447 -0.585791 8.23345 1.75733 10.5766ZM9.3 9.63365L6 12.9336L2.7 9.63365C0.87769 7.81115 0.877791 4.85647 2.70022 3.0341C4.52266 1.21172 7.47734 1.21172 9.29978 3.0341C11.1222 4.85647 11.1223 7.81115 9.3 9.63365ZM6 7.66727C6.73638 7.66727 7.33333 7.07031 7.33333 6.33393C7.33333 5.59755 6.73638 5.0006 6 5.0006C5.26362 5.0006 4.66667 5.59755 4.66667 6.33393C4.66667 7.07031 5.26362 7.66727 6 7.66727ZM3.33333 6.33393C3.33333 7.80669 4.52724 9.0006 6 9.0006C7.47276 9.0006 8.66667 7.80669 8.66667 6.33393C8.66667 4.86117 7.47276 3.66727 6 3.66727C4.52724 3.66727 3.33333 4.86117 3.33333 6.33393Z" fill="#708099"/>
</svg>
