<?xml version="1.0" encoding="UTF-8"?>
<svg width="28px" height="28px" viewBox="0 0 28 28" version="1.1" xmlns="http://www.w3.org/2000/svg" xmlns:xlink="http://www.w3.org/1999/xlink">
    <!-- Generator: sketchtool 60 (101010) - https://sketch.com -->
    <title>A5B8F13B-BFDA-40A9-A5A4-0956F0B3AF80@1x</title>
    <desc>Created with sketchtool.</desc>
    <g id="Page-1" stroke="none" stroke-width="1" fill="none" fill-rule="evenodd">
        <g id="Gomble-Brand-Design-System" transform="translate(-475.000000, -10719.000000)">
            <g id="Button/L/Primary/Default" transform="translate(489.000000, 10733.000000) scale(-1, 1) translate(-489.000000, -10733.000000) translate(475.000000, 10719.000000)">
                <rect id="Frame" stroke="#DFE7F5" stroke-width="1.4" fill="#F4F7FD" x="0.7" y="0.7" width="26.6" height="26.6" rx="8"></rect>
                <path d="M11.1917345,14.4813546 C10.9360885,14.2152792 10.9360885,13.7854119 11.1917345,13.5186454 L16.3840221,8.28870907 C16.7530701,7.90376364 17.3535105,7.90376364 17.723214,8.28870907 C18.092262,8.67365451 18.092262,9.29841334 17.723214,9.68335877 L13.407989,14.0003456 L17.723214,18.3159501 C18.092262,18.7015867 18.092262,19.3263455 17.723214,19.7112909 C17.3535105,20.0962364 16.7530701,20.0962364 16.3840221,19.7112909 L11.1917345,14.4813546 Z" id="Arrow-Copy" fill="#242424" transform="translate(14.500000, 14.000000) scale(-1, 1) translate(-14.500000, -14.000000) "></path>
            </g>
        </g>
    </g>
</svg>