<?xml version="1.0" encoding="UTF-8"?>
<svg width="14px" height="17px" viewBox="0 0 14 17" version="1.1" xmlns="http://www.w3.org/2000/svg" xmlns:xlink="http://www.w3.org/1999/xlink">
    <!-- Generator: sketchtool 60 (101010) - https://sketch.com -->
    <title>8B7FBDB5-E72F-4814-8DDC-F1A6A64179C8@1x</title>
    <desc>Created with sketchtool.</desc>
    <g id="Page-1" stroke="none" stroke-width="1" fill="none" fill-rule="evenodd">
        <g id="Gomble-Brand-Design-System" transform="translate(-110.000000, -10725.000000)">
            <g id="Group" transform="translate(108.000000, 10724.000000)">
                <polygon id="Path" points="0 0 18 0 18 18 0 18"></polygon>
                <path d="M3.75,13.5 L14.25,13.5 L14.25,8.27325 C14.25,5.361 11.8995,3 9,3 C6.1005,3 3.75,5.361 3.75,8.27325 L3.75,13.5 Z M9,1.5 C12.7275,1.5 15.75,4.53225 15.75,8.27325 L15.75,15 L2.25,15 L2.25,8.27325 C2.25,4.53225 5.2725,1.5 9,1.5 Z M7.125,15.75 L10.875,15.75 C10.875,16.7855339 10.0355339,17.625 9,17.625 C7.96446609,17.625 7.125,16.7855339 7.125,15.75 L7.125,15.75 Z" id="Shape" fill="#242424" fill-rule="nonzero"></path>
            </g>
        </g>
    </g>
</svg>