<?xml version="1.0" encoding="UTF-8"?>
<svg width="20px" height="26px" viewBox="0 0 20 26" version="1.1" xmlns="http://www.w3.org/2000/svg" xmlns:xlink="http://www.w3.org/1999/xlink">
    <!-- Generator: sketchtool 60 (101010) - https://sketch.com -->
    <title>883D0B7C-C59B-4580-AF45-B07B94CCDFAF@1x</title>
    <desc>Created with sketchtool.</desc>
    <g id="Customer" stroke="none" stroke-width="1" fill="none" fill-rule="evenodd">
        <g id="Product-Listing" transform="translate(-981.000000, -684.000000)" fill="#FC68A2" fill-rule="nonzero" stroke="#FC68A2">
            <g id="Group-31" transform="translate(310.000000, 265.000000)">
                <g id="Group-29-Copy" transform="translate(360.000000, 0.000000)">
                    <g id="Group-27" transform="translate(0.000000, 412.000000)">
                        <g id="Group-26">
                            <g id="Group" transform="translate(312.000000, 8.000000)">
                                <path d="M18,3.5091531 L18,23.1367804 C18,23.4532854 17.8249383,23.7439182 17.5444912,23.8948402 C17.4155901,23.9646956 17.2718827,23.999192 17.1290463,23.999192 C16.9635651,23.999192 16.7980839,23.9526218 16.6543765,23.8594813 L8.99956452,18.9282114 L1.3447525,23.8603438 C1.07736972,24.0328261 0.734213964,24.0466247 0.455508782,23.8957026 C0.175061693,23.7447806 0,23.4541479 0,23.1376428 L0,3.5091531 C0,1.5739013 1.58949049,0 3.54303963,0 L14.4569604,0 C16.4105095,0 18,1.5739013 18,3.5091531 Z" id="Shape" stroke-width="1.63636364"></path>
                                <path d="M4.8,0 L6,0 L6,5.4 C6,5.73137085 5.73137085,6 5.4,6 C5.06862915,6 4.8,5.73137085 4.8,5.4 L4.8,0 L4.8,0 Z" id="Rectangle" stroke-width="0.5"></path>
                            </g>
                        </g>
                    </g>
                </g>
            </g>
        </g>
    </g>
</svg>