<svg width="25" height="24" viewBox="0 0 25 24" fill="none" xmlns="http://www.w3.org/2000/svg">
<path fill-rule="evenodd" clip-rule="evenodd" d="M21.0469 4H17.0469V2H15.0469V4H9.04688V2H7.04688V4H3.04688C2.49459 4 2.04688 4.44772 2.04688 5V21C2.04688 21.5523 2.49459 22 3.04688 22H21.0469C21.5992 22 22.0469 21.5523 22.0469 21V5C22.0469 4.44772 21.5992 4 21.0469 4ZM4.04688 12H20.0469V20H4.04688V12ZM15.0469 6H9.04688V8H7.04688V6H4.04688V10H20.0469V6H17.0469V8H15.0469V6ZM8.04688 16V14H6.04688V16H8.04688ZM11.0469 14H13.0469V16H11.0469V14ZM18.0469 16V14H16.0469V16H18.0469Z" fill="white"/>
</svg>
