<svg xmlns="http://www.w3.org/2000/svg" width="22" height="16" viewBox="0 0 22 16">
    <g fill="none" fill-rule="evenodd">
        <g fill="#82889C" fill-rule="nonzero">
            <g>
                <g transform="translate(-552 -7250) translate(0 6947) translate(552 303)">
                    <path d="M19.636 2.764H16.51L14.545.727C14.11.291 13.527 0 12.945 0H8.873c-.582 0-1.164.29-1.6.727L5.309 2.764H2.182C.945 2.764 0 3.709 0 4.945v8.873C0 15.055.945 16 2.182 16h17.454c1.237 0 2.182-.945 2.182-2.182V4.945c0-1.163-.945-2.181-2.182-2.181zM10.91 13.673c-2.69 0-4.873-2.182-4.873-4.873 0-2.69 2.182-4.873 4.873-4.873 2.691 0 4.873 2.182 4.873 4.873 0 2.69-2.182 4.873-4.873 4.873z"/>
                    <circle cx="10.909" cy="8.8" r="3.418"/>
                </g>
            </g>
        </g>
    </g>
</svg>
