<svg width="26" height="26" viewBox="0 0 26 26" fill="none" xmlns="http://www.w3.org/2000/svg">
<path fill-rule="evenodd" clip-rule="evenodd" d="M1.6448 2.31148C0.785066 2.31148 0.785066 1 1.6448 1H4.75308C5.08375 1 5.34828 1.2623 5.41441 1.52459L8.05976 14.9016H21.0219L23.4689 5.06557H7.53069C6.67095 5.06557 6.67095 3.7541 7.53069 3.7541H24.3286C24.7915 3.7541 25.0561 4.14754 24.9899 4.60656L22.2123 15.6885C22.1462 15.9508 21.8817 16.2131 21.551 16.2131H7.20002C6.60482 16.2131 6.20802 16.6721 6.20802 17.1967C6.20802 17.7869 6.60482 18.2459 7.20002 18.2459H21.4187C22.2785 18.2459 22.2785 19.5574 21.4187 19.5574H7.20002C5.81122 19.5574 4.88535 18.5082 4.88535 17.1967C4.88535 16.1475 5.61281 15.0984 6.73708 14.9016L4.22401 2.31148H1.6448ZM11.0358 22.7049C11.0358 21.459 9.97763 20.4098 8.72109 20.4098C7.46455 20.4098 6.40642 21.459 6.40642 22.7049C6.40642 23.9508 7.46455 25 8.72109 25C9.97763 25 11.0358 23.9508 11.0358 22.7049ZM7.72909 22.7049C7.72909 22.1803 8.19202 21.7213 8.72109 21.7213C9.25016 21.7213 9.71309 22.1803 9.71309 22.7049C9.71309 23.2295 9.25016 23.6885 8.72109 23.6885C8.19202 23.6885 7.72909 23.2295 7.72909 22.7049ZM18.9718 20.4098C20.2283 20.4098 21.2203 21.459 21.2203 22.7049C21.2203 23.9508 20.2283 25 18.9718 25C17.6491 25 16.6571 23.9508 16.6571 22.7049C16.6571 21.459 17.6491 20.4098 18.9718 20.4098ZM18.9718 21.7213C18.3766 21.7213 17.9798 22.1803 17.9798 22.7049C17.9798 23.2295 18.3766 23.6885 18.9718 23.6885C19.5009 23.6885 19.8977 23.2295 19.8977 22.7049C19.8977 22.1803 19.5009 21.7213 18.9718 21.7213Z" fill="#242424"/>
<path d="M5.41441 1.52459L5.51265 1.50516L5.51138 1.50014L5.41441 1.52459ZM8.05976 14.9016L7.96166 14.921L7.97759 15.0016H8.05976V14.9016ZM21.0219 14.9016V15.0016H21.1001L21.119 14.9258L21.0219 14.9016ZM23.4689 5.06557L23.5659 5.08972L23.5968 4.96557H23.4689V5.06557ZM24.9899 4.60656L25.0875 4.631L25.0889 4.62082L24.9899 4.60656ZM22.2123 15.6885L22.3093 15.713L22.3093 15.7128L22.2123 15.6885ZM6.73708 14.9016L6.75432 15.0001L6.8552 14.9825L6.83515 14.8821L6.73708 14.9016ZM4.22401 2.31148L4.32208 2.2919L4.30602 2.21148H4.22401V2.31148ZM1.6448 0.9C1.40214 0.9 1.21309 0.993597 1.08591 1.13911C0.960439 1.28265 0.9 1.47095 0.9 1.65574C0.9 1.84053 0.960439 2.02882 1.08591 2.17237C1.21309 2.31788 1.40214 2.41148 1.6448 2.41148V2.21148C1.4576 2.21148 1.32424 2.14114 1.23649 2.04075C1.14703 1.93839 1.1 1.79881 1.1 1.65574C1.1 1.51266 1.14703 1.37308 1.23649 1.27073C1.32424 1.17034 1.4576 1.1 1.6448 1.1V0.9ZM4.75308 0.9H1.6448V1.1H4.75308V0.9ZM5.51138 1.50014C5.43585 1.20058 5.13655 0.9 4.75308 0.9V1.1C5.03094 1.1 5.26071 1.32401 5.31745 1.54904L5.51138 1.50014ZM8.15786 14.8822L5.51251 1.50519L5.31631 1.54399L7.96166 14.921L8.15786 14.8822ZM21.0219 14.8016H8.05976V15.0016H21.0219V14.8016ZM23.3718 5.04143L20.9249 14.8775L21.119 14.9258L23.5659 5.08972L23.3718 5.04143ZM7.53069 5.16557H23.4689V4.96557H7.53069V5.16557ZM7.53069 3.6541C7.28803 3.6541 7.09898 3.7477 6.97179 3.89321C6.84633 4.03675 6.78589 4.22504 6.78589 4.40984C6.78589 4.59463 6.84633 4.78292 6.97179 4.92647C7.09898 5.07198 7.28803 5.16557 7.53069 5.16557V4.96557C7.34348 4.96557 7.21013 4.89524 7.12238 4.79485C7.03291 4.69249 6.98589 4.55291 6.98589 4.40984C6.98589 4.26676 7.03291 4.12718 7.12238 4.02483C7.21013 3.92444 7.34348 3.8541 7.53069 3.8541V3.6541ZM24.3286 3.6541H7.53069V3.8541H24.3286V3.6541ZM25.0889 4.62082C25.1252 4.36923 25.0717 4.12856 24.9379 3.94855C24.8028 3.76676 24.5909 3.6541 24.3286 3.6541V3.8541C24.5293 3.8541 24.681 3.93816 24.7774 4.06784C24.8751 4.1993 24.9209 4.38487 24.891 4.5923L25.0889 4.62082ZM22.3093 15.7128L25.0869 4.63087L24.8929 4.58225L22.1153 15.6642L22.3093 15.7128ZM21.551 16.3131C21.9345 16.3131 22.2338 16.0125 22.3093 15.713L22.1154 15.6641C22.0586 15.8891 21.8289 16.1131 21.551 16.1131V16.3131ZM7.20002 16.3131H21.551V16.1131H7.20002V16.3131ZM6.30802 17.1967C6.30802 16.7237 6.6636 16.3131 7.20002 16.3131V16.1131C6.54604 16.1131 6.10802 16.6205 6.10802 17.1967H6.30802ZM7.20002 18.1459C6.66765 18.1459 6.30802 17.7396 6.30802 17.1967H6.10802C6.10802 17.8342 6.54199 18.3459 7.20002 18.3459V18.1459ZM21.4187 18.1459H7.20002V18.3459H21.4187V18.1459ZM21.4187 19.6574C21.6614 19.6574 21.8504 19.5638 21.9776 19.4183C22.1031 19.2747 22.1635 19.0864 22.1635 18.9016C22.1635 18.7168 22.1031 18.5286 21.9776 18.385C21.8504 18.2395 21.6614 18.1459 21.4187 18.1459V18.3459C21.6059 18.3459 21.7393 18.4162 21.827 18.5166C21.9165 18.619 21.9635 18.7586 21.9635 18.9016C21.9635 19.0447 21.9165 19.1843 21.827 19.2866C21.7393 19.387 21.6059 19.4574 21.4187 19.4574V19.6574ZM7.20002 19.6574H21.4187V19.4574H7.20002V19.6574ZM4.78535 17.1967C4.78535 18.5586 5.75125 19.6574 7.20002 19.6574V19.4574C5.87118 19.4574 4.98535 18.4578 4.98535 17.1967H4.78535ZM6.71985 14.8031C5.54073 15.0095 4.78535 16.1064 4.78535 17.1967H4.98535C4.98535 16.1887 5.6849 15.1873 6.75432 15.0001L6.71985 14.8031ZM4.12594 2.33105L6.63902 14.9212L6.83515 14.8821L4.32208 2.2919L4.12594 2.33105ZM1.6448 2.41148H4.22401V2.21148H1.6448V2.41148ZM8.72109 20.5098C9.9232 20.5098 10.9358 21.515 10.9358 22.7049H11.1358C11.1358 21.403 10.0321 20.3098 8.72109 20.3098V20.5098ZM6.50642 22.7049C6.50642 21.515 7.51898 20.5098 8.72109 20.5098V20.3098C7.41013 20.3098 6.30642 21.403 6.30642 22.7049H6.50642ZM8.72109 24.9C7.51898 24.9 6.50642 23.8948 6.50642 22.7049H6.30642C6.30642 24.0068 7.41013 25.1 8.72109 25.1V24.9ZM10.9358 22.7049C10.9358 23.8948 9.9232 24.9 8.72109 24.9V25.1C10.0321 25.1 11.1358 24.0068 11.1358 22.7049H10.9358ZM8.72109 21.6213C8.1376 21.6213 7.62909 22.1243 7.62909 22.7049H7.82909C7.82909 22.2364 8.24645 21.8213 8.72109 21.8213V21.6213ZM9.8131 22.7049C9.8131 22.1243 9.30459 21.6213 8.72109 21.6213V21.8213C9.19573 21.8213 9.61309 22.2364 9.61309 22.7049H9.8131ZM8.72109 23.7885C9.30459 23.7885 9.8131 23.2855 9.8131 22.7049H9.61309C9.61309 23.1735 9.19573 23.5885 8.72109 23.5885V23.7885ZM7.62909 22.7049C7.62909 23.2855 8.1376 23.7885 8.72109 23.7885V23.5885C8.24645 23.5885 7.82909 23.1735 7.82909 22.7049H7.62909ZM21.3203 22.7049C21.3203 21.4068 20.2865 20.3098 18.9718 20.3098V20.5098C20.1702 20.5098 21.1203 21.5113 21.1203 22.7049H21.3203ZM18.9718 25.1C20.2865 25.1 21.3203 24.0031 21.3203 22.7049H21.1203C21.1203 23.8986 20.1702 24.9 18.9718 24.9V25.1ZM16.5571 22.7049C16.5571 24.005 17.5928 25.1 18.9718 25.1V24.9C17.7054 24.9 16.7571 23.8967 16.7571 22.7049H16.5571ZM18.9718 20.3098C17.5928 20.3098 16.5571 21.4049 16.5571 22.7049H16.7571C16.7571 21.5132 17.7054 20.5098 18.9718 20.5098V20.3098ZM18.0798 22.7049C18.0798 22.2319 18.4354 21.8213 18.9718 21.8213V21.6213C18.3178 21.6213 17.8798 22.1287 17.8798 22.7049H18.0798ZM18.9718 23.5885C18.4354 23.5885 18.0798 23.1779 18.0798 22.7049H17.8798C17.8798 23.2811 18.3178 23.7885 18.9718 23.7885V23.5885ZM19.7977 22.7049C19.7977 23.1826 19.4376 23.5885 18.9718 23.5885V23.7885C19.5641 23.7885 19.9977 23.2764 19.9977 22.7049H19.7977ZM18.9718 21.8213C19.4376 21.8213 19.7977 22.2272 19.7977 22.7049H19.9977C19.9977 22.1334 19.5641 21.6213 18.9718 21.6213V21.8213Z" fill="#242424"/>
</svg>
