<?xml version="1.0" encoding="UTF-8"?>
<svg width="20px" height="19px" viewBox="0 0 20 19" version="1.1" xmlns="http://www.w3.org/2000/svg" xmlns:xlink="http://www.w3.org/1999/xlink">
    <!-- Generator: sketchtool 60 (101010) - https://sketch.com -->
    <title>D0B9C3F0-D65D-496C-9F4B-849D068E4D72@1x</title>
    <desc>Created with sketchtool.</desc>
    <g id="Page-1" stroke="none" stroke-width="1" fill="none" fill-rule="evenodd">
        <g id="Gomble-Brand-Design-System" transform="translate(-392.000000, -10859.000000)" fill="#FFFFFF">
            <path d="M407.830076,10875.1852 C408.596958,10875.1852 409.218639,10875.8153 409.218639,10876.5926 C409.218639,10877.3699 408.596958,10878 407.830076,10878 C407.063194,10878 406.441514,10877.3699 406.441514,10876.5926 C406.441514,10875.8153 407.063194,10875.1852 407.830076,10875.1852 Z M399.254043,10875.1852 C400.020925,10875.1852 400.642606,10875.8153 400.642606,10876.5926 C400.642606,10877.3699 400.020925,10878 399.254043,10878 C398.487161,10878 397.86548,10877.3699 397.86548,10876.5926 C397.86548,10875.8153 398.487161,10875.1852 399.254043,10875.1852 Z M394.92077,10859 C395.878399,10859 396.668444,10859.7037 396.812088,10860.6501 L396.812088,10860.6501 L396.955732,10861.5964 L411.229661,10861.5964 C411.469068,10861.5964 411.684535,10861.7178 411.828179,10861.8876 C411.971824,10862.0575 412.043646,10862.3001 411.971824,10862.5185 L411.971824,10862.5185 L410.415676,10870.7446 C410.343854,10871.1086 410.032624,10871.3755 409.673513,10871.3755 L409.673513,10871.3755 L398.416117,10871.3755 L398.559762,10872.2733 C398.631584,10872.6858 398.966754,10872.977 399.373747,10872.977 L399.373747,10872.977 L408.739824,10872.977 C409.170758,10872.977 409.505928,10873.3167 409.505928,10873.7535 C409.505928,10874.1903 409.170758,10874.53 408.739824,10874.53 L408.739824,10874.53 L399.373747,10874.53 C398.200651,10874.53 397.219081,10873.6807 397.051495,10872.516 L397.051495,10872.516 L395.303822,10860.8927 C395.279881,10860.6986 395.112296,10860.553 394.92077,10860.553 L394.92077,10860.553 L392.766104,10860.553 C392.33517,10860.553 392,10860.2133 392,10859.7765 C392,10859.3397 392.33517,10859 392.766104,10859 L392.766104,10859 Z M410.319913,10863.1494 L397.19514,10863.1494 L398.200651,10869.8225 L409.051054,10869.8225 L410.319913,10863.1494 Z" id="Combined-Shape-Copy-2"></path>
        </g>
    </g>
</svg>