<?xml version="1.0" encoding="UTF-8"?>
<svg width="20px" height="19px" viewBox="0 0 20 19" version="1.1" xmlns="http://www.w3.org/2000/svg" xmlns:xlink="http://www.w3.org/1999/xlink">
    <!-- Generator: sketchtool 60 (101010) - https://sketch.com -->
    <title>67BFCD7F-9096-4C44-8E1A-F668903F4CB2@1x</title>
    <desc>Created with sketchtool.</desc>
    <g id="Page-1" stroke="none" stroke-width="1" fill="none" fill-rule="evenodd">
        <g id="Gomble-Brand-Design-System" transform="translate(-224.000000, -10549.000000)" fill="#242424">
            <path d="M239.830076,10565.1852 C240.596958,10565.1852 241.218639,10565.8153 241.218639,10566.5926 C241.218639,10567.3699 240.596958,10568 239.830076,10568 C239.063194,10568 238.441514,10567.3699 238.441514,10566.5926 C238.441514,10565.8153 239.063194,10565.1852 239.830076,10565.1852 Z M231.254043,10565.1852 C232.020925,10565.1852 232.642606,10565.8153 232.642606,10566.5926 C232.642606,10567.3699 232.020925,10568 231.254043,10568 C230.487161,10568 229.86548,10567.3699 229.86548,10566.5926 C229.86548,10565.8153 230.487161,10565.1852 231.254043,10565.1852 Z M226.92077,10549 C227.878399,10549 228.668444,10549.7037 228.812088,10550.6501 L228.812088,10550.6501 L228.955732,10551.5964 L243.229661,10551.5964 C243.469068,10551.5964 243.684535,10551.7178 243.828179,10551.8876 C243.971824,10552.0575 244.043646,10552.3001 243.971824,10552.5185 L243.971824,10552.5185 L242.415676,10560.7446 C242.343854,10561.1086 242.032624,10561.3755 241.673513,10561.3755 L241.673513,10561.3755 L230.416117,10561.3755 L230.559762,10562.2733 C230.631584,10562.6858 230.966754,10562.977 231.373747,10562.977 L231.373747,10562.977 L240.739824,10562.977 C241.170758,10562.977 241.505928,10563.3167 241.505928,10563.7535 C241.505928,10564.1903 241.170758,10564.53 240.739824,10564.53 L240.739824,10564.53 L231.373747,10564.53 C230.200651,10564.53 229.219081,10563.6807 229.051495,10562.516 L229.051495,10562.516 L227.303822,10550.8927 C227.279881,10550.6986 227.112296,10550.553 226.92077,10550.553 L226.92077,10550.553 L224.766104,10550.553 C224.33517,10550.553 224,10550.2133 224,10549.7765 C224,10549.3397 224.33517,10549 224.766104,10549 L224.766104,10549 Z M242.319913,10553.1494 L229.19514,10553.1494 L230.200651,10559.8225 L241.051054,10559.8225 L242.319913,10553.1494 Z" id="Combined-Shape"></path>
        </g>
    </g>
</svg>