<svg width="24" height="24" viewBox="0 0 24 24" fill="none" xmlns="http://www.w3.org/2000/svg">
<path d="M12 23C18.0751 23 23 18.0751 23 12C23 5.92487 18.0751 1 12 1C5.92487 1 1 5.92487 1 12C1 18.0751 5.92487 23 12 23Z" fill="#FC68A2"/>
<path d="M16.2711 8.5268C16.6923 8.10565 17.3751 8.10565 17.7963 8.5268C18.2174 8.94796 18.2174 9.63078 17.7963 10.0519L11.3257 16.5225C10.9045 16.9437 10.2217 16.9437 9.80053 16.5225L6.20576 12.9278C5.7846 12.5066 5.7846 11.8238 6.20576 11.4026C6.62691 10.9815 7.30974 10.9815 7.73089 11.4026L10.5631 14.2348L16.2711 8.5268Z" fill="white"/>
</svg>
