<svg width="26" height="27" viewBox="0 0 26 27" fill="none" xmlns="http://www.w3.org/2000/svg">
<path d="M13 25.5C19.6274 25.5 25 20.1274 25 13.5C25 6.87258 19.6274 1.5 13 1.5C6.37258 1.5 1 6.87258 1 13.5C1 20.1274 6.37258 25.5 13 25.5Z" stroke="#5A5A5A" stroke-width="2" stroke-linecap="round" stroke-linejoin="round"/>
<path d="M16.7333 9.50065C16.4918 9.08167 16.1409 8.73625 15.7181 8.50139C15.2954 8.26652 14.8167 8.15104 14.3333 8.16732H11.6667C10.9594 8.16732 10.2811 8.44827 9.78105 8.94837C9.28095 9.44846 9 10.1267 9 10.834C9 11.5412 9.28095 12.2195 9.78105 12.7196C10.2811 13.2197 10.9594 13.5007 11.6667 13.5007H14.3333C15.0406 13.5007 15.7189 13.7816 16.219 14.2817C16.719 14.7818 17 15.4601 17 16.1673C17 16.8746 16.719 17.5528 16.219 18.0529C15.7189 18.553 15.0406 18.834 14.3333 18.834H11.6667C11.1833 18.8503 10.7046 18.7348 10.2819 18.4999C9.85913 18.265 9.5082 17.9196 9.26667 17.5007M13 6.83398V20.1673" stroke="#5A5A5A" stroke-width="2" stroke-linecap="round" stroke-linejoin="round"/>
</svg>
