<svg width="22" height="20" viewBox="0 0 22 20" fill="none" xmlns="http://www.w3.org/2000/svg">
<path d="M21.3435 10C21.3435 15.3035 16.7398 19.6429 11.0099 19.6429C5.27992 19.6429 0.676235 15.3035 0.676235 10C0.676235 4.69649 5.27992 0.357143 11.0099 0.357143C16.7398 0.357143 21.3435 4.69649 21.3435 10Z" fill="#FC68A2" stroke="white" stroke-width="0.714286"/>
<path d="M11.598 10.0011L14.7172 7.08345C14.8665 6.94379 14.8665 6.71735 14.7172 6.57768L14.6709 6.53443C14.5216 6.39477 14.2796 6.39477 14.1302 6.53443L11.011 9.4521L7.89179 6.53444C7.74248 6.39478 7.50039 6.39478 7.35109 6.53444L7.30485 6.57769C7.15554 6.71735 7.15554 6.94379 7.30485 7.08346L10.4241 10.0011L7.30485 12.9188C7.15554 13.0584 7.15554 13.2849 7.30485 13.4246L7.35108 13.4678C7.50039 13.6075 7.74248 13.6075 7.89179 13.4678L11.011 10.5501L14.1302 13.4678C14.2796 13.6075 14.5216 13.6075 14.671 13.4678L14.7172 13.4246C14.8665 13.2849 14.8665 13.0585 14.7172 12.9188L11.598 10.0011Z" fill="white"/>
</svg>
