<svg width="52" height="56" viewBox="0 0 52 56" fill="none" xmlns="http://www.w3.org/2000/svg">
<path d="M1.34377 16.6972C0.601628 14.6165 1.68678 12.3281 3.76753 11.5859L32.4806 1.34473C34.5613 0.602588 36.8497 1.68774 37.5919 3.76849L50.2667 39.3047C51.0088 41.3855 49.9237 43.6739 47.8429 44.416L19.1299 54.6572C17.0492 55.3993 14.7607 54.3142 14.0186 52.2334L1.34377 16.6972Z" fill="#F9D6DF"/>
<path d="M10.3398 3.97852C7.57842 3.97852 5.33984 6.21709 5.33984 8.97851V46.7075C5.33984 49.4689 7.57842 51.7075 10.3398 51.7075H40.8246C43.586 51.7075 45.8246 49.4689 45.8246 46.7075V8.97852C45.8246 6.21709 43.586 3.97852 40.8246 3.97852H10.3398Z" fill="#F9D6DF" stroke="white" stroke-width="2"/>
<mask id="mask0_2072_42451" style="mask-type:alpha" maskUnits="userSpaceOnUse" x="6" y="4" width="39" height="47">
<path d="M6.33984 8.97851C6.33984 6.76937 8.1307 4.97852 10.3398 4.97852H40.8246C43.0337 4.97852 44.8246 6.76938 44.8246 8.97852V46.7075C44.8246 48.9166 43.0337 50.7075 40.8246 50.7075H10.3398C8.13071 50.7075 6.33984 48.9166 6.33984 46.7075V8.97851Z" fill="#F9D6DF"/>
</mask>
<g mask="url(#mask0_2072_42451)">
<path d="M34.4121 31.7851L22.1875 43.7833V49.8956C22.1875 52.0688 23.9985 53.0649 24.9041 53.2913H55.6919C58.5896 53.4724 59.6158 52.763 59.7667 52.3857C53.8808 46.2735 41.5657 33.5962 39.3925 31.7851C37.2192 29.9741 35.1667 31.0305 34.4121 31.7851Z" fill="#FF9AC1"/>
<path d="M18.5644 29.5215L6.33984 41.5196V47.6319C6.33984 49.8051 8.15089 50.8012 9.05642 51.0276H39.8442C42.7419 51.2087 43.7682 50.4994 43.9191 50.1221C38.0332 44.0098 25.7181 31.3325 23.5448 29.5215C21.3715 27.7104 19.319 28.7669 18.5644 29.5215Z" fill="#FC68A2"/>
<circle cx="30.3362" cy="17.2034" r="4.52762" fill="#FC68A2"/>
</g>
</svg>
