<?xml version="1.0" encoding="UTF-8"?>
<svg width="17px" height="18px" viewBox="0 0 17 18" version="1.1" xmlns="http://www.w3.org/2000/svg" xmlns:xlink="http://www.w3.org/1999/xlink">
    <!-- Generator: sketchtool 60 (101010) - https://sketch.com -->
    <title>9C544EAB-BBEC-43CE-83D2-7407D4413678@1x</title>
    <desc>Created with sketchtool.</desc>
    <defs>
        <path d="M590.24378,10553.3092 L574.75622,10553.3092 C574.338584,10553.3092 574,10553.6347 574,10554.0363 C574,10554.4378 574.338584,10554.7634 574.75622,10554.7634 L590.24378,10554.7634 C590.661452,10554.7634 591,10554.4378 591,10554.0363 C591,10553.6347 590.661452,10553.3092 590.24378,10553.3092 Z M588.522924,10553.3092 C588.105251,10553.3092 587.766703,10553.6347 587.766703,10554.0363 L587.766703,10565.6183 C587.766703,10566.1297 587.333966,10566.5458 586.802104,10566.5458 L578.197896,10566.5458 C577.665997,10566.5458 577.233297,10566.1297 577.233297,10565.6183 L577.233297,10554.0363 C577.233297,10553.6347 576.894712,10553.3092 576.477076,10553.3092 C576.05944,10553.3092 575.720856,10553.6347 575.720856,10554.0363 L575.720856,10565.6183 C575.720856,10566.9316 576.832041,10568 578.197933,10568 L586.802141,10568 C588.167995,10568 589.279217,10566.9316 589.279217,10565.6183 L589.279217,10554.0363 C589.279217,10553.6347 588.940596,10553.3092 588.522924,10553.3092 Z M584.220856,10550 L580.77918,10550 C579.413326,10550 578.302104,10551.0684 578.302104,10552.3817 L578.302104,10554.0363 C578.302104,10554.4378 578.640688,10554.7634 579.058324,10554.7634 C579.47596,10554.7634 579.814544,10554.4378 579.814544,10554.0363 L579.814544,10552.3817 C579.814544,10551.8703 580.247281,10551.4542 580.779144,10551.4542 L584.22082,10551.4542 C584.752719,10551.4542 585.185419,10551.8703 585.185419,10552.3817 L585.185419,10554.0363 C585.185419,10554.4378 585.523967,10554.7634 585.941639,10554.7634 C586.359312,10554.7634 586.697859,10554.4378 586.697859,10554.0363 L586.697859,10552.3817 C586.697859,10551.0684 585.586711,10550 584.220856,10550 Z M580.779144,10557.4456 C580.361508,10557.4456 580.022924,10557.7711 580.022924,10558.1727 L580.022924,10563.1364 C580.022924,10563.538 580.361508,10563.8636 580.779144,10563.8636 C581.19678,10563.8636 581.535364,10563.538 581.535364,10563.1364 L581.535364,10558.1727 C581.535401,10557.7711 581.196816,10557.4456 580.779144,10557.4456 Z M584.220856,10557.4456 C583.803184,10557.4456 583.464636,10557.7711 583.464636,10558.1727 L583.464636,10563.1364 C583.464636,10563.538 583.803184,10563.8636 584.220856,10563.8636 C584.638529,10563.8636 584.977076,10563.538 584.977076,10563.1364 L584.977076,10558.1727 C584.977076,10557.7711 584.638529,10557.4456 584.220856,10557.4456 Z" id="path-1"></path>
    </defs>
    <g id="Page-1" stroke="none" stroke-width="1" fill="none" fill-rule="evenodd">
        <g id="Gomble-Brand-Design-System" transform="translate(-574.000000, -10550.000000)">
            <mask id="mask-2" fill="white">
                <use xlink:href="#path-1"></use>
            </mask>
            <use id="021-trash" fill="#242424" fill-rule="nonzero" xlink:href="#path-1"></use>
        </g>
    </g>
</svg>