<?xml version="1.0" encoding="UTF-8"?>
<svg width="44px" height="44px" viewBox="0 0 44 44" version="1.1" xmlns="http://www.w3.org/2000/svg" xmlns:xlink="http://www.w3.org/1999/xlink">
    <!-- Generator: sketchtool 60 (101010) - https://sketch.com -->
    <title>472C8178-C29F-468A-AE4C-99171741B0C7</title>
    <desc>Created with sketchtool.</desc>
    <g id="Page-1" stroke="none" stroke-width="1" fill="none" fill-rule="evenodd">
        <g id="Web-Styleguide" transform="translate(-670.000000, -7433.000000)">
            <g id="Icons" transform="translate(0.000000, 6947.000000)">
                <g id="Group-14-Copy-2" transform="translate(670.000000, 486.000000)">
                    <rect id="Rectangle" stroke="#EDECF5" fill="#FFFFFF" x="0.5" y="0.5" width="43" height="43" rx="21.5"></rect>
                    <g id="Group-2-Copy-3" transform="translate(12.000000, 11.000000)" fill="#82889C" fill-rule="nonzero">
                        <g id="delete">
                            <path d="M16.2861339,6.86239928 L6.27372933,6.86239928 L10.7574168,2.43538426 C11.0050918,2.19083977 11.0050918,1.79434206 10.7574168,1.54975583 L9.6212742,0.427973729 C9.04335171,-0.142643995 8.10634694,-0.142643995 7.52838218,0.427973729 L6.3601915,1.58144058 L5.76218611,0.990993792 C5.10279047,0.339890958 4.02977161,0.339932704 3.37033368,0.990993792 L1.03826487,3.29358596 C0.378826943,3.9446888 0.378826943,5.00414503 1.03826487,5.65524786 L1.63622798,6.24569465 L0.468037306,7.39911975 C-0.109885181,7.96973747 -0.109885181,8.89489879 0.468037306,9.46555825 L1.6041799,10.5873404 C1.85181264,10.8318848 2.25342839,10.8319266 2.50110342,10.5873404 L4.10862342,9.00013891 L4.10862342,18.6606899 C4.10862342,20.1593911 5.33913451,21.3743489 6.85702135,21.3743489 L13.537736,21.3743489 C15.0556228,21.3743489 16.2861339,20.1593911 16.2861339,18.6606899 L16.2861339,6.86239928 Z M2.53319378,5.36002447 L1.93523067,4.76961943 C1.77038176,4.60685416 1.77038176,4.34197967 1.93523067,4.17917265 L4.26729948,1.87658048 C4.43219067,1.71377346 4.70045596,1.7138152 4.86526259,1.87658048 L5.4632257,2.46702726 L2.53319378,5.36002447 Z M8.00982218,17.867444 C8.00982218,18.2133045 7.72587109,18.4936666 7.37558301,18.4936666 C7.02529492,18.4936666 6.74134383,18.2133045 6.74134383,17.867444 L6.74134383,10.3693042 C6.74134383,10.0234436 7.02529492,9.7430816 7.37558301,9.7430816 C7.72587109,9.7430816 8.00982218,10.0234436 8.00982218,10.3693042 L8.00982218,17.867444 Z M10.8316178,17.867444 C10.8316178,18.2133045 10.5476667,18.4936666 10.1973787,18.4936666 C9.84709057,18.4936666 9.56313948,18.2133045 9.56313948,17.867444 L9.56313948,10.3693042 C9.56313948,10.0234436 9.84709057,9.7430816 10.1973787,9.7430816 C10.5476667,9.7430816 10.8316178,10.0234436 10.8316178,10.3693042 L10.8316178,17.867444 Z M13.6534135,17.867444 C13.6534135,18.2133045 13.3694624,18.4936666 13.0191743,18.4936666 C12.6688862,18.4936666 12.3849351,18.2133045 12.3849351,17.867444 L12.3849351,10.3693042 C12.3849351,10.0234436 12.6688862,9.7430816 13.0191743,9.7430816 C13.3694624,9.7430816 13.6534135,10.0234436 13.6534135,10.3693042 L13.6534135,17.867444 Z" id="Shape"></path>
                            <path d="M10.903874,4.74010544 C10.5169716,4.87327323 10.2455353,5.21437481 10.2007188,5.61016284 L16.2861339,5.61016284 L16.2861339,4.5693668 C16.2861339,3.85472749 15.5739308,3.35177904 14.8899706,3.5807525 L10.917023,4.7359309 C10.9127527,4.73714152 10.908102,4.73881134 10.903874,4.74010544 L10.903874,4.74010544 Z" id="Path"></path>
                        </g>
                    </g>
                </g>
            </g>
        </g>
    </g>
</svg>