<?xml version="1.0" encoding="UTF-8"?>
<svg width="10px" height="13px" viewBox="0 0 10 13" version="1.1" xmlns="http://www.w3.org/2000/svg" xmlns:xlink="http://www.w3.org/1999/xlink">
    <!-- Generator: Sketch 60 (88103) - https://sketch.com -->
    <title>delete@1x</title>
    <desc>Created with Sketch.</desc>
    <g id="Page-1" stroke="none" stroke-width="1" fill="none" fill-rule="evenodd">
        <g id="15.2---Detail-Discipline" transform="translate(-1267.000000, -126.000000)" fill="#050D33" fill-rule="nonzero">
            <g id="Group-33" transform="translate(1192.000000, 106.000000)">
                <g id="delete" transform="translate(75.000000, 20.000000)">
                    <path d="M9.58007876,4.05505412 L3.69042902,4.05505412 L6.32789223,1.4390907 C6.47358342,1.29458713 6.47358342,1.06029304 6.32789223,0.915764806 L5.65957306,0.252893567 C5.31961865,-0.0842896332 4.76843938,-0.0842896332 4.4284601,0.252893567 L3.74128912,0.934487613 L3.38952124,0.585587241 C3.00164145,0.200844657 2.37045389,0.200869325 1.98254922,0.585587241 L0.610744041,1.94620989 C0.222839378,2.33095247 0.222839378,2.95699479 0.610744041,3.34173737 L0.962487047,3.69063775 L0.275316062,4.37220712 C-0.064638342,4.70939032 -0.064638342,5.25607656 0.275316062,5.59328442 L0.943635233,6.25615566 C1.08930155,6.40065922 1.32554611,6.40068389 1.47123731,6.25615566 L2.41683731,5.3182639 L2.41683731,11.0267713 C2.41683731,11.9123675 3.14066736,12.6302971 4.03354197,12.6302971 L7.96337409,12.6302971 C8.8562487,12.6302971 9.58007876,11.9123675 9.58007876,11.0267713 L9.58007876,4.05505412 Z M1.49011399,3.16728719 L1.13837098,2.81841148 C1.04140104,2.722232 1.04140104,2.56571526 1.13837098,2.46951111 L2.51017617,1.10888846 C2.60717098,1.01268432 2.76497409,1.01270898 2.86191917,1.10888846 L3.21366218,1.45778884 L1.49011399,3.16728719 Z M4.7116601,10.5580351 C4.7116601,10.7624072 4.54463005,10.9280757 4.33857824,10.9280757 C4.13252642,10.9280757 3.96549637,10.7624072 3.96549637,10.5580351 L3.96549637,6.12731611 C3.96549637,5.92294397 4.13252642,5.75727549 4.33857824,5.75727549 C4.54463005,5.75727549 4.7116601,5.92294397 4.7116601,6.12731611 L4.7116601,10.5580351 Z M6.3715399,10.5580351 C6.3715399,10.7624072 6.20450984,10.9280757 5.99845803,10.9280757 C5.79240622,10.9280757 5.62537617,10.7624072 5.62537617,10.5580351 L5.62537617,6.12731611 C5.62537617,5.92294397 5.79240622,5.75727549 5.99845803,5.75727549 C6.20450984,5.75727549 6.3715399,5.92294397 6.3715399,6.12731611 L6.3715399,10.5580351 Z M8.03141969,10.5580351 C8.03141969,10.7624072 7.86438964,10.9280757 7.65833782,10.9280757 C7.45228601,10.9280757 7.28525596,10.7624072 7.28525596,10.5580351 L7.28525596,6.12731611 C7.28525596,5.92294397 7.45228601,5.75727549 7.65833782,5.75727549 C7.86438964,5.75727549 8.03141969,5.92294397 8.03141969,6.12731611 L8.03141969,10.5580351 Z" id="Shape"></path>
                    <path d="M6.41404352,2.8009714 C6.18645389,2.87966146 6.02678549,3.08122148 6.0004228,3.31509623 L9.58007876,3.31509623 L9.58007876,2.70008038 C9.58007876,2.27779351 9.16113575,1.9805967 8.75880622,2.1158992 L6.42177824,2.79850463 C6.41926632,2.79921999 6.41653057,2.8002067 6.41404352,2.8009714 L6.41404352,2.8009714 Z" id="Path"></path>
                </g>
            </g>
        </g>
    </g>
</svg>