<svg width="24" height="24" viewBox="0 0 24 24" fill="none" xmlns="http://www.w3.org/2000/svg">
<path d="M12.2876 22.5004H11.7134C10.8818 22.3212 10.2945 21.7789 9.74665 21.1779C9.57627 20.9911 9.39274 20.8136 9.24263 20.6114C8.90023 20.1501 8.45099 19.9918 7.88671 20.0208C7.2193 20.0636 6.54995 20.0669 5.88215 20.0307C4.92123 19.9661 4.25505 19.3733 4.04852 18.4315C3.97236 18.0574 3.93436 17.6766 3.93511 17.2948C3.92854 16.8565 3.97291 16.4215 3.99757 15.9849C4.02058 15.5784 3.89786 15.2332 3.58614 14.9604C3.42726 14.8212 3.27551 14.6728 3.12047 14.5287C2.66083 14.1003 2.17927 13.6916 1.84728 13.147C1.38545 12.3888 1.37997 11.6218 1.84289 10.8642C1.97361 10.6474 2.12875 10.4463 2.30528 10.2648C2.6541 9.89895 3.02261 9.55238 3.40918 9.22666C3.83595 8.87987 4.01181 8.46296 3.97839 7.92114C3.94278 7.36946 3.92361 6.81504 3.93018 6.26227C3.95265 4.86581 4.7125 4.05007 6.09581 3.96132C6.64104 3.93009 7.18783 3.93943 7.73167 3.98926C8.30965 4.03747 8.78299 3.91365 9.1758 3.45401C9.56032 3.00995 9.96831 2.58678 10.398 2.1863C10.8193 1.78911 11.3201 1.52888 11.9156 1.50204C12.5779 1.47355 13.1312 1.74583 13.598 2.18192C14.0195 2.57117 14.4165 2.98613 14.7868 3.42443C15.1352 3.84189 15.5478 4.00898 16.0792 3.97611C16.6309 3.94159 17.1853 3.92132 17.7381 3.92899C18.4201 3.93995 19.0485 4.11636 19.5229 4.65543C19.9349 5.12329 20.068 5.69086 20.0708 6.28966C20.0708 6.85613 20.0346 7.4226 20.0028 7.98798C19.9793 8.41968 20.1124 8.77852 20.4411 9.0634C20.5912 9.19324 20.7326 9.33184 20.8794 9.46606C21.5735 10.1038 22.2912 10.7261 22.5016 11.7122V12.2869C22.3758 12.8345 22.0989 13.3358 21.7023 13.7338C21.4185 14.0203 21.1314 14.3046 20.8257 14.5692C20.0291 15.2634 19.9957 15.345 20.0313 16.4029C20.0505 16.9754 20.0801 17.5534 20.0313 18.1215C19.9574 18.9619 19.5279 19.5952 18.7165 19.8894C18.3876 20.0025 18.0426 20.0621 17.6948 20.0658C17.1217 20.0767 16.5481 20.0302 15.9751 20.0028C15.5746 19.983 15.2377 20.1074 14.9693 20.4109C14.8246 20.5753 14.6712 20.7309 14.5233 20.8919C13.8862 21.5817 13.2687 22.2933 12.2876 22.5004ZM5.70739 16.7058H5.68329C5.68329 17.1014 5.67123 17.4975 5.68712 17.8925C5.69917 18.1987 5.80052 18.3034 6.10293 18.3127C6.47766 18.3242 6.85293 18.2995 7.22766 18.2957C7.69826 18.2908 8.17214 18.2562 8.63891 18.2957C9.36699 18.3592 9.94826 18.7411 10.4386 19.2637C10.7799 19.6269 11.1004 20.011 11.4472 20.3687C11.9309 20.8678 12.0712 20.8651 12.5604 20.3632C12.928 19.9869 13.2726 19.5908 13.6407 19.2128C14.1426 18.6945 14.7167 18.2951 15.464 18.2535C15.9061 18.2288 16.3509 18.2535 16.7947 18.2535C17.1562 18.2573 17.5184 18.2798 17.8794 18.2688C18.1966 18.2584 18.2919 18.1554 18.3177 17.8437C18.3323 17.6463 18.3365 17.4483 18.3303 17.2504C18.316 16.7447 18.2804 16.2396 18.2788 15.7345C18.271 15.3641 18.34 14.9961 18.4815 14.6536C18.6229 14.3112 18.8337 14.0017 19.1005 13.7447C19.4019 13.4473 19.7234 13.17 20.0215 12.8682C20.2318 12.6556 20.4247 12.4239 20.6137 12.1916C20.6757 12.125 20.7089 12.0366 20.7061 11.9456C20.7034 11.8546 20.6648 11.7684 20.5989 11.7057C20.3918 11.4794 20.176 11.2608 19.9563 11.0482C19.6489 10.7475 19.3263 10.4615 19.0249 10.1542C18.5774 9.69506 18.2859 9.14996 18.2519 8.50131C18.2289 8.06303 18.2519 7.62476 18.2591 7.19086C18.2634 6.82216 18.2837 6.45292 18.2706 6.08531C18.2601 5.80262 18.1555 5.70839 17.8778 5.68374C17.6805 5.66667 17.4824 5.66081 17.2844 5.66621C16.7519 5.68045 16.2194 5.72099 15.6875 5.71771C14.9741 5.72124 14.2885 5.44167 13.781 4.94032C13.5739 4.74254 13.3865 4.52395 13.1877 4.31742C12.8803 3.99802 12.5812 3.66931 12.2563 3.36745C12.0722 3.19543 11.9358 3.2031 11.7452 3.36745C11.5041 3.57728 11.2823 3.81121 11.0565 4.03856C10.7059 4.39247 10.3712 4.76391 10.0063 5.10248C9.62284 5.45858 9.16319 5.69415 8.63233 5.72373C8.15625 5.75058 7.67799 5.73962 7.20081 5.73907C6.83211 5.73907 6.46342 5.71442 6.09581 5.72757C5.80381 5.73798 5.71232 5.84316 5.68712 6.13517C5.67106 6.3325 5.66594 6.53058 5.67178 6.72848C5.68602 7.24072 5.72328 7.75295 5.72656 8.26245C5.73303 8.63286 5.66316 9.00063 5.52131 9.34286C5.37946 9.68509 5.16867 9.99445 4.90206 10.2517C4.74209 10.4106 4.57664 10.5639 4.41448 10.7201C4.07481 11.0488 3.72364 11.3622 3.40096 11.7062C3.19607 11.9253 3.20977 12.0503 3.39439 12.2853C3.50488 12.4243 3.62439 12.5559 3.75213 12.6792C4.08084 12.9997 4.41448 13.3119 4.74154 13.6319C5.26254 14.1408 5.66466 14.7188 5.70629 15.4743C5.72602 15.8857 5.70739 16.296 5.70739 16.7058Z" fill="#FC68A2"></path>
<path d="M13.7461 9.09375L14.9168 10.2656L10.2431 14.9404L9.07349 13.768L13.7461 9.09375Z" fill="#FC68A2"></path>
<path d="M8.50565 9.81009C8.50446 9.63751 8.53773 9.46642 8.6035 9.30685C8.66927 9.14729 8.76621 9.00244 8.88866 8.88081C9.0111 8.75918 9.15659 8.66321 9.31659 8.59851C9.47659 8.53381 9.6479 8.50169 9.82047 8.50403C10.1656 8.50474 10.4965 8.64163 10.7413 8.88496C10.986 9.12829 11.1249 9.45839 11.1276 9.80352C11.1269 10.152 10.989 10.4862 10.7438 10.7338C10.4985 10.9815 10.1657 11.1225 9.81718 11.1266C9.64451 11.1266 9.47353 11.0926 9.31405 11.0264C9.15457 10.9602 9.00975 10.8632 8.88788 10.7408C8.76601 10.6185 8.66951 10.4733 8.60392 10.3136C8.53832 10.1539 8.50492 9.98276 8.50565 9.81009Z" fill="#FC68A2"></path>
<path d="M15.495 14.1917C15.4956 14.364 15.4619 14.5348 15.3959 14.6939C15.3299 14.8531 15.2329 14.9976 15.1105 15.1189C14.9882 15.2403 14.8429 15.336 14.6832 15.4007C14.5235 15.4654 14.3525 15.4976 14.1802 15.4956C13.8354 15.4929 13.5055 15.3549 13.2616 15.1113C13.0176 14.8677 12.879 14.5381 12.8757 14.1934C12.877 13.8445 13.0158 13.5103 13.2619 13.2631C13.5081 13.0159 13.8417 12.8758 14.1906 12.873C14.3628 12.8738 14.5333 12.9086 14.6921 12.9753C14.8509 13.042 14.9951 13.1394 15.1162 13.2619C15.2374 13.3844 15.3332 13.5295 15.3982 13.6891C15.4632 13.8486 15.4961 14.0194 15.495 14.1917Z" fill="#FC68A2"></path>
</svg>