<?xml version="1.0" encoding="UTF-8"?>
<svg width="18px" height="18px" viewBox="0 0 18 18" version="1.1" xmlns="http://www.w3.org/2000/svg" xmlns:xlink="http://www.w3.org/1999/xlink">
    <!-- Generator: sketchtool 60 (101010) - https://sketch.com -->
    <title>D2D88D3B-EB7C-48CD-8BED-54FF82BC7DA4@1x</title>
    <desc>Created with sketchtool.</desc>
    <g id="Page-1" stroke="none" stroke-width="1" fill="none" fill-rule="evenodd">
        <g id="Gomble-Brand-Design-System" transform="translate(-759.000000, -10723.000000)">
            <g id="Group" transform="translate(756.000000, 10720.000000)">
                <polygon id="Path" points="0 0 24 0 24 24 0 24"></polygon>
                <path d="M15.728,9.686 L14.314,8.272 L5,17.586 L5,19 L6.414,19 L15.728,9.686 Z M17.142,8.272 L18.556,6.858 L17.142,5.444 L15.728,6.858 L17.142,8.272 Z M7.242,21 L3,21 L3,16.757 L16.435,3.322 C16.8254999,2.93161806 17.4585001,2.93161806 17.849,3.322 L20.678,6.151 C21.0683819,6.54149985 21.0683819,7.17450015 20.678,7.565 L7.243,21 L7.242,21 Z" id="Shape" fill="#FC68A2" fill-rule="nonzero"></path>
            </g>
        </g>
    </g>
</svg>