<?xml version="1.0" encoding="UTF-8"?>
<svg width="12px" height="12px" viewBox="0 0 12 12" version="1.1" xmlns="http://www.w3.org/2000/svg" xmlns:xlink="http://www.w3.org/1999/xlink">
    <!-- Generator: sketchtool 60 (101010) - https://sketch.com -->
    <title>BA6ED9B9-53FB-477C-BFE3-84D314F5E3DA@1x</title>
    <desc>Created with sketchtool.</desc>
    <g id="Page-1" stroke="none" stroke-width="1" fill="none" fill-rule="evenodd">
        <g id="12.0---settings" transform="translate(-1299.000000, -307.000000)" fill="#050D33" fill-rule="nonzero">
            <g id="Group-4-Copy-2" transform="translate(300.000000, 264.000000)">
                <g id="Group-8" transform="translate(970.000000, 30.000000)">
                    <g id="Group-9">
                        <path d="M29.7369678,25 C29.5425808,25 29.355557,24.9240618 29.2156573,24.786789 C29.046305,24.6188488 28.9697283,24.3778911 29.0109619,24.1442352 L29.5322724,21.2176947 C29.5587797,21.0701994 29.6294659,20.9343869 29.7369678,20.8277814 L37.0264797,13.5990512 C37.9218379,12.7096983 38.8009972,12.9491956 39.2825468,13.4267299 L40.4974655,14.6315183 C41.1675115,15.2959773 41.1675115,16.376636 40.4974655,17.041095 L33.2079536,24.2698252 C33.1019243,24.3764307 32.9649698,24.4465275 32.8147617,24.4728138 L29.8650865,24.9897776 C29.8223803,24.995619 29.779674,25 29.7369678,25 L29.7369678,25 Z" id="Edit-Icon"></path>
                    </g>
                </g>
            </g>
        </g>
    </g>
</svg>