<svg xmlns="http://www.w3.org/2000/svg" width="81" height="60" viewBox="0 0 81 60">
    <g fill="none" fill-rule="evenodd">
        <g>
            <g>
                <path d="M69.187 11.329L67.059 9.021 64.708 11.368 69.138 15.791 76.627 8.318 74.917 6.581zM64.708 11.368L64.708 11.368 64.707 11.367z" transform="translate(-550 -6052) translate(550 6052)"/>
                <path fill="#F79E1B" d="M59.79 22.39l-.565.505-7.491 6.79c-.202.182-.4.372-.644.602 1.864 1.862 3.708 3.686 5.537 5.514 3.45 3.422 6.887 6.855 10.315 10.3 1.424 1.432.884 3.615-.995 4.124-.971.26-1.769-.068-2.463-.763L53.226 39.224c-1.888-1.883-3.769-3.77-5.695-5.701-.24.22-.456.398-.65.58-2.123 1.935-4.25 3.864-6.381 5.788-1.177 1.06-2.398 1.07-3.57.015l-6.156-5.578c-.277-.25-.556-.491-.98-.876-.151.248-.322.485-.51.707-5.108 5.117-10.224 10.222-15.346 15.316-1.446 1.437-3.615.994-4.175-.85-.317-1.017.031-1.852.773-2.59L22.85 33.771c1.13-1.14 2.28-2.266 3.48-3.458l-6.29-5.71c-3.163-2.877-6.334-5.752-9.51-8.623-.72-.675-1.037-1.486-.801-2.451.19-.857.853-1.531 1.709-1.737.938-.262 1.72.043 2.42.68 4.44 4.025 8.877 8.043 13.314 12.056L38.696 34.98c.216-.188.424-.36.617-.538l17.403-15.79c-3.059-5.14-2.967-11.558.237-16.609-15.802-.008-31.605-.008-47.407 0C4.914 2.053.949 5.451.149 9.998c-.04.167-.09.332-.149.493v41.052c.123.483.234.968.373 1.435 1.21 4.194 4.949 7.005 9.4 7.005 18.109.016 36.216.016 54.323 0 1.906 0 3.857.085 5.713-.266 3.966-.746 6.758-3.827 7.476-7.834.033-.118.077-.231.132-.34v-26.67c-5.835 2.83-12.806 1.848-17.627-2.484z" transform="translate(-550 -6052) translate(550 6052)"/>
                <path fill="#00D498" fill-rule="nonzero" d="M70.451.008c-5.826 0-10.549 4.713-10.549 10.528 0 5.814 4.722 10.528 10.548 10.529 5.826 0 10.55-4.713 10.55-10.527C80.994 4.725 76.275.015 70.451.008zm-1.316 15.781l-4.43-4.42 2.351-2.348 2.128 2.308 5.73-4.748 1.712 1.737-7.491 7.471z" transform="translate(-550 -6052) translate(550 6052)"/>
            </g>
        </g>
    </g>
</svg>
