<svg width="230" height="344" viewBox="0 0 230 344" fill="none" xmlns="http://www.w3.org/2000/svg">
<path d="M193.816 177.969C119.724 177.551 185.829 216.236 113.657 219.777C1.86989 225.259 9.62961 143.604 44.2651 131.909C102.681 112.185 46.5705 94.8199 91.1563 72.8841C156.409 40.7805 238.797 178.222 193.816 177.969Z" fill="#F8EEF8"/>
<path d="M158.059 170.711C173.699 170.711 186.379 157.564 186.379 141.346C186.379 125.128 173.699 111.98 158.059 111.98C142.418 111.98 129.738 125.128 129.738 141.346C129.738 157.564 142.418 170.711 158.059 170.711Z" fill="white"/>
<path d="M163.556 152.537L157.953 145.113L152.207 152.537C151.376 153.575 150.675 154.315 150.1 154.757C149.523 155.199 148.792 155.42 147.906 155.42C146.925 155.42 146.089 155.144 145.401 154.591C144.711 154.038 144.367 153.405 144.367 152.69C144.367 151.959 144.894 150.913 145.951 149.552L152.943 140.521L146.745 132.995C145.671 131.753 145.132 130.673 145.132 129.755C145.132 129.04 145.453 128.42 146.095 127.892C146.736 127.365 147.575 127.102 148.613 127.102C149.517 127.102 150.268 127.331 150.863 127.79C151.456 128.25 152.149 128.973 152.943 129.959L157.953 136.133L162.82 129.959C163.63 128.938 164.334 128.207 164.927 127.765C165.524 127.323 166.262 127.102 167.15 127.102C168.17 127.102 169.011 127.361 169.682 127.88C170.353 128.398 170.688 129.024 170.688 129.755C170.688 130.282 170.551 130.788 170.277 131.273C170.003 131.757 169.585 132.331 169.019 132.995L162.82 140.521L169.811 149.552C170.905 150.964 171.453 152.027 171.453 152.741C171.453 153.473 171.111 154.102 170.433 154.629C169.755 155.157 168.916 155.42 167.915 155.42C167.027 155.42 166.277 155.19 165.663 154.731C165.05 154.272 164.349 153.541 163.556 152.537Z" fill="#EF798A"/>
<path fill-rule="evenodd" clip-rule="evenodd" d="M26.6172 166.309C26.6172 161.165 30.6392 156.994 35.6007 156.994H116.494C121.455 156.994 125.477 161.165 125.477 166.309V212.685C125.477 217.829 121.455 222 116.494 222H35.6007C30.6392 222 26.6172 217.829 26.6172 212.685V166.309Z" fill="url(#paint0_linear_5140_68319)"/>
<path d="M108.884 191.49C115.543 191.49 120.94 185.893 120.94 178.989C120.94 172.085 115.543 166.488 108.884 166.488C102.226 166.488 96.8281 172.085 96.8281 178.989C96.8281 185.893 102.226 191.49 108.884 191.49Z" fill="white"/>
<path d="M95.7635 193.837C100.424 193.837 104.203 189.92 104.203 185.087C104.203 180.254 100.424 176.336 95.7635 176.336C91.1026 176.336 87.3242 180.254 87.3242 185.087C87.3242 189.92 91.1026 193.837 95.7635 193.837Z" fill="#FFBEC8"/>
<path d="M43.4414 204.469H98.8997" stroke="white" stroke-width="2.66624" stroke-linecap="round" stroke-dasharray="5.33 5.33"/>
<path fill-rule="evenodd" clip-rule="evenodd" d="M39.0508 177.116C39.0508 174.354 41.2098 172.115 43.8732 172.115H51.1069C53.7702 172.115 55.9293 174.354 55.9293 177.116C55.9293 179.877 53.7702 182.116 51.1069 182.116H43.8732C41.2098 182.116 39.0508 179.877 39.0508 177.116Z" fill="#FBC408"/>
<path d="M89.5573 120.249C96.755 127.712 96.0185 140.831 87.5977 149.563C79.1769 158.294 66.5246 159.058 59.327 151.595C52.1293 144.131 52.8658 131.012 61.2866 122.281C69.7074 113.549 82.3595 112.786 89.5573 120.249Z" fill="#FFD029" stroke="white" stroke-width="0.877473"/>
<path d="M68.0375 126.614C67.7371 125.051 69.5416 124.002 70.671 125.084L74.2093 128.473C74.7143 128.957 75.4624 129.049 76.0622 128.7L80.2642 126.258C81.6055 125.479 83.1248 126.934 82.4817 128.382L80.4664 132.919C80.1786 133.566 80.3259 134.332 80.8309 134.816L84.3692 138.205C85.4986 139.287 84.6331 141.235 83.1062 141.048L78.3223 140.463C77.6396 140.379 76.9825 140.761 76.6949 141.409L74.6794 145.945C74.0363 147.393 71.9819 147.142 71.6815 145.578L70.7402 140.68C70.6059 139.981 70.0526 139.451 69.3698 139.367L64.5859 138.782C63.059 138.595 62.6549 136.491 63.9961 135.712L68.1981 133.27C68.798 132.921 69.1131 132.212 68.9787 131.513L68.0375 126.614Z" fill="white"/>
<path d="M72.7093 153.159C72.273 153.159 71.9191 152.794 71.9174 152.341C71.9158 151.888 72.269 151.519 72.706 151.517C73.2009 151.515 73.7028 151.488 74.1977 151.437C74.6348 151.395 75.0212 151.721 75.0648 152.172C75.1084 152.623 74.7907 153.025 74.3554 153.07C73.8097 153.127 73.2571 153.157 72.7124 153.159H72.7093ZM68.0734 152.424C67.9927 152.424 67.9102 152.41 67.8296 152.383C67.3021 152.205 66.7812 151.996 66.2824 151.759C65.8848 151.571 65.7092 151.084 65.8913 150.671C66.0726 150.258 66.5421 150.076 66.9404 150.266C67.3846 150.476 67.8476 150.662 68.3181 150.821C68.7337 150.961 68.9618 151.424 68.8263 151.855C68.7178 152.202 68.4074 152.424 68.0734 152.424ZM78.8399 151.926C78.5225 151.926 78.2239 151.727 78.1019 151.403C77.9428 150.981 78.1439 150.504 78.5518 150.34C79.0124 150.153 79.4749 149.942 79.9255 149.711C80.3182 149.511 80.7924 149.678 80.9856 150.084C81.1787 150.491 81.0181 150.983 80.6262 151.184C80.1344 151.435 79.6301 151.666 79.1273 151.869C79.0323 151.907 78.9349 151.926 78.8399 151.926ZM62.748 149.065C62.5586 149.065 62.3703 148.993 62.2206 148.848C62.2009 148.829 62.1652 148.792 62.1477 148.771C61.7962 148.409 61.4296 147.982 61.0947 147.542C60.8239 147.186 60.8832 146.669 61.2261 146.388C61.5698 146.108 62.067 146.168 62.3378 146.525C62.6348 146.915 62.9592 147.294 63.3029 147.649C63.6086 147.966 63.6212 148.487 63.3219 148.81C63.1636 148.979 62.9562 149.065 62.748 149.065ZM84.1962 148.584C83.9721 148.584 83.7496 148.486 83.5937 148.296C83.3094 147.951 83.349 147.433 83.6816 147.139C84.0584 146.805 84.4274 146.452 84.7782 146.088C85.0877 145.768 85.5938 145.763 85.9033 146.083C86.212 146.403 86.2169 146.918 85.908 147.239L85.8978 147.249C85.5177 147.644 85.1179 148.026 84.7101 148.388C84.5605 148.52 84.3776 148.584 84.1962 148.584ZM88.2421 143.643C88.1028 143.643 87.9627 143.606 87.8351 143.526C87.4598 143.292 87.3388 142.788 87.5644 142.399C87.8225 141.953 88.0649 141.493 88.2834 141.031C88.4765 140.626 88.9508 140.458 89.3436 140.657C89.7363 140.857 89.8978 141.35 89.7046 141.756C89.4662 142.259 89.2025 142.76 88.9215 143.246C88.7726 143.502 88.5105 143.643 88.2421 143.643ZM59.5064 143.571C59.1738 143.571 58.8634 143.352 58.7542 143.006C58.584 142.466 58.4398 141.908 58.3259 141.347C58.2356 140.903 58.5104 140.468 58.9379 140.375C59.3686 140.284 59.7859 140.566 59.8754 141.009C59.9776 141.512 60.1066 142.012 60.2594 142.494C60.3956 142.925 60.1691 143.388 59.7535 143.53C59.6719 143.558 59.588 143.571 59.5064 143.571ZM90.4996 137.605C90.4496 137.605 90.3983 137.6 90.3474 137.589C89.9184 137.503 89.6381 137.072 89.722 136.627C89.8179 136.117 89.8907 135.601 89.939 135.093C89.9825 134.643 90.3697 134.312 90.8052 134.357C91.2399 134.402 91.5582 134.803 91.5153 135.255C91.4616 135.814 91.3815 136.381 91.2762 136.941C91.2026 137.333 90.8709 137.605 90.4996 137.605ZM58.8587 137.142C58.8334 137.142 58.8081 137.141 58.7819 137.137C58.3465 137.094 58.0282 136.693 58.0701 136.241C58.1224 135.682 58.2023 135.115 58.3069 134.555C58.3901 134.11 58.8048 133.819 59.2348 133.904C59.664 133.991 59.945 134.422 59.8618 134.867C59.7661 135.376 59.694 135.892 59.6466 136.4C59.607 136.825 59.2617 137.142 58.8587 137.142ZM90.4909 131.137C90.1235 131.137 89.794 130.87 89.7164 130.483C89.616 129.981 89.4876 129.482 89.3356 128.998C89.1995 128.567 89.4266 128.104 89.8425 127.963C90.2605 127.822 90.7054 128.059 90.8409 128.489C91.0111 129.029 91.1543 129.588 91.2668 130.148C91.3554 130.593 91.0807 131.027 90.6524 131.12C90.5978 131.131 90.5439 131.137 90.4909 131.137ZM60.5824 130.918C60.4652 130.918 60.3466 130.891 60.2341 130.835C59.8414 130.635 59.679 130.144 59.8721 129.736C60.1105 129.231 60.3733 128.73 60.6537 128.246C60.8778 127.856 61.3647 127.732 61.74 127.965C62.1146 128.198 62.2365 128.701 62.0108 129.091C61.7543 129.534 61.5128 129.995 61.2941 130.459C61.1565 130.749 60.8754 130.918 60.5824 130.918ZM64.2293 125.63C64.0282 125.63 63.828 125.553 63.6759 125.396C63.3671 125.075 63.3535 124.57 63.6632 124.249L64.223 124.829L63.6775 124.233C64.0655 123.832 64.459 123.454 64.8597 123.099C65.1914 122.805 65.6909 122.845 65.9753 123.189C66.2601 123.534 66.2207 124.052 65.8881 124.347C65.5191 124.674 65.1565 125.022 64.8097 125.382C64.6513 125.546 64.4399 125.63 64.2293 125.63ZM87.8867 125.277C87.6523 125.277 87.4204 125.17 87.2636 124.964C86.9619 124.566 86.6325 124.181 86.2849 123.82C85.9754 123.499 85.9588 122.962 86.2675 122.641C86.577 122.321 87.0608 122.303 87.3705 122.624L86.8107 123.205L87.3942 122.65C87.7964 123.066 88.1678 123.499 88.5091 123.949C88.7789 124.305 88.7196 124.821 88.376 125.102C88.2311 125.22 88.0578 125.277 87.8867 125.277ZM69.2912 121.855C68.9998 121.855 68.7194 121.687 68.5809 121.398C68.387 120.992 68.5469 120.499 68.9388 120.298C69.4265 120.048 69.9309 119.816 70.4368 119.61C70.8438 119.443 71.303 119.652 71.4629 120.074C71.623 120.497 71.4226 120.973 71.0149 121.138C70.5517 121.328 70.0892 121.54 69.6419 121.769C69.5294 121.828 69.4091 121.855 69.2912 121.855ZM82.954 121.269C82.8438 121.269 82.733 121.246 82.627 121.196C82.1811 120.985 81.7172 120.799 81.2477 120.643C80.832 120.504 80.6032 120.04 80.7378 119.609C80.8716 119.178 81.3182 118.942 81.7346 119.081C82.2603 119.256 82.7805 119.465 83.281 119.7C83.6793 119.888 83.8558 120.374 83.6753 120.787C83.5422 121.091 83.2548 121.269 82.954 121.269ZM75.2865 120.04C74.885 120.04 74.5413 119.724 74.4994 119.302C74.455 118.851 74.7717 118.448 75.2064 118.402C75.7521 118.344 76.3054 118.313 76.8501 118.311H76.8541C77.2897 118.311 77.6443 118.675 77.646 119.127C77.6483 119.581 77.296 119.95 76.8588 119.953C76.364 119.955 75.862 119.983 75.3672 120.035C75.3402 120.039 75.3133 120.04 75.2865 120.04Z" fill="#FF9029"/>
<path d="M88.5846 150.087C80.5774 158.39 68.7222 159.785 60.9922 153.735C61.4664 154.386 61.9819 155.012 62.5511 155.602C70.126 163.457 83.2862 162.547 91.9441 153.571C100.601 144.593 101.479 130.947 93.9038 123.093C93.3344 122.503 92.7303 121.968 92.1025 121.477C97.9378 129.492 96.5919 141.785 88.5846 150.087Z" fill="#FF9029"/>
<path fill-rule="evenodd" clip-rule="evenodd" d="M98.5445 132.727C98.6981 133.589 98.7923 134.467 98.8375 135.353L95.4788 131.87C95.4337 130.971 95.3126 130.087 95.155 129.213L98.5445 132.727ZM95.0895 137.27L98.4561 140.761C98.5843 140.09 98.6833 139.417 98.7514 138.746L95.3809 135.251C95.3134 135.924 95.2185 136.597 95.0895 137.27ZM96.8165 146.027L93.4434 142.53C93.6818 141.988 93.9027 141.441 94.0991 140.888L97.4673 144.381C97.2701 144.934 97.0547 145.483 96.8165 146.027ZM91.43 146.247L94.7991 149.74C95.1046 149.272 95.3945 148.797 95.666 148.317L92.3041 144.831C92.0334 145.312 91.7364 145.781 91.43 146.247ZM92.3058 152.961L88.9359 149.466C89.3002 149.064 89.6589 148.659 89.9937 148.242L93.3581 151.73C93.0231 152.149 92.6707 152.558 92.3058 152.961ZM89.3774 155.731L86.006 152.235C86.4226 151.9 86.8328 151.553 87.2341 151.187L90.6 154.677C90.2001 155.043 89.7931 155.397 89.3774 155.731ZM82.6208 154.529L85.9906 158.023C86.4681 157.756 86.9417 157.475 87.4072 157.17L84.0351 153.674C83.5695 153.978 83.0983 154.262 82.6208 154.529ZM82.0815 159.775L78.7126 156.282C79.2628 156.096 79.809 155.891 80.3507 155.659L83.7189 159.151C83.1774 159.383 82.6302 159.588 82.0815 159.775ZM73.0678 157.396L76.4399 160.893C77.1137 160.854 77.7907 160.781 78.4677 160.674L75.0939 157.176C74.4169 157.282 73.7415 157.358 73.0678 157.396ZM70.2207 160.247L66.8398 156.742C67.7431 156.995 68.6665 157.173 69.6046 157.287L72.9838 160.792C72.0464 160.68 71.1232 160.498 70.2207 160.247Z" fill="#FFD029"/>
<path d="M133.902 99.4022C130.44 105.849 121.79 107.846 114.516 103.645C107.242 99.4436 104.326 90.7678 107.789 84.3207C111.252 77.8739 119.901 75.8773 127.175 80.0783C134.449 84.2793 137.365 92.9553 133.902 99.4022Z" fill="#FFD029" stroke="white" stroke-width="0.613494"/>
<path d="M125.124 85.6155C126.08 85.1069 127.105 86.1645 126.62 87.1588L125.099 90.2745C124.882 90.7194 124.966 91.2584 125.306 91.61L127.694 94.0729C128.456 94.8589 127.803 96.1968 126.741 96.0254L123.413 95.4883C122.938 95.4116 122.47 95.6606 122.252 96.1055L120.731 99.2212C120.246 100.216 118.817 99.9849 118.646 98.8845L118.11 95.4367C118.034 94.9446 117.66 94.5596 117.185 94.4829L113.858 93.9457C112.795 93.7741 112.565 92.2936 113.522 91.785L116.519 90.1914C116.946 89.964 117.184 89.4767 117.108 88.9846L116.572 85.5369C116.401 84.4364 117.688 83.7521 118.45 84.5381L120.838 87.0009C121.179 87.3526 121.699 87.4366 122.127 87.2091L125.124 85.6155Z" fill="white"/>
<path d="M108.962 93.5849C108.879 93.2807 109.048 92.9641 109.341 92.8763C109.635 92.7886 109.942 92.9641 110.026 93.2685C110.122 93.6132 110.236 93.9581 110.364 94.2933C110.475 94.59 110.337 94.9217 110.053 95.0386C109.769 95.1552 109.447 95.0108 109.335 94.7158C109.193 94.3461 109.068 93.9667 108.963 93.5871L108.962 93.5849ZM108.552 90.2117C108.537 90.1554 108.529 90.0954 108.532 90.0339C108.546 89.6322 108.582 89.2288 108.64 88.8357C108.686 88.5227 108.968 88.307 109.271 88.3548C109.573 88.4023 109.781 88.6948 109.735 89.0088C109.683 89.3588 109.651 89.7173 109.638 90.0755C109.627 90.3923 109.37 90.6399 109.065 90.6281C108.819 90.6187 108.616 90.4446 108.552 90.2117ZM110.935 97.6239C110.874 97.4024 110.946 97.1563 111.133 97.0091C111.376 96.8174 111.724 96.8664 111.908 97.1194C112.117 97.405 112.343 97.6869 112.579 97.9569C112.784 98.1925 112.766 98.5552 112.54 98.7675C112.313 98.98 111.963 98.962 111.758 98.7274C111.501 98.4326 111.255 98.125 111.027 97.8133C110.984 97.7544 110.953 97.6901 110.935 97.6239ZM109.711 85.8556C109.675 85.7238 109.685 85.5786 109.751 85.4466C109.76 85.4291 109.777 85.397 109.787 85.3809C109.955 85.0666 110.161 84.7292 110.383 84.4115C110.562 84.1546 110.908 84.0972 111.156 84.2825C111.403 84.4685 111.46 84.8267 111.28 85.0837C111.084 85.3655 110.9 85.6643 110.736 85.9719C110.588 86.2457 110.253 86.3541 109.987 86.2071C109.847 86.129 109.751 86.0009 109.711 85.8556ZM114.127 100.719C114.084 100.563 114.105 100.389 114.198 100.244C114.368 99.9798 114.711 99.9084 114.966 100.084C115.254 100.283 115.554 100.472 115.857 100.647C116.124 100.802 116.224 101.154 116.076 101.431C115.927 101.707 115.594 101.809 115.327 101.656L115.319 101.65C114.99 101.461 114.665 101.255 114.353 101.04C114.238 100.961 114.161 100.846 114.127 100.719ZM118.106 102.595C118.079 102.498 118.076 102.393 118.104 102.289C118.183 101.982 118.487 101.801 118.783 101.884C119.122 101.979 119.466 102.06 119.807 102.124C120.107 102.181 120.307 102.48 120.253 102.792C120.198 103.104 119.91 103.311 119.609 103.254C119.238 103.184 118.862 103.096 118.493 102.993C118.299 102.938 118.157 102.782 118.106 102.595ZM112.654 82.5441C112.591 82.3123 112.673 82.0539 112.877 81.9117C113.194 81.6895 113.528 81.4824 113.87 81.2956C114.141 81.1477 114.476 81.2561 114.618 81.5364C114.76 81.8191 114.656 82.1641 114.386 82.3114C114.08 82.4787 113.78 82.6643 113.497 82.8631C113.243 83.0405 112.9 82.9713 112.728 82.7086C112.694 82.657 112.67 82.6011 112.654 82.5441ZM122.454 103.014C122.444 102.979 122.438 102.942 122.435 102.905C122.409 102.589 122.634 102.311 122.939 102.284C123.288 102.254 123.636 102.206 123.975 102.142C124.276 102.086 124.564 102.293 124.619 102.605C124.673 102.917 124.473 103.216 124.172 103.272C123.799 103.342 123.416 103.395 123.033 103.428C122.765 103.452 122.525 103.273 122.454 103.014ZM116.7 80.8624C116.695 80.8448 116.691 80.8269 116.688 80.808C116.633 80.4961 116.832 80.1974 117.133 80.1402C117.506 80.0696 117.889 80.0169 118.272 79.9826C118.576 79.9554 118.844 80.1891 118.871 80.5053C118.897 80.8209 118.672 81.0995 118.367 81.1266C118.018 81.1574 117.67 81.2058 117.331 81.2699C117.048 81.3236 116.777 81.1433 116.7 80.8624ZM126.647 101.77C126.576 101.514 126.686 101.233 126.923 101.105C127.229 100.939 127.528 100.754 127.813 100.555C128.066 100.378 128.41 100.448 128.581 100.71C128.752 100.975 128.684 101.331 128.431 101.507C128.113 101.729 127.778 101.936 127.436 102.122C127.165 102.269 126.831 102.16 126.689 101.879C126.671 101.843 126.657 101.807 126.647 101.77ZM121.066 80.8737C121.043 80.7919 121.038 80.7039 121.053 80.6146C121.107 80.3026 121.395 80.0953 121.696 80.1522C122.069 80.2217 122.445 80.309 122.812 80.4119C123.108 80.4935 123.282 80.8091 123.203 81.1156C123.123 81.4213 122.82 81.6026 122.524 81.5199C122.188 81.4258 121.843 81.3455 121.5 81.2819C121.285 81.2414 121.122 81.0779 121.066 80.8737ZM125.193 82.4046C125.155 82.2643 125.167 82.1098 125.239 81.9738C125.388 81.6973 125.713 81.591 125.981 81.7455L125.711 82.2469L125.993 81.7525C126.328 81.9462 126.648 82.1484 126.955 82.3598C127.21 82.5347 127.279 82.8909 127.11 83.1548C126.941 83.4196 126.598 83.491 126.343 83.3157C126.06 83.121 125.765 82.9348 125.465 82.7617C125.328 82.6827 125.234 82.5514 125.193 82.4046ZM129.948 98.833C129.904 98.6696 129.929 98.4871 130.033 98.3384C130.233 98.052 130.42 97.7486 130.587 97.4373C130.736 97.1601 131.081 97.0457 131.348 97.1996C131.615 97.3542 131.719 97.688 131.57 97.9654L131.087 97.6861L131.558 97.9868C131.366 98.3469 131.156 98.6887 130.929 99.0128C130.75 99.2692 130.404 99.3264 130.156 99.1405C130.052 99.0622 129.981 98.9522 129.948 98.833ZM128.61 85.2118C128.554 85.0086 128.609 84.7812 128.77 84.6292C128.997 84.4162 129.347 84.4334 129.552 84.6682C129.808 84.9604 130.055 85.2678 130.285 85.581C130.471 85.8329 130.424 86.1932 130.18 86.3854C129.937 86.5778 129.59 86.5293 129.405 86.2764C129.193 85.9899 128.967 85.708 128.733 85.44C128.673 85.3727 128.633 85.2939 128.61 85.2118ZM131.604 94.6265C131.583 94.5498 131.577 94.468 131.589 94.3844C131.64 94.0333 131.672 93.6742 131.684 93.3169C131.695 93.0003 131.951 92.7522 132.256 92.7636C132.562 92.7745 132.8 93.0406 132.79 93.3576C132.777 93.7578 132.741 94.1603 132.684 94.5543C132.639 94.8679 132.357 95.0841 132.054 95.0372C131.832 95.0027 131.662 94.8364 131.604 94.6265ZM130.934 89.0448C130.858 88.765 130.996 88.4649 131.262 88.355C131.546 88.2376 131.868 88.3813 131.981 88.6757C132.123 89.045 132.249 89.425 132.355 89.8044L132.356 89.8072C132.439 90.1108 132.271 90.4278 131.977 90.5155C131.684 90.6039 131.377 90.4289 131.292 90.1247C131.195 89.78 131.081 89.4353 130.953 89.1003C130.945 89.0821 130.94 89.0636 130.934 89.0448Z" fill="#FF9029"/>
<path d="M114.228 104.147C107.312 100.153 104.138 92.1532 106.583 85.6055C106.252 86.0608 105.944 86.54 105.67 87.0499C102.026 93.8346 105.134 102.837 112.612 107.156C120.091 111.475 129.108 109.476 132.753 102.691C133.027 102.181 133.258 101.658 133.457 101.126C129.375 106.728 121.145 108.142 114.228 104.147Z" fill="#FF9029"/>
<path fill-rule="evenodd" clip-rule="evenodd" d="M127.412 108.042C126.882 108.314 126.331 108.547 125.765 108.748L127.381 105.74C127.956 105.536 128.506 105.283 129.043 105.006L127.412 108.042ZM123.804 106.502L122.184 109.517C122.645 109.478 123.1 109.418 123.548 109.337L125.17 106.318C124.72 106.4 124.266 106.463 123.804 106.502ZM118.456 109.381L120.078 106.36C120.476 106.422 120.873 106.472 121.268 106.503L119.648 109.52C119.251 109.488 118.854 109.443 118.456 109.381ZM117.282 105.668L115.661 108.686C116.024 108.809 116.387 108.92 116.75 109.018L118.368 106.007C118.004 105.91 117.643 105.793 117.282 105.668ZM113.096 107.564L114.717 104.545C115.048 104.723 115.379 104.895 115.714 105.049L114.095 108.062C113.76 107.909 113.427 107.741 113.096 107.564ZM110.739 106.051L112.361 103.032C112.658 103.258 112.961 103.478 113.276 103.688L111.657 106.702C111.342 106.494 111.035 106.277 110.739 106.051ZM110.225 101.11L108.604 104.129C108.869 104.41 109.142 104.687 109.429 104.953L111.051 101.933C110.764 101.666 110.49 101.392 110.225 101.11ZM106.72 101.738L108.341 98.7201C108.567 99.0682 108.805 99.4097 109.058 99.7432L107.438 102.76C107.184 102.427 106.946 102.085 106.72 101.738ZM106.538 94.9981L104.916 98.0185C105.07 98.4808 105.247 98.9388 105.446 99.3904L107.069 96.3687C106.871 95.9169 106.692 95.4606 106.538 94.9981ZM104.145 93.5576L105.771 90.5293C105.78 91.2076 105.841 91.8856 105.947 92.5615L104.32 95.5885C104.213 94.9133 104.154 94.235 104.145 93.5576Z" fill="#FFD029"/>
<path d="M40.2117 107.418C34.8317 102.587 34.7112 93.4005 40.1616 86.8739C45.612 80.3471 54.3983 79.1572 59.7783 83.9878C65.1585 88.8185 65.2788 98.0054 59.8284 104.532C54.378 111.059 45.5919 112.249 40.2117 107.418Z" fill="#FFD029" stroke="white" stroke-width="0.613494"/>
<path d="M55.0759 101.598C55.361 102.673 54.1533 103.498 53.3135 102.802L50.6822 100.622C50.3067 100.311 49.7806 100.286 49.3792 100.56L46.5667 102.482C45.6692 103.095 44.5391 102.159 44.9177 101.116L46.1038 97.8473C46.2733 97.3807 46.1335 96.8542 45.758 96.5431L43.1267 94.3633C42.2869 93.6677 42.7962 92.2641 43.8701 92.3151L47.2345 92.4747C47.7147 92.4976 48.1544 92.1971 48.3237 91.7307L49.5098 88.4621C49.8886 87.419 51.3334 87.4877 51.6184 88.5623L52.5115 91.9295C52.6389 92.4102 53.0504 92.7509 53.5306 92.7736L56.8949 92.9334C57.9688 92.9844 58.3522 94.4304 57.4547 95.0437L54.6424 96.9649C54.2408 97.2391 54.0555 97.7501 54.1828 98.2308L55.0759 101.598Z" fill="white"/>
<path d="M50.57 83.4976C50.8742 83.4749 51.1386 83.7114 51.1616 84.0267C51.1846 84.3427 50.9561 84.6187 50.6516 84.6426C50.3065 84.6694 49.9577 84.7144 49.6152 84.7761C49.3124 84.828 49.0272 84.6208 48.9751 84.3082C48.9228 83.9961 49.1248 83.6992 49.4263 83.645C49.804 83.5771 50.188 83.5272 50.5678 83.4978L50.57 83.4976ZM53.8383 83.7697C53.8946 83.7656 53.9526 83.7705 54.0103 83.7851C54.3867 83.8821 54.76 84.001 55.1194 84.1399C55.4058 84.2504 55.5517 84.5807 55.4448 84.8781C55.3383 85.1756 55.0196 85.3271 54.7327 85.2155C54.4128 85.0919 54.0809 84.9862 53.7452 84.9001C53.4485 84.8237 53.2671 84.5126 53.3407 84.205C53.3995 83.9578 53.6054 83.7872 53.8383 83.7697ZM46.3542 84.6761C46.5756 84.6596 46.7934 84.7827 46.8941 85.0025C47.0255 85.2885 46.9083 85.6317 46.6319 85.7673C46.3195 85.9212 46.0073 86.0929 45.7042 86.2772C45.4401 86.4368 45.1012 86.3451 44.9469 86.0718C44.7926 85.7984 44.8809 85.4471 45.1444 85.2866C45.4752 85.0857 45.8158 84.8988 46.1566 84.7305C46.2209 84.6994 46.288 84.681 46.3542 84.6761ZM57.7144 85.8352C57.8464 85.8254 57.9814 85.8654 58.0926 85.9589C58.1074 85.9711 58.134 85.9957 58.1472 86.009C58.4098 86.2433 58.686 86.522 58.9409 86.8113C59.1471 87.0458 59.1306 87.409 58.9051 87.6227C58.679 87.8357 58.3293 87.8198 58.1232 87.5853C57.8972 87.3282 57.6525 87.0812 57.3957 86.8511C57.1673 86.6459 57.1334 86.2838 57.3264 86.0431C57.4288 85.9169 57.5692 85.846 57.7144 85.8352ZM42.7804 87.2847C42.9367 87.2731 43.0966 87.3301 43.2145 87.4542C43.4294 87.68 43.4268 88.0433 43.2091 88.2661C42.9624 88.5182 42.7222 88.7841 42.4952 89.0559C42.2948 89.2954 41.9423 89.325 41.7109 89.1178C41.48 88.9105 41.4519 88.5519 41.6516 88.3119L41.6583 88.3046C41.9043 88.0094 42.1647 87.7219 42.4315 87.4488C42.5296 87.3488 42.654 87.2941 42.7804 87.2847ZM40.1978 90.9409C40.2949 90.9338 40.3944 90.9521 40.4872 91.0017C40.7603 91.1448 40.869 91.49 40.7304 91.773C40.572 92.0979 40.4253 92.4311 40.2952 92.7642C40.18 93.0572 39.8574 93.1986 39.5739 93.0804C39.2905 92.9611 39.154 92.626 39.269 92.3327C39.411 91.9698 39.5707 91.6069 39.7432 91.2533C39.8346 91.0669 40.0106 90.955 40.1978 90.9409ZM60.2404 89.4981C60.4723 89.4809 60.6995 89.6176 60.7923 89.8529C60.9371 90.2209 61.0645 90.6022 61.1712 90.9872C61.2557 91.2924 61.0851 91.6101 60.7914 91.6969C60.4955 91.7833 60.1907 91.6082 60.107 91.3036C60.0114 90.9585 59.8973 90.6166 59.7675 90.2884C59.6517 89.9949 59.7872 89.6603 60.0702 89.5396C60.1258 89.5159 60.1836 89.5024 60.2404 89.4981ZM38.9154 95.2691C38.9501 95.2666 38.9863 95.2674 39.0221 95.2721C39.3256 95.3099 39.5419 95.596 39.5048 95.9107C39.4627 96.2711 39.4368 96.6344 39.4276 96.9915C39.4191 97.308 39.165 97.5582 38.8591 97.55C38.5538 97.541 38.3125 97.2777 38.3205 96.9605C38.331 96.5678 38.3594 96.168 38.4059 95.7726C38.4382 95.4952 38.6564 95.2884 38.9154 95.2691ZM61.0028 93.948C61.0205 93.9467 61.0382 93.9459 61.0565 93.9469C61.3624 93.9546 61.6038 94.2181 61.5962 94.535C61.5868 94.9277 61.5586 95.3274 61.5127 95.7233C61.4763 96.038 61.201 96.2621 60.897 96.225C60.5935 96.1871 60.3768 95.9013 60.4132 95.5866C60.4553 95.2261 60.4806 94.8628 60.4893 94.5059C60.4964 94.2079 60.7217 93.969 61.0028 93.948ZM39.2341 99.7791C39.4902 99.76 39.7327 99.929 39.8056 100.195C39.9 100.54 40.0136 100.881 40.143 101.21C40.2587 101.504 40.1227 101.839 39.8396 101.959C39.5549 102.078 39.2332 101.937 39.118 101.644C38.9731 101.276 38.8461 100.894 38.7407 100.509C38.6573 100.204 38.828 99.8864 39.1221 99.7994C39.1597 99.7887 39.197 99.7818 39.2341 99.7791ZM60.1015 98.3772C60.1833 98.3712 60.2674 98.384 60.3486 98.4176C60.632 98.5363 60.7689 98.8709 60.6539 99.1647C60.5121 99.5293 60.3531 99.8928 60.1809 100.245C60.0436 100.528 59.7101 100.641 59.437 100.497C59.1646 100.354 59.0554 100.01 59.1937 99.7259C59.3513 99.4035 59.4974 99.0697 59.6275 98.7349C59.7094 98.525 59.8973 98.3924 60.1015 98.3772ZM57.8139 102.255C57.9542 102.245 58.0977 102.288 58.2112 102.389C58.442 102.597 58.4759 102.949 58.2755 103.189L57.8571 102.813L58.2662 103.2C58.0152 103.5 57.7589 103.784 57.4968 104.052C57.2796 104.275 56.9292 104.273 56.7143 104.048C56.4989 103.822 56.5015 103.459 56.7192 103.236C56.9607 102.988 57.1967 102.727 57.4212 102.458C57.5237 102.335 57.667 102.266 57.8139 102.255ZM41.3333 103.73C41.4966 103.718 41.6635 103.781 41.7829 103.916C42.0124 104.178 42.2608 104.43 42.5207 104.663C42.752 104.871 42.7896 105.244 42.5898 105.484C42.3894 105.724 42.0528 105.761 41.8214 105.553L42.1837 105.12L41.8037 105.537C41.5031 105.268 41.2231 104.985 40.9634 104.689C40.7579 104.454 40.7744 104.092 41.0005 103.878C41.0958 103.788 41.2139 103.739 41.3333 103.73ZM54.4665 105.15C54.6696 105.135 54.8733 105.238 54.9838 105.432C55.1388 105.705 55.0511 106.057 54.7874 106.218C54.4594 106.418 54.1189 106.605 53.7759 106.775C53.5003 106.913 53.1698 106.791 53.038 106.505C52.9059 106.219 53.0228 105.876 53.2991 105.74C53.613 105.583 53.9251 105.412 54.2259 105.228C54.3015 105.182 54.3842 105.157 54.4665 105.15ZM44.9668 106.269C45.0437 106.263 45.122 106.274 45.1985 106.303C45.5195 106.426 45.852 106.532 46.1869 106.617C46.4836 106.693 46.6655 107.004 46.5925 107.311C46.5201 107.619 46.22 107.807 45.9229 107.732C45.5477 107.636 45.175 107.518 44.8147 107.38C44.5278 107.27 44.3811 106.94 44.4871 106.642C44.5652 106.423 44.757 106.284 44.9668 106.269ZM50.3734 106.728C50.6532 106.707 50.908 106.909 50.9578 107.201C51.0106 107.514 50.8091 107.811 50.5083 107.866C50.1307 107.934 49.7461 107.985 49.3663 108.015L49.3636 108.015C49.0599 108.038 48.7949 107.802 48.7719 107.486C48.7484 107.171 48.9763 106.895 49.2809 106.87C49.6258 106.843 49.9746 106.797 50.3171 106.735C50.3358 106.731 50.3546 106.729 50.3734 106.728Z" fill="#FF9029"/>
<path d="M39.8858 86.5138C45.0685 80.3077 53.2684 78.7185 58.9514 82.5363C58.5893 82.107 58.1995 81.6969 57.7739 81.3149C52.112 76.2311 42.9787 77.5493 37.3746 84.2591C31.7714 90.9697 31.819 100.531 37.4809 105.615C37.9065 105.997 38.3536 106.338 38.8152 106.649C34.3586 101.362 34.7031 92.7199 39.8858 86.5138Z" fill="#FF9029"/>
<path fill-rule="evenodd" clip-rule="evenodd" d="M33.6381 99.12C33.4894 98.527 33.3813 97.9197 33.3069 97.3044L35.8176 99.5585C35.8925 100.183 36.0196 100.793 36.1718 101.395L33.6381 99.12ZM35.8281 95.7721L33.3117 93.5128C33.2547 93.9876 33.2181 94.4617 33.2031 94.9336L35.7225 97.1956C35.737 96.7228 35.7706 96.2483 35.8281 95.7721ZM34.2006 89.7555L36.7218 92.0188C36.5818 92.4094 36.4541 92.8023 36.3439 93.1979L33.8262 90.9372C33.9371 90.5411 34.0606 90.1469 34.2006 89.7555ZM37.9465 89.3217L35.4282 87.0605C35.2376 87.4027 35.0585 87.7487 34.8923 88.0978L37.4053 90.3541C37.5708 90.0051 37.7553 89.6621 37.9465 89.3217ZM37.011 84.6858L39.5298 86.9474C39.2952 87.2467 39.0648 87.5477 38.8514 87.8564L36.3367 85.5985C36.55 85.2893 36.7759 84.9853 37.011 84.6858ZM38.9194 82.6025L41.4394 84.865C41.1651 85.1203 40.8959 85.3832 40.6337 85.6601L38.1178 83.4011C38.3789 83.1244 38.6457 82.857 38.9194 82.6025ZM43.6893 83.0894L41.1705 80.8278C40.8504 81.0393 40.5338 81.2597 40.2238 81.4967L42.7444 83.7595C43.0544 83.5228 43.3692 83.3007 43.6893 83.0894ZM43.8119 79.4024L46.33 81.6635C45.9554 81.8221 45.5843 81.9935 45.2178 82.1832L42.7001 79.9232C43.0666 79.7331 43.4383 79.5615 43.8119 79.4024ZM50.2122 80.5928L47.6916 78.3295C47.2237 78.3921 46.7552 78.4782 46.2882 78.5877L48.8099 80.852C49.2769 80.743 49.7443 80.6547 50.2122 80.5928ZM52.0602 78.4568L54.5873 80.7257C53.945 80.5963 53.2926 80.5196 52.6328 80.4892L50.1068 78.2207C50.7661 78.25 51.4186 78.3285 52.0602 78.4568Z" fill="#FFD029"/>
<path d="M101.834 50.8668C104.196 50.8668 106.11 48.8819 106.11 46.4334C106.11 43.9849 104.196 42 101.834 42C99.4729 42 97.5586 43.9849 97.5586 46.4334C97.5586 48.8819 99.4729 50.8668 101.834 50.8668Z" stroke="#EF798A" stroke-width="0.262657"/>
<path d="M204.225 148.277C206.586 148.277 208.5 146.292 208.5 143.844C208.5 141.395 206.586 139.41 204.225 139.41C201.863 139.41 199.949 141.395 199.949 143.844C199.949 146.292 201.863 148.277 204.225 148.277Z" stroke="#BD54B9" stroke-width="0.262657"/>
<path d="M176.468 91.1651C178.042 91.1651 179.318 89.8418 179.318 88.2095C179.318 86.5772 178.042 85.2539 176.468 85.2539C174.893 85.2539 173.617 86.5772 173.617 88.2095C173.617 89.8418 174.893 91.1651 176.468 91.1651Z" fill="#5775E5"/>
<path d="M31.6668 135.476C33.2411 135.476 34.5172 134.152 34.5172 132.52C34.5172 130.888 33.2411 129.564 31.6668 129.564C30.0926 129.564 28.8164 130.888 28.8164 132.52C28.8164 134.152 30.0926 135.476 31.6668 135.476Z" fill="#FF9029"/>
<path d="M75.8185 69.7128C76.7366 69.7128 77.4808 68.9412 77.4808 67.9892C77.4808 67.0373 76.7366 66.2656 75.8185 66.2656C74.9005 66.2656 74.1562 67.0373 74.1562 67.9892C74.1562 68.9412 74.9005 69.7128 75.8185 69.7128Z" fill="#EF798A"/>
<path d="M144.565 84.8339C145.483 84.8339 146.227 84.0623 146.227 83.1103C146.227 82.1584 145.483 81.3867 144.565 81.3867C143.647 81.3867 142.902 82.1584 142.902 83.1103C142.902 84.0623 143.647 84.8339 144.565 84.8339Z" fill="#BD54B9"/>
<path d="M55.049 249.909V263H52.9396L46.7713 254.083H46.6626V263H44.2912V249.909H46.4134L52.5753 258.832H52.6903V249.909H55.049ZM61.8134 263.192C60.8546 263.192 60.0236 262.981 59.3205 262.559C58.6174 262.137 58.0719 261.547 57.6841 260.788C57.3006 260.03 57.1088 259.143 57.1088 258.129C57.1088 257.115 57.3006 256.227 57.6841 255.464C58.0719 254.701 58.6174 254.109 59.3205 253.687C60.0236 253.265 60.8546 253.054 61.8134 253.054C62.7722 253.054 63.6032 253.265 64.3063 253.687C65.0094 254.109 65.5527 254.701 65.9363 255.464C66.324 256.227 66.5179 257.115 66.5179 258.129C66.5179 259.143 66.324 260.03 65.9363 260.788C65.5527 261.547 65.0094 262.137 64.3063 262.559C63.6032 262.981 62.7722 263.192 61.8134 263.192ZM61.8262 261.338C62.3461 261.338 62.7807 261.195 63.1301 260.91C63.4796 260.62 63.7395 260.232 63.91 259.746C64.0847 259.261 64.1721 258.719 64.1721 258.123C64.1721 257.522 64.0847 256.979 63.91 256.493C63.7395 256.003 63.4796 255.613 63.1301 255.323C62.7807 255.033 62.3461 254.888 61.8262 254.888C61.2935 254.888 60.8503 255.033 60.4966 255.323C60.1472 255.613 59.8851 256.003 59.7104 256.493C59.54 256.979 59.4547 257.522 59.4547 258.123C59.4547 258.719 59.54 259.261 59.7104 259.746C59.8851 260.232 60.1472 260.62 60.4966 260.91C60.8503 261.195 61.2935 261.338 61.8262 261.338ZM80.1634 253.508C80.1037 252.95 79.8523 252.515 79.4091 252.204C78.9702 251.893 78.3991 251.737 77.696 251.737C77.2017 251.737 76.7777 251.812 76.424 251.961C76.0703 252.11 75.7997 252.312 75.6122 252.568C75.4247 252.824 75.3288 253.116 75.3246 253.444C75.3246 253.717 75.3864 253.953 75.5099 254.153C75.6378 254.354 75.8104 254.524 76.0277 254.665C76.245 254.801 76.4858 254.916 76.75 255.01C77.0142 255.104 77.2805 255.183 77.549 255.246L78.7763 255.553C79.2706 255.668 79.7457 255.824 80.2017 256.02C80.6619 256.216 81.0732 256.463 81.4354 256.761C81.8018 257.06 82.0916 257.42 82.3047 257.842C82.5178 258.263 82.6243 258.758 82.6243 259.325C82.6243 260.092 82.4283 260.767 82.0362 261.351C81.6442 261.93 81.0774 262.384 80.3359 262.712C79.5987 263.036 78.706 263.198 77.6577 263.198C76.6392 263.198 75.755 263.04 75.005 262.725C74.2592 262.41 73.6754 261.95 73.2536 261.344C72.8359 260.739 72.6101 260.002 72.576 259.133H74.9091C74.9432 259.589 75.0838 259.968 75.331 260.271C75.5781 260.573 75.8999 260.799 76.2962 260.948C76.6967 261.097 77.1442 261.172 77.6385 261.172C78.1541 261.172 78.6058 261.095 78.9936 260.942C79.3857 260.784 79.6925 260.567 79.9141 260.29C80.1357 260.009 80.2486 259.68 80.2528 259.305C80.2486 258.964 80.1484 258.683 79.9524 258.462C79.7564 258.236 79.4815 258.048 79.1278 257.899C78.7784 257.746 78.3693 257.609 77.9006 257.49L76.4112 257.107C75.3331 256.83 74.4808 256.41 73.8544 255.847C73.2322 255.281 72.9212 254.528 72.9212 253.591C72.9212 252.82 73.13 252.144 73.5476 251.565C73.9695 250.985 74.5426 250.536 75.267 250.216C75.9915 249.892 76.8118 249.73 77.728 249.73C78.657 249.73 79.4709 249.892 80.1697 250.216C80.8729 250.536 81.4247 250.981 81.8253 251.552C82.2259 252.119 82.4325 252.771 82.4453 253.508H80.1634ZM89.5389 253.182V254.972H83.8947V253.182H89.5389ZM85.2882 250.83H87.6021V260.047C87.6021 260.358 87.649 260.597 87.7427 260.763C87.8407 260.925 87.9686 261.036 88.1262 261.095C88.2839 261.155 88.4586 261.185 88.6504 261.185C88.7953 261.185 88.9274 261.174 89.0467 261.153C89.1703 261.131 89.264 261.112 89.3279 261.095L89.7179 262.904C89.5943 262.947 89.4174 262.994 89.1873 263.045C88.9615 263.096 88.6845 263.126 88.3564 263.134C87.7768 263.151 87.2548 263.064 86.7903 262.872C86.3258 262.676 85.9572 262.374 85.6845 261.964C85.416 261.555 85.2839 261.044 85.2882 260.43V250.83ZM95.6513 263.192C94.6925 263.192 93.8615 262.981 93.1584 262.559C92.4553 262.137 91.9098 261.547 91.522 260.788C91.1385 260.03 90.9467 259.143 90.9467 258.129C90.9467 257.115 91.1385 256.227 91.522 255.464C91.9098 254.701 92.4553 254.109 93.1584 253.687C93.8615 253.265 94.6925 253.054 95.6513 253.054C96.6101 253.054 97.4411 253.265 98.1442 253.687C98.8473 254.109 99.3906 254.701 99.7741 255.464C100.162 256.227 100.356 257.115 100.356 258.129C100.356 259.143 100.162 260.03 99.7741 260.788C99.3906 261.547 98.8473 262.137 98.1442 262.559C97.4411 262.981 96.6101 263.192 95.6513 263.192ZM95.6641 261.338C96.1839 261.338 96.6186 261.195 96.968 260.91C97.3175 260.62 97.5774 260.232 97.7479 259.746C97.9226 259.261 98.0099 258.719 98.0099 258.123C98.0099 257.522 97.9226 256.979 97.7479 256.493C97.5774 256.003 97.3175 255.613 96.968 255.323C96.6186 255.033 96.1839 254.888 95.6641 254.888C95.1314 254.888 94.6882 255.033 94.3345 255.323C93.9851 255.613 93.723 256.003 93.5483 256.493C93.3778 256.979 93.2926 257.522 93.2926 258.123C93.2926 258.719 93.3778 259.261 93.5483 259.746C93.723 260.232 93.9851 260.62 94.3345 260.91C94.6882 261.195 95.1314 261.338 95.6641 261.338ZM102.32 263V253.182H104.563V254.818H104.666C104.845 254.251 105.151 253.815 105.586 253.508C106.025 253.197 106.526 253.041 107.088 253.041C107.216 253.041 107.359 253.048 107.517 253.06C107.678 253.069 107.813 253.084 107.919 253.105V255.234C107.821 255.2 107.666 255.17 107.453 255.144C107.244 255.114 107.041 255.099 106.845 255.099C106.423 255.099 106.044 255.191 105.708 255.374C105.375 255.553 105.113 255.803 104.921 256.122C104.73 256.442 104.634 256.81 104.634 257.228V263H102.32ZM113.399 263.192C112.414 263.192 111.564 262.987 110.848 262.578C110.137 262.165 109.589 261.581 109.206 260.827C108.822 260.068 108.63 259.175 108.63 258.148C108.63 257.138 108.822 256.252 109.206 255.489C109.593 254.722 110.135 254.126 110.829 253.7C111.524 253.269 112.34 253.054 113.277 253.054C113.882 253.054 114.453 253.152 114.99 253.348C115.532 253.54 116.009 253.838 116.422 254.243C116.84 254.648 117.168 255.163 117.407 255.79C117.645 256.412 117.765 257.153 117.765 258.014V258.724H109.717V257.164H115.547C115.542 256.721 115.446 256.327 115.259 255.982C115.071 255.632 114.809 255.357 114.473 255.157C114.14 254.957 113.752 254.857 113.309 254.857C112.836 254.857 112.421 254.972 112.063 255.202C111.705 255.428 111.426 255.726 111.225 256.097C111.029 256.463 110.929 256.866 110.925 257.305V258.666C110.925 259.237 111.029 259.727 111.238 260.136C111.447 260.541 111.739 260.852 112.114 261.07C112.489 261.283 112.928 261.389 113.431 261.389C113.767 261.389 114.072 261.342 114.345 261.249C114.618 261.151 114.854 261.008 115.054 260.82C115.255 260.633 115.406 260.401 115.508 260.124L117.669 260.366C117.532 260.937 117.272 261.436 116.889 261.862C116.51 262.284 116.024 262.612 115.431 262.847C114.839 263.077 114.162 263.192 113.399 263.192ZM135.494 254.326H133.104C133.036 253.934 132.91 253.587 132.727 253.284C132.544 252.977 132.316 252.717 132.043 252.504C131.77 252.291 131.459 252.131 131.11 252.025C130.764 251.914 130.392 251.859 129.991 251.859C129.279 251.859 128.649 252.038 128.099 252.396C127.549 252.749 127.119 253.269 126.808 253.955C126.497 254.637 126.341 255.47 126.341 256.455C126.341 257.456 126.497 258.3 126.808 258.986C127.123 259.668 127.553 260.183 128.099 260.533C128.649 260.878 129.277 261.05 129.985 261.05C130.377 261.05 130.743 260.999 131.084 260.897C131.429 260.79 131.738 260.635 132.011 260.43C132.288 260.226 132.52 259.974 132.708 259.676C132.899 259.378 133.031 259.037 133.104 258.653L135.494 258.666C135.405 259.288 135.211 259.872 134.913 260.418C134.619 260.963 134.233 261.445 133.756 261.862C133.279 262.276 132.72 262.599 132.081 262.834C131.442 263.064 130.732 263.179 129.953 263.179C128.802 263.179 127.775 262.913 126.872 262.38C125.968 261.847 125.257 261.078 124.737 260.072C124.217 259.067 123.957 257.861 123.957 256.455C123.957 255.044 124.219 253.838 124.743 252.837C125.267 251.831 125.981 251.062 126.884 250.529C127.788 249.996 128.811 249.73 129.953 249.73C130.681 249.73 131.359 249.832 131.985 250.037C132.612 250.241 133.17 250.542 133.66 250.938C134.15 251.33 134.553 251.812 134.868 252.383C135.188 252.95 135.396 253.597 135.494 254.326ZM137.564 263V253.182H139.808V254.818H139.91C140.089 254.251 140.396 253.815 140.83 253.508C141.269 253.197 141.77 253.041 142.332 253.041C142.46 253.041 142.603 253.048 142.761 253.06C142.923 253.069 143.057 253.084 143.163 253.105V255.234C143.065 255.2 142.91 255.17 142.697 255.144C142.488 255.114 142.286 255.099 142.089 255.099C141.668 255.099 141.288 255.191 140.952 255.374C140.619 255.553 140.357 255.803 140.165 256.122C139.974 256.442 139.878 256.81 139.878 257.228V263H137.564ZM148.643 263.192C147.659 263.192 146.808 262.987 146.093 262.578C145.381 262.165 144.833 261.581 144.45 260.827C144.066 260.068 143.874 259.175 143.874 258.148C143.874 257.138 144.066 256.252 144.45 255.489C144.838 254.722 145.379 254.126 146.073 253.7C146.768 253.269 147.584 253.054 148.521 253.054C149.127 253.054 149.698 253.152 150.235 253.348C150.776 253.54 151.253 253.838 151.666 254.243C152.084 254.648 152.412 255.163 152.651 255.79C152.889 256.412 153.009 257.153 153.009 258.014V258.724H144.961V257.164H150.791C150.786 256.721 150.691 256.327 150.503 255.982C150.316 255.632 150.053 255.357 149.717 255.157C149.384 254.957 148.997 254.857 148.553 254.857C148.08 254.857 147.665 254.972 147.307 255.202C146.949 255.428 146.67 255.726 146.47 256.097C146.274 256.463 146.173 256.866 146.169 257.305V258.666C146.169 259.237 146.274 259.727 146.482 260.136C146.691 260.541 146.983 260.852 147.358 261.07C147.733 261.283 148.172 261.389 148.675 261.389C149.012 261.389 149.316 261.342 149.589 261.249C149.862 261.151 150.098 261.008 150.298 260.82C150.499 260.633 150.65 260.401 150.752 260.124L152.913 260.366C152.776 260.937 152.517 261.436 152.133 261.862C151.754 262.284 151.268 262.612 150.676 262.847C150.083 263.077 149.406 263.192 148.643 263.192ZM158.61 263.173C157.838 263.173 157.148 262.974 156.539 262.578C155.929 262.182 155.448 261.607 155.094 260.852C154.74 260.098 154.564 259.182 154.564 258.104C154.564 257.013 154.743 256.092 155.1 255.342C155.463 254.588 155.951 254.019 156.564 253.636C157.178 253.248 157.862 253.054 158.616 253.054C159.191 253.054 159.664 253.152 160.035 253.348C160.406 253.54 160.7 253.772 160.917 254.045C161.135 254.313 161.303 254.567 161.422 254.805H161.518V249.909H163.838V263H161.563V261.453H161.422C161.303 261.692 161.13 261.945 160.904 262.214C160.679 262.478 160.38 262.704 160.01 262.891C159.639 263.079 159.172 263.173 158.61 263.173ZM159.255 261.274C159.745 261.274 160.163 261.142 160.508 260.878C160.853 260.609 161.115 260.237 161.294 259.759C161.473 259.282 161.563 258.726 161.563 258.091C161.563 257.456 161.473 256.904 161.294 256.435C161.12 255.967 160.86 255.602 160.515 255.342C160.174 255.082 159.754 254.952 159.255 254.952C158.74 254.952 158.309 255.087 157.964 255.355C157.619 255.624 157.359 255.994 157.184 256.467C157.01 256.94 156.922 257.482 156.922 258.091C156.922 258.705 157.01 259.252 157.184 259.734C157.363 260.211 157.625 260.588 157.971 260.865C158.32 261.138 158.748 261.274 159.255 261.274ZM166.304 263V253.182H168.618V263H166.304ZM167.468 251.788C167.101 251.788 166.786 251.667 166.521 251.424C166.257 251.177 166.125 250.881 166.125 250.536C166.125 250.186 166.257 249.89 166.521 249.647C166.786 249.4 167.101 249.276 167.468 249.276C167.838 249.276 168.154 249.4 168.414 249.647C168.678 249.89 168.81 250.186 168.81 250.536C168.81 250.881 168.678 251.177 168.414 251.424C168.154 251.667 167.838 251.788 167.468 251.788ZM175.9 253.182V254.972H170.256V253.182H175.9ZM171.65 250.83H173.963V260.047C173.963 260.358 174.01 260.597 174.104 260.763C174.202 260.925 174.33 261.036 174.488 261.095C174.645 261.155 174.82 261.185 175.012 261.185C175.157 261.185 175.289 261.174 175.408 261.153C175.532 261.131 175.625 261.112 175.689 261.095L176.079 262.904C175.956 262.947 175.779 262.994 175.549 263.045C175.323 263.096 175.046 263.126 174.718 263.134C174.138 263.151 173.616 263.064 173.152 262.872C172.687 262.676 172.319 262.374 172.046 261.964C171.777 261.555 171.645 261.044 171.65 260.43V250.83ZM185.455 255.777L183.345 256.007C183.286 255.794 183.181 255.594 183.032 255.406C182.887 255.219 182.691 255.067 182.444 254.952C182.197 254.837 181.894 254.78 181.536 254.78C181.055 254.78 180.65 254.884 180.322 255.093C179.998 255.302 179.838 255.572 179.843 255.905C179.838 256.19 179.943 256.423 180.156 256.602C180.373 256.781 180.731 256.928 181.23 257.043L182.904 257.401C183.833 257.601 184.524 257.918 184.975 258.353C185.431 258.788 185.661 259.357 185.666 260.06C185.661 260.678 185.48 261.223 185.122 261.696C184.769 262.165 184.276 262.531 183.646 262.795C183.015 263.06 182.291 263.192 181.472 263.192C180.271 263.192 179.303 262.94 178.57 262.438C177.838 261.93 177.401 261.225 177.26 260.322L179.517 260.104C179.619 260.548 179.836 260.882 180.169 261.108C180.501 261.334 180.933 261.447 181.466 261.447C182.016 261.447 182.457 261.334 182.789 261.108C183.126 260.882 183.294 260.603 183.294 260.271C183.294 259.989 183.186 259.757 182.968 259.574C182.755 259.391 182.423 259.25 181.971 259.152L180.296 258.8C179.355 258.604 178.658 258.274 178.206 257.81C177.754 257.341 177.531 256.749 177.535 256.033C177.531 255.428 177.695 254.903 178.027 254.46C178.364 254.013 178.83 253.668 179.427 253.425C180.028 253.178 180.72 253.054 181.504 253.054C182.655 253.054 183.561 253.299 184.221 253.789C184.886 254.279 185.297 254.942 185.455 255.777Z" fill="#242424"/>
<path d="M0.712447 285.818H2.12438L4.94824 290.571H5.06756L7.89142 285.818H9.30336L5.62438 291.804V296H4.39142V291.804L0.712447 285.818ZM12.7611 296.159C12.0717 296.159 11.4668 295.995 10.9465 295.667C10.4294 295.339 10.0251 294.88 9.7334 294.29C9.44505 293.7 9.30087 293.01 9.30087 292.222C9.30087 291.426 9.44505 290.732 9.7334 290.138C10.0251 289.545 10.4294 289.085 10.9465 288.756C11.4668 288.428 12.0717 288.264 12.7611 288.264C13.4505 288.264 14.0537 288.428 14.5708 288.756C15.0911 289.085 15.4955 289.545 15.7838 290.138C16.0755 290.732 16.2213 291.426 16.2213 292.222C16.2213 293.01 16.0755 293.7 15.7838 294.29C15.4955 294.88 15.0911 295.339 14.5708 295.667C14.0537 295.995 13.4505 296.159 12.7611 296.159ZM12.7611 295.105C13.2848 295.105 13.7156 294.971 14.0537 294.702C14.3918 294.434 14.642 294.081 14.8044 293.643C14.9668 293.206 15.048 292.732 15.048 292.222C15.048 291.711 14.9668 291.236 14.8044 290.795C14.642 290.354 14.3918 289.998 14.0537 289.726C13.7156 289.454 13.2848 289.318 12.7611 289.318C12.2374 289.318 11.8066 289.454 11.4685 289.726C11.1304 289.998 10.8802 290.354 10.7178 290.795C10.5554 291.236 10.4742 291.711 10.4742 292.222C10.4742 292.732 10.5554 293.206 10.7178 293.643C10.8802 294.081 11.1304 294.434 11.4685 294.702C11.8066 294.971 12.2374 295.105 12.7611 295.105ZM22.8248 292.878V288.364H23.9981V296H22.8248V294.707H22.7453C22.5663 295.095 22.2879 295.425 21.9101 295.697C21.5322 295.965 21.055 296.099 20.4782 296.099C20.001 296.099 19.5767 295.995 19.2055 295.786C18.8343 295.574 18.5426 295.256 18.3305 294.832C18.1184 294.404 18.0123 293.866 18.0123 293.216V288.364H19.1856V293.136C19.1856 293.693 19.3414 294.137 19.653 294.469C19.9678 294.8 20.3689 294.966 20.8561 294.966C21.1478 294.966 21.4444 294.891 21.746 294.742C22.0509 294.593 22.3061 294.364 22.5116 294.056C22.7204 293.748 22.8248 293.355 22.8248 292.878ZM31.2579 291.406V296H30.0846V285.818H31.2579V289.557H31.3573C31.5363 289.162 31.8048 288.849 32.1627 288.617C32.524 288.382 33.0046 288.264 33.6045 288.264C34.1249 288.264 34.5806 288.369 34.9717 288.577C35.3628 288.783 35.666 289.099 35.8815 289.527C36.1002 289.951 36.2096 290.491 36.2096 291.148V296H35.0363V291.227C35.0363 290.621 34.8789 290.152 34.564 289.82C34.2525 289.486 33.8199 289.318 33.2664 289.318C32.882 289.318 32.5373 289.399 32.2323 289.562C31.9307 289.724 31.6921 289.961 31.5164 290.273C31.3441 290.584 31.2579 290.962 31.2579 291.406ZM40.6032 296.179C40.1193 296.179 39.6802 296.088 39.2858 295.906C38.8914 295.72 38.5782 295.453 38.3461 295.105C38.1141 294.754 37.9981 294.33 37.9981 293.832C37.9981 293.395 38.0843 293.04 38.2567 292.768C38.429 292.493 38.6594 292.278 38.9477 292.122C39.2361 291.966 39.5542 291.85 39.9023 291.774C40.2536 291.695 40.6066 291.632 40.9612 291.585C41.4252 291.526 41.8014 291.481 42.0898 291.451C42.3814 291.418 42.5935 291.363 42.7261 291.287C42.862 291.211 42.93 291.078 42.93 290.889V290.849C42.93 290.359 42.7957 289.978 42.5273 289.706C42.2621 289.434 41.8594 289.298 41.3192 289.298C40.759 289.298 40.3199 289.421 40.0017 289.666C39.6835 289.911 39.4598 290.173 39.3305 290.452L38.2169 290.054C38.4157 289.59 38.6809 289.229 39.0123 288.97C39.3471 288.708 39.7117 288.526 40.1061 288.423C40.5038 288.317 40.8949 288.264 41.2794 288.264C41.5247 288.264 41.8064 288.294 42.1246 288.354C42.4461 288.41 42.7559 288.528 43.0542 288.707C43.3559 288.886 43.6061 289.156 43.805 289.517C44.0038 289.878 44.1032 290.362 44.1032 290.969V296H42.93V294.966H42.8703C42.7907 295.132 42.6582 295.309 42.4726 295.498C42.287 295.687 42.04 295.848 41.7318 295.98C41.4236 296.113 41.0474 296.179 40.6032 296.179ZM40.7822 295.125C41.2462 295.125 41.6373 295.034 41.9555 294.852C42.277 294.669 42.519 294.434 42.6814 294.146C42.8471 293.857 42.93 293.554 42.93 293.236V292.162C42.8802 292.222 42.7709 292.276 42.6018 292.326C42.4361 292.372 42.2439 292.414 42.0251 292.45C41.8097 292.483 41.5992 292.513 41.3937 292.54C41.1916 292.563 41.0275 292.583 40.9015 292.599C40.5966 292.639 40.3116 292.704 40.0464 292.793C39.7846 292.879 39.5725 293.01 39.4101 293.186C39.251 293.358 39.1714 293.594 39.1714 293.892C39.1714 294.3 39.3222 294.608 39.6238 294.817C39.9288 295.022 40.3149 295.125 40.7822 295.125ZM52.2156 288.364L49.3918 296H48.1986L45.3747 288.364H46.6475L48.7554 294.449H48.835L50.9429 288.364H52.2156ZM56.6926 296.159C55.9568 296.159 55.3221 295.997 54.7884 295.672C54.2581 295.344 53.8488 294.886 53.5605 294.3C53.2754 293.71 53.1329 293.024 53.1329 292.241C53.1329 291.459 53.2754 290.77 53.5605 290.173C53.8488 289.573 54.2499 289.106 54.7636 288.771C55.2806 288.433 55.8838 288.264 56.5732 288.264C56.971 288.264 57.3637 288.33 57.7515 288.463C58.1393 288.596 58.4923 288.811 58.8105 289.109C59.1286 289.404 59.3822 289.795 59.5711 290.283C59.76 290.77 59.8545 291.37 59.8545 292.082V292.58H53.9681V291.565H58.6613C58.6613 291.134 58.5751 290.75 58.4028 290.412C58.2338 290.074 57.9918 289.807 57.6769 289.612C57.3654 289.416 56.9975 289.318 56.5732 289.318C56.1059 289.318 55.7016 289.434 55.3602 289.666C55.0221 289.895 54.7619 290.193 54.5796 290.561C54.3973 290.929 54.3062 291.323 54.3062 291.744V292.42C54.3062 292.997 54.4056 293.486 54.6045 293.887C54.8067 294.285 55.0867 294.588 55.4447 294.797C55.8026 295.002 56.2186 295.105 56.6926 295.105C57.0008 295.105 57.2792 295.062 57.5278 294.976C57.7797 294.886 57.9968 294.754 58.1791 294.578C58.3614 294.399 58.5022 294.177 58.6017 293.912L59.7352 294.23C59.6159 294.615 59.4153 294.953 59.1336 295.244C58.8519 295.533 58.5039 295.758 58.0896 295.92C57.6753 296.08 57.2096 296.159 56.6926 296.159ZM66.7501 291.406V296H65.5768V288.364H66.7103V289.557H66.8097C66.9887 289.169 67.2605 288.857 67.6251 288.622C67.9897 288.384 68.4603 288.264 69.037 288.264C69.5541 288.264 70.0065 288.37 70.3943 288.582C70.782 288.791 71.0837 289.109 71.2991 289.537C71.5145 289.961 71.6222 290.498 71.6222 291.148V296H70.449V291.227C70.449 290.627 70.2932 290.16 69.9816 289.825C69.6701 289.487 69.2425 289.318 68.699 289.318C68.3244 289.318 67.9897 289.399 67.6947 289.562C67.403 289.724 67.1727 289.961 67.0036 290.273C66.8346 290.584 66.7501 290.962 66.7501 291.406ZM76.8685 296.159C76.1791 296.159 75.5742 295.995 75.0539 295.667C74.5368 295.339 74.1325 294.88 73.8408 294.29C73.5525 293.7 73.4083 293.01 73.4083 292.222C73.4083 291.426 73.5525 290.732 73.8408 290.138C74.1325 289.545 74.5368 289.085 75.0539 288.756C75.5742 288.428 76.1791 288.264 76.8685 288.264C77.5579 288.264 78.1611 288.428 78.6782 288.756C79.1985 289.085 79.6029 289.545 79.8912 290.138C80.1829 290.732 80.3287 291.426 80.3287 292.222C80.3287 293.01 80.1829 293.7 79.8912 294.29C79.6029 294.88 79.1985 295.339 78.6782 295.667C78.1611 295.995 77.5579 296.159 76.8685 296.159ZM76.8685 295.105C77.3922 295.105 77.8231 294.971 78.1611 294.702C78.4992 294.434 78.7494 294.081 78.9118 293.643C79.0742 293.206 79.1555 292.732 79.1555 292.222C79.1555 291.711 79.0742 291.236 78.9118 290.795C78.7494 290.354 78.4992 289.998 78.1611 289.726C77.8231 289.454 77.3922 289.318 76.8685 289.318C76.3448 289.318 75.914 289.454 75.5759 289.726C75.2378 289.998 74.9876 290.354 74.8252 290.795C74.6628 291.236 74.5816 291.711 74.5816 292.222C74.5816 292.732 74.6628 293.206 74.8252 293.643C74.9876 294.081 75.2378 294.434 75.5759 294.702C75.914 294.971 76.3448 295.105 76.8685 295.105ZM91.4664 290.074L90.4124 290.372C90.3461 290.196 90.2483 290.026 90.1191 289.86C89.9931 289.691 89.8208 289.552 89.602 289.442C89.3833 289.333 89.1032 289.278 88.7618 289.278C88.2945 289.278 87.905 289.386 87.5935 289.602C87.2852 289.814 87.1311 290.084 87.1311 290.412C87.1311 290.704 87.2372 290.934 87.4493 291.103C87.6614 291.272 87.9929 291.413 88.4436 291.526L89.5771 291.804C90.2599 291.97 90.7687 292.223 91.1034 292.565C91.4382 292.903 91.6056 293.339 91.6056 293.872C91.6056 294.31 91.4796 294.701 91.2277 295.045C90.9791 295.39 90.6311 295.662 90.1837 295.861C89.7362 296.06 89.2159 296.159 88.6226 296.159C87.8437 296.159 87.1991 295.99 86.6887 295.652C86.1782 295.314 85.8551 294.82 85.7192 294.17L86.8328 293.892C86.9389 294.303 87.1394 294.611 87.4344 294.817C87.7327 295.022 88.1221 295.125 88.6027 295.125C89.1496 295.125 89.5838 295.009 89.9053 294.777C90.2301 294.542 90.3925 294.26 90.3925 293.932C90.3925 293.667 90.2997 293.445 90.1141 293.266C89.9285 293.083 89.6434 292.947 89.259 292.858L87.9862 292.56C87.2869 292.394 86.7732 292.137 86.445 291.789C86.1202 291.438 85.9578 290.999 85.9578 290.472C85.9578 290.041 86.0788 289.66 86.3208 289.328C86.566 288.997 86.8991 288.737 87.32 288.548C87.7443 288.359 88.2249 288.264 88.7618 288.264C89.5175 288.264 90.1108 288.43 90.5416 288.761C90.9758 289.093 91.2841 289.53 91.4664 290.074ZM96.6927 288.364V289.358H92.7354V288.364H96.6927ZM93.8888 286.534H95.0621V293.812C95.0621 294.144 95.1101 294.393 95.2062 294.558C95.3057 294.721 95.4316 294.83 95.5841 294.886C95.7398 294.939 95.9039 294.966 96.0763 294.966C96.2055 294.966 96.3116 294.959 96.3944 294.946C96.4773 294.929 96.5436 294.916 96.5933 294.906L96.8319 295.96C96.7524 295.99 96.6414 296.02 96.4988 296.05C96.3563 296.083 96.1757 296.099 95.9569 296.099C95.6255 296.099 95.3007 296.028 94.9825 295.886C94.6676 295.743 94.4058 295.526 94.197 295.234C93.9915 294.943 93.8888 294.575 93.8888 294.131V286.534ZM101.478 296.159C100.789 296.159 100.184 295.995 99.6633 295.667C99.1462 295.339 98.7419 294.88 98.4502 294.29C98.1618 293.7 98.0177 293.01 98.0177 292.222C98.0177 291.426 98.1618 290.732 98.4502 290.138C98.7419 289.545 99.1462 289.085 99.6633 288.756C100.184 288.428 100.789 288.264 101.478 288.264C102.167 288.264 102.771 288.428 103.288 288.756C103.808 289.085 104.212 289.545 104.501 290.138C104.792 290.732 104.938 291.426 104.938 292.222C104.938 293.01 104.792 293.7 104.501 294.29C104.212 294.88 103.808 295.339 103.288 295.667C102.771 295.995 102.167 296.159 101.478 296.159ZM101.478 295.105C102.002 295.105 102.432 294.971 102.771 294.702C103.109 294.434 103.359 294.081 103.521 293.643C103.684 293.206 103.765 292.732 103.765 292.222C103.765 291.711 103.684 291.236 103.521 290.795C103.359 290.354 103.109 289.998 102.771 289.726C102.432 289.454 102.002 289.318 101.478 289.318C100.954 289.318 100.523 289.454 100.185 289.726C99.8472 289.998 99.597 290.354 99.4346 290.795C99.2722 291.236 99.191 291.711 99.191 292.222C99.191 292.732 99.2722 293.206 99.4346 293.643C99.597 294.081 99.8472 294.434 100.185 294.702C100.523 294.971 100.954 295.105 101.478 295.105ZM106.729 296V288.364H107.863V289.517H107.942C108.081 289.139 108.333 288.833 108.698 288.597C109.062 288.362 109.473 288.244 109.931 288.244C110.017 288.244 110.125 288.246 110.254 288.249C110.383 288.253 110.481 288.258 110.547 288.264V289.457C110.508 289.447 110.416 289.433 110.274 289.413C110.135 289.389 109.987 289.378 109.831 289.378C109.46 289.378 109.129 289.456 108.837 289.612C108.549 289.764 108.32 289.976 108.151 290.248C107.985 290.516 107.902 290.823 107.902 291.168V296H106.729ZM114.907 296.159C114.172 296.159 113.537 295.997 113.003 295.672C112.473 295.344 112.064 294.886 111.775 294.3C111.49 293.71 111.348 293.024 111.348 292.241C111.348 291.459 111.49 290.77 111.775 290.173C112.064 289.573 112.465 289.106 112.978 288.771C113.495 288.433 114.099 288.264 114.788 288.264C115.186 288.264 115.579 288.33 115.966 288.463C116.354 288.596 116.707 288.811 117.025 289.109C117.343 289.404 117.597 289.795 117.786 290.283C117.975 290.77 118.069 291.37 118.069 292.082V292.58H112.183V291.565H116.876C116.876 291.134 116.79 290.75 116.618 290.412C116.449 290.074 116.207 289.807 115.892 289.612C115.58 289.416 115.212 289.318 114.788 289.318C114.321 289.318 113.916 289.434 113.575 289.666C113.237 289.895 112.977 290.193 112.794 290.561C112.612 290.929 112.521 291.323 112.521 291.744V292.42C112.521 292.997 112.62 293.486 112.819 293.887C113.022 294.285 113.302 294.588 113.66 294.797C114.017 295.002 114.433 295.105 114.907 295.105C115.216 295.105 115.494 295.062 115.743 294.976C115.995 294.886 116.212 294.754 116.394 294.578C116.576 294.399 116.717 294.177 116.816 293.912L117.95 294.23C117.831 294.615 117.63 294.953 117.348 295.244C117.067 295.533 116.719 295.758 116.304 295.92C115.89 296.08 115.424 296.159 114.907 296.159ZM126.894 296.159C126.178 296.159 125.562 295.99 125.044 295.652C124.527 295.314 124.13 294.848 123.851 294.255C123.573 293.662 123.434 292.984 123.434 292.222C123.434 291.446 123.576 290.762 123.861 290.168C124.15 289.572 124.551 289.106 125.064 288.771C125.581 288.433 126.185 288.264 126.874 288.264C127.411 288.264 127.895 288.364 128.326 288.562C128.757 288.761 129.11 289.04 129.385 289.398C129.66 289.756 129.83 290.173 129.897 290.651H128.723C128.634 290.303 128.435 289.994 128.127 289.726C127.822 289.454 127.411 289.318 126.894 289.318C126.437 289.318 126.035 289.437 125.691 289.676C125.349 289.911 125.083 290.245 124.89 290.675C124.701 291.103 124.607 291.605 124.607 292.182C124.607 292.772 124.7 293.286 124.885 293.723C125.074 294.161 125.339 294.5 125.681 294.742C126.026 294.984 126.43 295.105 126.894 295.105C127.199 295.105 127.476 295.052 127.724 294.946C127.973 294.84 128.183 294.688 128.356 294.489C128.528 294.29 128.651 294.051 128.723 293.773H129.897C129.83 294.223 129.666 294.629 129.405 294.991C129.146 295.349 128.803 295.634 128.375 295.846C127.951 296.055 127.457 296.159 126.894 296.159ZM131.612 296V288.364H132.745V289.517H132.825C132.964 289.139 133.216 288.833 133.581 288.597C133.945 288.362 134.356 288.244 134.814 288.244C134.9 288.244 135.008 288.246 135.137 288.249C135.266 288.253 135.364 288.258 135.43 288.264V289.457C135.39 289.447 135.299 289.433 135.157 289.413C135.017 289.389 134.87 289.378 134.714 289.378C134.343 289.378 134.012 289.456 133.72 289.612C133.432 289.764 133.203 289.976 133.034 290.248C132.868 290.516 132.785 290.823 132.785 291.168V296H131.612ZM139.79 296.159C139.054 296.159 138.42 295.997 137.886 295.672C137.356 295.344 136.946 294.886 136.658 294.3C136.373 293.71 136.231 293.024 136.231 292.241C136.231 291.459 136.373 290.77 136.658 290.173C136.946 289.573 137.348 289.106 137.861 288.771C138.378 288.433 138.982 288.264 139.671 288.264C140.069 288.264 140.461 288.33 140.849 288.463C141.237 288.596 141.59 288.811 141.908 289.109C142.226 289.404 142.48 289.795 142.669 290.283C142.858 290.77 142.952 291.37 142.952 292.082V292.58H137.066V291.565H141.759C141.759 291.134 141.673 290.75 141.5 290.412C141.331 290.074 141.089 289.807 140.775 289.612C140.463 289.416 140.095 289.318 139.671 289.318C139.204 289.318 138.799 289.434 138.458 289.666C138.12 289.895 137.86 290.193 137.677 290.561C137.495 290.929 137.404 291.323 137.404 291.744V292.42C137.404 292.997 137.503 293.486 137.702 293.887C137.904 294.285 138.184 294.588 138.542 294.797C138.9 295.002 139.316 295.105 139.79 295.105C140.098 295.105 140.377 295.062 140.625 294.976C140.877 294.886 141.094 294.754 141.277 294.578C141.459 294.399 141.6 294.177 141.699 293.912L142.833 294.23C142.714 294.615 142.513 294.953 142.231 295.244C141.95 295.533 141.602 295.758 141.187 295.92C140.773 296.08 140.307 296.159 139.79 296.159ZM147.62 296.159C146.984 296.159 146.422 295.998 145.935 295.677C145.448 295.352 145.067 294.895 144.792 294.305C144.517 293.711 144.379 293.01 144.379 292.202C144.379 291.4 144.517 290.704 144.792 290.114C145.067 289.524 145.45 289.068 145.94 288.746C146.431 288.425 146.997 288.264 147.64 288.264C148.138 288.264 148.53 288.347 148.819 288.513C149.11 288.675 149.332 288.861 149.485 289.07C149.641 289.275 149.762 289.444 149.848 289.577H149.947V285.818H151.12V296H149.987V294.827H149.848C149.762 294.966 149.639 295.142 149.48 295.354C149.321 295.562 149.094 295.75 148.799 295.915C148.504 296.078 148.111 296.159 147.62 296.159ZM147.78 295.105C148.25 295.105 148.648 294.982 148.973 294.737C149.298 294.489 149.544 294.146 149.714 293.708C149.883 293.267 149.967 292.759 149.967 292.182C149.967 291.612 149.884 291.113 149.718 290.685C149.553 290.254 149.307 289.92 148.983 289.681C148.658 289.439 148.257 289.318 147.78 289.318C147.282 289.318 146.868 289.446 146.537 289.701C146.209 289.953 145.962 290.296 145.796 290.73C145.633 291.161 145.552 291.645 145.552 292.182C145.552 292.725 145.635 293.219 145.801 293.663C145.97 294.104 146.218 294.455 146.547 294.717C146.878 294.976 147.289 295.105 147.78 295.105ZM153.432 296V288.364H154.606V296H153.432ZM154.029 287.091C153.8 287.091 153.603 287.013 153.437 286.857C153.275 286.701 153.194 286.514 153.194 286.295C153.194 286.077 153.275 285.889 153.437 285.734C153.603 285.578 153.8 285.5 154.029 285.5C154.258 285.5 154.453 285.578 154.616 285.734C154.781 285.889 154.864 286.077 154.864 286.295C154.864 286.514 154.781 286.701 154.616 286.857C154.453 287.013 154.258 287.091 154.029 287.091ZM160.076 288.364V289.358H156.118V288.364H160.076ZM157.272 286.534H158.445V293.812C158.445 294.144 158.493 294.393 158.589 294.558C158.688 294.721 158.814 294.83 158.967 294.886C159.123 294.939 159.287 294.966 159.459 294.966C159.588 294.966 159.694 294.959 159.777 294.946C159.86 294.929 159.926 294.916 159.976 294.906L160.215 295.96C160.135 295.99 160.024 296.02 159.882 296.05C159.739 296.083 159.559 296.099 159.34 296.099C159.008 296.099 158.684 296.028 158.365 295.886C158.05 295.743 157.789 295.526 157.58 295.234C157.374 294.943 157.272 294.575 157.272 294.131V286.534ZM167.113 290.074L166.059 290.372C165.993 290.196 165.895 290.026 165.766 289.86C165.64 289.691 165.467 289.552 165.248 289.442C165.03 289.333 164.75 289.278 164.408 289.278C163.941 289.278 163.552 289.386 163.24 289.602C162.932 289.814 162.778 290.084 162.778 290.412C162.778 290.704 162.884 290.934 163.096 291.103C163.308 291.272 163.639 291.413 164.09 291.526L165.224 291.804C165.906 291.97 166.415 292.223 166.75 292.565C167.085 292.903 167.252 293.339 167.252 293.872C167.252 294.31 167.126 294.701 166.874 295.045C166.626 295.39 166.278 295.662 165.83 295.861C165.383 296.06 164.862 296.159 164.269 296.159C163.49 296.159 162.846 295.99 162.335 295.652C161.825 295.314 161.502 294.82 161.366 294.17L162.479 293.892C162.585 294.303 162.786 294.611 163.081 294.817C163.379 295.022 163.769 295.125 164.249 295.125C164.796 295.125 165.23 295.009 165.552 294.777C165.877 294.542 166.039 294.26 166.039 293.932C166.039 293.667 165.946 293.445 165.761 293.266C165.575 293.083 165.29 292.947 164.905 292.858L163.633 292.56C162.933 292.394 162.42 292.137 162.092 291.789C161.767 291.438 161.604 290.999 161.604 290.472C161.604 290.041 161.725 289.66 161.967 289.328C162.213 288.997 162.546 288.737 162.967 288.548C163.391 288.359 163.871 288.264 164.408 288.264C165.164 288.264 165.757 288.43 166.188 288.761C166.622 289.093 166.931 289.53 167.113 290.074ZM175.203 296.179C174.719 296.179 174.28 296.088 173.885 295.906C173.491 295.72 173.178 295.453 172.946 295.105C172.714 294.754 172.598 294.33 172.598 293.832C172.598 293.395 172.684 293.04 172.856 292.768C173.029 292.493 173.259 292.278 173.547 292.122C173.836 291.966 174.154 291.85 174.502 291.774C174.853 291.695 175.206 291.632 175.561 291.585C176.025 291.526 176.401 291.481 176.689 291.451C176.981 291.418 177.193 291.363 177.326 291.287C177.462 291.211 177.53 291.078 177.53 290.889V290.849C177.53 290.359 177.395 289.978 177.127 289.706C176.862 289.434 176.459 289.298 175.919 289.298C175.359 289.298 174.919 289.421 174.601 289.666C174.283 289.911 174.059 290.173 173.93 290.452L172.816 290.054C173.015 289.59 173.281 289.229 173.612 288.97C173.947 288.708 174.311 288.526 174.706 288.423C175.103 288.317 175.495 288.264 175.879 288.264C176.124 288.264 176.406 288.294 176.724 288.354C177.046 288.41 177.356 288.528 177.654 288.707C177.955 288.886 178.206 289.156 178.405 289.517C178.603 289.878 178.703 290.362 178.703 290.969V296H177.53V294.966H177.47C177.39 295.132 177.258 295.309 177.072 295.498C176.887 295.687 176.64 295.848 176.331 295.98C176.023 296.113 175.647 296.179 175.203 296.179ZM175.382 295.125C175.846 295.125 176.237 295.034 176.555 294.852C176.877 294.669 177.119 294.434 177.281 294.146C177.447 293.857 177.53 293.554 177.53 293.236V292.162C177.48 292.222 177.37 292.276 177.201 292.326C177.036 292.372 176.843 292.414 176.625 292.45C176.409 292.483 176.199 292.513 175.993 292.54C175.791 292.563 175.627 292.583 175.501 292.599C175.196 292.639 174.911 292.704 174.646 292.793C174.384 292.879 174.172 293.01 174.01 293.186C173.851 293.358 173.771 293.594 173.771 293.892C173.771 294.3 173.922 294.608 174.223 294.817C174.528 295.022 174.915 295.125 175.382 295.125ZM186.815 288.364L183.991 296H182.798L179.974 288.364H181.247L183.355 294.449H183.435L185.543 288.364H186.815ZM190.379 296.179C189.895 296.179 189.456 296.088 189.061 295.906C188.667 295.72 188.354 295.453 188.122 295.105C187.89 294.754 187.774 294.33 187.774 293.832C187.774 293.395 187.86 293.04 188.032 292.768C188.204 292.493 188.435 292.278 188.723 292.122C189.011 291.966 189.33 291.85 189.678 291.774C190.029 291.695 190.382 291.632 190.737 291.585C191.201 291.526 191.577 291.481 191.865 291.451C192.157 291.418 192.369 291.363 192.502 291.287C192.637 291.211 192.705 291.078 192.705 290.889V290.849C192.705 290.359 192.571 289.978 192.303 289.706C192.037 289.434 191.635 289.298 191.095 289.298C190.534 289.298 190.095 289.421 189.777 289.666C189.459 289.911 189.235 290.173 189.106 290.452L187.992 290.054C188.191 289.59 188.456 289.229 188.788 288.97C189.122 288.708 189.487 288.526 189.881 288.423C190.279 288.317 190.67 288.264 191.055 288.264C191.3 288.264 191.582 288.294 191.9 288.354C192.221 288.41 192.531 288.528 192.83 288.707C193.131 288.886 193.381 289.156 193.58 289.517C193.779 289.878 193.879 290.362 193.879 290.969V296H192.705V294.966H192.646C192.566 295.132 192.434 295.309 192.248 295.498C192.062 295.687 191.815 295.848 191.507 295.98C191.199 296.113 190.823 296.179 190.379 296.179ZM190.558 295.125C191.022 295.125 191.413 295.034 191.731 294.852C192.052 294.669 192.294 294.434 192.457 294.146C192.622 293.857 192.705 293.554 192.705 293.236V292.162C192.656 292.222 192.546 292.276 192.377 292.326C192.211 292.372 192.019 292.414 191.801 292.45C191.585 292.483 191.375 292.513 191.169 292.54C190.967 292.563 190.803 292.583 190.677 292.599C190.372 292.639 190.087 292.704 189.822 292.793C189.56 292.879 189.348 293.01 189.185 293.186C189.026 293.358 188.947 293.594 188.947 293.892C188.947 294.3 189.098 294.608 189.399 294.817C189.704 295.022 190.09 295.125 190.558 295.125ZM196.02 296V288.364H197.193V296H196.02ZM196.617 287.091C196.388 287.091 196.191 287.013 196.025 286.857C195.863 286.701 195.782 286.514 195.782 286.295C195.782 286.077 195.863 285.889 196.025 285.734C196.191 285.578 196.388 285.5 196.617 285.5C196.845 285.5 197.041 285.578 197.203 285.734C197.369 285.889 197.452 286.077 197.452 286.295C197.452 286.514 197.369 286.701 197.203 286.857C197.041 287.013 196.845 287.091 196.617 287.091ZM200.516 285.818V296H199.342V285.818H200.516ZM204.912 296.179C204.428 296.179 203.989 296.088 203.594 295.906C203.2 295.72 202.887 295.453 202.655 295.105C202.423 294.754 202.307 294.33 202.307 293.832C202.307 293.395 202.393 293.04 202.565 292.768C202.738 292.493 202.968 292.278 203.256 292.122C203.545 291.966 203.863 291.85 204.211 291.774C204.562 291.695 204.915 291.632 205.27 291.585C205.734 291.526 206.11 291.481 206.398 291.451C206.69 291.418 206.902 291.363 207.035 291.287C207.171 291.211 207.239 291.078 207.239 290.889V290.849C207.239 290.359 207.104 289.978 206.836 289.706C206.571 289.434 206.168 289.298 205.628 289.298C205.068 289.298 204.628 289.421 204.31 289.666C203.992 289.911 203.768 290.173 203.639 290.452L202.525 290.054C202.724 289.59 202.989 289.229 203.321 288.97C203.656 288.708 204.02 288.526 204.415 288.423C204.812 288.317 205.204 288.264 205.588 288.264C205.833 288.264 206.115 288.294 206.433 288.354C206.755 288.41 207.065 288.528 207.363 288.707C207.664 288.886 207.915 289.156 208.114 289.517C208.312 289.878 208.412 290.362 208.412 290.969V296H207.239V294.966H207.179C207.099 295.132 206.967 295.309 206.781 295.498C206.596 295.687 206.349 295.848 206.04 295.98C205.732 296.113 205.356 296.179 204.912 296.179ZM205.091 295.125C205.555 295.125 205.946 295.034 206.264 294.852C206.586 294.669 206.828 294.434 206.99 294.146C207.156 293.857 207.239 293.554 207.239 293.236V292.162C207.189 292.222 207.079 292.276 206.91 292.326C206.745 292.372 206.552 292.414 206.334 292.45C206.118 292.483 205.908 292.513 205.702 292.54C205.5 292.563 205.336 292.583 205.21 292.599C204.905 292.639 204.62 292.704 204.355 292.793C204.093 292.879 203.881 293.01 203.719 293.186C203.56 293.358 203.48 293.594 203.48 293.892C203.48 294.3 203.631 294.608 203.932 294.817C204.237 295.022 204.623 295.125 205.091 295.125ZM210.712 296V285.818H211.886V289.577H211.985C212.071 289.444 212.191 289.275 212.343 289.07C212.499 288.861 212.721 288.675 213.009 288.513C213.301 288.347 213.695 288.264 214.193 288.264C214.836 288.264 215.402 288.425 215.893 288.746C216.383 289.068 216.766 289.524 217.041 290.114C217.316 290.704 217.454 291.4 217.454 292.202C217.454 293.01 217.316 293.711 217.041 294.305C216.766 294.895 216.385 295.352 215.898 295.677C215.411 295.998 214.849 296.159 214.212 296.159C213.722 296.159 213.329 296.078 213.034 295.915C212.739 295.75 212.512 295.562 212.353 295.354C212.194 295.142 212.071 294.966 211.985 294.827H211.846V296H210.712ZM211.866 292.182C211.866 292.759 211.95 293.267 212.119 293.708C212.288 294.146 212.535 294.489 212.86 294.737C213.185 294.982 213.583 295.105 214.053 295.105C214.544 295.105 214.953 294.976 215.281 294.717C215.613 294.455 215.861 294.104 216.027 293.663C216.196 293.219 216.281 292.725 216.281 292.182C216.281 291.645 216.198 291.161 216.032 290.73C215.87 290.296 215.623 289.953 215.291 289.701C214.963 289.446 214.551 289.318 214.053 289.318C213.576 289.318 213.175 289.439 212.85 289.681C212.525 289.92 212.28 290.254 212.114 290.685C211.949 291.113 211.866 291.612 211.866 292.182ZM220.422 285.818V296H219.249V285.818H220.422ZM225.773 296.159C225.037 296.159 224.402 295.997 223.869 295.672C223.338 295.344 222.929 294.886 222.641 294.3C222.355 293.71 222.213 293.024 222.213 292.241C222.213 291.459 222.355 290.77 222.641 290.173C222.929 289.573 223.33 289.106 223.844 288.771C224.361 288.433 224.964 288.264 225.653 288.264C226.051 288.264 226.444 288.33 226.832 288.463C227.219 288.596 227.572 288.811 227.891 289.109C228.209 289.404 228.462 289.795 228.651 290.283C228.84 290.77 228.935 291.37 228.935 292.082V292.58H223.048V291.565H227.741C227.741 291.134 227.655 290.75 227.483 290.412C227.314 290.074 227.072 289.807 226.757 289.612C226.445 289.416 226.078 289.318 225.653 289.318C225.186 289.318 224.782 289.434 224.44 289.666C224.102 289.895 223.842 290.193 223.66 290.561C223.477 290.929 223.386 291.323 223.386 291.744V292.42C223.386 292.997 223.486 293.486 223.685 293.887C223.887 294.285 224.167 294.588 224.525 294.797C224.883 295.002 225.299 295.105 225.773 295.105C226.081 295.105 226.359 295.062 226.608 294.976C226.86 294.886 227.077 294.754 227.259 294.578C227.441 294.399 227.582 294.177 227.682 293.912L228.815 294.23C228.696 294.615 228.495 294.953 228.214 295.244C227.932 295.533 227.584 295.758 227.17 295.92C226.755 296.08 226.29 296.159 225.773 296.159Z" fill="#242424"/>
<defs>
<linearGradient id="paint0_linear_5140_68319" x1="125.031" y1="235.89" x2="122.278" y2="151.463" gradientUnits="userSpaceOnUse">
<stop stop-color="#819BFF"/>
<stop offset="0.987775" stop-color="#AEBFFF"/>
</linearGradient>
</defs>
</svg>
