<?xml version="1.0" encoding="UTF-8"?>
<svg width="258px" height="224px" viewBox="0 0 258 224" version="1.1" xmlns="http://www.w3.org/2000/svg" xmlns:xlink="http://www.w3.org/1999/xlink">
    <!-- Generator: sketchtool 60 (101010) - https://sketch.com -->
    <title>87B9C526-8BF4-4739-80BD-E81670096C1F</title>
    <desc>Created with sketchtool.</desc>
    <defs>
        <linearGradient x1="9.94703989%" y1="32.3019182%" x2="65.7759481%" y2="32.3019182%" id="linearGradient-1">
            <stop stop-color="#FFE3E7" offset="0%"></stop>
            <stop stop-color="#E58FB7" offset="100%"></stop>
        </linearGradient>
        <linearGradient x1="31.5168558%" y1="100%" x2="43.2585547%" y2="-43.874824%" id="linearGradient-2">
            <stop stop-color="#FFE3E7" offset="0%"></stop>
            <stop stop-color="#E58FB7" offset="100%"></stop>
        </linearGradient>
        <linearGradient x1="75.587179%" y1="0%" x2="47.3895194%" y2="66.4913071%" id="linearGradient-3">
            <stop stop-color="#FFE3E7" offset="0%"></stop>
            <stop stop-color="#E58FB7" offset="100%"></stop>
        </linearGradient>
        <linearGradient x1="65.8148851%" y1="16.9151749%" x2="31.7202326%" y2="68.9424973%" id="linearGradient-4">
            <stop stop-color="#FFE3E7" offset="0%"></stop>
            <stop stop-color="#FF5BA8" offset="100%"></stop>
        </linearGradient>
        <linearGradient x1="100%" y1="48.3251641%" x2="44.8988503%" y2="50.5524046%" id="linearGradient-5">
            <stop stop-color="#FFE3E7" offset="0%"></stop>
            <stop stop-color="#FF5BA8" offset="100%"></stop>
        </linearGradient>
        <linearGradient x1="50%" y1="43.0855915%" x2="81.8618541%" y2="54.9388966%" id="linearGradient-6">
            <stop stop-color="#FFA733" offset="0%"></stop>
            <stop stop-color="#FFB655" offset="100%"></stop>
        </linearGradient>
        <linearGradient x1="63.777583%" y1="39.8452265%" x2="106.187186%" y2="95.8751596%" id="linearGradient-7">
            <stop stop-color="#FFDC8E" offset="0%"></stop>
            <stop stop-color="#FFB655" offset="100%"></stop>
        </linearGradient>
    </defs>
    <g id="Page-1" stroke="none" stroke-width="1" fill="none" fill-rule="evenodd">
        <g id="Gomble-Brand-Design-System---Illustrations" transform="translate(-379.000000, -1262.000000)">
            <g id="No-product-found" transform="translate(379.000000, 1255.000000)">
                <g id="Group-2">
                    <path d="M138.767141,231 C52.8382221,231 0,225.515181 0,218.75 C0,211.984429 52.8382221,206.5 138.767141,206.5 C224.695517,206.5 258,211.984429 258,218.75 C258,225.515181 224.695517,231 138.767141,231 Z" id="Fill-34" fill="#FFF0F2" fill-rule="nonzero"></path>
                    <g id="Group-115" transform="translate(140.784553, 115.500000) scale(-1, 1) translate(-140.784553, -115.500000) translate(96.284553, 0.000000)">
                        <g id="Group-88" transform="translate(45.235175, 43.616983) rotate(-13.000000) translate(-45.235175, -43.616983) translate(9.735175, 7.116983)" fill-rule="nonzero">
                            <polygon id="Path-30" fill="url(#linearGradient-1)" points="11.1385481 55.2158378 40.8297998 41.1033226 70.5210516 47.8866488 45.2507475 63.7264732"></polygon>
                            <polygon id="Path-28" fill="url(#linearGradient-2)" points="11.1385481 10.3269111 40.8297998 6.38146858 40.8297998 41.1033226 11.1385481 55.2158378"></polygon>
                            <path d="M13.0082778,34.8986623 C13.0082778,34.8986623 18.7422239,26.9249588 16.8261312,26.9249588 C15.6981213,26.9249588 13.84749,29.3333907 13.0082778,28.9162305 C12.4219631,28.6247821 12.7017776,25.4930284 12.4876415,23.3699381 C10.763663,23.7452171 9.97850036,27.058949 9.40761188,27.7711644 C8.59860226,28.7804494 9.7988242,31.156282 13.0082778,34.8986623 Z" id="Fill-418" fill="#F1A076"></path>
                            <polygon id="Path-29" fill="url(#linearGradient-3)" points="40.8297998 6.38146858 40.8297998 41.1033226 70.5210516 47.8866488 70.5210516 10.3269111"></polygon>
                            <polygon id="Path-27" fill="url(#linearGradient-4)" points="45.2507475 17.2497188 45.2507475 63.7264732 70.5210516 47.8866488 70.5210516 10.3269111"></polygon>
                            <polygon id="Path-33" fill="#FFE3E7" points="45.2507475 17.2497188 67.2798013 17.2497188 67.2798013 60.3660335 45.2507475 63.7264732"></polygon>
                            <polygon id="Path-26" fill="url(#linearGradient-5)" points="11.1385481 10.3269111 39.8180387 6.38146858 70.5210516 10.3269111 45.2507475 17.2497188"></polygon>
                            <polygon id="Path-32" fill="#FFE3E7" points="11.1385481 10.3269111 19.8411239 0 55.6754256 3.78334231 45.2507475 17.2497188"></polygon>
                            <polygon id="Path-34" fill="#FFE3E7" points="11.1385481 55.2158378 0.139835848 60.6352608 35.3788582 72.7999958 45.2507475 63.7264732"></polygon>
                        </g>
                        <g id="Group-73" transform="translate(0.000000, 42.700000)">
                            <path d="M42.7902428,179.268612 C42.7902428,184.271419 37.2553016,183.42173 30.9909432,186.95311 C28.0598694,188.605431 24.3277605,187.451494 22.0243897,185.380153 C22.0243897,185.380153 22.4861156,178.903761 23.6791476,175.599389 C24.8209935,172.428179 33.3444773,174.386143 34.6950054,175.599389 C36.1833424,176.940865 42.7902428,174.265805 42.7902428,179.268612 Z" id="Fill-114" fill="#0F0E1D" fill-rule="nonzero"></path>
                            <path d="M6.68151116,182.833961 C5.00942192,182.833961 3.47297818,182.369306 2.07217992,181.439995 C2.07217992,181.439995 1.66694395,177.863115 2.55030006,175.149061 C3.39575641,172.54438 4.71933289,171.361539 4.40155792,168.209996 C5.47732823,169.745259 7.22654826,171.462809 9.66962556,171.009117 C9.82473194,171.356454 14.2922213,173.181422 17.85623,173.181422 C20.7343279,173.181422 22.1159867,177.344995 18.9696453,179.096131 C14.8179084,179.942465 9.80586578,182.833961 6.68151116,182.833961 Z" id="Fill-115" fill="#030231" fill-rule="nonzero"></path>
                            <path d="M18.0466748,134.68396 C17.4811578,139.486642 14.0834367,162.19502 14.3702831,172.253516 C14.4640896,175.542912 2.74723894,175.464756 2.74723894,173.285874 C2.74723894,168.433968 -0.185462023,95.2302505 1.21766511,93.8699972 C3.27142837,91.8789893 9.57773491,94.3989893 20.1365848,101.429997 C19.2436156,119.350447 18.546979,130.435101 18.0466748,134.68396 Z" id="Fill-419" fill="#FFBF00" fill-rule="nonzero"></path>
                            <path d="M34.7632644,175.768452 C35.1056791,177.643671 24.0195027,179.237587 23.2829262,176.687902 C22.7918752,174.988111 20.6272512,151.938382 16.7890543,107.538714 L35.5714158,102.992746 L35.5714158,137.127098 C34.8043719,161.637855 34.534988,174.518305 34.7632644,175.768452 Z" id="Fill-421" fill="#FFBF00" fill-rule="nonzero"></path>
                            <g id="Group-110" stroke-linecap="round" stroke-linejoin="round" transform="translate(7.061789, 112.839997)" stroke="#222D57" stroke-width="0.5">
                                <path d="M0.110208041,0.383093247 C2.36438486,1.76207716 4.96438007,2.34960521 7.91019365,2.14567737 C8.60212168,3.88565442 9.69438776,8.11908069 11.1869919,14.8459562" id="Path-79"></path>
                            </g>
                            <path d="M32.8876434,82.9830911 C34.676825,92.2992581 35.5714158,99.7929338 35.5714158,105.464119 C35.5714158,113.970897 9.44954988,115.945591 4.58415712,109.067721 C1.34056194,104.482475 1.43487537,97.6043516 4.86709742,88.4333506 L15.644819,83.3492401 L32.8876434,82.9830911 Z" id="Fill-423" fill="#FFBF00" fill-rule="nonzero"></path>
                            <g id="Group-111" transform="translate(0.156958, 0.367744)">
                                <path d="M2.28688956,46.0639402 C2.28688956,48.8640568 7.25777975,48.1368667 17.1995601,43.8823697 C20.6185887,18.2229097 22.328103,5.27059701 22.328103,5.02543153 C22.328103,2.41296056 20.8510315,0.799940953 17.8968883,0.18637271 C6.09751502,20.7055929 2.28688956,41.8637652 2.28688956,46.0639402 Z" id="Fill-424" fill="#B1E5FF" fill-rule="nonzero"></path>
                                <path d="M8.16850563,36.8740949 C8.16850563,36.8740949 4.8739933,36.9534749 2.06323868,41.7453807 C-0.747515943,46.5372865 0.039572131,93.9848854 0.385524856,94.0665005 C12.7551817,96.9846864 24.4423093,96.9846864 35.4469074,94.0665005 C36.488846,89.0922543 31.6549759,78.3223539 28.9401573,57.0232242 C26.2253387,35.7240946 8.16850563,36.8740949 8.16850563,36.8740949 Z" id="Fill-424" fill="#B1E5FF" fill-rule="nonzero"></path>
                                <path d="M41.0898707,35.7107455 C37.9319997,37.952584 14.1371313,41.97274 11.3263767,46.7646458 C8.51562204,51.5565516 10.3300921,62.0869488 31.5099534,54.1551202 C34.1766664,52.6980563 46.4557039,47.9317285 48.3894453,45.1313786 C50.3231867,42.3327927 59.4308943,15.6720726 59.4308943,15.6720726 L53.0170728,13.4974365 C52.7842746,14.6646133 52.5399434,15.1762199 52.2840792,15.0322564 C51.3218889,14.4908742 44.2477418,33.4689069 41.0898707,35.7107455 Z" id="Fill-424" fill="#B1E5FF" fill-rule="nonzero"></path>
                                <polyline id="Path-99" stroke="#1D1119" stroke-width="0.7" stroke-linecap="round" points="28.7168812 55.0758997 25.0922524 57.0232242 23.7587949 66.5591557"></polyline>
                                <path d="M21.5790895,41.6874176 C20.4760436,42.6554028 18.154732,43.3844777 14.6151545,43.874642" id="Path-97" stroke="#1D1119" stroke-width="0.7" stroke-linecap="round" transform="translate(18.097122, 42.781030) scale(-1, 1) rotate(-145.000000) translate(-18.097122, -42.781030) "></path>
                            </g>
                            <path d="M58.8886658,16.0398162 L59.5878528,13.437792 C62.4249033,12.2172902 67.1219512,8.22750719 67.1219512,5.52247396 C67.1219512,2.81744072 62.6185342,3.35768813 60.9343482,3.88819823 C59.2501622,4.41870834 57.8361133,5.8737035 57.8361133,5.8737035 C57.6803556,5.5281966 57.6803556,4.53911279 57.8361133,2.90645208 C56.6964364,3.68956918 55.9432314,4.56157648 55.5764986,5.52247396 C55.0263992,6.96382018 55.0338368,8.54534485 55.2497469,9.74989974 C55.3519593,10.3201391 54.1905184,11.9833828 53.3928534,13.437792 C52.9224629,14.2954706 54.7544004,15.162812 58.8886658,16.0398162 Z" id="Fill-429" fill="#FEB08A" fill-rule="nonzero"></path>
                            <g id="Group-13" transform="translate(12.474926, 27.634011) rotate(-5.000000) translate(-12.474926, -27.634011) translate(2.974926, 14.634011)">
                                <path d="M5.55352848,18.6726152 L3.25760742,24.1308629 C8.3634068,25.2636205 11.5478925,25.5725803 12.8110647,25.0577421 C14.0742369,24.5429039 14.5954957,23.3708275 14.374841,21.5415127 C15.8143501,21.3015296 16.5341047,20.7581734 16.5341047,19.911444 C16.5341047,19.0647146 16.5341047,17.1737467 16.5341047,14.2385405 C18.1143577,13.1764134 18.1143577,12.3142723 16.5341047,11.652117 C14.9538517,10.9899618 13.8603379,9.37888245 13.2535632,6.81887915 C11.3383105,4.68801994 9.88441545,3.91458814 8.89187806,4.49858373 C7.40307193,5.37457713 0.0615753587,10.070941 2.28351405,13.7274755 C3.76480651,16.1651652 4.85481132,17.8135451 5.55352848,18.6726152 Z" id="Path-35" fill="#FFC0A9" fill-rule="nonzero"></path>
                                <path d="M3.44357271,24.2858996 C4.18984102,25.5813222 7.48610781,25.5296433 13.3323731,24.1308629" id="Path-95" stroke="#1D1119" stroke-width="0.7" stroke-linecap="round" transform="translate(8.387973, 24.675529) scale(-1, 1) translate(-8.387973, -24.675529) "></path>
                                <path d="M12.3832604,15.3256613 L13.5771092,14.3711917 L12.9801848,12.6357175 C13.5390368,11.4207571 13.3400621,10.3600978 12.3832604,9.45373961 C13.9853213,8.03503211 14.7636733,4.27511323 12.9801848,1.60915406 C11.1966962,-1.05680511 8.89572652,0.152192376 8.51555317,1.24064788 C6.26035274,1.34715415 5.44722708,2.42754569 5.81530526,3.36884673 C6.18338344,4.31014777 -1.3323827,5.74312243 1.01812737,12.4543956 C-1.9741437,16.2328949 4.42411967,21.2189667 6.35518991,21.2189667 C7.64257004,21.2189667 8.91577053,19.6789832 10.1747913,16.5990166 C8.46167466,15.30764 7.90859524,13.9865403 8.51555317,12.6357175 C9.12251104,11.2848947 10.1021286,11.4427735 11.4544059,13.1093539 L12.3832604,15.3256613 Z" id="Path-36" fill="#202C52" fill-rule="nonzero"></path>
                                <path d="M12.3832604,15.3256613 L13.5771092,14.3711917 C14.2719418,15.8072374 14.88229,16.5252603 15.4081538,16.5252603 C15.9340176,16.5252603 16.2878163,15.8072374 16.4695501,14.3711917 L16.8173655,14.142047 L17.4838784,15.3336536 C17.2714134,15.8949328 17.0492424,16.292135 16.8173655,16.5252603 C16.4695501,16.8749481 17.899049,17.1289852 18.1643102,17.0019667 C18.4295715,16.8749481 19.2273478,21.6978089 17.7192944,22.7017841 C16.7139255,23.3711008 15.474823,23.8474604 14.0019871,24.1308629 C14.2874836,21.4570129 14.3588577,19.7922103 14.2161095,19.136455 C14.0733612,18.4806996 13.4624115,17.2104351 12.3832604,15.3256613 Z" id="Path-37" fill="#202C52" fill-rule="nonzero"></path>
                            </g>
                        </g>
                    </g>
                </g>
                <g id="962669" transform="translate(34.000000, 154.000000)" fill-rule="nonzero">
                    <polygon id="Path" fill="#FFDAAA" points="36.7799037 31.2772207 10.0421249 25.1705019 10.0421249 63.1529501 46.8065708 71.5412999 46.8065708 22.8888708"></polygon>
                    <polygon id="Path" fill="url(#linearGradient-6)" points="83.5710168 14.5005209 45.9741208 6.32056348 10.0421249 14.5005209 46.8065708 22.8888708"></polygon>
                    <polygon id="Path" fill="url(#linearGradient-7)" points="45.9741208 6.32056348 10.0421249 14.5005209 46.8065708 22.8888708"></polygon>
                    <polygon id="Path" fill="#FFDAAA" points="46.8065708 22.8888708 46.8065708 71.5412999 83.5710168 63.1529501 83.5710168 25.1705019 56.8332378 31.2772207"></polygon>
                    <g id="Group" fill="#FFC477">
                        <polygon id="Path" points="56.8332378 31.2772207 83.5710168 25.1705019 93.5976835 22.8888708 83.5710168 14.5005209 46.8065708 22.8888708"></polygon>
                        <polygon id="Path" points="34.9623934 0.189996124 0.0154577784 6.11217112 10.0421249 14.5005209 45.9741208 6.32056348"></polygon>
                        <polygon id="Path" points="10.0421249 25.1705019 36.7799037 31.2772207 46.8065708 22.8888708 10.0421249 14.5005209 0.0154577784 22.8888708"></polygon>
                        <polygon id="Path" points="45.9741208 6.32056348 83.5710168 14.5005209 91.9265724 6.11217112 57.910409 0.704463525"></polygon>
                    </g>
                </g>
            </g>
        </g>
    </g>
</svg>