<?xml version="1.0" encoding="UTF-8"?>
<svg width="18px" height="18px" viewBox="0 0 18 18" version="1.1" xmlns="http://www.w3.org/2000/svg" xmlns:xlink="http://www.w3.org/1999/xlink">
    <!-- Generator: sketchtool 60 (101010) - https://sketch.com -->
    <title>E05ECF66-AE10-4142-B267-A971C9F17A8C@1x</title>
    <desc>Created with sketchtool.</desc>
    <g id="Page-1" stroke="none" stroke-width="1" fill="none" fill-rule="evenodd">
        <g id="Gomble-Brand-Design-System" transform="translate(-458.000000, -10666.000000)">
            <g id="Group-4" transform="translate(458.000000, 10666.000000)">
                <path d="M17.9052353,9.24158824 C17.9052353,15.3894706 15.1004118,17.9052353 8.95288235,17.9052353 C2.805,17.9052353 9.9475983e-14,15.3894706 9.9475983e-14,9.24158824 C9.9475983e-14,3.09370588 2.805,0 8.95288235,0 C15.1004118,0 17.9052353,3.09370588 17.9052353,9.24158824" id="Fill-65" fill="#3A3A3A"></path>
                <path d="M9.81670588,14.5327059 L9.81670588,9.44223529 L11.5254706,9.44223529 L11.7815294,7.458 L9.81670588,7.458 L9.81670588,6.19129412 C9.81670588,5.61705882 9.97623529,5.22547059 10.8,5.22547059 L11.8505294,5.22494118 L11.8505294,3.45052941 C11.6687647,3.42635294 11.0452941,3.37217647 10.3198235,3.37217647 C8.805,3.37217647 7.76788235,4.29705882 7.76788235,5.99488235 L7.76788235,7.458 L6.05488235,7.458 L6.05488235,9.44223529 L7.76788235,9.44223529 L7.76788235,14.5327059 L9.81670588,14.5327059" id="Fill-66" fill="#FFFFFE"></path>
            </g>
        </g>
    </g>
</svg>