<svg width="21" height="21" viewBox="0 0 21 21" fill="none" xmlns="http://www.w3.org/2000/svg">
<path fill-rule="evenodd" clip-rule="evenodd" d="M4.67 2.5005C5.0934 1.30054 6.22753 0.498047 7.5 0.498047C8.77247 0.498047 9.9066 1.30054 10.33 2.5005H20.5V4.5005H10.33C9.9066 5.70046 8.77247 6.50295 7.5 6.50295C6.22753 6.50295 5.0934 5.70046 4.67 4.5005H0.5V2.5005H4.67ZM13.5 7.49805C12.2275 7.49805 11.0934 8.30054 10.67 9.5005H0.5V11.5005H10.67C11.0934 12.7005 12.2275 13.5029 13.5 13.5029C14.7725 13.5029 15.9066 12.7005 16.33 11.5005H20.5V9.5005H16.33C15.9066 8.30054 14.7725 7.49805 13.5 7.49805ZM7.5 14.498C6.22753 14.498 5.0934 15.3005 4.67 16.5005H0.5V18.5005H4.67C5.0934 19.7005 6.22753 20.5029 7.5 20.5029C8.77247 20.5029 9.9066 19.7005 10.33 18.5005H20.5V16.5005H10.33C9.9066 15.3005 8.77247 14.498 7.5 14.498ZM8.5 3.5005C8.5 4.05278 8.05228 4.5005 7.5 4.5005C6.94772 4.5005 6.5 4.05278 6.5 3.5005C6.5 2.94821 6.94772 2.5005 7.5 2.5005C8.05228 2.5005 8.5 2.94821 8.5 3.5005ZM13.5 11.5005C14.0523 11.5005 14.5 11.0528 14.5 10.5005C14.5 9.94821 14.0523 9.5005 13.5 9.5005C12.9477 9.5005 12.5 9.94821 12.5 10.5005C12.5 11.0528 12.9477 11.5005 13.5 11.5005ZM8.5 17.5005C8.5 18.0528 8.05228 18.5005 7.5 18.5005C6.94772 18.5005 6.5 18.0528 6.5 17.5005C6.5 16.9482 6.94772 16.5005 7.5 16.5005C8.05228 16.5005 8.5 16.9482 8.5 17.5005Z" fill="#708099"/>
</svg>
