<svg xmlns="http://www.w3.org/2000/svg" width="24" height="24" viewBox="0 0 24 24" fill="none">
<path fill-rule="evenodd" clip-rule="evenodd" d="M6.17 3.99854C6.5934 2.79858 7.72753 1.99609 9 1.99609C10.2725 1.99609 11.4066 2.79858 11.83 3.99854H22V5.99854H11.83C11.4066 7.1985 10.2725 8.00099 9 8.00099C7.72753 8.00099 6.5934 7.1985 6.17 5.99854H2V3.99854H6.17ZM15 8.99609C13.7275 8.99609 12.5934 9.79858 12.17 10.9985H2V12.9985H12.17C12.5934 14.1985 13.7275 15.001 15 15.001C16.2725 15.001 17.4066 14.1985 17.83 12.9985H22V10.9985H17.83C17.4066 9.79858 16.2725 8.99609 15 8.99609ZM9 15.9961C7.72753 15.9961 6.5934 16.7986 6.17 17.9985H2V19.9985H6.17C6.5934 21.1985 7.72753 22.001 9 22.001C10.2725 22.001 11.4066 21.1985 11.83 19.9985H22V17.9985H11.83C11.4066 16.7986 10.2725 15.9961 9 15.9961ZM10 4.99854C10 5.55083 9.55228 5.99854 9 5.99854C8.44772 5.99854 8 5.55083 8 4.99854C8 4.44626 8.44772 3.99854 9 3.99854C9.55228 3.99854 10 4.44626 10 4.99854ZM15 12.9985C15.5523 12.9985 16 12.5508 16 11.9985C16 11.4463 15.5523 10.9985 15 10.9985C14.4477 10.9985 14 11.4463 14 11.9985C14 12.5508 14.4477 12.9985 15 12.9985ZM10 18.9985C10 19.5508 9.55228 19.9985 9 19.9985C8.44772 19.9985 8 19.5508 8 18.9985C8 18.4463 8.44772 17.9985 9 17.9985C9.55228 17.9985 10 18.4463 10 18.9985Z" fill="#242424"/>
</svg>