<?xml version="1.0" encoding="UTF-8"?>
<svg width="16px" height="14px" viewBox="0 0 16 14" version="1.1" xmlns="http://www.w3.org/2000/svg" xmlns:xlink="http://www.w3.org/1999/xlink">
    <!-- Generator: sketchtool 60 (101010) - https://sketch.com -->
    <title>DC0C10EF-3350-466C-A875-72CB2381E44E@2x</title>
    <desc>Created with sketchtool.</desc>
    <g id="Page-1" stroke="none" stroke-width="1" fill="none" fill-rule="evenodd">
        <g id="Gomble-Brand-Design-System" transform="translate(-109.000000, -10668.000000)">
            <g id="Group" transform="translate(108.000000, 10666.000000)">
                <polygon id="Path" points="0 0 18 0 18 18 0 18"></polygon>
                <path d="M3.621,15.75 L3.606,15.765 L3.59025,15.75 L2.244,15.75 C1.83297886,15.7495861 1.5,15.4162714 1.5,15.00525 L1.5,2.99475 C1.50285587,2.58491666 1.83416974,2.2532688 2.244,2.25 L15.756,2.25 C16.167,2.25 16.5,2.58375 16.5,2.99475 L16.5,15.00525 C16.4971441,15.4150833 16.1658303,15.7467312 15.756,15.75 L3.621,15.75 L3.621,15.75 Z M15,11.25 L15,3.75 L3,3.75 L3,14.25 L10.5,6.75 L15,11.25 Z M15,13.371 L10.5,8.871 L5.121,14.25 L15,14.25 L15,13.371 Z M6,8.25 C5.17157288,8.25 4.5,7.57842712 4.5,6.75 C4.5,5.92157288 5.17157288,5.25 6,5.25 C6.82842712,5.25 7.5,5.92157288 7.5,6.75 C7.5,7.57842712 6.82842712,8.25 6,8.25 Z" id="Shape" fill="#242424" fill-rule="nonzero"></path>
            </g>
        </g>
    </g>
</svg>