<?xml version="1.0" encoding="UTF-8"?>
<svg width="18px" height="18px" viewBox="0 0 18 18" version="1.1" xmlns="http://www.w3.org/2000/svg" xmlns:xlink="http://www.w3.org/1999/xlink">
    <!-- Generator: sketchtool 60 (101010) - https://sketch.com -->
    <title>FE6DDCE9-4E44-47C6-878E-D6777D3396CE@1x</title>
    <desc>Created with sketchtool.</desc>
    <g id="Page-1" stroke="none" stroke-width="1" fill="none" fill-rule="evenodd">
        <g id="Gomble-Brand-Design-System" transform="translate(-574.000000, -10666.000000)">
            <g id="Group-2" transform="translate(574.000000, 10666.000000)">
                <path d="M17.9050588,9.24158824 C17.9050588,15.3896471 15.1002353,17.9050588 8.95270588,17.9050588 C2.80482353,17.9050588 -7.10542736e-15,15.3896471 -7.10542736e-15,9.24158824 C-7.10542736e-15,3.09388235 2.80482353,-7.10542736e-15 8.95270588,-7.10542736e-15 C15.1002353,-7.10542736e-15 17.9050588,3.09388235 17.9050588,9.24158824" id="Fill-53" fill="#3A3A3A"></path>
                <path d="M8.95252941,3.16323529 C7.38017647,3.16323529 7.18323529,3.16994118 6.56558824,3.198 C5.94917647,3.22623529 5.52847059,3.324 5.16035294,3.46729412 C4.77952941,3.61517647 4.45658824,3.813 4.13488235,4.13488235 C3.813,4.45676471 3.615,4.77970588 3.46711765,5.16035294 C3.324,5.52864706 3.22605882,5.94952941 3.19817647,6.56558824 C3.16976471,7.18323529 3.16288235,7.38035294 3.16288235,8.95270588 C3.16288235,10.5247059 3.16976471,10.7221765 3.19817647,11.3396471 C3.22605882,11.9558824 3.324,12.3767647 3.46711765,12.7448824 C3.615,13.1257059 3.813,13.4484706 4.13488235,13.7703529 C4.45658824,14.0922353 4.77952941,14.2900588 5.16035294,14.4381176 C5.52847059,14.5812353 5.94917647,14.679 6.56558824,14.7072353 C7.18323529,14.7352941 7.38017647,14.742 8.95252941,14.742 C10.5248824,14.742 10.7218235,14.7352941 11.3394706,14.7072353 C11.9558824,14.679 12.3762353,14.5812353 12.7447059,14.4381176 C13.1257059,14.2900588 13.4482941,14.0922353 13.7701765,13.7703529 C14.0920588,13.4484706 14.2900588,13.1257059 14.4379412,12.7448824 C14.5812353,12.3767647 14.679,11.9558824 14.7068824,11.3396471 C14.7352941,10.7221765 14.7421765,10.5247059 14.7421765,8.95270588 C14.7421765,7.38035294 14.7352941,7.18323529 14.7068824,6.56558824 C14.679,5.94952941 14.5812353,5.52864706 14.4379412,5.16035294 C14.2900588,4.77970588 14.0920588,4.45676471 13.7701765,4.13488235 C13.4482941,3.813 13.1257059,3.61517647 12.7447059,3.46729412 C12.3762353,3.324 11.9558824,3.22623529 11.3394706,3.198 C10.7218235,3.16994118 10.5248824,3.16323529 8.95252941,3.16323529 M8.95252941,4.20635294 C10.4984118,4.20635294 10.6814118,4.21235294 11.292,4.24023529 C11.8563529,4.26582353 12.1628824,4.36023529 12.3670588,4.43947059 C12.6370588,4.54447059 12.8299412,4.66994118 13.0325294,4.87252941 C13.2352941,5.07511765 13.3607647,5.26782353 13.4657647,5.53835294 C13.545,5.74217647 13.6392353,6.04870588 13.665,6.61305882 C13.6928824,7.22364706 13.6988824,7.40682353 13.6988824,8.95270588 C13.6988824,10.4984118 13.6928824,10.6815882 13.665,11.292 C13.6392353,11.8563529 13.545,12.1630588 13.4657647,12.3670588 C13.3607647,12.6372353 13.2352941,12.8301176 13.0325294,13.0325294 C12.8299412,13.2352941 12.6370588,13.3607647 12.3670588,13.4657647 C12.1628824,13.5451765 11.8563529,13.6394118 11.292,13.665 C10.6815882,13.6928824 10.4984118,13.6988824 8.95252941,13.6988824 C7.40647059,13.6988824 7.22347059,13.6928824 6.61305882,13.665 C6.04870588,13.6394118 5.74217647,13.5451765 5.538,13.4657647 C5.26782353,13.3607647 5.07511765,13.2352941 4.87252941,13.0325294 C4.66976471,12.8301176 4.54447059,12.6372353 4.43929412,12.3670588 C4.36005882,12.1630588 4.26582353,11.8563529 4.24005882,11.292 C4.21217647,10.6815882 4.20635294,10.4984118 4.20635294,8.95270588 C4.20635294,7.40682353 4.21217647,7.22364706 4.24005882,6.61305882 C4.26582353,6.04870588 4.36005882,5.74217647 4.43929412,5.53835294 C4.54447059,5.26782353 4.66976471,5.07511765 4.87252941,4.87252941 C5.07511765,4.66994118 5.26782353,4.54447059 5.538,4.43947059 C5.74217647,4.36023529 6.04870588,4.26582353 6.61305882,4.24023529 C7.22364706,4.21235294 7.40647059,4.20635294 8.95252941,4.20635294" id="Fill-54" fill="#FFFFFE"></path>
                <path d="M8.95252941,10.8824118 C7.88682353,10.8824118 7.02264706,10.0182353 7.02264706,8.95252941 C7.02264706,7.88664706 7.88682353,7.02282353 8.95252941,7.02282353 C10.0182353,7.02282353 10.8822353,7.88664706 10.8822353,8.95252941 C10.8822353,10.0182353 10.0182353,10.8824118 8.95252941,10.8824118 M8.95252941,5.97970588 C7.31064706,5.97970588 5.97952941,7.31064706 5.97952941,8.95252941 C5.97952941,10.5945882 7.31064706,11.9255294 8.95252941,11.9255294 C10.5944118,11.9255294 11.9255294,10.5945882 11.9255294,8.95252941 C11.9255294,7.31064706 10.5944118,5.97970588 8.95252941,5.97970588" id="Fill-55" fill="#FFFFFE"></path>
                <path d="M12.7374706,5.86235294 C12.7374706,6.24582353 12.4267059,6.55694118 12.0428824,6.55694118 C11.6592353,6.55694118 11.3481176,6.24582353 11.3481176,5.86235294 C11.3481176,5.47870588 11.6592353,5.16741176 12.0428824,5.16741176 C12.4267059,5.16741176 12.7374706,5.47870588 12.7374706,5.86235294" id="Fill-56" fill="#FFFFFE"></path>
            </g>
        </g>
    </g>
</svg>