<?xml version="1.0" encoding="UTF-8"?>
<svg width="25px" height="23px" viewBox="0 0 25 23" version="1.1" xmlns="http://www.w3.org/2000/svg" xmlns:xlink="http://www.w3.org/1999/xlink">
    <!-- Generator: sketchtool 60 (101010) - https://sketch.com -->
    <title>C1FB3D5C-5FD0-4202-BA7A-754ED1537607@1x</title>
    <desc>Created with sketchtool.</desc>
    <g id="Customer" stroke="none" stroke-width="1" fill="none" fill-rule="evenodd">
        <g id="Ready-to-wear_1" transform="translate(-426.000000, -2471.000000)" fill-rule="nonzero">
            <g id="Group-2" transform="translate(80.000000, 2148.000000)">
                <g id="Group-39">
                    <g id="Group-32" transform="translate(331.000000, 163.000000)">
                        <g id="Group-31" transform="translate(0.000000, 159.000000)">
                            <g id="Group-25" transform="translate(15.000000, 1.000000)">
                                <g id="like">
                                    <path d="M24.9756098,14.3414634 C24.9756098,13.7160488 24.726878,13.1332683 24.2981463,12.7034634 C24.7841463,12.1717073 25.0318049,11.4588293 24.9641463,10.716878 C24.8423902,9.39419512 23.6508293,8.35770732 22.2501463,8.35770732 L15.8220488,8.35770732 C16.1404878,7.39092683 16.6503902,5.61873171 16.6503902,4.19512195 C16.6503902,1.93795122 14.7324878,0.0325365854 13.528439,0.0325365854 C12.4482439,0.0325365854 11.6750244,0.641317073 11.6427805,0.666292683 C11.5189268,0.765170732 11.447122,0.91502439 11.447122,1.07317073 L11.447122,4.602 L8.44902439,11.0946341 L8.32517073,11.1580976 L8.32517073,10.9593171 C8.32517073,10.6720976 8.09204878,10.4389756 7.80482927,10.4389756 L2.60160976,10.4389756 C1.16658537,10.4390244 0,11.6056098 0,13.0406341 L0,20.3252195 C0,21.7602927 1.16658537,22.9268293 2.60160976,22.9268293 L5.72356098,22.9268293 C6.8484878,22.9268293 7.28453659,23 8.17219512,22.2472683 C9.03804878,22.6926829 10.203561,22.9268293 10.9268293,22.9268293 L20.4789756,22.9268293 C21.6122439,22.9268293 22.604,22.1629756 22.8370732,21.1098537 C22.9567317,20.5666341 22.8870244,20.0202927 22.6497561,19.5457561 C23.4177561,19.1596585 23.9349756,18.3656585 23.9349756,17.4634146 C23.9349756,17.0950244 23.8506829,16.7422439 23.6914634,16.4238049 C24.4594634,16.0366829 24.9756098,15.2437073 24.9756098,14.3414634 Z" id="Shape" fill="#FC68A2"></path>
                                    <path d="M7.80487805,11.4796585 C7.51765854,11.4796585 7.28453659,11.7127805 7.28453659,12 L7.28453659,21.3658537 C7.28453659,21.6530732 7.51765854,21.8861951 7.80487805,21.8861951 C8.09209756,21.8861951 8.32521951,21.6530732 8.32521951,21.3658537 L8.32521951,12 C8.32521951,11.7127805 8.09209756,11.4796585 7.80487805,11.4796585 Z" id="Path" fill="#FFFFFF"></path>
                                </g>
                            </g>
                        </g>
                    </g>
                </g>
            </g>
        </g>
    </g>
</svg>