<?xml version="1.0" encoding="UTF-8"?>
<svg width="20px" height="18px" viewBox="0 0 20 18" version="1.1" xmlns="http://www.w3.org/2000/svg" xmlns:xlink="http://www.w3.org/1999/xlink">
    <!-- Generator: sketchtool 60 (101010) - https://sketch.com -->
    <title>4AA65AF9-C7C4-4D9E-A2F5-44EA3C28CBE1@1x</title>
    <desc>Created with sketchtool.</desc>
    <g id="Page-1" stroke="none" stroke-width="1" fill="none" fill-rule="evenodd">
        <g id="Gomble-Brand-Design-System" transform="translate(-166.000000, -10666.000000)" fill="#242424" fill-rule="nonzero">
            <g id="Group-25" transform="translate(166.000000, 10666.000000)">
                <g id="like">
                    <path d="M19.5461294,11.223754 C19.5461294,10.734299 19.3514698,10.27821 19.0159406,9.94184093 C19.3962884,9.52568399 19.5901082,8.96777943 19.537158,8.38712195 C19.4418706,7.35197879 18.5093446,6.54081442 17.413158,6.54081442 L12.382473,6.54081442 C12.6316861,5.78420361 13.0307402,4.39726829 13.0307402,3.28313892 C13.0307402,1.51665748 11.5297731,0.0254634146 10.587474,0.0254634146 C9.74210392,0.0254634146 9.13697561,0.501900318 9.11174125,0.521446448 C9.0148123,0.598829268 8.95861718,0.716106045 8.95861718,0.839872747 L8.95861718,3.60156522 L6.61227996,8.68275716 L6.51535101,8.73242418 L6.51535101,8.57685684 C6.51535101,8.35207635 6.33290774,8.16963309 6.10812725,8.16963309 L2.03604242,8.16963309 C0.912979852,8.16967126 0,9.08265111 0,10.2057137 L0,15.9066935 C0,17.0297943 0.912979852,17.9427359 2.03604242,17.9427359 L4.47930859,17.9427359 C5.35968611,17.9427359 5.70094168,18 6.39563097,17.4109056 C7.07325557,17.759491 7.98539555,17.9427359 8.5514316,17.9427359 L16.0270244,17.9427359 C16.91393,17.9427359 17.690087,17.3449374 17.872492,16.520755 C17.9661379,16.0956267 17.9115843,15.6680551 17.7258961,15.2966787 C18.3269396,14.9945154 18.73172,14.3731241 18.73172,13.6670201 C18.73172,13.3787147 18.6657519,13.1026257 18.5411453,12.8534125 C19.1421888,12.5504475 19.5461294,11.9298579 19.5461294,11.223754 Z M17.8285133,12.2287381 C17.6713425,12.2474825 17.5385663,12.3541463 17.4880976,12.5048271 C17.4384305,12.655508 17.4799661,12.8208102 17.5956013,12.9299555 C17.8024772,13.1246151 17.9173107,13.3868462 17.9173107,13.6670201 C17.9173107,14.1809077 17.5288314,14.6125642 17.0149438,14.6720042 C16.8577731,14.6907487 16.7249968,14.7974125 16.6745281,14.9480933 C16.6248611,15.0987741 16.6663966,15.2640764 16.7820318,15.3732216 C17.0499894,15.6256797 17.1574931,15.9799533 17.0768653,16.3448399 C16.9766914,16.7992874 16.5352619,17.1283266 16.0270626,17.1283266 L8.5514316,17.1283266 C7.89010817,17.1283266 6.78086532,16.8180318 6.39647084,16.4327975 C6.27999576,16.3171622 6.10408059,16.2829565 5.95259809,16.3448399 C5.80031389,16.4075631 5.70094168,15.742193 5.70094168,15.9066935 C5.70094168,16.5802333 5.15284836,17.1283266 4.47930859,17.1283266 L2.03604242,17.1283266 C1.36250265,17.1283266 0.814409332,16.5802333 0.814409332,15.9066935 L0.814409332,10.2057137 C0.814409332,9.53217391 1.36250265,8.98408059 2.03604242,8.98408059 L5.70094168,8.98408059 L5.70094168,9.39130435 C5.70094168,9.53221209 5.77423966,9.66330859 5.8947614,9.73824814 C6.01367975,9.80990456 6.16352068,9.81723436 6.29057052,9.75535101 L7.10497985,9.34812725 C7.1872492,9.30739343 7.25321739,9.23898197 7.29230965,9.15510923 L9.73557582,3.86135313 C9.76000848,3.80760127 9.77302651,3.74896288 9.77302651,3.6903245 L9.77302651,1.0605684 C9.94245175,0.966922587 10.2364836,0.839872747 10.587474,0.839872747 C11.03379,0.839872747 12.2163309,1.94911559 12.2163309,3.28313892 C12.2163309,4.71653446 11.4361273,6.78269777 11.4287975,6.80308378 C11.3815737,6.92769035 11.3978367,7.06859809 11.4735779,7.17934677 C11.5501209,7.28929374 11.6755673,7.35526193 11.8091071,7.35526193 L17.413158,7.35526193 C18.092386,7.35526193 18.6689968,7.8414719 18.7259936,8.46206151 C18.7691707,8.92628208 18.5459936,9.36771156 18.1461379,9.61448144 C18.0215313,9.69102439 17.9474316,9.82948887 17.9531198,9.97688653 C17.9588081,10.1242842 18.0435207,10.2562206 18.1738155,10.3238303 C18.518316,10.4989438 18.7316819,10.844246 18.7316819,11.223754 C18.7316819,11.7376416 18.3432407,12.169298 17.8285133,12.2287381 Z" id="Shape"></path>
                    <path d="M6.10816543,8.98408059 C5.88338494,8.98408059 5.70094168,9.16652386 5.70094168,9.39130435 L5.70094168,16.7211029 C5.70094168,16.9458834 5.88338494,17.1283266 6.10816543,17.1283266 C6.33294592,17.1283266 6.51538918,16.9458834 6.51538918,16.7211029 L6.51538918,9.39130435 C6.51538918,9.16652386 6.33294592,8.98408059 6.10816543,8.98408059 Z" id="Path"></path>
                </g>
            </g>
        </g>
    </g>
</svg>