<?xml version="1.0" encoding="UTF-8"?>
<svg width="18px" height="18px" viewBox="0 0 18 18" version="1.1" xmlns="http://www.w3.org/2000/svg" xmlns:xlink="http://www.w3.org/1999/xlink">
    <!-- Generator: sketchtool 60 (101010) - https://sketch.com -->
    <title>3EEBF4BF-6DDB-4C3B-A508-62F317B32B31@1x</title>
    <desc>Created with sketchtool.</desc>
    <g id="Page-1" stroke="none" stroke-width="1" fill="none" fill-rule="evenodd">
        <g id="Gomble-Brand-Design-System" transform="translate(-516.000000, -10666.000000)">
            <g id="Group-3" transform="translate(516.000000, 10666.000000)">
                <path d="M17.9052353,9.24158824 C17.9052353,15.3896471 15.1002353,17.9050588 8.95270588,17.9050588 C2.805,17.9050588 9.9475983e-14,15.3896471 9.9475983e-14,9.24158824 C9.9475983e-14,3.09388235 2.805,-7.10542736e-15 8.95270588,-7.10542736e-15 C15.1002353,-7.10542736e-15 17.9052353,3.09388235 17.9052353,9.24158824" id="Fill-67" fill="#3A3A3A"></path>
                <path d="M5.22758824,4.05670588 C5.87841176,4.05670588 6.40570588,4.58488235 6.40570588,5.23482353 C6.40570588,5.886 5.87841176,6.41417647 5.22758824,6.41417647 C4.57482353,6.41417647 4.04841176,5.886 4.04841176,5.23482353 C4.04841176,4.58488235 4.57482353,4.05670588 5.22758824,4.05670588 L5.22758824,4.05670588 Z M4.20988235,13.8483529 L6.24458824,13.8483529 L6.24458824,7.30835294 L4.20988235,7.30835294 L4.20988235,13.8483529 Z" id="Fill-68" fill="#FFFFFE"></path>
                <path d="M7.52011765,7.30835294 L9.46870588,7.30835294 L9.46870588,8.20182353 L9.49641176,8.20182353 C9.76764706,7.68758824 10.4308235,7.14547059 11.4199412,7.14547059 C13.4763529,7.14547059 13.8568235,8.49952941 13.8568235,10.2610588 L13.8568235,13.8483529 L11.8263529,13.8483529 L11.8263529,10.6683529 C11.8263529,9.90970588 11.8115294,8.93382353 10.7694706,8.93382353 C9.71170588,8.93382353 9.55041176,9.75988235 9.55041176,10.6131176 L9.55041176,13.8483529 L7.52011765,13.8483529 L7.52011765,7.30835294" id="Fill-69" fill="#FFFFFE"></path>
            </g>
        </g>
    </g>
</svg>