<?xml version="1.0" encoding="UTF-8"?>
<svg width="13px" height="16px" viewBox="0 0 13 16" version="1.1" xmlns="http://www.w3.org/2000/svg" xmlns:xlink="http://www.w3.org/1999/xlink">
    <!-- Generator: sketchtool 60 (101010) - https://sketch.com -->
    <title>E3237E06-E275-4A85-855F-69C443FB8661@1x</title>
    <desc>Created with sketchtool.</desc>
    <g id="Page-1" stroke="none" stroke-width="1" fill="none" fill-rule="evenodd">
        <g id="Gomble-Brand-Design-System" transform="translate(-227.000000, -10769.000000)">
            <g id="Group-7" transform="translate(224.000000, 10768.000000)">
                <rect id="Rectangle" x="0" y="0" width="18" height="18"></rect>
                <path d="M9.37500003,1.5 C12.4773898,1.5 15,3.94616801 15,6.95453991 C15,9.14200574 13.6351903,11.4738621 12.2984425,13.2885976 C11.1049176,14.9088972 9.91074559,16.1164068 9.66855275,16.3565584 L9.62413498,16.4002649 C9.48685879,16.533245 9.26443877,16.533245 9.12716259,16.4002649 C9.12716259,16.4002649 7.78960225,15.1033331 6.45285457,13.2885976 C5.11610661,11.4738621 3.75,9.14200574 3.75,6.95453991 C3.75,3.94616801 6.27261008,1.5 9.37500003,1.5 Z M9.37500003,2.18197855 C6.65260113,2.18197855 4.45328715,4.31464 4.45328715,6.95453991 C4.45328715,8.85792103 5.72515624,11.1275 7.02508644,12.89225 C8.20058057,14.4880707 9.16082703,15.4170008 9.37500003,15.6289514 C9.58878638,15.4173937 10.5504512,14.4884315 11.7262107,12.89225 C13.0261411,11.1275 14.2967127,8.85792103 14.2967127,6.95453991 C14.2967127,4.31464 12.0973985,2.18197855 9.37500003,2.18197855 Z M9.37500003,4.56762788 C10.7299533,4.56762788 11.8365051,5.64064569 11.8365051,6.95453991 C11.8365051,8.26843413 10.7299533,9.34145193 9.37500003,9.34145193 C8.02004676,9.34145193 6.91479234,8.26843413 6.91479234,6.95453991 C6.91479234,5.64064569 8.02004676,4.56762788 9.37500003,4.56762788 Z M9.37500003,5.24960643 C8.400038,5.24960643 7.61807982,6.00912412 7.61807982,6.95453991 C7.61807982,7.8999557 8.400038,8.65947339 9.37500003,8.65947339 C10.3499621,8.65947339 11.1332177,7.8999557 11.1332177,6.95453991 C11.1332177,6.00912412 10.3499621,5.24960643 9.37500003,5.24960643 Z" id="Combined-Shape" stroke="#242424" stroke-width="0.5" fill="#242424" fill-rule="nonzero"></path>
            </g>
        </g>
    </g>
</svg>