<svg xmlns="http://www.w3.org/2000/svg" width="16" height="19" viewBox="0 0 16 19">
    <g fill="none" fill-rule="evenodd">
        <g>
            <g>
                <g>
                    <path d="M0 0L20 0 20 20 0 20z" transform="translate(-610 -7147) translate(0 6947) translate(608 200)"/>
                    <path fill="#82889C" fill-rule="nonzero" d="M5 6.667v-.834c0-2.761 2.239-5 5-5s5 2.239 5 5v.834h1.667c.46 0 .833.373.833.833v10c0 .46-.373.833-.833.833H3.333c-.46 0-.833-.373-.833-.833v-10c0-.46.373-.833.833-.833H5zm10.833 1.666H4.167v8.334h11.666V8.333zM9.167 13.11c-.654-.377-.972-1.146-.777-1.875C8.585 10.507 9.246 10 10 10c.754 0 1.415.507 1.61 1.235.195.729-.123 1.498-.777 1.875V15H9.167v-1.89zm-2.5-6.443h6.666v-.834c0-1.84-1.492-3.333-3.333-3.333-1.84 0-3.333 1.492-3.333 3.333v.834z" transform="translate(-610 -7147) translate(0 6947) translate(608 200)"/>
                </g>
            </g>
        </g>
    </g>
</svg>
