<svg xmlns="http://www.w3.org/2000/svg" width="22" height="22" viewBox="0 0 22 22">
    <g fill="none" fill-rule="evenodd">
        <g fill="#9FA7D1" fill-rule="nonzero">
            <g>
                <g>
                    <path d="M11.035.063c5.729 0 10.428 4.368 10.934 9.944h-8.936V7.024c0-.403-.243-.765-.616-.92-.373-.153-.803-.068-1.089.217L7.334 10.3c-.39.388-.39 1.017 0 1.406l3.994 3.978c.286.285.715.37 1.09.217.372-.154.615-.516.615-.92v-2.982h8.936c-.504 5.574-5.205 9.944-10.934 9.944C4.968 21.942.05 17.045.05 11.004.05 4.964 4.967.063 11.035.063z" transform="translate(-826 -7145) translate(0 6947) translate(826 198)"/>
                </g>
            </g>
        </g>
    </g>
</svg>
