<?xml version="1.0" encoding="UTF-8"?>
<svg width="13px" height="14px" viewBox="0 0 13 14" version="1.1" xmlns="http://www.w3.org/2000/svg" xmlns:xlink="http://www.w3.org/1999/xlink">
    <!-- Generator: sketchtool 60 (101010) - https://sketch.com -->
    <title>11DAB4E8-735B-4099-8ECC-7DC0F47E4385@1x</title>
    <desc>Created with sketchtool.</desc>
    <g id="Page-1" stroke="none" stroke-width="1" fill="none" fill-rule="evenodd">
        <g id="Gomble-Brand-Design-System" transform="translate(-229.000000, -10668.000000)">
            <g id="Group-3" transform="translate(226.000000, 10666.000000)">
                <rect id="Colors-/-Secondary-/-Main" x="0" y="0" width="18" height="18" rx="3"></rect>
                <path d="M9.5,8.59166667 C6.15006427,8.59166667 3.46944226,10.7557976 3.46944226,13.3703663 C3.46944226,15.0816954 3.48500582,15.1700329 3.80489716,15.3119165 C4.28966436,15.5269286 4.59661672,15.5365485 8.86051295,15.5271232 L10.1405187,15.5271244 C14.4033833,15.5365485 14.7103356,15.5269286 15.1951028,15.3119165 C15.5149942,15.1700329 15.5305577,15.0816954 15.5305577,13.3703663 C15.5305577,10.7557976 12.8499357,8.59166667 9.5,8.59166667 Z M9.19809917,2.46666667 C7.81798834,2.46666667 6.71666667,3.46511763 6.71666667,4.67272727 C6.71666667,5.88033692 7.81798834,6.87878788 9.19809917,6.87878788 C10.57821,6.87878788 11.6795317,5.88033692 11.6795317,4.67272727 C11.6795317,3.46511763 10.57821,2.46666667 9.19809917,2.46666667 Z" id="Combined-Shape" stroke="#242424" stroke-width="0.933333333"></path>
            </g>
        </g>
    </g>
</svg>