<svg width="383" height="252" viewBox="0 0 383 252" fill="none" xmlns="http://www.w3.org/2000/svg">
<path fill-rule="evenodd" clip-rule="evenodd" d="M179.359 180C98.8233 180 49.3018 176.176 49.3018 171.458C49.3018 166.741 98.8233 162.917 179.359 162.917C259.893 162.917 291.107 166.741 291.107 171.458C291.107 176.176 259.893 180 179.359 180Z" fill="#FFE3E7"/>
<path fill-rule="evenodd" clip-rule="evenodd" d="M101.368 166.526C101.368 166.526 116.525 174.415 128.145 174.415C139.765 174.415 237.779 171.048 248.76 168.666C259.741 166.284 181.144 162.917 181.144 162.917L101.368 166.526Z" fill="#FBD6DC"/>
<path fill-rule="evenodd" clip-rule="evenodd" d="M122.493 16.7285L104.045 167.638C103.711 169.367 105.032 170.972 106.788 170.972H115.435L122.493 16.7285Z" fill="#FFE3E7"/>
<path fill-rule="evenodd" clip-rule="evenodd" d="M229.023 48.376C229.023 48.376 225.445 53.1965 226.972 59.403L227.831 59.2236C227.831 59.2236 227.394 52.4594 229.309 49.1801C231.224 45.901 229.023 48.376 229.023 48.376Z" fill="#C7DCFB"/>
<path fill-rule="evenodd" clip-rule="evenodd" d="M211.897 30.8137C211.897 30.8137 209.64 38.4538 214.368 45.4816L215.357 44.8648C215.357 44.8648 211.73 36.6432 212.62 31.6834C213.51 26.7236 211.897 30.8137 211.897 30.8137Z" fill="#DFEBFD"/>
<path fill-rule="evenodd" clip-rule="evenodd" d="M122.687 16.3775L109.767 165.744C109.407 168.511 111.555 170.965 114.338 170.965H130.281L123.344 16.0762L122.687 16.3775Z" fill="#FFEDF0"/>
<path fill-rule="evenodd" clip-rule="evenodd" d="M122.689 16.3828L115.772 165.217C115.589 168.338 118.064 170.97 121.182 170.97H144.959L122.689 16.3828Z" fill="#FFD2D8"/>
<path fill-rule="evenodd" clip-rule="evenodd" d="M122.51 17.0605L122.823 165.218C122.64 168.339 125.115 170.971 128.233 170.971H152.01L122.51 17.0605Z" fill="#FCDFE3"/>
<path fill-rule="evenodd" clip-rule="evenodd" d="M154.437 170.972C152.096 170.972 150.09 169.295 149.669 166.986L123.559 22.8445C122.911 19.2931 125.631 16.0215 129.232 16.0215H287.41C289.751 16.0215 291.757 17.6987 292.178 20.0074L318.487 165.237C319.031 168.222 316.745 170.972 313.719 170.972H154.437Z" fill="#FFF0F2"/>
<path d="M167.393 19.8703C163.552 19.8703 160.439 16.749 160.439 12.8985C160.439 9.04813 163.552 5.92676 167.393 5.92676" stroke="#FFD2D8" stroke-width="4" stroke-linecap="round"/>
<path d="M252.584 19.8703C248.744 19.8703 245.631 16.749 245.631 12.8985C245.631 9.04813 248.744 5.92676 252.584 5.92676" stroke="#FFD2D8" stroke-width="4" stroke-linecap="round"/>
<path fill-rule="evenodd" clip-rule="evenodd" d="M124.959 32.3808L294.618 33.0031L291.96 18.2346C291.729 16.9534 290.617 16.0215 289.319 16.0215H123.373C122.824 16.0215 122.41 16.52 122.509 17.0613L124.959 32.3808Z" fill="#FC68A2"/>
<path fill-rule="evenodd" clip-rule="evenodd" d="M170.117 20.5201C170.117 20.7457 170.085 20.9662 170.03 21.1732C169.744 22.2088 168.799 22.968 167.676 22.968C166.328 22.968 165.234 21.8715 165.234 20.5201C165.234 19.1687 166.328 18.0723 167.676 18.0723C168.462 18.0723 169.161 18.4465 169.609 19.0254C169.929 19.4395 170.117 19.9572 170.117 20.5201Z" fill="white"/>
<path d="M166.747 19.8703C170.587 19.8703 173.7 16.749 173.7 12.8985C173.7 9.04813 170.587 5.92676 166.747 5.92676" stroke="#FFD2D8" stroke-width="4" stroke-linecap="round"/>
<path fill-rule="evenodd" clip-rule="evenodd" d="M255.306 20.5201C255.306 20.7457 255.274 20.9662 255.218 21.1732C254.933 22.2088 253.987 22.968 252.864 22.968C251.516 22.968 250.423 21.8715 250.423 20.5201C250.423 19.1687 251.516 18.0723 252.864 18.0723C253.651 18.0723 254.35 18.4465 254.798 19.0254C255.118 19.4395 255.306 19.9572 255.306 20.5201Z" fill="white"/>
<path d="M251.936 19.8703C255.776 19.8703 258.889 16.749 258.889 12.8985C258.889 9.04813 255.776 5.92676 251.936 5.92676" stroke="#FFD2D8" stroke-width="4" stroke-linecap="round"/>
<path fill-rule="evenodd" clip-rule="evenodd" d="M242.682 67.2735H234.075C233.081 67.2735 232.109 66.4574 231.917 65.4599L230.257 56.8296C230.065 55.8321 230.722 55.0156 231.717 55.0156H240.324C241.319 55.0156 242.291 55.8321 242.482 56.8296L244.143 65.4599C244.335 66.4574 243.677 67.2735 242.682 67.2735Z" fill="#FFD2D8"/>
<path fill-rule="evenodd" clip-rule="evenodd" d="M264.698 67.2735H256.091C255.096 67.2735 254.125 66.4574 253.933 65.4599L252.273 56.8296C252.081 55.8321 252.738 55.0156 253.733 55.0156H262.34C263.335 55.0156 264.306 55.8321 264.498 56.8296L266.158 65.4599C266.35 66.4574 265.693 67.2735 264.698 67.2735Z" fill="#FFD2D8"/>
<path fill-rule="evenodd" clip-rule="evenodd" d="M286.714 67.2735H278.107C277.112 67.2735 276.141 66.4574 275.949 65.4599L274.288 56.8296C274.096 55.8321 274.753 55.0156 275.749 55.0156H284.356C285.351 55.0156 286.322 55.8321 286.514 56.8296L288.174 65.4599C288.366 66.4574 287.709 67.2735 286.714 67.2735Z" fill="#FFD2D8"/>
<path fill-rule="evenodd" clip-rule="evenodd" d="M154.783 67.4698H146.176C145.181 67.4698 144.21 66.6537 144.018 65.6562L142.358 57.0259C142.166 56.0284 142.823 55.2119 143.818 55.2119H152.425C153.42 55.2119 154.391 56.0284 154.583 57.0259L156.243 65.6562C156.435 66.6537 155.778 67.4698 154.783 67.4698Z" fill="white"/>
<path fill-rule="evenodd" clip-rule="evenodd" d="M176.803 67.4698H168.196C167.201 67.4698 166.229 66.6537 166.037 65.6562L164.377 57.0259C164.185 56.0284 164.842 55.2119 165.837 55.2119H174.445C175.439 55.2119 176.411 56.0284 176.603 57.0259L178.263 65.6562C178.455 66.6537 177.798 67.4698 176.803 67.4698Z" fill="white"/>
<path fill-rule="evenodd" clip-rule="evenodd" d="M198.814 67.4698H190.207C189.212 67.4698 188.241 66.6537 188.049 65.6562L186.389 57.0259C186.197 56.0284 186.854 55.2119 187.849 55.2119H196.456C197.451 55.2119 198.422 56.0284 198.614 57.0259L200.274 65.6562C200.467 66.6537 199.809 67.4698 198.814 67.4698Z" fill="white"/>
<path fill-rule="evenodd" clip-rule="evenodd" d="M220.834 67.4698H212.227C211.232 67.4698 210.261 66.6537 210.069 65.6562L208.408 57.0259C208.216 56.0284 208.873 55.2119 209.869 55.2119H218.476C219.471 55.2119 220.442 56.0284 220.634 57.0259L222.294 65.6562C222.486 66.6537 221.829 67.4698 220.834 67.4698Z" fill="#FFD2D8"/>
<path fill-rule="evenodd" clip-rule="evenodd" d="M248.582 92.8966H239.975C238.98 92.8966 238.009 92.0805 237.817 91.0829L236.156 82.4527C235.964 81.4551 236.621 80.6387 237.617 80.6387H246.224C247.219 80.6387 248.19 81.4551 248.382 82.4527L250.042 91.0829C250.234 92.0805 249.577 92.8966 248.582 92.8966Z" fill="#FFD2D8"/>
<path fill-rule="evenodd" clip-rule="evenodd" d="M270.599 92.8966H261.991C260.997 92.8966 260.025 92.0805 259.833 91.0829L258.173 82.4527C257.981 81.4551 258.638 80.6387 259.633 80.6387H268.24C269.235 80.6387 270.207 81.4551 270.398 82.4527L272.059 91.0829C272.251 92.0805 271.593 92.8966 270.599 92.8966Z" fill="#FFD2D8"/>
<path fill-rule="evenodd" clip-rule="evenodd" d="M292.615 92.8966H284.008C283.013 92.8966 282.042 92.0805 281.85 91.0829L280.19 82.4527C279.998 81.4551 280.655 80.6387 281.65 80.6387H290.257C291.252 80.6387 292.223 81.4551 292.415 82.4527L294.075 91.0829C294.267 92.0805 293.61 92.8966 292.615 92.8966Z" fill="#FFD2D8"/>
<path fill-rule="evenodd" clip-rule="evenodd" d="M160.682 93.0929H152.075C151.081 93.0929 150.109 92.2767 149.917 91.2792L148.257 82.649C148.065 81.6514 148.722 80.835 149.717 80.835H158.324C159.319 80.835 160.291 81.6514 160.482 82.649L162.143 91.2792C162.335 92.2767 161.677 93.0929 160.682 93.0929Z" fill="#FFD2D8"/>
<path fill-rule="evenodd" clip-rule="evenodd" d="M182.701 93.0929H174.094C173.099 93.0929 172.128 92.2767 171.936 91.2792L170.276 82.649C170.084 81.6514 170.741 80.835 171.736 80.835H180.343C181.338 80.835 182.309 81.6514 182.501 82.649L184.161 91.2792C184.353 92.2767 183.696 93.0929 182.701 93.0929Z" fill="#FFD2D8"/>
<path fill-rule="evenodd" clip-rule="evenodd" d="M204.718 93.0929H196.111C195.116 93.0929 194.144 92.2767 193.953 91.2792L192.292 82.649C192.1 81.6514 192.757 80.835 193.752 80.835H202.36C203.354 80.835 204.326 81.6514 204.518 82.649L206.178 91.2792C206.37 92.2767 205.713 93.0929 204.718 93.0929Z" fill="#FFD2D8"/>
<path fill-rule="evenodd" clip-rule="evenodd" d="M226.733 93.0929H218.126C217.131 93.0929 216.16 92.2767 215.968 91.2792L214.308 82.649C214.116 81.6514 214.773 80.835 215.768 80.835H224.375C225.37 80.835 226.341 81.6514 226.533 82.649L228.193 91.2792C228.386 92.2767 227.728 93.0929 226.733 93.0929Z" fill="#FFD2D8"/>
<path fill-rule="evenodd" clip-rule="evenodd" d="M253.824 119.175H245.217C244.222 119.175 243.251 118.359 243.059 117.361L241.399 108.731C241.207 107.733 241.864 106.917 242.859 106.917H251.466C252.461 106.917 253.432 107.733 253.624 108.731L255.284 117.361C255.476 118.359 254.819 119.175 253.824 119.175Z" fill="#FFD2D8"/>
<path fill-rule="evenodd" clip-rule="evenodd" d="M275.842 119.175H267.235C266.24 119.175 265.268 118.359 265.077 117.361L263.416 108.731C263.224 107.733 263.881 106.917 264.877 106.917H273.484C274.478 106.917 275.45 107.733 275.642 108.731L277.302 117.361C277.494 118.359 276.837 119.175 275.842 119.175Z" fill="#FFD2D8"/>
<path fill-rule="evenodd" clip-rule="evenodd" d="M297.857 119.175H289.25C288.255 119.175 287.284 118.359 287.092 117.361L285.432 108.731C285.24 107.733 285.897 106.917 286.892 106.917H295.499C296.494 106.917 297.465 107.733 297.657 108.731L299.317 117.361C299.51 118.359 298.852 119.175 297.857 119.175Z" fill="#FFD2D8"/>
<path fill-rule="evenodd" clip-rule="evenodd" d="M165.925 119.371H157.318C156.323 119.371 155.351 118.555 155.16 117.558L153.499 108.927C153.307 107.93 153.964 107.113 154.96 107.113H163.567C164.561 107.113 165.533 107.93 165.725 108.927L167.385 117.558C167.577 118.555 166.92 119.371 165.925 119.371Z" fill="#FFD2D8"/>
<path fill-rule="evenodd" clip-rule="evenodd" d="M187.944 119.371H179.337C178.342 119.371 177.371 118.555 177.179 117.558L175.519 108.927C175.327 107.93 175.984 107.113 176.979 107.113H185.586C186.581 107.113 187.552 107.93 187.744 108.927L189.404 117.558C189.596 118.555 188.939 119.371 187.944 119.371Z" fill="#FFD2D8"/>
<path fill-rule="evenodd" clip-rule="evenodd" d="M209.958 119.371H201.351C200.356 119.371 199.385 118.555 199.193 117.558L197.532 108.927C197.34 107.93 197.997 107.113 198.993 107.113H207.6C208.595 107.113 209.566 107.93 209.758 108.927L211.418 117.558C211.61 118.555 210.953 119.371 209.958 119.371Z" fill="#FFD2D8"/>
<path fill-rule="evenodd" clip-rule="evenodd" d="M231.975 119.371H223.368C222.373 119.371 221.402 118.555 221.21 117.558L219.55 108.927C219.358 107.93 220.015 107.113 221.01 107.113H229.617C230.612 107.113 231.584 107.93 231.775 108.927L233.435 117.558C233.628 118.555 232.97 119.371 231.975 119.371Z" fill="#FFD2D8"/>
<path fill-rule="evenodd" clip-rule="evenodd" d="M260.376 145.459H251.769C250.774 145.459 249.803 144.643 249.611 143.645L247.95 135.015C247.758 134.018 248.415 133.201 249.411 133.201H258.018C259.013 133.201 259.984 134.018 260.176 135.015L261.836 143.645C262.028 144.643 261.371 145.459 260.376 145.459Z" fill="white"/>
<path fill-rule="evenodd" clip-rule="evenodd" d="M282.393 145.459H273.786C272.791 145.459 271.82 144.643 271.628 143.645L269.968 135.015C269.776 134.018 270.433 133.201 271.428 133.201H280.035C281.03 133.201 282.001 134.018 282.193 135.015L283.853 143.645C284.046 144.643 283.388 145.459 282.393 145.459Z" fill="white"/>
<path fill-rule="evenodd" clip-rule="evenodd" d="M304.409 145.459H295.802C294.807 145.459 293.836 144.643 293.644 143.645L291.984 135.015C291.792 134.018 292.449 133.201 293.444 133.201H302.051C303.046 133.201 304.017 134.018 304.209 135.015L305.869 143.645C306.061 144.643 305.404 145.459 304.409 145.459Z" fill="white"/>
<path fill-rule="evenodd" clip-rule="evenodd" d="M172.476 145.655H163.869C162.874 145.655 161.903 144.839 161.711 143.842L160.051 135.211C159.859 134.214 160.516 133.397 161.511 133.397H170.118C171.113 133.397 172.084 134.214 172.276 135.211L173.936 143.842C174.129 144.839 173.471 145.655 172.476 145.655Z" fill="#FFD2D8"/>
<path fill-rule="evenodd" clip-rule="evenodd" d="M194.496 145.655H185.889C184.894 145.655 183.923 144.839 183.731 143.842L182.07 135.211C181.879 134.214 182.536 133.397 183.531 133.397H192.138C193.133 133.397 194.104 134.214 194.296 135.211L195.956 143.842C196.148 144.839 195.491 145.655 194.496 145.655Z" fill="#FFD2D8"/>
<path fill-rule="evenodd" clip-rule="evenodd" d="M216.51 145.655H207.903C206.908 145.655 205.936 144.839 205.745 143.842L204.084 135.211C203.892 134.214 204.549 133.397 205.544 133.397H214.152C215.146 133.397 216.118 134.214 216.31 135.211L217.97 143.842C218.162 144.839 217.505 145.655 216.51 145.655Z" fill="#FFD2D8"/>
<path fill-rule="evenodd" clip-rule="evenodd" d="M238.527 145.655H229.92C228.925 145.655 227.954 144.839 227.762 143.842L226.102 135.211C225.91 134.214 226.567 133.397 227.562 133.397H236.169C237.164 133.397 238.135 134.214 238.327 135.211L239.987 143.842C240.179 144.839 239.522 145.655 238.527 145.655Z" fill="white"/>
<path fill-rule="evenodd" clip-rule="evenodd" d="M331.946 171.199C332.384 169.996 330.135 165.713 330.135 165.713V157.374L324.12 158.29L324.968 165.713C324.968 165.713 324.753 166.995 323.831 168.704C322.909 170.413 318.794 173 318.794 173C318.794 173 331.508 172.403 331.946 171.199Z" fill="#F0A399"/>
<path fill-rule="evenodd" clip-rule="evenodd" d="M331.134 167.912C330.329 170.557 323.604 168.198 323.896 167.912C323.38 168.814 319.411 169.484 317.453 170.137C314.582 171.095 314.836 172.729 317.749 173.404C319.896 173.901 322.624 173.102 325.408 173.002C327.158 172.939 330.982 173.949 332.309 173.002C333.78 171.952 332.599 169.302 331.134 167.912Z" fill="url(#paint0_linear_5386_66592)"/>
<path fill-rule="evenodd" clip-rule="evenodd" d="M331.133 167.909C333.619 166.329 331.815 120.902 330.785 112.33C332.082 107.689 331.86 105.096 328.204 98.085L313.313 99.186C313.313 99.186 313.049 108.099 314.731 112.33C314.731 112.33 318.74 131.89 318.795 134.274C318.903 138.987 320.8 167.909 320.8 167.909H331.133Z" fill="url(#paint1_linear_5386_66592)"/>
<path fill-rule="evenodd" clip-rule="evenodd" d="M300.107 176.78C300.107 176.78 312.526 175.403 313.852 174.833C315.177 174.264 313.324 171.096 313.324 171.096V161.83L306.641 162.848L307.583 171.096L300.457 174.521L300.107 176.78Z" fill="#F0A399"/>
<path fill-rule="evenodd" clip-rule="evenodd" d="M308.867 176.856C311.992 176.539 314.243 176.785 315.029 175.799C315.814 174.814 315.376 173.826 314.82 172.818C314.264 171.81 313.513 171.348 313.472 171.422C312.051 173.917 300.755 175.136 303.04 173.286C303.293 172.85 297.851 174.922 297.434 176.033C296.336 178.961 304.755 177.273 308.867 176.856Z" fill="url(#paint2_linear_5386_66592)"/>
<path fill-rule="evenodd" clip-rule="evenodd" d="M316.386 170.735C319.255 170.175 322.626 118.723 322.626 118.723C322.626 118.723 337.703 107.94 329.014 93.709L305.666 94.6775C305.666 94.6775 302.837 114.848 304.014 131.115C305.372 149.898 306.835 170.133 306.835 170.133L316.386 170.735Z" fill="url(#paint3_linear_5386_66592)"/>
<path fill-rule="evenodd" clip-rule="evenodd" d="M304.3 62.2519L299.42 67.5713L294.29 56.18C294.29 56.18 294.29 52.384 294.29 50.2768C294.29 48.1696 291.91 44.0188 290.809 44.2879C289.708 44.557 290.608 48.7536 289.999 51.8835C289.703 53.4023 289.252 56.7599 290.217 56.9769C290.21 61.6202 291.262 78.312 299.351 81.187C307.439 84.062 311.717 69.6037 311.717 69.6037L304.3 62.2519Z" fill="#FFAE91"/>
<path d="M299.422 67.5664L301.535 71.6868" stroke="#0C0C0C" stroke-width="0.6" stroke-linecap="round" stroke-linejoin="round"/>
<path fill-rule="evenodd" clip-rule="evenodd" d="M307.437 55.1131L305.268 51.5907C305.268 51.5907 304.051 52.4235 302.895 51.5907C301.738 50.758 295.86 40.0595 301.013 35.8879C306.166 31.7162 309.119 34.6752 312.586 37.7064C316.053 40.7376 313.763 46.4414 312.586 47.1442C313.628 49.566 315.16 51.5907 315.16 51.5907L307.437 55.1131Z" fill="#FFC0A9"/>
<path fill-rule="evenodd" clip-rule="evenodd" d="M333.698 97.4599L321.307 51.6956C321.307 51.6956 312.704 48.5271 308.071 54.7445C303.439 60.9618 300.13 66.1984 300.13 66.1984L305.249 71.6883L302.331 105.444C302.331 105.444 313.13 108.626 321.307 105.444C329.484 102.262 333.698 97.4599 333.698 97.4599Z" fill="url(#paint4_linear_5386_66592)"/>
<path fill-rule="evenodd" clip-rule="evenodd" d="M317.983 73.5406C317.983 73.5406 313.681 85.5426 310.603 87.962C307.525 90.3814 303.723 88.8311 303.723 88.8311L305.554 65.3018L317.983 73.5406Z" fill="#DC558A"/>
<path fill-rule="evenodd" clip-rule="evenodd" d="M317.98 73.2998L310.074 81.9185C310.074 81.9185 308.777 83.006 304.523 79.2675C300.269 75.529 310.074 73.9643 310.074 73.9643L317.98 73.2998Z" fill="#0C0C0C"/>
<path fill-rule="evenodd" clip-rule="evenodd" d="M303.105 65.584L288.061 76.4801L270.02 71.8413L262.811 68.0591H257.041C257.041 68.0591 257.397 70.0408 259.091 70.6492C260.785 71.2575 262.811 71.1041 262.811 71.1041L260.199 72.5942L259.3 74.1582L262.811 73.1903C262.811 73.1903 266.737 76.5431 268.862 75.9273C271.164 77.1255 287.067 90.7893 290.812 90.7893C294.557 90.7893 316.732 76.6474 316.732 73.1903C316.732 69.7331 303.105 65.584 303.105 65.584Z" fill="#FFC0A9"/>
<path fill-rule="evenodd" clip-rule="evenodd" d="M318.012 72.9964L310.045 81.6576C310.045 81.6576 303.75 72.1537 296.855 69.7694C299.899 66.198 302.439 63.7395 305.004 58.4732C306.067 56.29 307.274 54.6701 308.471 54.1482C312.812 52.2557 315.228 53.3167 315.228 53.3167L318.012 72.9964Z" fill="url(#paint5_linear_5386_66592)"/>
<path d="M312.469 51.877C312.469 51.877 307.306 53.4628 303.105 61.5493C298.905 69.6358 288.061 76.481 288.061 76.481" stroke="#0C0C0C" stroke-width="0.6" stroke-linecap="round" stroke-linejoin="round"/>
<path fill-rule="evenodd" clip-rule="evenodd" d="M307.411 62.5698C307.411 49 305.431 51.563 303.931 47.6826C302.355 43.6084 297.302 40.6703 296.859 37.8888C297.034 32.7725 305.374 27.3133 310.827 31.4135C314.782 30.6874 316.743 35.0582 317.447 38.6423C318.152 42.2265 330.923 60.2991 326.419 65.8769C325.352 66.4835 307.411 76.1396 307.411 62.5698Z" fill="#202C52"/>
<path fill-rule="evenodd" clip-rule="evenodd" d="M287.856 49.7287L287.473 53.4741L290.384 57.7097C290.384 57.7097 291.986 57.0935 292.577 55.495C293.167 53.8966 289.237 52.7939 289.237 52.7939C289.237 52.7939 289.35 51.3557 289.017 50.6936C288.684 50.0315 287.856 49.7287 287.856 49.7287Z" fill="#FFAE91"/>
<path fill-rule="evenodd" clip-rule="evenodd" d="M95.6063 138.406C95.6063 138.406 90.9251 132.931 95.3176 129.452C95.3176 129.452 98.5261 127.505 101.142 127.663C101.142 127.663 97.4353 133.895 98.6345 134.515C99.8337 135.135 102.266 127.272 102.266 127.272C102.266 127.272 109.567 126.563 111.916 127.695C111.916 127.695 105.674 132.816 106.989 133.12C108.303 133.426 115.045 128.399 115.045 128.399C115.045 128.399 121.841 129.558 121.478 133.715C121.116 137.87 118.774 139.154 117.745 139.044C116.716 138.933 110.696 136.629 110.565 137.475C110.434 138.32 114.058 141.083 116.595 141.212C116.595 141.212 111.804 146.51 108.62 144.981C105.436 143.452 105.164 141.029 103.179 140.12C101.195 139.211 99.5003 139.213 100.32 140.14C101.139 141.067 104.731 141.968 105.866 143.981C107.001 145.994 108.02 147.352 104.726 146.855C101.431 146.358 96.0763 143.941 95.8413 141.173C95.6063 138.406 95.6063 138.406 95.6063 138.406Z" fill="#C3FFCC"/>
<mask id="mask0_5386_66592" style="mask-type:alpha" maskUnits="userSpaceOnUse" x="93" y="127" width="29" height="20">
<path fill-rule="evenodd" clip-rule="evenodd" d="M95.6063 138.406C95.6063 138.406 90.9251 132.931 95.3176 129.452C95.3176 129.452 98.5261 127.505 101.142 127.663C101.142 127.663 97.4353 133.895 98.6345 134.515C99.8337 135.135 102.266 127.272 102.266 127.272C102.266 127.272 109.567 126.563 111.916 127.695C111.916 127.695 105.674 132.816 106.989 133.12C108.303 133.426 115.045 128.399 115.045 128.399C115.045 128.399 121.841 129.558 121.478 133.715C121.116 137.87 118.774 139.154 117.745 139.044C116.716 138.933 110.696 136.629 110.565 137.475C110.434 138.32 114.058 141.083 116.595 141.212C116.595 141.212 111.804 146.51 108.62 144.981C105.436 143.452 105.164 141.029 103.179 140.12C101.195 139.211 99.5003 139.213 100.32 140.14C101.139 141.067 104.731 141.968 105.866 143.981C107.001 145.994 108.02 147.352 104.726 146.855C101.431 146.358 96.0763 143.941 95.8413 141.173C95.6063 138.406 95.6063 138.406 95.6063 138.406Z" fill="white"/>
</mask>
<g mask="url(#mask0_5386_66592)">
<path fill-rule="evenodd" clip-rule="evenodd" d="M93.8945 131.565C93.8945 131.565 99.2342 136.14 107 135.478C114.765 134.815 117.271 128.735 117.271 128.735C117.271 128.735 106.797 126.405 101.432 127.055C96.0681 127.704 93.8945 131.565 93.8945 131.565Z" fill="#B2EBBB"/>
</g>
<path fill-rule="evenodd" clip-rule="evenodd" d="M118.138 133.822C118.138 133.822 99.6807 133.108 95.6047 138.401C95.6047 138.401 94.7032 141.108 91.9293 143.573L91.4971 144.755C91.4971 144.755 94.6954 141.373 95.8397 141.168C95.8397 141.168 94.05 134.612 118.138 133.822Z" fill="#AFF1B7"/>
<path fill-rule="evenodd" clip-rule="evenodd" d="M91.9282 143.573C91.9282 143.573 87.9666 146.511 87.6914 151.759L88.4104 151.824C88.4104 151.824 89.6758 146.396 91.9627 144.275C94.2496 142.152 91.9282 143.573 91.9282 143.573Z" fill="#AFF1B7"/>
<path fill-rule="evenodd" clip-rule="evenodd" d="M79.2366 131.514C79.2366 131.514 86.683 127.334 83.208 121.659C83.208 121.659 80.428 118.175 77.4494 117.279C77.4494 117.279 79.038 125.741 77.4494 125.941C75.8608 126.14 76.3574 116.384 76.3574 116.384C76.3574 116.384 68.5137 112.601 65.4358 112.899C65.4358 112.899 70.3008 121.161 68.7122 120.962C67.1237 120.764 61.663 112.402 61.663 112.402C61.663 112.402 53.6207 110.908 52.3301 115.687C51.0393 120.465 53.1243 122.854 54.3157 123.153C55.5073 123.451 63.1523 123.352 62.9537 124.348C62.7551 125.343 57.5923 126.936 54.7129 126.04C54.7129 126.04 57.8901 133.904 62.0601 133.505C66.2301 133.108 67.5208 130.519 70.1022 130.32C72.6838 130.121 74.5702 130.818 73.2794 131.514C71.9886 132.212 67.6202 131.744 65.5351 133.521C63.4501 135.297 61.7623 136.393 65.6344 137.189C69.5066 137.986 76.4566 137.488 77.8466 134.502C79.2366 131.514 79.2366 131.514 79.2366 131.514Z" fill="#C4FCCD"/>
<path fill-rule="evenodd" clip-rule="evenodd" d="M56.0059 117.185C56.0059 117.185 76.8559 123.954 79.2388 131.519C79.2388 131.519 79.1395 134.905 81.2245 138.786V140.281C81.2245 140.281 79.0402 135.202 77.8488 134.506C77.8488 134.506 82.5152 127.937 56.0059 117.185Z" fill="#AFF1B7"/>
<path fill-rule="evenodd" clip-rule="evenodd" d="M81.2228 138.782C81.2228 138.782 84.4382 143.679 82.6051 149.638L81.7778 149.415C81.7778 149.415 82.5808 142.852 80.8985 139.55C79.2163 136.249 81.2228 138.782 81.2228 138.782Z" fill="#AFF1B7"/>
<path fill-rule="evenodd" clip-rule="evenodd" d="M91.0829 125.751C91.0829 125.751 81.2671 120.239 85.8478 112.76C85.8478 112.76 89.5124 108.167 93.4388 106.986C93.4388 106.986 91.3447 118.14 93.4388 118.402C95.5328 118.665 94.8784 105.805 94.8784 105.805C94.8784 105.805 105.218 100.818 109.275 101.212C109.275 101.212 102.862 112.104 104.956 111.841C107.05 111.579 114.248 100.556 114.248 100.556C114.248 100.556 124.849 98.5875 126.551 104.886C128.252 111.185 125.504 114.334 123.933 114.728C122.363 115.122 112.285 114.99 112.547 116.303C112.809 117.615 119.614 119.715 123.41 118.534C123.41 118.534 119.222 128.9 113.725 128.375C108.228 127.851 106.527 124.439 103.124 124.176C99.7209 123.914 97.2342 124.832 98.9356 125.751C100.637 126.669 106.396 126.052 109.144 128.395C111.892 130.737 114.117 132.181 109.013 133.231C103.909 134.281 94.7476 133.624 92.9153 129.687C91.0829 125.751 91.0829 125.751 91.0829 125.751Z" fill="#C4FCCD"/>
<path fill-rule="evenodd" clip-rule="evenodd" d="M91.0824 125.75C91.0824 125.75 91.2132 130.213 88.4648 135.33V137.299C88.4648 137.299 91.3442 130.606 92.9147 129.687C92.9147 129.687 86.7635 121.026 121.708 106.854C121.708 106.854 94.2234 115.778 91.0824 125.75Z" fill="#AFF1B7"/>
<path fill-rule="evenodd" clip-rule="evenodd" d="M86.6469 149.636L87.7373 149.343C87.7373 149.343 86.6788 140.691 88.8964 136.339C91.1139 131.987 88.469 135.327 88.469 135.327C88.469 135.327 84.2305 141.781 86.6469 149.636Z" fill="#AFF1B7"/>
<path fill-rule="evenodd" clip-rule="evenodd" d="M90.7521 166.677C101.371 166.677 109.98 158.045 109.98 147.397H71.5244C71.5244 158.045 80.133 166.677 90.7521 166.677Z" fill="#FFE3E7"/>
<path fill-rule="evenodd" clip-rule="evenodd" d="M110.246 169.428H71.2598C71.2598 167.133 72.3219 165.276 73.632 165.276H107.874C109.184 165.276 110.246 167.133 110.246 169.428Z" fill="#FBD6DC"/>
<path fill-rule="evenodd" clip-rule="evenodd" d="M70.8926 147.988H110.417V147.397H70.8926V147.988Z" fill="#FBD6DC"/>
<ellipse cx="126.318" cy="18.6051" rx="18.5559" ry="18.6051" fill="#FBE1E1"/>
<path d="M128.655 23.2112L126.332 20.1786L123.951 23.2112C123.607 23.635 123.316 23.9372 123.077 24.1178C122.839 24.2984 122.536 24.3888 122.168 24.3888C121.762 24.3888 121.416 24.2759 121.13 24.0501C120.845 23.8243 120.702 23.5655 120.702 23.2737C120.702 22.975 120.921 22.5477 121.359 21.9919L124.256 18.3028L121.687 15.2286C121.242 14.7214 121.019 14.2803 121.019 13.9051C121.019 13.6133 121.152 13.3597 121.418 13.1443C121.684 12.929 122.031 12.8213 122.462 12.8213C122.837 12.8213 123.148 12.9151 123.394 13.1027C123.64 13.2902 123.928 13.5855 124.256 13.9885L126.332 16.5104L128.35 13.9885C128.686 13.5716 128.977 13.2729 129.224 13.0922C129.47 12.9116 129.777 12.8213 130.144 12.8213C130.567 12.8213 130.917 12.9272 131.194 13.1391C131.472 13.351 131.611 13.6063 131.611 13.9051C131.611 14.1205 131.554 14.3271 131.44 14.5251C131.327 14.7231 131.153 14.9576 130.919 15.2286L128.35 18.3028L131.247 21.9919C131.7 22.5685 131.927 23.0028 131.927 23.2945C131.927 23.5933 131.786 23.8503 131.505 24.0657C131.223 24.2811 130.876 24.3888 130.461 24.3888C130.094 24.3888 129.783 24.295 129.529 24.1074C129.274 23.9198 128.983 23.6211 128.655 23.2112Z" fill="#EF798A"/>
<g clip-path="url(#clip0_5386_66592)">
<path d="M108.501 200.283V213.374H106.392L100.223 204.457H100.115V213.374H97.7433V200.283H99.8655L106.027 209.206H106.142V200.283H108.501ZM115.266 213.566C114.307 213.566 113.476 213.355 112.773 212.933C112.07 212.511 111.524 211.921 111.136 211.162C110.753 210.404 110.561 209.517 110.561 208.503C110.561 207.489 110.753 206.601 111.136 205.838C111.524 205.075 112.07 204.483 112.773 204.061C113.476 203.639 114.307 203.428 115.266 203.428C116.224 203.428 117.055 203.639 117.758 204.061C118.462 204.483 119.005 205.075 119.388 205.838C119.776 206.601 119.97 207.489 119.97 208.503C119.97 209.517 119.776 210.404 119.388 211.162C119.005 211.921 118.462 212.511 117.758 212.933C117.055 213.355 116.224 213.566 115.266 213.566ZM115.278 211.712C115.798 211.712 116.233 211.569 116.582 211.284C116.932 210.994 117.192 210.606 117.362 210.12C117.537 209.635 117.624 209.093 117.624 208.497C117.624 207.896 117.537 207.353 117.362 206.867C117.192 206.377 116.932 205.987 116.582 205.697C116.233 205.407 115.798 205.263 115.278 205.263C114.746 205.263 114.302 205.407 113.949 205.697C113.599 205.987 113.337 206.377 113.163 206.867C112.992 207.353 112.907 207.896 112.907 208.497C112.907 209.093 112.992 209.635 113.163 210.12C113.337 210.606 113.599 210.994 113.949 211.284C114.302 211.569 114.746 211.712 115.278 211.712ZM128.182 213.374H125.651L130.26 200.283H133.187L137.802 213.374H135.271L131.775 202.968H131.672L128.182 213.374ZM128.265 208.241H135.169V210.146H128.265V208.241ZM139.424 217.056V203.556H141.7V205.179H141.834C141.953 204.941 142.122 204.687 142.339 204.419C142.556 204.146 142.85 203.914 143.221 203.722C143.592 203.526 144.065 203.428 144.64 203.428C145.399 203.428 146.083 203.622 146.692 204.01C147.306 204.393 147.791 204.962 148.149 205.716C148.512 206.466 148.693 207.387 148.693 208.478C148.693 209.556 148.516 210.472 148.162 211.226C147.809 211.981 147.327 212.556 146.718 212.952C146.108 213.348 145.418 213.547 144.647 213.547C144.084 213.547 143.617 213.453 143.247 213.265C142.876 213.078 142.578 212.852 142.352 212.588C142.13 212.319 141.958 212.066 141.834 211.827H141.738V217.056H139.424ZM141.693 208.465C141.693 209.1 141.783 209.656 141.962 210.133C142.145 210.611 142.407 210.983 142.748 211.252C143.093 211.516 143.511 211.648 144.001 211.648C144.512 211.648 144.941 211.512 145.286 211.239C145.631 210.962 145.891 210.585 146.066 210.108C146.245 209.626 146.334 209.079 146.334 208.465C146.334 207.856 146.247 207.314 146.072 206.841C145.897 206.368 145.637 205.998 145.292 205.729C144.947 205.461 144.517 205.326 144.001 205.326C143.507 205.326 143.087 205.456 142.742 205.716C142.397 205.976 142.134 206.341 141.956 206.809C141.781 207.278 141.693 207.83 141.693 208.465ZM150.674 217.056V203.556H152.95V205.179H153.084C153.203 204.941 153.372 204.687 153.589 204.419C153.806 204.146 154.1 203.914 154.471 203.722C154.842 203.526 155.315 203.428 155.89 203.428C156.649 203.428 157.333 203.622 157.942 204.01C158.556 204.393 159.041 204.962 159.399 205.716C159.762 206.466 159.943 207.387 159.943 208.478C159.943 209.556 159.766 210.472 159.412 211.226C159.059 211.981 158.577 212.556 157.968 212.952C157.358 213.348 156.668 213.547 155.897 213.547C155.334 213.547 154.867 213.453 154.497 213.265C154.126 213.078 153.828 212.852 153.602 212.588C153.38 212.319 153.208 212.066 153.084 211.827H152.988V217.056H150.674ZM152.943 208.465C152.943 209.1 153.033 209.656 153.212 210.133C153.395 210.611 153.657 210.983 153.998 211.252C154.343 211.516 154.761 211.648 155.251 211.648C155.762 211.648 156.191 211.512 156.536 211.239C156.881 210.962 157.141 210.585 157.316 210.108C157.495 209.626 157.584 209.079 157.584 208.465C157.584 207.856 157.497 207.314 157.322 206.841C157.147 206.368 156.887 205.998 156.542 205.729C156.197 205.461 155.767 205.326 155.251 205.326C154.757 205.326 154.337 205.456 153.992 205.716C153.647 205.976 153.384 206.341 153.206 206.809C153.031 207.278 152.943 207.83 152.943 208.465ZM166.207 213.566C165.248 213.566 164.417 213.355 163.714 212.933C163.011 212.511 162.465 211.921 162.078 211.162C161.694 210.404 161.502 209.517 161.502 208.503C161.502 207.489 161.694 206.601 162.078 205.838C162.465 205.075 163.011 204.483 163.714 204.061C164.417 203.639 165.248 203.428 166.207 203.428C167.166 203.428 167.997 203.639 168.7 204.061C169.403 204.483 169.946 205.075 170.33 205.838C170.718 206.601 170.911 207.489 170.911 208.503C170.911 209.517 170.718 210.404 170.33 211.162C169.946 211.921 169.403 212.511 168.7 212.933C167.997 213.355 167.166 213.566 166.207 213.566ZM166.22 211.712C166.74 211.712 167.174 211.569 167.524 211.284C167.873 210.994 168.133 210.606 168.304 210.12C168.478 209.635 168.566 209.093 168.566 208.497C168.566 207.896 168.478 207.353 168.304 206.867C168.133 206.377 167.873 205.987 167.524 205.697C167.174 205.407 166.74 205.263 166.22 205.263C165.687 205.263 165.244 205.407 164.89 205.697C164.541 205.987 164.279 206.377 164.104 206.867C163.934 207.353 163.848 207.896 163.848 208.497C163.848 209.093 163.934 209.635 164.104 210.12C164.279 210.606 164.541 210.994 164.89 211.284C165.244 211.569 165.687 211.712 166.22 211.712ZM172.875 213.374V203.556H175.189V213.374H172.875ZM174.039 202.162C173.672 202.162 173.357 202.041 173.093 201.798C172.829 201.551 172.696 201.255 172.696 200.91C172.696 200.56 172.829 200.264 173.093 200.021C173.357 199.774 173.672 199.65 174.039 199.65C174.41 199.65 174.725 199.774 174.985 200.021C175.249 200.264 175.381 200.56 175.381 200.91C175.381 201.255 175.249 201.551 174.985 201.798C174.725 202.041 174.41 202.162 174.039 202.162ZM179.883 207.621V213.374H177.569V203.556H179.78V205.224H179.896C180.121 204.674 180.481 204.238 180.976 203.914C181.474 203.59 182.09 203.428 182.823 203.428C183.501 203.428 184.091 203.573 184.594 203.863C185.101 204.152 185.493 204.572 185.77 205.122C186.051 205.672 186.19 206.339 186.185 207.123V213.374H183.871V207.481C183.871 206.824 183.701 206.311 183.36 205.94C183.023 205.569 182.557 205.384 181.96 205.384C181.555 205.384 181.195 205.473 180.88 205.652C180.569 205.827 180.324 206.081 180.145 206.413C179.97 206.745 179.883 207.148 179.883 207.621ZM193.44 203.556V205.346H187.796V203.556H193.44ZM189.19 201.204H191.503V210.421C191.503 210.732 191.55 210.971 191.644 211.137C191.742 211.299 191.87 211.41 192.028 211.469C192.185 211.529 192.36 211.559 192.552 211.559C192.697 211.559 192.829 211.548 192.948 211.527C193.072 211.505 193.165 211.486 193.229 211.469L193.619 213.278C193.496 213.321 193.319 213.368 193.089 213.419C192.863 213.47 192.586 213.5 192.258 213.508C191.678 213.525 191.156 213.438 190.692 213.246C190.227 213.05 189.859 212.748 189.586 212.339C189.317 211.929 189.185 211.418 189.19 210.804V201.204ZM195.375 213.374V203.556H197.587V205.224H197.702C197.907 204.662 198.245 204.223 198.718 203.907C199.191 203.588 199.756 203.428 200.412 203.428C201.077 203.428 201.638 203.59 202.093 203.914C202.554 204.233 202.878 204.67 203.065 205.224H203.167C203.385 204.679 203.751 204.244 204.267 203.92C204.787 203.592 205.402 203.428 206.114 203.428C207.017 203.428 207.755 203.714 208.326 204.285C208.897 204.856 209.182 205.689 209.182 206.784V213.374H206.862V207.142C206.862 206.532 206.7 206.087 206.376 205.806C206.052 205.52 205.656 205.378 205.187 205.378C204.629 205.378 204.192 205.552 203.877 205.902C203.566 206.247 203.41 206.696 203.41 207.25V213.374H201.141V207.046C201.141 206.539 200.988 206.134 200.681 205.831C200.378 205.529 199.982 205.378 199.492 205.378C199.16 205.378 198.857 205.463 198.584 205.633C198.312 205.799 198.094 206.036 197.932 206.343C197.77 206.645 197.689 206.999 197.689 207.404V213.374H195.375ZM215.876 213.566C214.892 213.566 214.042 213.361 213.326 212.952C212.614 212.539 212.067 211.955 211.683 211.201C211.3 210.442 211.108 209.549 211.108 208.522C211.108 207.513 211.3 206.626 211.683 205.863C212.071 205.096 212.612 204.5 213.307 204.074C214.001 203.643 214.817 203.428 215.755 203.428C216.36 203.428 216.931 203.526 217.468 203.722C218.009 203.914 218.486 204.212 218.9 204.617C219.317 205.022 219.646 205.537 219.884 206.164C220.123 206.786 220.242 207.527 220.242 208.388V209.098H212.195V207.538H218.024C218.02 207.095 217.924 206.701 217.736 206.356C217.549 206.006 217.287 205.731 216.95 205.531C216.618 205.331 216.23 205.231 215.787 205.231C215.314 205.231 214.898 205.346 214.54 205.576C214.182 205.802 213.903 206.1 213.703 206.471C213.507 206.837 213.407 207.24 213.403 207.679V209.04C213.403 209.611 213.507 210.101 213.716 210.51C213.925 210.915 214.217 211.226 214.592 211.444C214.967 211.657 215.405 211.763 215.908 211.763C216.245 211.763 216.55 211.716 216.822 211.623C217.095 211.525 217.332 211.382 217.532 211.194C217.732 211.007 217.883 210.775 217.986 210.498L220.146 210.741C220.01 211.312 219.75 211.81 219.366 212.236C218.987 212.658 218.501 212.986 217.909 213.221C217.317 213.451 216.639 213.566 215.876 213.566ZM224.514 207.621V213.374H222.2V203.556H224.411V205.224H224.526C224.752 204.674 225.112 204.238 225.607 203.914C226.105 203.59 226.721 203.428 227.454 203.428C228.131 203.428 228.722 203.573 229.225 203.863C229.732 204.152 230.124 204.572 230.401 205.122C230.682 205.672 230.82 206.339 230.816 207.123V213.374H228.502V207.481C228.502 206.824 228.332 206.311 227.991 205.94C227.654 205.569 227.188 205.384 226.591 205.384C226.186 205.384 225.826 205.473 225.511 205.652C225.2 205.827 224.955 206.081 224.776 206.413C224.601 206.745 224.514 207.148 224.514 207.621ZM238.071 203.556V205.346H232.427V203.556H238.071ZM233.82 201.204H236.134V210.421C236.134 210.732 236.181 210.971 236.275 211.137C236.373 211.299 236.501 211.41 236.658 211.469C236.816 211.529 236.991 211.559 237.183 211.559C237.328 211.559 237.46 211.548 237.579 211.527C237.703 211.505 237.796 211.486 237.86 211.469L238.25 213.278C238.127 213.321 237.95 213.368 237.72 213.419C237.494 213.47 237.217 213.5 236.889 213.508C236.309 213.525 235.787 213.438 235.323 213.246C234.858 213.05 234.489 212.748 234.217 212.339C233.948 211.929 233.816 211.418 233.82 210.804V201.204ZM247.626 206.151L245.516 206.381C245.457 206.168 245.352 205.968 245.203 205.78C245.058 205.593 244.862 205.441 244.615 205.326C244.368 205.211 244.065 205.154 243.707 205.154C243.226 205.154 242.821 205.258 242.493 205.467C242.169 205.676 242.009 205.946 242.013 206.279C242.009 206.564 242.114 206.797 242.327 206.976C242.544 207.155 242.902 207.302 243.4 207.417L245.075 207.775C246.004 207.975 246.695 208.292 247.146 208.727C247.602 209.162 247.832 209.731 247.837 210.434C247.832 211.052 247.651 211.597 247.293 212.07C246.94 212.539 246.447 212.905 245.817 213.169C245.186 213.434 244.462 213.566 243.643 213.566C242.442 213.566 241.474 213.314 240.741 212.812C240.008 212.304 239.572 211.599 239.431 210.696L241.687 210.478C241.79 210.922 242.007 211.256 242.339 211.482C242.672 211.708 243.104 211.821 243.637 211.821C244.187 211.821 244.628 211.708 244.96 211.482C245.297 211.256 245.465 210.977 245.465 210.645C245.465 210.363 245.356 210.131 245.139 209.948C244.926 209.765 244.594 209.624 244.142 209.526L242.467 209.174C241.525 208.978 240.829 208.648 240.377 208.184C239.925 207.715 239.702 207.123 239.706 206.407C239.702 205.802 239.866 205.277 240.198 204.834C240.535 204.387 241.001 204.042 241.598 203.799C242.199 203.552 242.891 203.428 243.675 203.428C244.826 203.428 245.731 203.673 246.392 204.163C247.057 204.653 247.468 205.316 247.626 206.151ZM253.417 200.283H256.095L259.297 206.074H259.425L262.628 200.283H265.306L260.544 208.491V213.374H258.179V208.491L253.417 200.283ZM269.402 213.566C268.417 213.566 267.567 213.361 266.851 212.952C266.14 212.539 265.592 211.955 265.209 211.201C264.825 210.442 264.633 209.549 264.633 208.522C264.633 207.513 264.825 206.626 265.209 205.863C265.596 205.096 266.138 204.5 266.832 204.074C267.527 203.643 268.343 203.428 269.28 203.428C269.885 203.428 270.456 203.526 270.993 203.722C271.535 203.914 272.012 204.212 272.425 204.617C272.843 205.022 273.171 205.537 273.41 206.164C273.648 206.786 273.767 207.527 273.767 208.388V209.098H265.72V207.538H271.549C271.545 207.095 271.449 206.701 271.262 206.356C271.074 206.006 270.812 205.731 270.476 205.531C270.143 205.331 269.755 205.231 269.312 205.231C268.839 205.231 268.424 205.346 268.066 205.576C267.708 205.802 267.429 206.1 267.228 206.471C267.032 206.837 266.932 207.24 266.928 207.679V209.04C266.928 209.611 267.032 210.101 267.241 210.51C267.45 210.915 267.742 211.226 268.117 211.444C268.492 211.657 268.931 211.763 269.434 211.763C269.77 211.763 270.075 211.716 270.348 211.623C270.62 211.525 270.857 211.382 271.057 211.194C271.258 211.007 271.409 210.775 271.511 210.498L273.672 210.741C273.535 211.312 273.275 211.81 272.892 212.236C272.513 212.658 272.027 212.986 271.434 213.221C270.842 213.451 270.165 213.566 269.402 213.566ZM280.628 203.556V205.346H274.984V203.556H280.628ZM276.377 201.204H278.691V210.421C278.691 210.732 278.738 210.971 278.832 211.137C278.93 211.299 279.057 211.41 279.215 211.469C279.373 211.529 279.547 211.559 279.739 211.559C279.884 211.559 280.016 211.548 280.136 211.527C280.259 211.505 280.353 211.486 280.417 211.469L280.807 213.278C280.683 213.321 280.506 213.368 280.276 213.419C280.05 213.47 279.773 213.5 279.445 213.508C278.866 213.525 278.344 213.438 277.879 213.246C277.415 213.05 277.046 212.748 276.773 212.339C276.505 211.929 276.373 211.418 276.377 210.804V201.204ZM285.395 200.283L285.184 209.526H283.125L282.921 200.283H285.395ZM284.155 213.515C283.767 213.515 283.434 213.378 283.157 213.106C282.885 212.833 282.748 212.5 282.748 212.108C282.748 211.725 282.885 211.397 283.157 211.124C283.434 210.851 283.767 210.715 284.155 210.715C284.534 210.715 284.862 210.851 285.139 211.124C285.42 211.397 285.561 211.725 285.561 212.108C285.561 212.368 285.495 212.605 285.363 212.818C285.235 213.031 285.064 213.201 284.851 213.329C284.642 213.453 284.41 213.515 284.155 213.515Z" fill="#242424"/>
<path d="M70.2613 236.192H71.6732L74.4971 240.945H74.6164L77.4403 236.192H78.8522L75.1732 242.178V246.374H73.9403V242.178L70.2613 236.192ZM82.3099 246.533C81.6205 246.533 81.0157 246.369 80.4953 246.041C79.9782 245.713 79.5739 245.254 79.2822 244.664C78.9939 244.074 78.8497 243.384 78.8497 242.596C78.8497 241.8 78.9939 241.106 79.2822 240.513C79.5739 239.919 79.9782 239.459 80.4953 239.13C81.0157 238.802 81.6205 238.638 82.3099 238.638C82.9993 238.638 83.6025 238.802 84.1196 239.13C84.6399 239.459 85.0443 239.919 85.3327 240.513C85.6243 241.106 85.7702 241.8 85.7702 242.596C85.7702 243.384 85.6243 244.074 85.3327 244.664C85.0443 245.254 84.6399 245.713 84.1196 246.041C83.6025 246.369 82.9993 246.533 82.3099 246.533ZM82.3099 245.479C82.8336 245.479 83.2645 245.345 83.6025 245.076C83.9406 244.808 84.1908 244.455 84.3532 244.017C84.5157 243.58 84.5969 243.106 84.5969 242.596C84.5969 242.085 84.5157 241.61 84.3532 241.169C84.1908 240.728 83.9406 240.372 83.6025 240.1C83.2645 239.828 82.8336 239.692 82.3099 239.692C81.7863 239.692 81.3554 239.828 81.0173 240.1C80.6792 240.372 80.429 240.728 80.2666 241.169C80.1042 241.61 80.023 242.085 80.023 242.596C80.023 243.106 80.1042 243.58 80.2666 244.017C80.429 244.455 80.6792 244.808 81.0173 245.076C81.3554 245.345 81.7863 245.479 82.3099 245.479ZM92.3737 243.252V238.738H93.547V246.374H92.3737V245.081H92.2941C92.1151 245.469 91.8367 245.799 91.4589 246.071C91.0811 246.339 90.6038 246.473 90.0271 246.473C89.5498 246.473 89.1256 246.369 88.7544 246.16C88.3831 245.948 88.0915 245.63 87.8794 245.206C87.6672 244.778 87.5612 244.24 87.5612 243.59V238.738H88.7345V243.51C88.7345 244.067 88.8902 244.511 89.2018 244.843C89.5167 245.174 89.9177 245.34 90.4049 245.34C90.6966 245.34 90.9932 245.265 91.2948 245.116C91.5998 244.967 91.855 244.738 92.0605 244.43C92.2693 244.122 92.3737 243.729 92.3737 243.252ZM102.517 246.533C101.881 246.533 101.319 246.372 100.832 246.051C100.344 245.726 99.9632 245.269 99.6881 244.679C99.413 244.085 99.2755 243.384 99.2755 242.576C99.2755 241.774 99.413 241.078 99.6881 240.488C99.9632 239.898 100.346 239.442 100.837 239.12C101.327 238.799 101.894 238.638 102.537 238.638C103.034 238.638 103.427 238.721 103.715 238.887C104.007 239.049 104.229 239.235 104.381 239.444C104.537 239.649 104.658 239.818 104.744 239.951H104.844V236.192H106.017V246.374H104.883V245.201H104.744C104.658 245.34 104.535 245.516 104.376 245.728C104.217 245.937 103.99 246.124 103.695 246.29C103.4 246.452 103.007 246.533 102.517 246.533ZM102.676 245.479C103.147 245.479 103.544 245.357 103.869 245.111C104.194 244.863 104.441 244.52 104.61 244.082C104.779 243.641 104.864 243.133 104.864 242.556C104.864 241.986 104.781 241.487 104.615 241.059C104.449 240.629 104.204 240.294 103.879 240.055C103.554 239.813 103.153 239.692 102.676 239.692C102.179 239.692 101.765 239.82 101.433 240.075C101.105 240.327 100.858 240.67 100.692 241.104C100.53 241.535 100.449 242.019 100.449 242.556C100.449 243.099 100.532 243.593 100.697 244.037C100.866 244.478 101.115 244.83 101.443 245.091C101.775 245.35 102.186 245.479 102.676 245.479ZM111.431 246.533C110.742 246.533 110.137 246.369 109.616 246.041C109.099 245.713 108.695 245.254 108.403 244.664C108.115 244.074 107.971 243.384 107.971 242.596C107.971 241.8 108.115 241.106 108.403 240.513C108.695 239.919 109.099 239.459 109.616 239.13C110.137 238.802 110.742 238.638 111.431 238.638C112.12 238.638 112.724 238.802 113.241 239.13C113.761 239.459 114.165 239.919 114.454 240.513C114.745 241.106 114.891 241.8 114.891 242.596C114.891 243.384 114.745 244.074 114.454 244.664C114.165 245.254 113.761 245.713 113.241 246.041C112.724 246.369 112.12 246.533 111.431 246.533ZM111.431 245.479C111.955 245.479 112.386 245.345 112.724 245.076C113.062 244.808 113.312 244.455 113.474 244.017C113.637 243.58 113.718 243.106 113.718 242.596C113.718 242.085 113.637 241.61 113.474 241.169C113.312 240.728 113.062 240.372 112.724 240.1C112.386 239.828 111.955 239.692 111.431 239.692C110.907 239.692 110.476 239.828 110.138 240.1C109.8 240.372 109.55 240.728 109.388 241.169C109.225 241.61 109.144 242.085 109.144 242.596C109.144 243.106 109.225 243.58 109.388 244.017C109.55 244.455 109.8 244.808 110.138 245.076C110.476 245.345 110.907 245.479 111.431 245.479ZM117.856 241.78V246.374H116.682V238.738H117.816V239.931H117.915C118.094 239.543 118.366 239.232 118.731 238.996C119.095 238.758 119.566 238.638 120.142 238.638C120.66 238.638 121.112 238.744 121.5 238.956C121.888 239.165 122.189 239.483 122.405 239.911C122.62 240.335 122.728 240.872 122.728 241.522V246.374H121.554V241.601C121.554 241.001 121.399 240.534 121.087 240.199C120.776 239.861 120.348 239.692 119.804 239.692C119.43 239.692 119.095 239.773 118.8 239.936C118.508 240.098 118.278 240.335 118.109 240.647C117.94 240.958 117.856 241.336 117.856 241.78ZM125.906 236.192V237.087C125.906 237.359 125.856 237.649 125.757 237.957C125.661 238.262 125.518 238.559 125.329 238.847C125.143 239.132 124.918 239.381 124.653 239.593L124.017 239.076C124.225 238.777 124.406 238.468 124.559 238.146C124.714 237.821 124.792 237.475 124.792 237.107V236.192H125.906ZM130.982 238.738V239.732H127.024V238.738H130.982ZM128.178 236.908H129.351V244.187C129.351 244.518 129.399 244.767 129.495 244.932C129.595 245.095 129.721 245.204 129.873 245.26C130.029 245.313 130.193 245.34 130.365 245.34C130.495 245.34 130.601 245.333 130.684 245.32C130.766 245.303 130.833 245.29 130.882 245.28L131.121 246.334C131.041 246.364 130.93 246.394 130.788 246.424C130.645 246.457 130.465 246.473 130.246 246.473C129.915 246.473 129.59 246.402 129.272 246.26C128.957 246.117 128.695 245.9 128.486 245.608C128.281 245.317 128.178 244.949 128.178 244.505V236.908ZM137.858 241.78V246.374H136.684V236.192H137.858V239.931H137.957C138.136 239.536 138.404 239.223 138.762 238.991C139.124 238.756 139.604 238.638 140.204 238.638C140.724 238.638 141.18 238.743 141.571 238.951C141.962 239.157 142.266 239.473 142.481 239.901C142.7 240.325 142.809 240.866 142.809 241.522V246.374H141.636V241.601C141.636 240.995 141.478 240.526 141.164 240.194C140.852 239.86 140.42 239.692 139.866 239.692C139.482 239.692 139.137 239.773 138.832 239.936C138.53 240.098 138.292 240.335 138.116 240.647C137.944 240.958 137.858 241.336 137.858 241.78ZM147.203 246.553C146.719 246.553 146.28 246.462 145.885 246.28C145.491 246.094 145.178 245.827 144.946 245.479C144.714 245.128 144.598 244.704 144.598 244.206C144.598 243.769 144.684 243.414 144.856 243.142C145.029 242.867 145.259 242.652 145.547 242.496C145.836 242.34 146.154 242.224 146.502 242.148C146.853 242.069 147.206 242.006 147.561 241.959C148.025 241.9 148.401 241.855 148.689 241.825C148.981 241.792 149.193 241.737 149.326 241.661C149.462 241.585 149.53 241.452 149.53 241.263V241.223C149.53 240.733 149.395 240.352 149.127 240.08C148.862 239.808 148.459 239.672 147.919 239.672C147.359 239.672 146.919 239.795 146.601 240.04C146.283 240.285 146.059 240.547 145.93 240.826L144.816 240.428C145.015 239.964 145.281 239.603 145.612 239.344C145.947 239.082 146.311 238.9 146.706 238.797C147.103 238.691 147.495 238.638 147.879 238.638C148.124 238.638 148.406 238.668 148.724 238.728C149.046 238.784 149.356 238.902 149.654 239.081C149.955 239.26 150.206 239.53 150.405 239.891C150.603 240.252 150.703 240.736 150.703 241.343V246.374H149.53V245.34H149.47C149.39 245.506 149.258 245.683 149.072 245.872C148.887 246.061 148.64 246.222 148.331 246.354C148.023 246.487 147.647 246.553 147.203 246.553ZM147.382 245.499C147.846 245.499 148.237 245.408 148.555 245.226C148.877 245.043 149.119 244.808 149.281 244.52C149.447 244.231 149.53 243.928 149.53 243.61V242.536C149.48 242.596 149.37 242.65 149.201 242.7C149.036 242.746 148.843 242.788 148.625 242.824C148.409 242.857 148.199 242.887 147.993 242.914C147.791 242.937 147.627 242.957 147.501 242.973C147.196 243.013 146.911 243.078 146.646 243.167C146.384 243.254 146.172 243.384 146.01 243.56C145.851 243.732 145.771 243.968 145.771 244.266C145.771 244.674 145.922 244.982 146.223 245.191C146.528 245.396 146.915 245.499 147.382 245.499ZM158.815 238.738L155.991 246.374H154.798L151.974 238.738H153.247L155.355 244.823H155.435L157.543 238.738H158.815ZM163.292 246.533C162.556 246.533 161.922 246.371 161.388 246.046C160.858 245.718 160.448 245.26 160.16 244.674C159.875 244.084 159.733 243.398 159.733 242.616C159.733 241.833 159.875 241.144 160.16 240.547C160.448 239.947 160.849 239.48 161.363 239.145C161.88 238.807 162.483 238.638 163.173 238.638C163.571 238.638 163.963 238.705 164.351 238.837C164.739 238.97 165.092 239.185 165.41 239.483C165.728 239.778 165.982 240.169 166.171 240.657C166.36 241.144 166.454 241.744 166.454 242.456V242.954H160.568V241.939H165.261C165.261 241.508 165.175 241.124 165.002 240.786C164.833 240.448 164.591 240.181 164.277 239.986C163.965 239.79 163.597 239.692 163.173 239.692C162.706 239.692 162.301 239.808 161.96 240.04C161.622 240.269 161.362 240.567 161.179 240.935C160.997 241.303 160.906 241.697 160.906 242.118V242.794C160.906 243.371 161.005 243.86 161.204 244.261C161.406 244.659 161.686 244.962 162.044 245.171C162.402 245.376 162.818 245.479 163.292 245.479C163.6 245.479 163.879 245.436 164.127 245.35C164.379 245.26 164.596 245.128 164.779 244.952C164.961 244.773 165.102 244.551 165.201 244.286L166.335 244.604C166.215 244.989 166.015 245.327 165.733 245.618C165.451 245.907 165.103 246.132 164.689 246.294C164.275 246.454 163.809 246.533 163.292 246.533ZM174.424 246.553C173.94 246.553 173.501 246.462 173.106 246.28C172.712 246.094 172.398 245.827 172.166 245.479C171.934 245.128 171.818 244.704 171.818 244.206C171.818 243.769 171.905 243.414 172.077 243.142C172.249 242.867 172.48 242.652 172.768 242.496C173.056 242.34 173.375 242.224 173.723 242.148C174.074 242.069 174.427 242.006 174.782 241.959C175.246 241.9 175.622 241.855 175.91 241.825C176.202 241.792 176.414 241.737 176.546 241.661C176.682 241.585 176.75 241.452 176.75 241.263V241.223C176.75 240.733 176.616 240.352 176.348 240.08C176.082 239.808 175.68 239.672 175.139 239.672C174.579 239.672 174.14 239.795 173.822 240.04C173.504 240.285 173.28 240.547 173.151 240.826L172.037 240.428C172.236 239.964 172.501 239.603 172.833 239.344C173.167 239.082 173.532 238.9 173.926 238.797C174.324 238.691 174.715 238.638 175.1 238.638C175.345 238.638 175.627 238.668 175.945 238.728C176.266 238.784 176.576 238.902 176.875 239.081C177.176 239.26 177.426 239.53 177.625 239.891C177.824 240.252 177.924 240.736 177.924 241.343V246.374H176.75V245.34H176.691C176.611 245.506 176.478 245.683 176.293 245.872C176.107 246.061 175.86 246.222 175.552 246.354C175.244 246.487 174.868 246.553 174.424 246.553ZM174.603 245.499C175.067 245.499 175.458 245.408 175.776 245.226C176.097 245.043 176.339 244.808 176.502 244.52C176.667 244.231 176.75 243.928 176.75 243.61V242.536C176.701 242.596 176.591 242.65 176.422 242.7C176.256 242.746 176.064 242.788 175.845 242.824C175.63 242.857 175.42 242.887 175.214 242.914C175.012 242.937 174.848 242.957 174.722 242.973C174.417 243.013 174.132 243.078 173.867 243.167C173.605 243.254 173.393 243.384 173.23 243.56C173.071 243.732 172.992 243.968 172.992 244.266C172.992 244.674 173.143 244.982 173.444 245.191C173.749 245.396 174.135 245.499 174.603 245.499ZM181.238 241.78V246.374H180.065V238.738H181.199V239.931H181.298C181.477 239.543 181.749 239.232 182.113 238.996C182.478 238.758 182.949 238.638 183.525 238.638C184.042 238.638 184.495 238.744 184.883 238.956C185.27 239.165 185.572 239.483 185.787 239.911C186.003 240.335 186.111 240.872 186.111 241.522V246.374H184.937V241.601C184.937 241.001 184.781 240.534 184.47 240.199C184.158 239.861 183.731 239.692 183.187 239.692C182.813 239.692 182.478 239.773 182.183 239.936C181.891 240.098 181.661 240.335 181.492 240.647C181.323 240.958 181.238 241.336 181.238 241.78ZM188.737 249.238C188.538 249.238 188.361 249.221 188.205 249.188C188.049 249.158 187.941 249.128 187.882 249.098L188.18 248.064C188.465 248.137 188.717 248.164 188.936 248.144C189.154 248.124 189.348 248.026 189.517 247.851C189.69 247.678 189.847 247.398 189.99 247.01L190.208 246.414L187.384 238.738H188.657L190.765 244.823H190.845L192.953 238.738H194.225L190.984 247.488C190.838 247.882 190.657 248.209 190.442 248.467C190.227 248.729 189.976 248.923 189.691 249.049C189.41 249.175 189.091 249.238 188.737 249.238ZM201.959 246.553C201.475 246.553 201.036 246.462 200.641 246.28C200.247 246.094 199.934 245.827 199.702 245.479C199.47 245.128 199.354 244.704 199.354 244.206C199.354 243.769 199.44 243.414 199.612 243.142C199.784 242.867 200.015 242.652 200.303 242.496C200.592 242.34 200.91 242.224 201.258 242.148C201.609 242.069 201.962 242.006 202.317 241.959C202.781 241.9 203.157 241.855 203.445 241.825C203.737 241.792 203.949 241.737 204.082 241.661C204.217 241.585 204.285 241.452 204.285 241.263V241.223C204.285 240.733 204.151 240.352 203.883 240.08C203.618 239.808 203.215 239.672 202.675 239.672C202.114 239.672 201.675 239.795 201.357 240.04C201.039 240.285 200.815 240.547 200.686 240.826L199.572 240.428C199.771 239.964 200.036 239.603 200.368 239.344C200.703 239.082 201.067 238.9 201.462 238.797C201.859 238.691 202.25 238.638 202.635 238.638C202.88 238.638 203.162 238.668 203.48 238.728C203.802 238.784 204.111 238.902 204.41 239.081C204.711 239.26 204.962 239.53 205.16 239.891C205.359 240.252 205.459 240.736 205.459 241.343V246.374H204.285V245.34H204.226C204.146 245.506 204.014 245.683 203.828 245.872C203.642 246.061 203.396 246.222 203.087 246.354C202.779 246.487 202.403 246.553 201.959 246.553ZM202.138 245.499C202.602 245.499 202.993 245.408 203.311 245.226C203.632 245.043 203.874 244.808 204.037 244.52C204.203 244.231 204.285 243.928 204.285 243.61V242.536C204.236 242.596 204.126 242.65 203.957 242.7C203.792 242.746 203.599 242.788 203.381 242.824C203.165 242.857 202.955 242.887 202.749 242.914C202.547 242.937 202.383 242.957 202.257 242.973C201.952 243.013 201.667 243.078 201.402 243.167C201.14 243.254 200.928 243.384 200.766 243.56C200.606 243.732 200.527 243.968 200.527 244.266C200.527 244.674 200.678 244.982 200.979 245.191C201.284 245.396 201.67 245.499 202.138 245.499ZM207.6 249.238V238.738H208.734V239.951H208.873C208.959 239.818 209.078 239.649 209.231 239.444C209.387 239.235 209.609 239.049 209.897 238.887C210.189 238.721 210.583 238.638 211.08 238.638C211.723 238.638 212.29 238.799 212.781 239.12C213.271 239.442 213.654 239.898 213.929 240.488C214.204 241.078 214.342 241.774 214.342 242.576C214.342 243.384 214.204 244.085 213.929 244.679C213.654 245.269 213.273 245.726 212.786 246.051C212.298 246.372 211.737 246.533 211.1 246.533C210.61 246.533 210.217 246.452 209.922 246.29C209.627 246.124 209.4 245.937 209.241 245.728C209.082 245.516 208.959 245.34 208.873 245.201H208.774V249.238H207.6ZM208.754 242.556C208.754 243.133 208.838 243.641 209.007 244.082C209.176 244.52 209.423 244.863 209.748 245.111C210.073 245.357 210.47 245.479 210.941 245.479C211.432 245.479 211.841 245.35 212.169 245.091C212.501 244.83 212.749 244.478 212.915 244.037C213.084 243.593 213.168 243.099 213.168 242.556C213.168 242.019 213.086 241.535 212.92 241.104C212.757 240.67 212.511 240.327 212.179 240.075C211.851 239.82 211.438 239.692 210.941 239.692C210.464 239.692 210.063 239.813 209.738 240.055C209.413 240.294 209.168 240.629 209.002 241.059C208.836 241.487 208.754 241.986 208.754 242.556ZM216.131 249.238V238.738H217.265V239.951H217.404C217.49 239.818 217.61 239.649 217.762 239.444C217.918 239.235 218.14 239.049 218.428 238.887C218.72 238.721 219.114 238.638 219.612 238.638C220.255 238.638 220.821 238.799 221.312 239.12C221.802 239.442 222.185 239.898 222.46 240.488C222.735 241.078 222.873 241.774 222.873 242.576C222.873 243.384 222.735 244.085 222.46 244.679C222.185 245.269 221.804 245.726 221.317 246.051C220.83 246.372 220.268 246.533 219.631 246.533C219.141 246.533 218.748 246.452 218.453 246.29C218.158 246.124 217.931 245.937 217.772 245.728C217.613 245.516 217.49 245.34 217.404 245.201H217.305V249.238H216.131ZM217.285 242.556C217.285 243.133 217.369 243.641 217.538 244.082C217.707 244.52 217.954 244.863 218.279 245.111C218.604 245.357 219.002 245.479 219.472 245.479C219.963 245.479 220.372 245.35 220.7 245.091C221.032 244.83 221.28 244.478 221.446 244.037C221.615 243.593 221.7 243.099 221.7 242.556C221.7 242.019 221.617 241.535 221.451 241.104C221.289 240.67 221.042 240.327 220.71 240.075C220.382 239.82 219.97 239.692 219.472 239.692C218.995 239.692 218.594 239.813 218.269 240.055C217.944 240.294 217.699 240.629 217.533 241.059C217.368 241.487 217.285 241.986 217.285 242.556ZM227.765 246.533C227.076 246.533 226.471 246.369 225.95 246.041C225.433 245.713 225.029 245.254 224.737 244.664C224.449 244.074 224.305 243.384 224.305 242.596C224.305 241.8 224.449 241.106 224.737 240.513C225.029 239.919 225.433 239.459 225.95 239.13C226.471 238.802 227.076 238.638 227.765 238.638C228.454 238.638 229.058 238.802 229.575 239.13C230.095 239.459 230.499 239.919 230.788 240.513C231.079 241.106 231.225 241.8 231.225 242.596C231.225 243.384 231.079 244.074 230.788 244.664C230.499 245.254 230.095 245.713 229.575 246.041C229.058 246.369 228.454 246.533 227.765 246.533ZM227.765 245.479C228.289 245.479 228.72 245.345 229.058 245.076C229.396 244.808 229.646 244.455 229.808 244.017C229.971 243.58 230.052 243.106 230.052 242.596C230.052 242.085 229.971 241.61 229.808 241.169C229.646 240.728 229.396 240.372 229.058 240.1C228.72 239.828 228.289 239.692 227.765 239.692C227.241 239.692 226.81 239.828 226.472 240.1C226.134 240.372 225.884 240.728 225.722 241.169C225.559 241.61 225.478 242.085 225.478 242.596C225.478 243.106 225.559 243.58 225.722 244.017C225.884 244.455 226.134 244.808 226.472 245.076C226.81 245.345 227.241 245.479 227.765 245.479ZM233.016 246.374V238.738H234.19V246.374H233.016ZM233.613 237.465C233.384 237.465 233.187 237.387 233.021 237.231C232.859 237.075 232.778 236.888 232.778 236.669C232.778 236.451 232.859 236.263 233.021 236.108C233.187 235.952 233.384 235.874 233.613 235.874C233.842 235.874 234.037 235.952 234.199 236.108C234.365 236.263 234.448 236.451 234.448 236.669C234.448 236.888 234.365 237.075 234.199 237.231C234.037 237.387 233.842 237.465 233.613 237.465ZM237.512 241.78V246.374H236.339V238.738H237.472V239.931H237.571C237.75 239.543 238.022 239.232 238.387 238.996C238.751 238.758 239.222 238.638 239.799 238.638C240.316 238.638 240.768 238.744 241.156 238.956C241.544 239.165 241.845 239.483 242.061 239.911C242.276 240.335 242.384 240.872 242.384 241.522V246.374H241.211V241.601C241.211 241.001 241.055 240.534 240.743 240.199C240.432 239.861 240.004 239.692 239.461 239.692C239.086 239.692 238.751 239.773 238.456 239.936C238.165 240.098 237.934 240.335 237.765 240.647C237.596 240.958 237.512 241.336 237.512 241.78ZM247.849 238.738V239.732H243.892V238.738H247.849ZM245.045 236.908H246.218V244.187C246.218 244.518 246.266 244.767 246.362 244.932C246.462 245.095 246.588 245.204 246.74 245.26C246.896 245.313 247.06 245.34 247.233 245.34C247.362 245.34 247.468 245.333 247.551 245.32C247.634 245.303 247.7 245.29 247.75 245.28L247.988 246.334C247.909 246.364 247.798 246.394 247.655 246.424C247.513 246.457 247.332 246.473 247.113 246.473C246.782 246.473 246.457 246.402 246.139 246.26C245.824 246.117 245.562 245.9 245.353 245.608C245.148 245.317 245.045 244.949 245.045 244.505V236.908ZM249.614 246.374V238.738H250.747V239.931H250.847C251.006 239.523 251.263 239.207 251.617 238.981C251.972 238.753 252.398 238.638 252.895 238.638C253.399 238.638 253.818 238.753 254.153 238.981C254.491 239.207 254.755 239.523 254.943 239.931H255.023C255.219 239.536 255.512 239.223 255.903 238.991C256.294 238.756 256.763 238.638 257.31 238.638C257.993 238.638 258.551 238.852 258.985 239.28C259.42 239.704 259.637 240.365 259.637 241.263V246.374H258.463V241.263C258.463 240.7 258.309 240.297 258.001 240.055C257.693 239.813 257.33 239.692 256.912 239.692C256.375 239.692 255.959 239.855 255.664 240.179C255.369 240.501 255.222 240.909 255.222 241.402V246.374H254.029V241.144C254.029 240.71 253.888 240.36 253.606 240.095C253.324 239.826 252.961 239.692 252.517 239.692C252.212 239.692 251.927 239.773 251.662 239.936C251.4 240.098 251.188 240.324 251.026 240.612C250.867 240.897 250.787 241.227 250.787 241.601V246.374H249.614ZM264.984 246.533C264.248 246.533 263.613 246.371 263.079 246.046C262.549 245.718 262.14 245.26 261.851 244.674C261.566 244.084 261.424 243.398 261.424 242.616C261.424 241.833 261.566 241.144 261.851 240.547C262.14 239.947 262.541 239.48 263.055 239.145C263.572 238.807 264.175 238.638 264.864 238.638C265.262 238.638 265.655 238.705 266.043 238.837C266.43 238.97 266.783 239.185 267.101 239.483C267.42 239.778 267.673 240.169 267.862 240.657C268.051 241.144 268.146 241.744 268.146 242.456V242.954H262.259V241.939H266.952C266.952 241.508 266.866 241.124 266.694 240.786C266.525 240.448 266.283 240.181 265.968 239.986C265.656 239.79 265.289 239.692 264.864 239.692C264.397 239.692 263.993 239.808 263.651 240.04C263.313 240.269 263.053 240.567 262.871 240.935C262.688 241.303 262.597 241.697 262.597 242.118V242.794C262.597 243.371 262.697 243.86 262.896 244.261C263.098 244.659 263.378 244.962 263.736 245.171C264.094 245.376 264.51 245.479 264.984 245.479C265.292 245.479 265.57 245.436 265.819 245.35C266.071 245.26 266.288 245.128 266.47 244.952C266.652 244.773 266.793 244.551 266.893 244.286L268.026 244.604C267.907 244.989 267.706 245.327 267.425 245.618C267.143 245.907 266.795 246.132 266.381 246.294C265.966 246.454 265.501 246.533 264.984 246.533ZM271.104 241.78V246.374H269.93V238.738H271.064V239.931H271.163C271.342 239.543 271.614 239.232 271.979 238.996C272.343 238.758 272.814 238.638 273.391 238.638C273.908 238.638 274.36 238.744 274.748 238.956C275.136 239.165 275.437 239.483 275.653 239.911C275.868 240.335 275.976 240.872 275.976 241.522V246.374H274.802V241.601C274.802 241.001 274.647 240.534 274.335 240.199C274.024 239.861 273.596 239.692 273.052 239.692C272.678 239.692 272.343 239.773 272.048 239.936C271.757 240.098 271.526 240.335 271.357 240.647C271.188 240.958 271.104 241.336 271.104 241.78ZM281.441 238.738V239.732H277.483V238.738H281.441ZM278.637 236.908H279.81V244.187C279.81 244.518 279.858 244.767 279.954 244.932C280.054 245.095 280.18 245.204 280.332 245.26C280.488 245.313 280.652 245.34 280.824 245.34C280.954 245.34 281.06 245.333 281.142 245.32C281.225 245.303 281.292 245.29 281.341 245.28L281.58 246.334C281.5 246.364 281.389 246.394 281.247 246.424C281.104 246.457 280.924 246.473 280.705 246.473C280.374 246.473 280.049 246.402 279.731 246.26C279.416 246.117 279.154 245.9 278.945 245.608C278.74 245.317 278.637 244.949 278.637 244.505V236.908ZM288.478 240.448L287.424 240.746C287.358 240.571 287.26 240.4 287.131 240.234C287.005 240.065 286.832 239.926 286.614 239.816C286.395 239.707 286.115 239.652 285.774 239.652C285.306 239.652 284.917 239.76 284.605 239.976C284.297 240.188 284.143 240.458 284.143 240.786C284.143 241.078 284.249 241.308 284.461 241.477C284.673 241.646 285.005 241.787 285.455 241.9L286.589 242.178C287.272 242.344 287.78 242.597 288.115 242.939C288.45 243.277 288.617 243.713 288.617 244.246C288.617 244.684 288.491 245.075 288.239 245.419C287.991 245.764 287.643 246.036 287.195 246.235C286.748 246.434 286.228 246.533 285.634 246.533C284.855 246.533 284.211 246.364 283.7 246.026C283.19 245.688 282.867 245.194 282.731 244.544L283.845 244.266C283.951 244.677 284.151 244.985 284.446 245.191C284.744 245.396 285.134 245.499 285.614 245.499C286.161 245.499 286.595 245.383 286.917 245.151C287.242 244.916 287.404 244.634 287.404 244.306C287.404 244.041 287.311 243.819 287.126 243.64C286.94 243.457 286.655 243.321 286.271 243.232L284.998 242.934C284.299 242.768 283.785 242.511 283.457 242.163C283.132 241.812 282.97 241.373 282.97 240.846C282.97 240.415 283.091 240.034 283.332 239.702C283.578 239.371 283.911 239.111 284.332 238.922C284.756 238.733 285.237 238.638 285.774 238.638C286.529 238.638 287.122 238.804 287.553 239.135C287.988 239.467 288.296 239.904 288.478 240.448ZM295.077 249.238C294.878 249.238 294.7 249.221 294.545 249.188C294.389 249.158 294.281 249.128 294.222 249.098L294.52 248.064C294.805 248.137 295.057 248.164 295.275 248.144C295.494 248.124 295.688 248.026 295.857 247.851C296.03 247.678 296.187 247.398 296.329 247.01L296.548 246.414L293.724 238.738H294.997L297.105 244.823H297.185L299.293 238.738H300.565L297.324 247.488C297.178 247.882 296.997 248.209 296.782 248.467C296.566 248.729 296.316 248.923 296.031 249.049C295.749 249.175 295.431 249.238 295.077 249.238ZM305.042 246.533C304.306 246.533 303.672 246.371 303.138 246.046C302.608 245.718 302.198 245.26 301.91 244.674C301.625 244.084 301.483 243.398 301.483 242.616C301.483 241.833 301.625 241.144 301.91 240.547C302.198 239.947 302.599 239.48 303.113 239.145C303.63 238.807 304.233 238.638 304.923 238.638C305.321 238.638 305.713 238.705 306.101 238.837C306.489 238.97 306.842 239.185 307.16 239.483C307.478 239.778 307.732 240.169 307.921 240.657C308.11 241.144 308.204 241.744 308.204 242.456V242.954H302.318V241.939H307.011C307.011 241.508 306.925 241.124 306.752 240.786C306.583 240.448 306.341 240.181 306.027 239.986C305.715 239.79 305.347 239.692 304.923 239.692C304.456 239.692 304.051 239.808 303.71 240.04C303.372 240.269 303.112 240.567 302.929 240.935C302.747 241.303 302.656 241.697 302.656 242.118V242.794C302.656 243.371 302.755 243.86 302.954 244.261C303.156 244.659 303.436 244.962 303.794 245.171C304.152 245.376 304.568 245.479 305.042 245.479C305.35 245.479 305.629 245.436 305.877 245.35C306.129 245.26 306.346 245.128 306.529 244.952C306.711 244.773 306.852 244.551 306.951 244.286L308.085 244.604C307.965 244.989 307.765 245.327 307.483 245.618C307.201 245.907 306.853 246.132 306.439 246.294C306.025 246.454 305.559 246.533 305.042 246.533ZM313.31 238.738V239.732H309.353V238.738H313.31ZM310.506 236.908H311.679V244.187C311.679 244.518 311.727 244.767 311.823 244.932C311.923 245.095 312.049 245.204 312.201 245.26C312.357 245.313 312.521 245.34 312.693 245.34C312.823 245.34 312.929 245.333 313.012 245.32C313.094 245.303 313.161 245.29 313.21 245.28L313.449 246.334C313.37 246.364 313.259 246.394 313.116 246.424C312.974 246.457 312.793 246.473 312.574 246.473C312.243 246.473 311.918 246.402 311.6 246.26C311.285 246.117 311.023 245.9 310.814 245.608C310.609 245.317 310.506 244.949 310.506 244.505V236.908Z" fill="#708099"/>
</g>
<defs>
<linearGradient id="paint0_linear_5386_66592" x1="344.9" y1="169.917" x2="341.764" y2="179.987" gradientUnits="userSpaceOnUse">
<stop stop-color="#44598D"/>
<stop offset="1" stop-color="#1A274F"/>
</linearGradient>
<linearGradient id="paint1_linear_5386_66592" x1="313.496" y1="100.377" x2="331.993" y2="97.8891" gradientUnits="userSpaceOnUse">
<stop stop-color="#638DEE"/>
<stop offset="1" stop-color="#AFDEFD"/>
</linearGradient>
<linearGradient id="paint2_linear_5386_66592" x1="327.752" y1="173.649" x2="324.027" y2="184.715" gradientUnits="userSpaceOnUse">
<stop stop-color="#44598D"/>
<stop offset="1" stop-color="#1A274F"/>
</linearGradient>
<linearGradient id="paint3_linear_5386_66592" x1="308.72" y1="81.9777" x2="347.51" y2="76.7488" gradientUnits="userSpaceOnUse">
<stop stop-color="#638DEE"/>
<stop offset="1" stop-color="#AFDEFD"/>
</linearGradient>
<linearGradient id="paint4_linear_5386_66592" x1="333.698" y1="43.2344" x2="355.934" y2="93.7254" gradientUnits="userSpaceOnUse">
<stop stop-color="#FEA1CF"/>
<stop offset="1" stop-color="#FC68A2"/>
</linearGradient>
<linearGradient id="paint5_linear_5386_66592" x1="318.012" y1="49.172" x2="327.705" y2="76.4179" gradientUnits="userSpaceOnUse">
<stop stop-color="#FEA1CF"/>
<stop offset="1" stop-color="#FC68A2"/>
</linearGradient>
<clipPath id="clip0_5386_66592">
<rect width="383" height="55" fill="white" transform="translate(0 197)"/>
</clipPath>
</defs>
</svg>
