<svg width="20" height="24" viewBox="0 0 20 24" fill="none" xmlns="http://www.w3.org/2000/svg">
<path fill-rule="evenodd" clip-rule="evenodd" d="M10.0003 1C15.0859 1 19.2096 5.13702 19.2096 10.241V19.4186H0.791016V10.241C0.791016 5.13702 4.91474 1 10.0003 1ZM2.83753 17.3721H17.1631V10.241C17.1631 6.26772 13.9562 3.04651 10.0003 3.04651C6.04441 3.04651 2.83753 6.26772 2.83753 10.241V17.3721ZM10.0003 23C11.4131 23 12.5585 21.8547 12.5585 20.4419H7.44218C7.44218 21.8547 8.5875 23 10.0003 23Z" fill="#242424"/>
<path d="M19.2096 19.4186V19.6686C19.3477 19.6686 19.4596 19.5567 19.4596 19.4186H19.2096ZM0.791016 19.4186H0.541016C0.541016 19.5567 0.652944 19.6686 0.791016 19.6686V19.4186ZM17.1631 17.3721V17.6221C17.3012 17.6221 17.4131 17.5102 17.4131 17.3721H17.1631ZM2.83753 17.3721H2.58753C2.58753 17.5102 2.69946 17.6221 2.83753 17.6221V17.3721ZM12.5585 20.4419H12.8085C12.8085 20.3038 12.6965 20.1919 12.5585 20.1919V20.4419ZM7.44218 20.4419V20.1919C7.30411 20.1919 7.19218 20.3038 7.19218 20.4419H7.44218ZM19.4596 10.241C19.4596 4.99975 15.2248 0.75 10.0003 0.75V1.25C14.947 1.25 18.9596 5.2743 18.9596 10.241H19.4596ZM19.4596 19.4186V10.241H18.9596V19.4186H19.4596ZM0.791016 19.6686H19.2096V19.1686H0.791016V19.6686ZM0.541016 10.241V19.4186H1.04102V10.241H0.541016ZM10.0003 0.75C4.77587 0.75 0.541016 4.99975 0.541016 10.241H1.04102C1.04102 5.2743 5.0536 1.25 10.0003 1.25V0.75ZM17.1631 17.1221H2.83753V17.6221H17.1631V17.1221ZM16.9131 10.241V17.3721H17.4131V10.241H16.9131ZM10.0003 3.29651C13.8171 3.29651 16.9131 6.40475 16.9131 10.241H17.4131C17.4131 6.13069 14.0953 2.79651 10.0003 2.79651V3.29651ZM3.08753 10.241C3.08753 6.40475 6.18353 3.29651 10.0003 3.29651V2.79651C5.9053 2.79651 2.58753 6.13069 2.58753 10.241H3.08753ZM3.08753 17.3721V10.241H2.58753V17.3721H3.08753ZM12.3085 20.4419C12.3085 21.7166 11.2751 22.75 10.0003 22.75V23.25C11.5512 23.25 12.8085 21.9928 12.8085 20.4419H12.3085ZM7.44218 20.6919H12.5585V20.1919H7.44218V20.6919ZM10.0003 22.75C8.72557 22.75 7.69218 21.7166 7.69218 20.4419H7.19218C7.19218 21.9928 8.44943 23.25 10.0003 23.25V22.75Z" fill="white"/>
</svg>
