<svg width="291" height="211" viewBox="0 0 291 211" fill="none" xmlns="http://www.w3.org/2000/svg">
<path d="M13.9258 51.6386C13.9258 48.6453 16.3538 46.2188 19.3489 46.2188H122.567C131.922 46.2207 139.092 54.5282 137.722 63.7777L133.113 94.8802C132.373 99.8735 128.085 103.571 123.035 103.571C122.776 103.571 122.567 103.781 122.567 104.039V192.994C122.567 195.987 120.139 198.414 117.144 198.414H19.3489C16.3538 198.414 13.9258 195.987 13.9258 192.994V51.6386Z" fill="url(#paint0_linear_15787_363944)"/>
<path d="M13.9238 49.5451C13.9238 46.5518 16.3518 44.125 19.3469 44.125H99.8479C102.843 44.125 105.271 46.5515 105.271 49.5451V191.573C105.271 194.566 102.843 196.993 99.8479 196.993H19.3469C16.3518 196.993 13.9238 194.566 13.9238 191.573V49.5451Z" fill="url(#paint1_linear_15787_363944)"/>
<path fill-rule="evenodd" clip-rule="evenodd" d="M24.5449 66.5253C24.5449 63.532 26.9729 61.1055 29.9681 61.1055H87.1011C90.0961 61.1055 92.5242 63.532 92.5242 66.5253V102.623C92.5242 104.527 91.5189 106.276 89.758 107.003C85.2398 108.867 75.0836 112.061 58.5346 112.061C41.9855 112.061 31.8291 108.867 27.311 107.003C25.5502 106.276 24.5449 104.527 24.5449 102.623V66.5253Z" fill="white" fill-opacity="0.5"/>
<path fill-rule="evenodd" clip-rule="evenodd" d="M28.7949 72.8964C28.7949 69.9031 31.2231 67.4766 34.2181 67.4766H80.7293C83.7246 67.4766 86.1524 69.9031 86.1524 72.8964V87.5344C86.1524 90.5277 83.7246 92.9545 80.7293 92.9545H34.2181C31.2231 92.9545 28.7949 90.5277 28.7949 87.5344V72.8964Z" fill="white"/>
<path fill-rule="evenodd" clip-rule="evenodd" d="M52.1621 103.57C52.1621 101.225 54.0642 99.3242 56.4107 99.3242C58.7573 99.3242 60.6593 101.225 60.6593 103.57C60.6593 105.916 58.7573 107.817 56.4107 107.817C54.0642 107.817 52.1621 105.916 52.1621 103.57Z" fill="#BD54B9"/>
<path fill-rule="evenodd" clip-rule="evenodd" d="M24.5449 126.926C24.5449 124.581 26.4471 122.68 28.7936 122.68H37.291C39.6376 122.68 41.5396 124.581 41.5396 126.926C41.5396 129.271 39.6376 131.172 37.291 131.172H28.7936C26.4471 131.172 24.5449 129.271 24.5449 126.926Z" fill="white"/>
<path fill-rule="evenodd" clip-rule="evenodd" d="M50.0371 126.926C50.0371 124.581 51.9394 122.68 54.286 122.68H62.7832C65.1297 122.68 67.0321 124.581 67.0321 126.926C67.0321 129.271 65.1297 131.172 62.7832 131.172H54.286C51.9394 131.172 50.0371 129.271 50.0371 126.926Z" fill="white"/>
<path fill-rule="evenodd" clip-rule="evenodd" d="M75.5293 126.926C75.5293 124.581 77.4316 122.68 79.7779 122.68H88.2754C90.6219 122.68 92.524 124.581 92.524 126.926C92.524 129.271 90.6219 131.172 88.2754 131.172H79.7779C77.4316 131.172 75.5293 129.271 75.5293 126.926Z" fill="white"/>
<path fill-rule="evenodd" clip-rule="evenodd" d="M24.5449 143.911C24.5449 141.565 26.4471 139.664 28.7937 139.664H37.291C39.6375 139.664 41.5398 141.565 41.5398 143.911C41.5398 146.256 39.6375 148.157 37.291 148.157H28.7937C26.4471 148.157 24.5449 146.256 24.5449 143.911Z" fill="white"/>
<path fill-rule="evenodd" clip-rule="evenodd" d="M50.0371 143.911C50.0371 141.565 51.9392 139.664 54.2857 139.664H62.7832C65.1297 139.664 67.0318 141.565 67.0318 143.911C67.0318 146.256 65.1297 148.157 62.7832 148.157H54.2857C51.9392 148.157 50.0371 146.256 50.0371 143.911Z" fill="white"/>
<path fill-rule="evenodd" clip-rule="evenodd" d="M75.5293 143.911C75.5293 141.565 77.4314 139.664 79.7779 139.664H88.2754C90.6219 139.664 92.524 141.565 92.524 143.911C92.524 146.256 90.6219 148.157 88.2754 148.157H79.7779C77.4314 148.157 75.5293 146.256 75.5293 143.911Z" fill="white"/>
<path fill-rule="evenodd" clip-rule="evenodd" d="M24.5449 160.895C24.5449 158.549 26.4471 156.648 28.7937 156.648H37.291C39.6375 156.648 41.5398 158.549 41.5398 160.895C41.5398 163.24 39.6375 165.141 37.291 165.141H28.7937C26.4471 165.141 24.5449 163.24 24.5449 160.895Z" fill="white"/>
<path fill-rule="evenodd" clip-rule="evenodd" d="M50.0371 160.895C50.0371 158.549 51.9392 156.648 54.2857 156.648H62.7832C65.1297 156.648 67.0318 158.549 67.0318 160.895C67.0318 163.24 65.1297 165.141 62.7832 165.141H54.2857C51.9392 165.141 50.0371 163.24 50.0371 160.895Z" fill="white"/>
<path fill-rule="evenodd" clip-rule="evenodd" d="M75.5293 160.895C75.5293 158.549 77.4314 156.648 79.7779 156.648H88.2754C90.6219 156.648 92.524 158.549 92.524 160.895C92.524 163.24 90.6219 165.141 88.2754 165.141H79.7779C77.4314 165.141 75.5293 163.24 75.5293 160.895Z" fill="white"/>
<path fill-rule="evenodd" clip-rule="evenodd" d="M24.5449 177.879C24.5449 175.534 26.4471 173.633 28.7937 173.633H37.291C39.6375 173.633 41.5398 175.534 41.5398 177.879C41.5398 180.224 39.6375 182.126 37.291 182.126H28.7937C26.4471 182.126 24.5449 180.224 24.5449 177.879Z" fill="#FF9029"/>
<path fill-rule="evenodd" clip-rule="evenodd" d="M50.0371 177.879C50.0371 175.534 51.9392 173.633 54.2857 173.633H62.7832C65.1297 173.633 67.0318 175.534 67.0318 177.879C67.0318 180.224 65.1297 182.126 62.7832 182.126H54.2857C51.9392 182.126 50.0371 180.224 50.0371 177.879Z" fill="#FF9029"/>
<path fill-rule="evenodd" clip-rule="evenodd" d="M75.5293 177.879C75.5293 175.534 77.4314 173.633 79.7779 173.633H88.2754C90.6219 173.633 92.524 175.534 92.524 177.879C92.524 180.224 90.6219 182.126 88.2754 182.126H79.7779C77.4314 182.126 75.5293 180.224 75.5293 177.879Z" fill="#FF9029"/>
<path d="M20.2969 21.323C20.2969 10.4657 29.1034 1.66406 39.9669 1.66406H105.271V28.3609C105.271 29.4468 104.39 30.3267 103.304 30.3267H85.9942C84.9081 30.3267 84.0274 31.2069 84.0274 32.2927V53.0919C84.0274 56.349 81.3853 58.9896 78.1264 58.9896H26.1978C22.9388 58.9896 20.2969 56.349 20.2969 53.0919V21.323Z" fill="url(#paint2_linear_15787_363944)"/>
<path d="M84.0273 18.6494C84.0273 9.26865 91.6361 1.66406 101.022 1.66406C110.408 1.66406 118.017 9.26865 118.017 18.6494V46.2506H84.0273V18.6494Z" fill="url(#paint3_linear_15787_363944)"/>
<path d="M29.8555 21.832H68.094" stroke="#84B5E6" stroke-width="1.37892"/>
<path d="M28.7949 33.5078H60.6603" stroke="#84B5E6" stroke-width="1.37892"/>
<path d="M28.7949 44.125H52.1628" stroke="#84B5E6" stroke-width="1.37892"/>
<path d="M13.9258 51.6386C13.9258 48.6453 16.3538 46.2188 19.3489 46.2188H122.567C131.922 46.2207 139.092 54.5282 137.722 63.7777L133.113 94.8802C132.373 99.8735 128.085 103.571 123.035 103.571C122.776 103.571 122.567 103.781 122.567 104.039V192.994C122.567 195.987 120.139 198.414 117.144 198.414H19.3489C16.3538 198.414 13.9258 195.987 13.9258 192.994V51.6386Z" fill="url(#paint4_linear_15787_363944)"/>
<path d="M13.9238 49.5451C13.9238 46.5518 16.3518 44.125 19.3469 44.125H99.8479C102.843 44.125 105.271 46.5515 105.271 49.5451V191.573C105.271 194.566 102.843 196.993 99.8479 196.993H19.3469C16.3518 196.993 13.9238 194.566 13.9238 191.573V49.5451Z" fill="url(#paint5_linear_15787_363944)"/>
<path fill-rule="evenodd" clip-rule="evenodd" d="M24.5449 66.5253C24.5449 63.532 26.9729 61.1055 29.9681 61.1055H87.1011C90.0961 61.1055 92.5242 63.532 92.5242 66.5253V102.623C92.5242 104.527 91.5189 106.276 89.758 107.003C85.2398 108.867 75.0836 112.061 58.5346 112.061C41.9855 112.061 31.8291 108.867 27.311 107.003C25.5502 106.276 24.5449 104.527 24.5449 102.623V66.5253Z" fill="white" fill-opacity="0.5"/>
<path fill-rule="evenodd" clip-rule="evenodd" d="M28.7949 72.8964C28.7949 69.9031 31.2231 67.4766 34.2181 67.4766H80.7293C83.7246 67.4766 86.1524 69.9031 86.1524 72.8964V87.5344C86.1524 90.5277 83.7246 92.9545 80.7293 92.9545H34.2181C31.2231 92.9545 28.7949 90.5277 28.7949 87.5344V72.8964Z" fill="white"/>
<path fill-rule="evenodd" clip-rule="evenodd" d="M52.1621 103.57C52.1621 101.225 54.0642 99.3242 56.4107 99.3242C58.7573 99.3242 60.6593 101.225 60.6593 103.57C60.6593 105.916 58.7573 107.817 56.4107 107.817C54.0642 107.817 52.1621 105.916 52.1621 103.57Z" fill="#FF78C1"/>
<path fill-rule="evenodd" clip-rule="evenodd" d="M24.5449 126.926C24.5449 124.581 26.4471 122.68 28.7936 122.68H37.291C39.6376 122.68 41.5396 124.581 41.5396 126.926C41.5396 129.271 39.6376 131.172 37.291 131.172H28.7936C26.4471 131.172 24.5449 129.271 24.5449 126.926Z" fill="white"/>
<path fill-rule="evenodd" clip-rule="evenodd" d="M50.0371 126.926C50.0371 124.581 51.9394 122.68 54.286 122.68H62.7832C65.1297 122.68 67.0321 124.581 67.0321 126.926C67.0321 129.271 65.1297 131.172 62.7832 131.172H54.286C51.9394 131.172 50.0371 129.271 50.0371 126.926Z" fill="white"/>
<path fill-rule="evenodd" clip-rule="evenodd" d="M75.5293 126.926C75.5293 124.581 77.4316 122.68 79.7779 122.68H88.2754C90.6219 122.68 92.524 124.581 92.524 126.926C92.524 129.271 90.6219 131.172 88.2754 131.172H79.7779C77.4316 131.172 75.5293 129.271 75.5293 126.926Z" fill="white"/>
<path fill-rule="evenodd" clip-rule="evenodd" d="M24.5449 143.911C24.5449 141.565 26.4471 139.664 28.7937 139.664H37.291C39.6375 139.664 41.5398 141.565 41.5398 143.911C41.5398 146.256 39.6375 148.157 37.291 148.157H28.7937C26.4471 148.157 24.5449 146.256 24.5449 143.911Z" fill="white"/>
<path fill-rule="evenodd" clip-rule="evenodd" d="M50.0371 143.911C50.0371 141.565 51.9392 139.664 54.2857 139.664H62.7832C65.1297 139.664 67.0318 141.565 67.0318 143.911C67.0318 146.256 65.1297 148.157 62.7832 148.157H54.2857C51.9392 148.157 50.0371 146.256 50.0371 143.911Z" fill="white"/>
<path fill-rule="evenodd" clip-rule="evenodd" d="M75.5293 143.911C75.5293 141.565 77.4314 139.664 79.7779 139.664H88.2754C90.6219 139.664 92.524 141.565 92.524 143.911C92.524 146.256 90.6219 148.157 88.2754 148.157H79.7779C77.4314 148.157 75.5293 146.256 75.5293 143.911Z" fill="white"/>
<path fill-rule="evenodd" clip-rule="evenodd" d="M24.5449 160.895C24.5449 158.549 26.4471 156.648 28.7937 156.648H37.291C39.6375 156.648 41.5398 158.549 41.5398 160.895C41.5398 163.24 39.6375 165.141 37.291 165.141H28.7937C26.4471 165.141 24.5449 163.24 24.5449 160.895Z" fill="white"/>
<path fill-rule="evenodd" clip-rule="evenodd" d="M50.0371 160.895C50.0371 158.549 51.9392 156.648 54.2857 156.648H62.7832C65.1297 156.648 67.0318 158.549 67.0318 160.895C67.0318 163.24 65.1297 165.141 62.7832 165.141H54.2857C51.9392 165.141 50.0371 163.24 50.0371 160.895Z" fill="white"/>
<path fill-rule="evenodd" clip-rule="evenodd" d="M75.5293 160.895C75.5293 158.549 77.4314 156.648 79.7779 156.648H88.2754C90.6219 156.648 92.524 158.549 92.524 160.895C92.524 163.24 90.6219 165.141 88.2754 165.141H79.7779C77.4314 165.141 75.5293 163.24 75.5293 160.895Z" fill="white"/>
<path fill-rule="evenodd" clip-rule="evenodd" d="M24.5449 177.879C24.5449 175.534 26.4471 173.633 28.7937 173.633H37.291C39.6375 173.633 41.5398 175.534 41.5398 177.879C41.5398 180.224 39.6375 182.126 37.291 182.126H28.7937C26.4471 182.126 24.5449 180.224 24.5449 177.879Z" fill="#FFD029"/>
<path fill-rule="evenodd" clip-rule="evenodd" d="M50.0371 177.879C50.0371 175.534 51.9392 173.633 54.2857 173.633H62.7832C65.1297 173.633 67.0318 175.534 67.0318 177.879C67.0318 180.224 65.1297 182.126 62.7832 182.126H54.2857C51.9392 182.126 50.0371 180.224 50.0371 177.879Z" fill="#FFD029"/>
<path fill-rule="evenodd" clip-rule="evenodd" d="M75.5293 177.879C75.5293 175.534 77.4314 173.633 79.7779 173.633H88.2754C90.6219 173.633 92.524 175.534 92.524 177.879C92.524 180.224 90.6219 182.126 88.2754 182.126H79.7779C77.4314 182.126 75.5293 180.224 75.5293 177.879Z" fill="#FFD029"/>
<path d="M20.2969 21.323C20.2969 10.4657 29.1034 1.66406 39.9669 1.66406H105.271V28.3609C105.271 29.4468 104.39 30.3267 103.304 30.3267H85.9942C84.9081 30.3267 84.0274 31.2069 84.0274 32.2927V53.0919C84.0274 56.349 81.3853 58.9896 78.1264 58.9896H26.1978C22.9388 58.9896 20.2969 56.349 20.2969 53.0919V21.323Z" fill="url(#paint6_linear_15787_363944)"/>
<path d="M84.0273 18.6494C84.0273 9.26865 91.6361 1.66406 101.022 1.66406C110.408 1.66406 118.017 9.26865 118.017 18.6494V46.2506H84.0273V18.6494Z" fill="url(#paint7_linear_15787_363944)"/>
<path d="M29.8555 21.832H68.094" stroke="#84B5E6" stroke-width="1.37892"/>
<path d="M28.7949 33.5078H60.6603" stroke="#84B5E6" stroke-width="1.37892"/>
<path d="M28.7949 44.125H52.1628" stroke="#84B5E6" stroke-width="1.37892"/>
<path d="M262.695 115.976L184.805 145.492C182.005 146.554 180.595 149.683 181.657 152.482L200.064 201.001C201.126 203.8 204.257 205.209 207.057 204.148L284.947 174.631C287.748 173.57 289.157 170.44 288.095 167.642L269.689 119.122C268.627 116.323 265.496 114.915 262.695 115.976Z" fill="url(#paint8_linear_15787_363944)"/>
<path d="M221.853 177.987L203.179 185.063C201.706 185.622 200.965 187.268 201.523 188.74C202.082 190.213 203.729 190.954 205.202 190.396L223.876 183.319C225.349 182.761 226.09 181.115 225.532 179.642C224.973 178.17 223.326 177.429 221.853 177.987Z" fill="#516ED9"/>
<path d="M272.825 127.386L184.793 160.746L189.85 174.077L277.882 140.717L272.825 127.386Z" fill="white"/>
<path d="M260.631 171.647C264.314 170.251 266.168 166.136 264.771 162.455C263.375 158.773 259.257 156.921 255.573 158.317C251.89 159.712 250.036 163.828 251.433 167.509C252.829 171.19 256.947 173.043 260.631 171.647Z" fill="#FF78C1"/>
<path d="M270.656 173.948C274.339 172.552 276.193 168.437 274.796 164.755C273.4 161.074 269.282 159.222 265.599 160.617C261.916 162.013 260.062 166.129 261.458 169.81C262.855 173.491 266.973 175.344 270.656 173.948Z" fill="#FFD029"/>
<path d="M135.011 169.743C147.169 180.126 166.317 177.675 177.781 164.267C189.244 150.86 188.682 131.574 176.524 121.191C164.367 110.808 145.219 113.259 133.755 126.667C122.292 140.074 122.854 159.36 135.011 169.743Z" fill="#FF9029"/>
<path d="M131.974 167.15C144.132 177.533 163.28 175.081 174.744 161.673C186.207 148.266 185.645 128.98 173.487 118.597C161.33 108.214 142.182 110.666 130.718 124.073C119.255 137.481 119.817 156.767 131.974 167.15Z" fill="#FFD029" stroke="white" stroke-width="0.774194"/>
<path d="M135.866 162.598C145.508 170.833 160.875 168.677 170.189 157.784C179.503 146.89 179.237 131.383 169.595 123.149C159.953 114.914 144.586 117.069 135.272 127.963C125.958 138.856 126.224 154.363 135.866 162.598Z" stroke="white" stroke-width="0.387097" stroke-dasharray="0.77 0.77"/>
<path d="M138.501 156.973L164.446 126.627L166.392 128.289L140.446 158.634L138.501 156.973ZM161.041 141.05C161.764 140.013 161.992 138.922 161.725 137.778C161.459 136.634 160.708 135.535 159.475 134.482C158.637 133.766 157.828 133.281 157.048 133.024C156.275 132.761 155.558 132.703 154.899 132.85C154.247 133.005 153.698 133.342 153.252 133.864C152.864 134.285 152.631 134.742 152.552 135.235C152.48 135.734 152.521 136.255 152.674 136.796C152.834 137.329 153.073 137.881 153.391 138.454C153.715 139.018 154.092 139.586 154.52 140.157L156.257 142.542C157.114 143.684 157.816 144.831 158.363 145.982C158.911 147.134 159.263 148.275 159.418 149.405C159.573 150.536 159.494 151.644 159.181 152.73C158.876 153.824 158.295 154.879 157.438 155.897C156.16 157.376 154.679 158.34 152.995 158.789C151.326 159.237 149.531 159.161 147.61 158.559C145.704 157.956 143.763 156.811 141.786 155.123C139.825 153.448 138.374 151.689 137.433 149.846C136.499 148.01 136.128 146.155 136.321 144.282C136.528 142.408 137.358 140.581 138.812 138.8L143.781 143.045C143.141 143.906 142.793 144.785 142.738 145.681C142.697 146.576 142.907 147.459 143.366 148.33C143.84 149.2 144.52 150.013 145.406 150.769C146.275 151.512 147.139 152.03 147.995 152.325C148.86 152.626 149.663 152.702 150.403 152.556C151.144 152.409 151.765 152.044 152.265 151.459C152.731 150.914 152.961 150.317 152.954 149.669C152.955 149.027 152.759 148.313 152.365 147.525C151.98 146.744 151.435 145.869 150.732 144.899L148.655 141.977C147.032 139.73 146.081 137.571 145.801 135.499C145.52 133.427 146.15 131.497 147.692 129.71C148.941 128.234 150.43 127.284 152.16 126.861C153.898 126.444 155.726 126.522 157.645 127.094C159.563 127.666 161.408 128.709 163.179 130.221C164.982 131.761 166.292 133.413 167.109 135.178C167.934 136.948 168.253 138.704 168.065 140.444C167.877 142.184 167.176 143.787 165.964 145.254L161.041 141.05Z" fill="#FF9029"/>
<path d="M225.382 119.759C225.382 67.7916 180.677 25.6641 125.529 25.6641" stroke="#506DD6" stroke-linecap="round" stroke-dasharray="2 4"/>
<path d="M186.655 87.9693C204.658 87.9693 219.252 73.3835 219.252 55.3909C219.252 37.3983 204.658 22.8125 186.655 22.8125C168.653 22.8125 154.059 37.3983 154.059 55.3909C154.059 73.3835 168.653 87.9693 186.655 87.9693Z" fill="#FC68A2"/>
<path d="M192.655 66.4246L187.074 59.1599L181.351 66.4246C180.524 67.4397 179.824 68.1636 179.251 68.5965C178.678 69.029 177.95 69.2454 177.067 69.2454C176.09 69.2454 175.258 68.9751 174.572 68.4342C173.886 67.8933 173.543 67.2735 173.543 66.5743C173.543 65.8586 174.069 64.8353 175.121 63.5037L182.084 54.6665L175.911 47.302C174.84 46.0871 174.304 45.0301 174.304 44.1316C174.304 43.4324 174.624 42.8251 175.262 42.309C175.901 41.7932 176.738 41.5352 177.771 41.5352C178.673 41.5352 179.42 41.7598 180.012 42.2092C180.604 42.6586 181.295 43.366 182.084 44.3312L187.074 50.3726L191.922 44.3312C192.73 43.3326 193.43 42.617 194.022 42.1841C194.614 41.7516 195.352 41.5352 196.235 41.5352C197.249 41.5352 198.091 41.7889 198.758 42.2965C199.425 42.8043 199.758 43.4159 199.758 44.1316C199.758 44.6474 199.622 45.1424 199.35 45.6169C199.077 46.091 198.659 46.6528 198.095 47.302L191.922 54.6665L198.885 63.5037C199.975 64.8852 200.52 65.9253 200.52 66.6242C200.52 67.3399 200.181 67.9558 199.505 68.4716C198.828 68.9877 197.992 69.2454 196.996 69.2454C196.113 69.2454 195.366 69.0208 194.755 68.5714C194.144 68.122 193.444 67.4066 192.655 66.4246Z" fill="white"/>
<defs>
<linearGradient id="paint0_linear_15787_363944" x1="98.8981" y1="46.2467" x2="141.385" y2="46.2467" gradientUnits="userSpaceOnUse">
<stop stop-color="#819BFF"/>
<stop offset="0.0001" stop-color="#5775E5"/>
<stop offset="1" stop-color="#4C68CE"/>
</linearGradient>
<linearGradient id="paint1_linear_15787_363944" x1="104.858" y1="229.657" x2="88.4797" y2="32.2656" gradientUnits="userSpaceOnUse">
<stop stop-color="#819BFF"/>
<stop offset="0.987775" stop-color="#AEBFFF"/>
</linearGradient>
<linearGradient id="paint2_linear_15787_363944" x1="92.275" y1="19.711" x2="-16.5116" y2="35.2996" gradientUnits="userSpaceOnUse">
<stop stop-color="#DEEFFF"/>
<stop offset="1" stop-color="#AACEF1"/>
</linearGradient>
<linearGradient id="paint3_linear_15787_363944" x1="123.328" y1="1.66406" x2="88.0402" y2="17.721" gradientUnits="userSpaceOnUse">
<stop stop-color="#DEEFFF"/>
<stop offset="1" stop-color="#95C2EE"/>
</linearGradient>
<linearGradient id="paint4_linear_15787_363944" x1="208.265" y1="81.2633" x2="77.0305" y2="71.2725" gradientUnits="userSpaceOnUse">
<stop stop-color="#819CFF"/>
<stop offset="0.0001" stop-color="#23BEC8"/>
<stop offset="1" stop-color="#4C68CE"/>
</linearGradient>
<linearGradient id="paint5_linear_15787_363944" x1="104.858" y1="229.657" x2="-4.85878" y2="-15.1787" gradientUnits="userSpaceOnUse">
<stop stop-color="#5D7AE7"/>
<stop offset="0.987775" stop-color="#AEFFEC"/>
</linearGradient>
<linearGradient id="paint6_linear_15787_363944" x1="79.8827" y1="2.85305" x2="-45.4134" y2="100.06" gradientUnits="userSpaceOnUse">
<stop stop-color="#DEEFFF"/>
<stop offset="1" stop-color="#AACEF1"/>
</linearGradient>
<linearGradient id="paint7_linear_15787_363944" x1="182.588" y1="-5.701" x2="104.819" y2="-32.9907" gradientUnits="userSpaceOnUse">
<stop stop-color="#DEEFFF"/>
<stop offset="1" stop-color="#7CADDC"/>
</linearGradient>
<linearGradient id="paint8_linear_15787_363944" x1="294.375" y1="185.394" x2="262.986" y2="110.159" gradientUnits="userSpaceOnUse">
<stop stop-color="#819BFF"/>
<stop offset="0.987775" stop-color="#AEBFFF"/>
</linearGradient>
</defs>
</svg>
