<svg width="76" height="76" viewBox="0 0 76 76" fill="none" xmlns="http://www.w3.org/2000/svg">
<path d="M76 0H0V76H76V0Z" fill="#F4F7FD"/>
<path d="M57.3762 58.5664H4.7207V7.00791H57.3762V58.5664Z" fill="#A4B3CC"/>
<path d="M56.0258 58.5664H6.07617V8.65652H56.0258V58.5664Z" fill="white"/>
<path d="M57.376 57.8392V58.5664H30.8398L36.5744 52.835L44.4717 44.9348L57.376 57.8392Z" fill="#708099"/>
<path d="M4.7207 58.5664V53.6108L21.0354 37.2961L42.306 58.5664H4.7207Z" fill="#A4B3CC"/>
<path d="M47.7929 23.5556C47.7929 28.0078 44.1838 31.6172 39.7313 31.6172C35.2791 31.6172 31.6699 28.0078 31.6699 23.5556C31.6699 19.1033 35.2791 15.4939 39.7313 15.4939C44.1838 15.4939 47.7929 19.1033 47.7929 23.5556Z" fill="#708099"/>
<path d="M22.4187 8.85417L70.1415 13.5144L65.4849 61.1975L17.7624 56.537L22.4187 8.85417Z" fill="white" stroke="#DFE7F5" stroke-width="2"/>
<path d="M15.3223 57.3079L15.8039 52.3757L33.6273 37.7238L52.7295 60.9609L15.3223 57.3079Z" fill="#708099"/>
<path d="M61.736 15.72L61.6708 14.7221L60.6729 14.7873L10.8294 18.0428L9.83148 18.108L9.89666 19.1059L13.1495 68.9094L13.2147 69.9073L14.2126 69.8421L64.0561 66.5866L65.054 66.5214L64.9888 65.5235L61.736 15.72Z" fill="white" stroke="#A4B3CC" stroke-width="2"/>
<path opacity="0.3" d="M40.5891 65.9331C51.7553 64.845 59.7894 53.5183 58.5339 40.6342C57.2783 27.7502 47.2086 18.1877 36.0424 19.2758C24.8762 20.364 16.842 31.6907 18.0976 44.5747C19.3531 57.4588 29.4229 67.0212 40.5891 65.9331Z" fill="#F9D6DF"/>
<path opacity="0.3" d="M49.3716 36.9277C49.1256 36.3067 48.8124 35.7672 48.4321 35.3096C48.0508 34.8431 47.6028 34.4625 47.0883 34.1681C46.5815 33.8642 46.0129 33.65 45.3823 33.526C44.7604 33.401 44.0819 33.3745 43.3466 33.4461C41.9726 33.58 40.7979 34.0389 39.823 34.8231C38.8566 35.6064 38.1484 36.6784 37.6978 38.0388C37.2463 39.3904 37.1118 41.0028 37.2944 42.8758C37.4769 44.7488 37.9166 46.314 38.6134 47.5715C39.3102 48.8288 40.2132 49.7526 41.322 50.3425C42.4302 50.9238 43.6931 51.1452 45.111 51.0071C46.3976 50.8817 47.4739 50.547 48.3398 50.0032C49.2135 49.4498 49.8503 48.7295 50.2498 47.8424C50.658 46.9543 50.8062 45.937 50.6945 44.7906L51.8665 44.8486L44.9345 45.5241L44.5174 41.2442L55.7688 40.1478L56.0989 43.535C56.3292 45.8981 56.0281 47.9772 55.1957 49.7725C54.3626 51.5589 53.1156 52.9969 51.4546 54.0866C49.7929 55.1673 47.8329 55.8178 45.5748 56.0379C43.0541 56.2835 40.7855 55.9435 38.7692 55.0179C36.752 54.0835 35.1093 52.6399 33.841 50.6872C32.5808 48.7248 31.8123 46.3257 31.536 43.49C31.3236 41.3106 31.4494 39.3369 31.9132 37.5686C32.385 35.791 33.1362 34.2511 34.1667 32.949C35.1973 31.6469 36.4437 30.611 37.9061 29.8411C39.3685 29.0713 40.9881 28.5998 42.7648 28.4267C44.2877 28.2783 45.7275 28.3633 47.0837 28.6817C48.4393 28.9913 49.6639 29.4994 50.7576 30.2057C51.8601 30.9111 52.7894 31.7881 53.5453 32.8365C54.3005 33.8762 54.8349 35.0522 55.1482 36.3648L49.3716 36.9277Z" fill="#FC68A2"/>
</svg>
