<svg xmlns="http://www.w3.org/2000/svg" width="18" height="20" viewBox="0 0 18 20">
    <g fill="none" fill-rule="evenodd">
        <g fill="#9FA7D1" fill-rule="nonzero">
            <g>
                <g>
                    <g>
                        <path d="M8.25 9.167c-2.527 0-4.583-2.055-4.583-4.583C3.667 2.057 5.723 0 8.25 0s4.583 2.056 4.583 4.583-2.056 4.584-4.583 4.584z" transform="translate(-784 -7147) translate(0 6947) translate(784 200)"/>
                        <g>
                            <path d="M4.355.014C1.952.014 0 1.967 0 4.37v3.208c0 .375.312.687.688.687h8.48v-2.98c0-1.722 1.282-3.144 2.942-3.391.238-.698.687-1.283 1.265-1.705-.918-.262-.967-.174-9.02-.174z" transform="translate(-784 -7147) translate(0 6947) translate(784 200) translate(0 10.986)"/>
                            <path d="M8.355.029C5.952.029 4 1.98 4 4.383v3.208c0 .375.312.688.688.688h8.48v-2.98c0-1.723 1.282-3.145 2.942-3.392.238-.697.687-1.283 1.265-1.705-.918-.261-.967-.173-9.02-.173z" transform="translate(-784 -7147) translate(0 6947) translate(784 200) translate(0 10.986) matrix(-1 0 0 1 21.375 0)"/>
                        </g>
                    </g>
                </g>
            </g>
        </g>
    </g>
</svg>
