<svg width="24" height="24" viewBox="0 0 24 24" fill="none" xmlns="http://www.w3.org/2000/svg">
<path d="M15.71 2.43769C15.7099 2.60523 15.6291 2.76233 15.4931 2.86009L13.0834 4.58802H13.0836C12.9794 4.66208 12.8516 4.69516 12.7246 4.6811C12.5977 4.6669 12.4804 4.60663 12.3949 4.51154C12.3096 4.41659 12.2622 4.29337 12.2618 4.1656V3.12311C12.1929 3.14226 12.122 3.15258 12.0506 3.15378C10.2554 3.15405 8.52737 3.83613 7.21629 5.06198C5.90486 6.28797 5.10813 7.96608 4.98703 9.75707C4.86593 11.548 5.42952 13.3183 6.56404 14.7096C7.69841 16.1009 9.31883 17.0093 11.0976 17.2512C12.8763 17.4931 14.6805 17.0504 16.1455 16.0128C17.6103 14.9749 18.6262 13.4196 18.9879 11.6616C19.0163 11.4265 19.1418 11.2142 19.3338 11.0759C19.5259 10.9377 19.7671 10.8861 19.9989 10.9338C20.2307 10.9815 20.432 11.124 20.554 11.3267C20.676 11.5297 20.7075 11.7742 20.6409 12.0014C20.1931 14.1806 18.9342 16.1084 17.1188 17.3945C15.3035 18.6808 13.0676 19.2293 10.863 18.9295C8.65852 18.6295 6.65031 17.5034 5.24459 15.7789C3.83901 14.0545 3.14099 11.8604 3.29164 9.64075C3.44229 7.4211 4.43044 5.34167 6.0562 3.82316C7.68196 2.30441 9.82386 1.45998 12.0487 1.46081C12.1202 1.46201 12.1912 1.47232 12.2599 1.49148V0.712025C12.2603 0.584256 12.3077 0.461044 12.3931 0.365945C12.4784 0.270991 12.5959 0.21059 12.7229 0.196526C12.8498 0.182464 12.9776 0.215544 13.0817 0.289605L15.4913 2.01753C15.6275 2.11436 15.7089 2.27079 15.7101 2.43808L15.71 2.43769ZM19.0412 9.11723C19.0734 9.3149 19.1745 9.49492 19.3268 9.62534C19.4789 9.75565 19.6723 9.82797 19.8727 9.82945C19.917 9.83052 19.9613 9.8273 20.0051 9.81994C20.2279 9.78686 20.4284 9.66645 20.5621 9.48538C20.6959 9.30418 20.7521 9.07731 20.718 8.85459C20.6841 8.632 20.5628 8.43206 20.3812 8.29906C20.1995 8.16607 19.9722 8.11089 19.7497 8.14585C19.5273 8.1808 19.3278 8.30281 19.1957 8.48509C19.0633 8.66736 19.0092 8.89491 19.0451 9.11725L19.0412 9.11723ZM17.1021 4.97174C17.3701 4.97094 17.6217 4.84331 17.7808 4.62769C17.9399 4.41206 17.9875 4.13377 17.9091 3.87755C17.8308 3.62121 17.6358 3.41723 17.3833 3.32737C17.1309 3.2375 16.8508 3.27246 16.6281 3.42165C16.4055 3.57085 16.2666 3.81649 16.2538 4.08419C16.2408 4.35191 16.3553 4.60986 16.5625 4.77981C16.7146 4.9045 16.9053 4.9724 17.1021 4.97173L17.1021 4.97174ZM18.5133 5.56691C18.3177 5.67794 18.1743 5.86195 18.1146 6.07879C18.055 6.29549 18.0839 6.52718 18.1952 6.72244C18.3065 6.91784 18.4908 7.06101 18.7077 7.12022C18.9246 7.17955 19.1561 7.15009 19.3513 7.03853C19.5464 6.92696 19.6892 6.74228 19.7481 6.5253C19.807 6.30834 19.7772 6.07678 19.6652 5.8819C19.5538 5.6877 19.37 5.54574 19.1543 5.48669C18.9384 5.42776 18.7079 5.45655 18.5133 5.56691H18.5133ZM16.5433 10.2287C16.5433 11.4172 16.0712 12.5571 15.2308 13.3975C14.3904 14.2379 13.2506 14.71 12.0621 14.71C10.8736 14.71 9.73373 14.2379 8.89332 13.3975C8.05291 12.5571 7.58083 11.4172 7.58083 10.2287C7.58083 9.04025 8.05294 7.90039 8.89332 7.05998C9.73373 6.21957 10.8736 5.74749 12.0621 5.74749C13.2506 5.74749 14.3904 6.21961 15.2308 7.05998C16.0712 7.90039 16.5433 9.04025 16.5433 10.2287ZM13.8418 11.2368L12.6073 10.0022V8.09376C12.6073 7.8989 12.5034 7.71888 12.3346 7.62155C12.166 7.52404 11.9582 7.52404 11.7894 7.62155C11.6206 7.71891 11.5167 7.89891 11.5167 8.09376V10.4553L13.07 12.0086C13.1682 12.1262 13.3112 12.1972 13.4642 12.204C13.6173 12.211 13.7661 12.1533 13.8744 12.0449C13.9828 11.9366 14.0405 11.7878 14.0335 11.6347C14.0267 11.4818 13.9557 11.3387 13.8381 11.2406L13.8418 11.2368Z" fill="#FC68A2"/>
</svg>
