<svg xmlns="http://www.w3.org/2000/svg" width="60" height="60" viewBox="0 0 60 60">
    <g fill="none" fill-rule="evenodd">
        <g>
            <g transform="translate(-865 -6052) translate(865 6052)">
                <circle cx="30" cy="30" r="30" fill="#00D498"/>
                <path fill="#FFF" fill-rule="nonzero" d="M20.575 29.08c-.607-.573-1.556-.537-2.12.08-.563.619-.528 1.585.079 2.16l2.041-2.24zm5.98 7.738l-1.021 1.12c.583.551 1.489.542 2.062-.02l-1.041-1.1zm15.04-12.646c.597-.585.614-1.552.04-2.16-.576-.607-1.525-.624-2.122-.039l2.083 2.2zM18.535 31.32l7 6.618 2.041-2.238-7-6.618-2.041 2.238zm9.062 6.599l14-13.746-2.083-2.199-14 13.746 2.083 2.199z"/>
            </g>
        </g>
    </g>
</svg>
