<?xml version="1.0" encoding="UTF-8"?>
<svg width="20px" height="20px" viewBox="0 0 20 20" version="1.1" xmlns="http://www.w3.org/2000/svg" xmlns:xlink="http://www.w3.org/1999/xlink">
    <!-- Generator: sketchtool 60 (101010) - https://sketch.com -->
    <title>8606720F-7AA8-4D5E-A7EF-62AC55A4A664@1x</title>
    <desc>Created with sketchtool.</desc>
    <g id="Page-1" stroke="none" stroke-width="1" fill="none" fill-rule="evenodd">
        <g id="Gomble-Brand-Design-System" transform="translate(-712.000000, -9472.000000)">
            <g id="Group-31" transform="translate(47.000000, 9399.000000)">
                <g id="Group-30" transform="translate(0.000000, 56.000000)">
                    <g id="Toast/error" transform="translate(643.000000, 0.000000)">
                        <g id="Group-29">
                            <g id="Group" transform="translate(20.000000, 15.000000)">
                                <polygon id="Path" points="0 0 24 0 24 24 0 24"></polygon>
                                <path d="M12,22 C6.477,22 2,17.523 2,12 C2,6.477 6.477,2 12,2 C17.523,2 22,6.477 22,12 C22,17.523 17.523,22 12,22 Z M11,15 L11,17 L13,17 L13,15 L11,15 Z M11,7 L11,13 L13,13 L13,7 L11,7 Z" id="Shape" fill="#FFFFFF" fill-rule="nonzero"></path>
                            </g>
                        </g>
                    </g>
                </g>
            </g>
        </g>
    </g>
</svg>