<svg xmlns="http://www.w3.org/2000/svg" width="17" height="16" viewBox="0 0 17 16">
    <g fill="none" fill-rule="evenodd">
        <g>
            <g>
                <g>
                    <g>
                        <g>
                            <path fill="#FDE8EA" d="M8.5 0C3.813 0 0 3.589 0 8s3.813 8 8.5 8c4.687 0 8.5-3.589 8.5-8s-3.813-8-8.5-8z" transform="translate(-547 -8086) translate(0 6947) translate(547 1139)"/>
                            <g fill="#F11D2D" fill-rule="nonzero">
                                <path d="M1.842 7.565c0 .478-.413.865-.921.865C.412 8.43 0 8.043 0 7.565S.412 6.7.92 6.7c.51 0 .922.387.922.865zM.92 0c.51 0 .922.387.922.865V4.97c0 .478-.413.865-.921.865C.412 5.836 0 5.449 0 4.97V.865C0 .387.412 0 .92 0z" transform="translate(-547 -8086) translate(0 6947) translate(547 1139) translate(7.727 3.782)"/>
                            </g>
                        </g>
                    </g>
                </g>
            </g>
        </g>
    </g>
</svg>
