<?xml version="1.0" encoding="UTF-8"?>
<svg width="18px" height="18px" viewBox="0 0 18 18" version="1.1" xmlns="http://www.w3.org/2000/svg" xmlns:xlink="http://www.w3.org/1999/xlink">
    <!-- Generator: sketchtool 60 (101010) - https://sketch.com -->
    <title>14FB7206-F53F-4317-9F23-F5FC5011A99D@1x</title>
    <desc>Created with sketchtool.</desc>
    <g id="Page-1" stroke="none" stroke-width="1" fill="none" fill-rule="evenodd">
        <g id="Gomble-Brand-Design-System" transform="translate(-400.000000, -10666.000000)">
            <g id="Group-5" transform="translate(400.000000, 10666.000000)">
                <path d="M17.9052353,9.24158824 C17.9052353,15.3896471 15.1004118,17.9050588 8.95288235,17.9050588 C2.805,17.9050588 -1.42108547e-14,15.3896471 -1.42108547e-14,9.24158824 C-1.42108547e-14,3.09388235 2.805,-7.10542736e-15 8.95288235,-7.10542736e-15 C15.1004118,-7.10542736e-15 17.9052353,3.09388235 17.9052353,9.24158824" id="Fill-51" fill="#3A3A3A"></path>
                <path d="M7.13629412,12.9315882 C10.8312353,12.9315882 12.852,9.87017647 12.852,7.21570588 C12.852,7.12870588 12.8504118,7.04205882 12.8461765,6.95611765 C13.2386471,6.67252941 13.5795882,6.31870588 13.8485294,5.91582353 C13.4887059,6.07552941 13.1013529,6.18335294 12.6949412,6.23205882 C13.1094706,5.98341176 13.428,5.58970588 13.5781765,5.12082353 C13.1899412,5.35094118 12.7602353,5.51841176 12.3026471,5.60841176 C11.9359412,5.21805882 11.4141176,4.97364706 10.8361765,4.97364706 C9.72670588,4.97364706 8.82705882,5.87329412 8.82705882,6.98241176 C8.82705882,7.14 8.84452941,7.29352941 8.87911765,7.44052941 C7.20952941,7.35652941 5.72911765,6.55711765 4.73841176,5.34158824 C4.56582353,5.63841176 4.46629412,5.98341176 4.46629412,6.35135294 C4.46629412,7.04823529 4.821,7.66341176 5.36029412,8.02323529 C5.03082353,8.01335294 4.72129412,7.92282353 4.45041176,7.77211765 L4.44970588,7.79770588 C4.44970588,8.77094118 5.14252941,9.58288235 6.06158824,9.76729412 C5.89305882,9.81317647 5.71535294,9.83788235 5.53217647,9.83788235 C5.40264706,9.83788235 5.27682353,9.825 5.15417647,9.80170588 C5.41023529,10.5998824 6.15176471,11.1806471 7.03094118,11.1970588 C6.34341176,11.7356471 5.47747059,12.057 4.53582353,12.057 C4.37382353,12.057 4.21394118,12.0476471 4.05688235,12.0292941 C4.94611765,12.5989412 6.00141176,12.9315882 7.13629412,12.9315882" id="Fill-52" fill="#FFFFFE"></path>
            </g>
        </g>
    </g>
</svg>