<?xml version="1.0" encoding="UTF-8"?>
<svg width="30px" height="30px" viewBox="0 0 30 30" version="1.1" xmlns="http://www.w3.org/2000/svg" xmlns:xlink="http://www.w3.org/1999/xlink">
    <!-- Generator: sketchtool 60 (101010) - https://sketch.com -->
    <title>C28AF3F9-2D9B-4FC5-8ED8-58CE60D82783</title>
    <desc>Created with sketchtool.</desc>
    <g id="Page-1" stroke="none" stroke-width="1" fill="none" fill-rule="evenodd">
        <g id="Web-Styleguide" transform="translate(-881.000000, -7638.000000)">
            <g id="Icons" transform="translate(0.000000, 6947.000000)">
                <g id="Group-6-Copy" transform="translate(881.000000, 691.000000)">
                    <g id="Group-10">
                        <rect id="Rectangle-Copy" fill="#09092F" x="0" y="0" width="30" height="30" rx="4"></rect>
                        <g id="565654" transform="translate(8.000000, 11.000000)" fill="#FFFFFF" fill-rule="nonzero">
                            <path d="M6.82313188,2.81067082 C5.79655244,2.81067082 4.96228037,3.64494289 4.96228037,4.67152233 C4.96228037,5.69810177 5.79655244,6.53237383 6.82313188,6.53237383 C7.84971132,6.53237383 8.68398339,5.69810177 8.68398339,4.67152233 C8.68398339,3.64494289 7.84968224,2.81067082 6.82313188,2.81067082 Z" id="Path"></path>
                            <path d="M6.82313188,0.0193935618 C3.72170301,0.0193935618 1.07310073,1.94845691 0,4.67152233 C1.07310073,7.39455867 3.72170301,9.32365109 6.82313188,9.32365109 C9.92764278,9.32365109 12.573163,7.39455867 13.6462638,4.67152233 C12.573163,1.94845691 9.92764278,0.0193935618 6.82313188,0.0193935618 Z M6.82313188,7.77292212 C5.11114849,7.77292212 3.72170301,6.38347664 3.72170301,4.67149325 C3.72170301,2.95950987 5.11114849,1.57009346 6.82313188,1.57009346 C8.53511526,1.57009346 9.92456075,2.95953894 9.92456075,4.67152233 C9.92456075,6.38350571 8.53511526,7.77292212 6.82313188,7.77292212 Z" id="Shape"></path>
                        </g>
                    </g>
                </g>
            </g>
        </g>
    </g>
</svg>