<svg width="20" height="19" viewBox="0 0 20 19" fill="none" xmlns="http://www.w3.org/2000/svg">
<path fill-rule="evenodd" clip-rule="evenodd" d="M20 6C20 2.5 17.538 0 14.5 0C12.64 0 11 1 10 2C9 1 7.36 0 5.5 0C2.5 0 0 2.5 0 6C0 12.6009 6.66916 16.5341 9.52595 18.219C9.69867 18.3208 9.85746 18.4145 10 18.5C10.1425 18.4145 10.3013 18.3208 10.4741 18.219C13.3308 16.5341 20 12.6009 20 6ZM13.354 13.903C12.61 14.495 11.815 15.048 10.934 15.604C10.635 15.792 10.339 15.973 10 16.175C9.661 15.973 9.365 15.792 9.066 15.603C8.185 15.048 7.39 14.495 6.645 13.903C3.666 11.533 2 8.944 2 6C2 3.656 3.56 2 5.5 2C6.576 2 7.74 2.57 8.586 3.414L10 4.828L11.414 3.414C12.26 2.57 13.424 2 14.5 2C16.463 2 18 3.64 18 6C18 8.943 16.335 11.533 13.354 13.903Z" fill="#242424"/>
</svg>
