<?xml version="1.0" encoding="UTF-8"?>
<svg width="12px" height="15px" viewBox="0 0 12 15" version="1.1" xmlns="http://www.w3.org/2000/svg" xmlns:xlink="http://www.w3.org/1999/xlink">
    <!-- Generator: sketchtool 60 (101010) - https://sketch.com -->
    <title>EA4B0E14-1B48-431F-8784-BFDBA1614FF8@1x</title>
    <desc>Created with sketchtool.</desc>
    <g id="Page-1" stroke="none" stroke-width="1" fill="none" fill-rule="evenodd">
        <g id="Gomble-Brand-Design-System" transform="translate(-287.000000, -10667.000000)">
            <g id="Group-3" transform="translate(284.000000, 10666.000000)">
                <rect id="Colors-/-Secondary-/-Main" x="0" y="0" width="18" height="18" rx="3"></rect>
                <g id="Group" transform="translate(4.000000, 2.000000)" fill-rule="nonzero" stroke="#242424">
                    <path d="M9.625,1.87642214 L9.625,12.3717506 C9.625,12.5409929 9.53139062,12.6964007 9.38142933,12.7771021 C9.31250302,12.8144553 9.23565951,12.8329013 9.15928171,12.8329013 C9.07079523,12.8329013 8.98230875,12.8079992 8.90546523,12.7581949 L4.81226714,10.1213353 L0.719069047,12.758656 C0.576093531,12.8508862 0.392600523,12.8582646 0.243570668,12.7775632 C0.0936093773,12.6968618 0,12.5414541 0,12.3722118 L0,1.87642214 C0,0.841600002 0.849935888,0 1.89454202,0 L7.73045798,0 C8.77506411,0 9.625,0.841600002 9.625,1.87642214 Z" id="Shape" stroke-width="0.875"></path>
                    <path d="M2.56666667,0 L3.20833333,0 L3.20833333,2.8875 C3.20833333,3.06469136 3.06469136,3.20833333 2.8875,3.20833333 C2.71030864,3.20833333 2.56666667,3.06469136 2.56666667,2.8875 L2.56666667,0 L2.56666667,0 Z" id="Rectangle" stroke-width="0.777777778" fill="#242424"></path>
                </g>
            </g>
        </g>
    </g>
</svg>