<?xml version="1.0" encoding="UTF-8"?>
<svg width="235px" height="204px" viewBox="0 0 235 204" version="1.1" xmlns="http://www.w3.org/2000/svg" xmlns:xlink="http://www.w3.org/1999/xlink">
    <!-- Generator: sketchtool 60 (101010) - https://sketch.com -->
    <title>0B51F59F-10DA-4A52-84BD-166A24A771DD@1x</title>
    <desc>Created with sketchtool.</desc>
    <defs>
        <linearGradient x1="50%" y1="0%" x2="33.661408%" y2="100%" id="linearGradient-1">
            <stop stop-color="#FEA1CF" offset="0%"></stop>
            <stop stop-color="#FC68A2" offset="100%"></stop>
        </linearGradient>
        <linearGradient x1="136.086953%" y1="72.6491593%" x2="50%" y2="35.4913507%" id="linearGradient-2">
            <stop stop-color="#BBAFFD" offset="0%"></stop>
            <stop stop-color="#7263EE" offset="100%"></stop>
        </linearGradient>
        <radialGradient cx="50.0000066%" cy="39.9215134%" fx="50.0000066%" fy="39.9215134%" r="53.0075057%" gradientTransform="translate(0.500000,0.399215),scale(1.000000,0.709090),rotate(-19.393101),translate(-0.500000,-0.399215)" id="radialGradient-3">
            <stop stop-color="#FFFFFF" offset="0%"></stop>
            <stop stop-color="#FFFFFF" offset="37.0240257%"></stop>
            <stop stop-color="#FFF9F3" offset="100%"></stop>
        </radialGradient>
    </defs>
    <g id="Page-1" stroke="none" stroke-width="1" fill="none" fill-rule="evenodd">
        <g id="Gomble-Brand-Design-System---Illustrations" transform="translate(-50.000000, -1265.000000)">
            <g id="Group-4" transform="translate(49.000000, 1237.000000)">
                <rect id="Rectangle" fill-rule="nonzero" x="1" y="0" width="249" height="249"></rect>
                <g id="Group" transform="translate(0.000000, 37.000000)">
                    <g id="Group-92" transform="translate(80.132653, 64.037037)">
                        <g id="Group-90">
                            <polyline id="Fill-246" fill="#FF9A67" fill-rule="nonzero" points="8.43612194 116.438445 5.3556077 127.043653 1.81583635 125.380712 3.50313632 113.691593 8.43612194 116.438445"></polyline>
                            <path d="M1.66946492,124.259727 C1.2457935,124.224001 -0.305206473,126.758519 0.0533363785,128.165986 C0.262822089,128.990379 1.68155063,128.742993 3.51455061,128.958023 C5.34755056,129.173053 6.82335056,129.857912 8.08697908,129.82623 C9.35060765,129.794549 13.3241219,129.38943 13.3241219,129.38943 L13.1905076,128.325067 C13.1905076,128.325067 11.221879,128.285971 10.4215362,127.719075 C9.62253622,127.152179 6.30165056,124.58463 6.30165056,124.58463 C6.1828077,124.732927 5.30927913,125.388127 4.37733631,125.791223 C3.44539346,126.194993 3.33192204,126.09186 2.89549347,125.855934 C2.11260777,125.431942 2.34156491,124.315675 1.66946492,124.259727" id="Fill-247" fill="#0C0C0C" fill-rule="nonzero"></path>
                            <polyline id="Fill-248" fill="#FF9A67" fill-rule="nonzero" points="34.4976215 114.267253 34.8360215 125.30926 30.9578501 124.827297 28.9603502 113.18806 34.4976215 114.267253"></polyline>
                            <path d="M30.1487787,122.904838 C29.7244359,122.930453 28.5514502,125.661801 29.1067216,127.003208 C29.431693,127.789179 30.8007358,127.340245 32.6458216,127.28969 C34.4902358,127.23846 36.0486215,127.704245 37.2947929,127.491238 C38.5402929,127.277556 42.4151071,126.305542 42.4151071,126.305542 L42.1317642,125.270838 C42.1317642,125.270838 40.1772357,125.516201 39.30505,125.069964 C38.4328643,124.623053 34.7796215,122.560386 34.7796215,122.560386 C34.6836072,122.723512 33.9121358,123.497349 33.0473358,124.031216 C32.1825358,124.564408 32.0556358,124.479475 31.5903358,124.30826 C30.7550787,124.000882 30.8222216,122.863045 30.1487787,122.904838" id="Fill-249" fill="#0C0C0C" fill-rule="nonzero"></path>
                            <path d="M34.7682072,67.0557796 C35.1287644,69.1056388 36.7677215,90.8348504 36.9187929,95.5776356 C37.0190596,98.7394922 36.6086984,107.394675 35.6877094,121.543185 C32.1062577,122.930096 29.8637918,122.930096 28.9603118,121.543185 C27.6050917,119.462818 27.2153996,101.442754 26.8286568,99.0309166 C26.441914,96.61908 22.0117998,77.2464762 22.2474712,77.0294243 C18.076557,98.8835794 8.61996172,122.895616 7.08387995,124.259353 C6.05982539,125.168511 4.02889145,124.927284 0.991078061,123.535673 C1.99778,111.462324 3.5236061,103.035003 5.56855636,98.2537097 C8.63598172,91.0817695 8.58641461,76.8027732 8.43612194,71.8528113 C8.19340454,63.858795 11.7214219,56.1465647 11.7214219,56.1465647 C11.7214219,56.1465647 17.1776177,54.3270655 21.5283457,54.8019589 C27.803515,55.4869101 33.6939215,58.5449203 33.6939215,58.5449203 C33.6939215,58.5449203 34.4083215,65.0059203 34.7682072,67.0557796 Z" id="Fill-250" fill="#273976" fill-rule="nonzero"></path>
                            <path d="M26.8278931,17.9777951 C28.3721787,18.1914766 30.5852073,18.3963951 30.3099216,18.2150692 C30.0326216,18.0323951 30.1360216,16.9073655 30.1360216,16.9073655 C30.1360216,16.9073655 33.7335358,18.5568248 35.2429072,20.3835655 C36.7516072,22.2082839 35.0199929,48.2066467 35.0199929,48.2066467 L34.0645501,52.5004981 L34.4345072,56.7384018 L34.9199501,59.0289055 C34.9199501,59.0289055 29.5612787,60.5644462 26.5217217,59.2560684 C23.482836,57.9476907 22.8657931,57.1421721 19.4441932,56.8941129 C16.0225933,56.6453796 15.371979,56.8752388 12.4425362,56.9015277 C9.51376479,56.9271425 9.91460765,55.0046833 9.91460765,55.0046833 L11.174879,53.7354018 L10.3953505,52.1668314 L10.2939648,50.0846166 C10.2939648,50.0846166 8.81010765,21.4943885 11.174879,19.0164923 C13.538979,16.537922 24.5161646,14.1605137 24.5161646,14.1605137 C24.5161646,14.1605137 25.2849502,17.7641137 26.8278931,17.9777951 Z" id="Fill-258" fill="#B1E5FF" fill-rule="nonzero"></path>
                            <path d="M40.950443,52.3400718 L44.3721635,53.8847501 L46.6090095,54.807136 L47.4287315,57.2599773 L46.586344,59.3875937 L43.97916,61.099982 L43.959892,60.1652223 C43.959892,60.1652223 45.4860711,59.1900174 45.4282344,58.6045934 C45.2376551,56.6738292 43.4117988,57.3757278 43.4117988,57.3757278 C43.4117988,57.3757278 42.9595283,58.1101782 42.0528073,57.7105666 C41.5271509,57.4784893 40.5398015,55.9615144 40.5398015,55.9615144 L38.6884707,55.080433 L40.950443,52.3400718" id="Fill-260" fill="#F29F77" fill-rule="nonzero" transform="translate(43.058601, 56.720027) rotate(29.000000) translate(-43.058601, -56.720027) "></path>
                            <path d="M35.2429072,20.3835655 C36.7516072,22.2082839 37.2155643,22.819682 38.0286643,25.1890523 C38.5702833,26.7677338 38.5702833,33.2000188 38.0286643,44.4859072 L44.5873814,53.107133 L41.5902993,56.0164742 L33.0057073,49.5547944 C33.4909263,28.8894814 34.2366596,19.1657383 35.2429072,20.3835655 Z" id="Fill-258" fill="#B1E5FF" fill-rule="nonzero"></path>
                            <path d="M36.855679,52.5777768 L40.79721,54.3551527 L43.3740343,55.4161174 L44.3142851,58.2473599 L43.3391106,60.7061992 L40.3303084,62.6888879 L40.3098915,61.6093573 C40.3098915,61.6093573 42.0711154,60.4801369 42.0055665,59.8041335 C41.7895775,57.5746326 39.6834159,58.3887855 39.6834159,58.3887855 C39.6834159,58.3887855 39.1606364,59.2378848 38.1161522,58.7781153 C37.5106307,58.5110991 36.3753452,56.7610256 36.3753452,56.7610256 L34.2428566,55.7470208 L36.855679,52.5777768" id="Fill-260" fill="#FEB08A" fill-rule="nonzero"></path>
                            <path d="M33.4693416,57.6191768 C15.4734427,54.9001483 6.23758375,51.5044814 5.76176472,47.4321752 C5.04736477,41.3230419 6.19788808,20.388452 11.174879,19.0164923 C16.15187,17.6445326 16.157873,19.2377179 17.4547504,27.6723283 C17.8737325,30.3972978 14.0015593,40.0430273 14.6096426,42.6457525 C14.7557585,43.2711599 22.3819227,46.1819964 37.4881351,51.378262 L33.4693416,57.6191768 Z" id="Fill-258" fill="#B1E5FF" fill-rule="nonzero"></path>
                            <path d="M34.5795358,46.0354539 C35.2791644,42.7351873 35.3577215,29.6824172 35.3583929,29.5509727" id="Fill-259" stroke="#1D1119" stroke-width="0.4" stroke-linecap="round" stroke-linejoin="round"></path>
                            <path d="M30.0453787,16.2501433 L29.9090787,16.2117211 C27.9297073,14.9896248 27.1347359,12.4220767 27.1018359,12.3128767 C27.0602074,12.1740175 27.1380931,12.0290915 27.2757359,11.9866249 C27.4160645,11.9455063 27.5584073,12.0230249 27.6000359,12.160536 C27.608093,12.1854767 28.3728502,14.6492174 30.1816787,15.7661582 C30.3045501,15.8416544 30.3421501,16.0027581 30.2676216,16.1254396 C30.2179359,16.2056544 30.1326645,16.2501433 30.0453787,16.2501433" id="Fill-281" fill="#1D1119" fill-rule="nonzero"></path>
                            <path d="M26.1195359,10.2387508 C26.1195359,10.2387508 26.1000645,12.8386545 24.5161646,14.1605137 C22.932936,15.4810248 26.1819788,18.7954469 27.7779645,18.9767729 C30.1380359,19.2457284 31.1619644,18.0607063 31.1619644,18.0607063 L31.4473216,16.5939211 L26.1195359,10.2387508" id="Fill-282" fill="#FEB08A" fill-rule="nonzero"></path>
                            <path d="M28.1586645,9.51412121 C28.1586645,9.51412121 27.6537502,6.572462 30.3609501,5.61325459 C33.0681501,4.65472128 35.9626786,4.04670648 35.9626786,4.04670648 C35.9626786,4.04670648 37.29815,6.59403237 37.2101929,7.81343232 C37.1222357,9.03215825 35.4785786,17.6555877 32.3665073,17.2430544 C29.253093,16.8311951 26.2323359,12.5447582 26.2323359,12.5447582 C26.2323359,12.5447582 24.7202788,8.98632121 25.8247788,8.3419064 C26.9286074,7.69816566 28.1586645,9.51412121 28.1586645,9.51412121" id="Fill-283" fill="#FFB69E" fill-rule="nonzero"></path>
                            <path d="M28.2311787,9.64286936 C29.2302645,9.03148417 28.5742787,6.51583978 30.0903645,5.98871385 C31.6064501,5.46158793 34.8131929,4.72145462 36.21715,5.36721756 C36.96445,5.71099533 37.33105,7.15688422 37.33105,7.15688422 C37.33105,7.15688422 38.36035,7.00791385 38.38385,5.189262 C38.4080215,3.36858797 37.3760357,1.33490653 36.6515643,0.994499124 C33.4723501,-0.500597148 30.6577216,1.30996579 30.6577216,1.30996579 C30.6577216,1.30996579 29.1859502,-0.760115662 27.4059931,0.304247283 C25.6260359,1.36793615 24.9754217,4.20443981 24.9754217,4.20443981 C24.9754217,4.20443981 23.896436,3.2250102 23.4720931,4.84548422 C23.0477503,6.4659583 23.2276931,7.51077306 23.2276931,7.51077306 C23.2276931,7.51077306 22.2688931,6.48281015 22.2480788,8.11676566 C22.2272646,9.75004714 22.7442646,10.9431582 23.3250503,11.3300767 C23.9065074,11.7176693 25.8576788,13.1103063 25.8576788,13.1103063 L25.9953217,11.6138619 C25.9953217,11.6138619 25.3520931,9.12652862 26.0302359,8.38100269 C26.7077074,7.63547677 27.2314217,10.2535805 28.2311787,9.64286936" id="Fill-284" fill="#202C52" fill-rule="nonzero"></path>
                            <path d="M28.7354216,8.8697064 C28.7354216,8.8697064 29.3121787,11.9064101 29.5700073,12.2683878 C29.8285073,12.6296915 32.6740216,12.5413878 33.9215358,12.6681138 C35.4644786,12.8244989 35.9311215,13.8167359 35.9311215,13.8167359 C35.9311215,13.8167359 35.9660357,16.0971285 35.7249929,16.9680322 C35.4100929,18.1045211 34.2760501,19.4580618 31.7098501,18.3229211 C29.929893,17.5356025 28.4198502,16.2555359 27.5906359,15.2430767 C27.2146359,14.7840322 26.9897074,14.2245507 26.9386788,13.6320396 L26.8064074,12.0991952 L27.5107359,9.08675825 L28.7354216,8.8697064" id="Fill-285" fill="#202C52" fill-rule="nonzero"></path>
                            <polyline id="Path-2" stroke="#0C0C0C" stroke-width="0.4" stroke-linecap="round" stroke-linejoin="round" points="17.4547504 27.6723283 16.5422281 40.8732106 12.4187009 43.5690169 18.2978824 42.1142582 37.1673679 51.4385218 33.6939215 58.5449203 10.8583353 51.4385218"></polyline>
                        </g>
                        <g id="Group-88" transform="translate(38.271428, 56.622221)" fill-rule="nonzero">
                            <g id="Group-87" transform="translate(16.642028, 9.396243)">
                                <polyline id="Fill-261" fill="#8396C6" points="0 17.506727 36.1362851 12.8151715 39.0052993 35.0879267 2.86901424 39.7801562 0 17.506727"></polyline>
                                <polyline id="Fill-262" fill="#ACC3F1" points="21.5528568 14.4740678 36.6761137 12.5111641 39.5457993 34.7839193 24.4225424 36.747497 21.5528568 14.4740678"></polyline>
                                <polyline id="Fill-263" fill="#FFFDF3" points="26.9135424 13.8283048 27.8998709 19.7561121 29.0305567 18.6883788 30.2518852 19.800601 31.226128 18.6384973 32.5320566 19.3166158 31.6403995 13.2465789 26.9135424 13.8283048"></polyline>
                                <path d="M7.75701414,13.8633669 C7.67509986,13.8620085 7.60862843,13.793253 7.61055544,13.71169 C7.61802843,13.3847641 7.82549986,5.702342 11.4512141,5.27700126 C12.1253284,5.19746052 12.7309569,5.39091978 13.2580283,5.84861608 C15.3763855,7.68816418 15.5563283,13.2169196 15.5623711,13.4514974 C15.5650569,13.5330604 15.5005997,13.6011419 15.4193569,13.6031641 C15.3307283,13.6152974 15.2696283,13.5418233 15.267614,13.4595863 C15.2662712,13.4029641 15.0849855,7.82702344 13.0646569,6.07240867 C12.6020427,5.6713346 12.0689284,5.50416423 11.4861284,5.57089756 C8.11421414,5.96725311 7.90808557,13.6409122 7.90607128,13.7177567 C7.90472843,13.7986456 7.83691414,13.8640307 7.75701414,13.8633669" id="Fill-264" fill="#130C5C"></path>
                                <polyline id="Fill-265" fill="#FFCF5B" points="5.16194276 10.6399345 4.74364278 39.7794822 24.600471 37.1977785 23.9579139 10.7457641 5.16194276 10.6399345"></polyline>
                                <polyline id="Fill-266" fill="#FFCF5B" points="1.54092855 10.6621789 3.47665709 10.6850975 2.91937138 36.6329044 0.655985705 37.3898896 1.54092855 10.6621789"></polyline>
                                <polyline id="Fill-267" fill="#C19311" points="3.39742851 10.7295864 5.22237133 10.7275641 4.77587135 39.5691711 2.82537138 36.5210081 3.39742851 10.7295864"></polyline>
                                <polyline id="Fill-268" fill="#FFDFA1" points="0.686871419 37.4094378 3.02209995 36.5277489 4.82152848 39.6204007 0.686871419 37.4094378"></polyline>
                                <path d="M10.9301855,13.3227597 C10.8482712,13.3220752 10.7817998,13.2533196 10.7837268,13.1717567 C10.7911998,12.8441567 11.0000141,5.1617346 14.6250569,4.73639387 C15.2971569,4.65550498 15.9034569,4.8496383 16.4311997,5.30868274 C18.5495568,7.14755677 18.7294997,12.6763122 18.736214,12.91089 C18.7388997,12.993127 18.6744425,13.0612085 18.5925282,13.0632307 C18.5052425,13.0706456 18.4434711,13.00189 18.4414568,12.919653 C18.4394425,12.8630307 18.2588283,7.28641603 16.2378283,5.53247534 C15.7758854,5.13072719 15.2420998,4.96423089 14.6599712,5.03029015 C11.2867141,5.42597163 11.081257,13.1003048 11.0792427,13.1771493 C11.0772284,13.2587122 11.0100855,13.3234233 10.9301855,13.3227597" id="Fill-269" fill="#130C5C"></path>
                                <path d="M21.8341853,23.2168186 C21.752271,23.2154602 21.6857996,23.1460306 21.6884853,23.0644676 C21.6918425,22.877075 21.8120282,18.4612158 23.9250139,18.2138307 C24.323171,18.1646232 24.6857424,18.2812381 24.9992996,18.553564 C26.2233139,19.6159047 26.3260424,22.7813565 26.330071,22.9168454 C26.3327567,22.9984084 26.2676281,23.0664899 26.1863853,23.0685121 C26.1031281,23.0671639 26.0373281,23.0064973 26.0346424,22.9242602 C26.033971,22.8925788 25.9319139,19.7554381 24.8065996,18.7773566 C24.5541424,18.5589566 24.276171,18.4693047 23.9592567,18.508401 C22.0993996,18.726801 21.9839139,23.0280676 21.9832425,23.0712084 C21.9818996,23.1520973 21.9140853,23.2174825 21.8341853,23.2168186" id="Fill-270" fill="#130C5C"></path>
                                <polyline id="Fill-271" fill="#436DF6" points="20.3610711 21.3219862 20.1240568 37.8651118 31.3973423 36.4003489 31.0327566 21.3819788 20.3610711 21.3219862"></polyline>
                                <polyline id="Fill-272" fill="#436DF6" points="18.3051568 21.3347936 19.4049568 21.347601 19.0880425 36.0794896 17.8035997 36.5088748 18.3051568 21.3347936"></polyline>
                                <polyline id="Fill-273" fill="#3858D8" points="19.3599711 21.3732158 20.3959854 21.3718676 20.1421854 37.7464748 19.0349997 36.0154526 19.3599711 21.3732158"></polyline>
                                <polyline id="Fill-274" fill="#5A80F6" points="17.8210569 36.51966 19.1464568 36.018823 20.1683711 37.7754599 17.8210569 36.51966"></polyline>
                                <path d="M23.6356282,22.9094408 C23.5537139,22.9087565 23.4872425,22.8393269 23.4891695,22.7577639 C23.4939568,22.5703713 23.613471,18.1545121 25.7264567,17.9064529 C26.1299853,17.8592677 26.4885281,17.9752084 26.8014138,18.2468603 C28.0254281,19.3098751 28.1281567,22.4753269 28.1321852,22.6101417 C28.1348709,22.6917047 28.0697424,22.7597862 27.9884995,22.7618084 C27.9206852,22.767875 27.8387709,22.6997936 27.8367567,22.6175565 C27.8360852,22.585875 27.7333567,19.4480603 26.6080424,18.4706529 C26.3562567,18.2522529 26.076271,18.1646232 25.7606996,18.2010232 C23.9015139,18.4200973 23.7860282,22.7206899 23.7846853,22.7638306 C23.7833425,22.8447195 23.7155282,22.9101047 23.6356282,22.9094408" id="Fill-275" fill="#130C5C"></path>
                                <polygon id="Fill-276" fill="#C2D5FB" points="16.1639711 13.0275048 37.9068422 13.0275048 37.9068422 0.184371718 16.1639711 0.184371718"></polygon>
                                <g id="Group-72" transform="translate(31.413074, 0.425980)">
                                    <path d="M5.58340816,7.1642124 C5.50571429,7.16322774 5.44144898,7.0967833 5.4432854,7.01830181 C5.45008163,6.76263515 5.62896939,0.754227741 8.47870408,0.427783297 C9.00961224,0.365672186 9.49016327,0.520227741 9.90596939,0.883264778 C11.562,2.32915367 11.6905306,6.649487 11.6954115,6.83244996 C11.6972449,6.91141293 11.6353776,6.97593144 11.5572041,6.97833885 C11.4948571,6.98170922 11.4138061,6.91815367 11.4118878,6.84015367 C11.4109286,6.79585737 11.2819184,2.46156107 9.71988776,1.09800552 C9.36163265,0.785524037 8.9654898,0.65985737 8.51083673,0.709931444 C5.90521429,1.00893144 5.72872449,6.96533885 5.72728571,7.02504256 C5.72536735,7.10256107 5.66014286,7.16515367 5.58340816,7.1642124" id="Fill-7" fill="#130C5C"></path>
                                    <polyline id="Fill-8" fill="#7567F6" points="3.56816327 4.62004256 3.18065306 27.3295981 18.6609184 25.3598574 18.2172959 4.74330181 3.56816327 4.62004256"></polyline>
                                    <polyline id="Fill-9" fill="#7567F6" points="0.746244898 4.6291907 2.25504082 4.65182033 1.76537755 24.8730796 1.11910481e-13 25.4580796 0.746244898 4.6291907"></polyline>
                                    <polyline id="Fill-10" fill="#3C41C7" points="2.19365306 4.68600552 3.61516327 4.68841293 3.20607143 27.1649314 1.692 24.7859314 2.19365306 4.68600552"></polyline>
                                    <polyline id="Fill-11" fill="#9F9AF6" points="0.0235 25.472524 1.84594898 24.7907463 3.24156122 27.2053759 0.0235 25.472524"></polyline>
                                    <path d="M8.05810204,6.75064595 C7.97992857,6.74963515 7.91614286,6.6831907 7.91797871,6.60470922 C7.92477551,6.34904256 8.10414286,0.339190705 10.9538776,0.0137092231 C11.4823878,-0.0493648509 11.9643776,0.105672186 12.3806633,0.469190705 C14.0362143,1.91507959 14.1647449,6.23541293 14.1696264,6.41837589 C14.1714592,6.49733885 14.1100714,6.56282033 14.0314184,6.56474626 C13.9657143,6.57244996 13.8880204,6.50504256 13.886102,6.42656107 C13.8851429,6.38226478 13.7561327,2.04700552 12.194102,0.683931444 C11.8358469,0.370487001 11.4401837,0.245301816 10.9860102,0.29537589 C8.37894898,0.594375889 8.20293878,6.55174626 8.20197959,6.61193144 C8.19958163,6.68896848 8.13483673,6.75204256 8.05810204,6.75064595" id="Fill-12" fill="#130C5C"></path>
                                </g>
                                <polygon id="Fill-277" fill="#8396C6" points="16.1639711 13.0275048 22.5599996 13.0275048 22.5599996 0.184371718 16.1639711 0.184371718"></polygon>
                            </g>
                            <path d="M28.3020567,65.6527916 C29.8194852,65.6527916 31.0549138,67.0346435 31.0549138,68.7346583 C31.0549138,70.433325 29.8194852,71.8165245 28.3020567,71.8165245 C26.7839567,71.8165245 25.5485281,70.433325 25.5485281,68.7346583 C25.5485281,67.0346435 26.7839567,65.6527916 28.3020567,65.6527916 Z M51.9873705,65.6527916 C53.5054705,65.6527916 54.740899,67.0346435 54.740899,68.7346583 C54.740899,70.433325 53.5054705,71.8165245 51.9873705,71.8165245 C50.4699419,71.8165245 49.2345133,70.433325 49.2345133,68.7346583 C49.2345133,67.0346435 50.4699419,65.6527916 51.9873705,65.6527916 Z M13.7750283,65.0077027 C13.7280283,65.1586953 13.7562283,65.3224953 13.8495569,65.4498953 C13.9435569,65.5772953 14.0919426,65.6527916 14.2490569,65.6527916 L25.8761853,65.6527916 C25.0744996,66.4010139 24.5554853,67.4977324 24.5554853,68.7346583 C24.5554853,70.984043 26.236071,72.81348 28.3020567,72.81348 C30.3673709,72.81348 32.0479566,70.984043 32.0479566,68.7346583 C32.0479566,67.4977324 31.5289423,66.4010139 30.727928,65.6527916 L49.561499,65.6527916 C48.7604848,66.4010139 48.2414705,67.4977324 48.2414705,68.7346583 C48.2414705,70.984043 49.9220562,72.81348 51.9873705,72.81348 C54.0533562,72.81348 55.7332705,70.984043 55.7332705,68.7346583 C55.7332705,67.4977324 55.2142562,66.4010139 54.4132419,65.6527916 L58.5801276,65.6527916 C58.8547419,65.6527916 59.0769848,65.4296731 59.0769848,65.1539768 C59.0769848,64.8782805 58.8547419,64.6558361 58.5801276,64.6558361 L14.9211569,64.6558361 L16.8662854,58.3047101 C17.4215569,56.4934731 18.8234997,55.1972287 20.5248997,54.9228805 L46.8220706,50.6849768 C47.0926563,50.6418361 47.2772992,50.3856879 47.2343278,50.1147101 C47.1906849,49.8423842 46.930842,49.6556657 46.6649563,49.7015027 L20.3684568,53.9387324 C18.2890426,54.2737472 16.5849569,55.8342287 15.9175569,58.012162 L13.7750283,65.0077027 L13.7750283,65.0077027 Z" id="Fill-278" fill="#202D51"></path>
                            <path d="M0.993042838,2.32690367 C0.993042838,1.59351108 1.51474283,0.996955536 2.15662853,0.996955536 C2.79717138,0.996955536 3.31887137,1.59351108 3.31887137,2.32690367 C3.31887137,3.06029624 2.79717138,3.65685179 2.15662853,3.65685179 C1.51474283,3.65685179 0.993042838,3.06029624 0.993042838,2.32690367 Z M10.4850284,13.0547924 L15.0943855,13.0547924 L16.5298997,23.0910811 L12.157557,23.3431848 L10.4850284,13.0547924 Z M16.1659854,47.9967696 L15.5428997,44.1639844 L19.4559854,43.549903 L20.4114282,50.2326731 L19.1974854,50.432199 C18.5609711,50.5380287 17.9022997,50.3802953 17.3557569,49.985962 C16.7326711,49.5370287 16.2989283,48.811725 16.1659854,47.9967696 Z M64.2275133,42.9944659 L63.041099,43.1899474 L63.5748848,36.6291846 L66.8454133,36.1162142 L66.1162419,40.9189919 C65.9530848,42.0008808 65.1923562,42.8347104 64.2275133,42.9944659 Z M69.9071276,15.9330886 L69.2820276,20.0510071 L64.9016276,20.3037848 L65.4904705,13.0547924 L67.7444562,13.0547924 C68.3460562,13.0547924 68.9073705,13.3237479 69.3243276,13.8097553 C69.8117848,14.380022 70.0246276,15.1545331 69.9071276,15.9330886 Z M17.5249569,23.0337848 L16.0981711,13.0547924 L22.8560996,13.0547924 L23.9021853,22.6664144 L17.5249569,23.0337848 Z M17.6666283,24.0239996 L24.0102853,23.6579774 L24.9120139,31.9376291 L18.8825854,32.5267698 L17.6666283,24.0239996 Z M20.2959425,42.4086956 L19.0242568,33.5142883 L25.0194424,32.9285179 L25.9554139,41.5216141 L20.2959425,42.4086956 Z M26.7893281,49.1784213 L21.3917139,50.0702213 L20.4376139,43.39554 L26.0635139,42.5131771 L26.7893281,49.1784213 Z M33.956828,47.9947473 L27.7702852,49.0166435 L27.0451424,42.3594882 L33.5472566,41.33894 L33.956828,47.9947473 Z M40.798685,46.8649992 L34.9418137,47.8322955 L34.5322423,41.1852511 L40.6885708,40.219303 L40.798685,46.8649992 Z M48.6832705,45.562014 L41.7890421,46.7005251 L41.6789279,40.064266 L48.6832705,38.9648512 L48.6832705,45.562014 Z M55.380099,44.4558585 L49.6763133,45.398214 L49.6763133,38.8091401 L55.6990276,37.8647623 L55.380099,44.4558585 Z M62.566399,36.7869179 L62.0319419,43.3564437 L56.381199,44.2907103 L56.6994562,37.7077031 L62.566399,36.7869179 Z M62.6489848,35.7650216 L56.7484705,36.6911994 L57.0821705,29.7967698 L63.1827705,29.2008884 L62.6489848,35.7650216 Z M64.8197133,21.306807 L69.1296133,21.0580737 L68.1191133,27.7179254 L64.267799,28.0940588 L64.8197133,21.306807 Z M63.8192848,21.3641033 L63.2646848,28.1917995 L57.1311848,28.7910514 L57.4722705,21.7294515 L63.8192848,21.3641033 Z M57.8919133,13.0547924 L64.4940705,13.0547924 L63.901199,20.3610811 L57.5212848,20.7291256 L57.8919133,13.0547924 Z M49.6763133,13.0547924 L56.8988705,13.0547924 L56.5248848,20.7864219 L49.6763133,21.1807552 L49.6763133,13.0547924 Z M41.231085,13.0547924 L48.6832705,13.0547924 L48.6832705,21.2380515 L41.3740993,21.6593478 L41.231085,13.0547924 Z M32.7979423,13.0547924 L40.2380422,13.0547924 L40.3817279,21.7166441 L33.3565709,22.1210885 L32.7979423,13.0547924 Z M24.8952281,22.6091181 L23.8545139,13.0547924 L31.8028852,13.0547924 L32.3655423,22.1783848 L24.8952281,22.6091181 Z M25.9003567,31.8405624 L25.0026567,23.6013552 L32.4273137,23.1733181 L32.9187994,31.1557032 L25.9003567,31.8405624 Z M33.4854851,40.3399623 L26.9370424,41.3672511 L26.0077853,32.8314513 L32.9805709,32.1506365 L33.4854851,40.3399623 Z M40.671785,39.2129104 L34.4704709,40.1849253 L33.9689137,32.054918 L40.5421993,31.4125254 L40.671785,39.2129104 Z M48.6832705,37.9557623 L41.6621421,39.0571993 L41.5345707,31.3154587 L48.6832705,30.617118 L48.6832705,37.9557623 Z M56.0844276,29.8945106 L55.7473705,36.8475846 L49.6763133,37.8000512 L49.6763133,30.5200513 L56.0844276,29.8945106 Z M49.6763133,22.1790589 L56.4765419,21.7867478 L56.1327705,28.8887921 L49.6763133,29.5190514 L49.6763133,22.1790589 Z M40.526085,30.4121995 L33.9078137,31.0586365 L33.4183423,23.1160218 L40.3985136,22.7135996 L40.526085,30.4121995 Z M41.3902136,22.6563033 L48.6832705,22.2356811 L48.6832705,29.616118 L41.517785,30.3158069 L41.3902136,22.6563033 Z M67.0025276,35.0821846 L63.6574705,35.6066142 L64.1858848,29.1031477 L67.9646848,28.7344291 L67.0025276,35.0821846 Z M13.8931998,34.0151253 L18.0345711,33.6100068 L19.3149854,42.5630585 L15.3824283,43.1798363 L13.8931998,34.0151253 Z M12.3186998,24.3320514 L16.6715711,24.0812959 L17.8928997,32.6231624 L13.7327283,33.028955 L12.3186998,24.3320514 Z M1.42108547e-14,2.32690367 C1.42108547e-14,3.61034068 0.967528557,4.65313326 2.15662853,4.65313326 C3.18592852,4.65313326 4.04669993,3.86851104 4.25887136,2.82571847 L5.22237133,2.82571847 C6.72502848,2.82571847 8.01081414,4.02422215 8.27938557,5.67705176 L15.1863712,48.157199 C15.3629569,49.2478509 15.9282997,50.1841398 16.7756426,50.7968731 C17.3819426,51.232999 18.0869426,51.4615101 18.8040282,51.4615101 C18.9879997,51.4615101 19.1746568,51.4460064 19.3586282,51.4156731 L64.3879848,43.9772659 C65.7798562,43.7480808 66.8689133,42.5785622 67.0978705,41.0693104 L67.8794133,35.9166883 C68.0519705,35.8169253 68.1553705,35.6207697 68.1231419,35.4111327 C68.1070276,35.3120439 68.0566705,35.231155 67.9942276,35.1617253 L70.8880843,16.082733 C71.0498986,15.0163479 70.75447,13.9506368 70.076999,13.160622 C69.4686848,12.4494739 68.6394705,12.0585109 67.7444562,12.0585109 L10.3225427,12.0585109 L9.25832843,5.51662213 C8.91187128,3.37980735 7.21382843,1.82808886 5.22237133,1.82808886 L4.25887136,1.82808886 C4.04669993,0.784622208 3.18592852,-4.26325641e-13 2.15662853,-4.26325641e-13 C0.967528557,-4.26325641e-13 1.42108547e-14,1.04414072 1.42108547e-14,2.32690367 L1.42108547e-14,2.32690367 Z" id="Fill-279" fill="#202D51"></path>
                        </g>
                    </g>
                    <g id="Group-86" transform="translate(193.000000, 112.000000) scale(-1, 1) translate(-193.000000, -112.000000) translate(150.000000, 39.000000)">
                        <g id="Group-85" transform="translate(21.152685, 0.000000)">
                            <path d="M2.81932852,0.282437032 L60.9455705,0.282437032 C62.3468419,0.282437032 63.482899,1.46274072 63.482899,2.91941477 L63.482899,73.2779171 C63.482899,74.7339171 62.3468419,75.9142208 60.9455705,75.9142208 L2.81932852,75.9142208 C1.41805712,75.9142208 0.281328567,74.7339171 0.281328567,73.2779171 L0.281328567,2.91941477 C0.281328567,1.46274072 1.41805712,0.282437032 2.81932852,0.282437032" id="Fill-176" stroke="#222D57" stroke-width="0.4" stroke-linecap="round" stroke-linejoin="round"></path>
                            <path d="M28.4094852,15.0918442 C25.3403853,17.8885775 20.588014,21.4409478 18.604614,22.8976218 L38.881085,21.4591478 L28.4094852,15.0918442 Z M16.6782854,23.6006811 L17.4799711,23.0196292 C22.6278139,19.2926737 30.3807995,13.2017405 30.6446709,11.6992294 C30.770228,10.9860591 30.544628,10.2472739 30.0403852,9.72149615 C29.5871709,9.2496443 28.9721424,9.02652578 28.3537567,9.11213319 C26.9732995,9.30357023 26.5335139,11.1235702 26.5294853,11.1417702 L25.9809281,11.013022 C26.0024139,10.9226961 26.518071,8.79599245 28.2772138,8.55265171 C29.0775567,8.44210356 29.8658138,8.72521467 30.445928,9.33053319 C31.0737138,9.98505907 31.3557138,10.9071924 31.1985995,11.7969702 C31.0938566,12.3941998 30.1659423,13.4504738 28.8405424,14.6934664 L40.6878993,21.8972959 L16.6782854,23.6006811 L16.6782854,23.6006811 Z" id="Fill-179" fill="#222D57" fill-rule="nonzero"></path>
                            <g id="Group-84" transform="translate(5.033029, 16.389437)" fill-rule="nonzero">
                                <path d="M24.3241781,5.06866841 L29.2393709,0.35756477 L37.4751137,4.76870544 C38.8656422,5.51355726 39.8788279,6.80777948 40.2689279,8.34062387 C41.4445993,12.964772 43.9752135,22.8446755 44.6956564,25.0637273 C45.6443849,27.9844902 48.6483562,38.1387419 48.6483562,38.1387419 L48.2790705,42.9610677 L43.5327421,43.9580233 L41.4271421,40.7271863 L35.8354851,23.0529644 L37.2830851,42.7305344 L24.3241781,49.0034677 L11.3652712,42.7305344 L12.8128712,23.0529644 L7.22121414,40.7271863 L5.11561419,43.9580233 L0.369285708,42.9610677 L-7.46069873e-14,38.1387419 C-7.46069873e-14,38.1387419 3.00397138,27.9844902 3.95269993,25.0637273 C4.67314278,22.8446755 7.203757,12.964772 8.37942843,8.34062387 C8.76952843,6.80777948 9.78271414,5.51355726 11.1732427,4.76870544 L19.4089854,0.35756477 L24.3241781,5.06866841 Z" id="Combined-Shape" fill="#FF8065"></path>
                                <path d="M41.8270991,40.6058937 C41.7384705,40.6058937 41.6572277,40.545227 41.6343991,40.4549011 C41.6082134,40.3483974 41.6726705,40.2398715 41.7794277,40.2135826 L47.457699,38.7879159 C47.5604276,38.7548863 47.6718847,38.8263382 47.6980704,38.9328419 C47.7242561,39.0393456 47.659799,39.1478715 47.5537133,39.1748344 L41.875442,40.599827 L41.8270991,40.6058937" id="Fill-181" fill="#1D1119"></path>
                                <path d="M0.869956866,39.9318196 C0.781328295,39.9318196 0.700085443,39.871153 0.677256871,39.780827 C0.651071157,39.6743233 0.7155283,39.5657974 0.822285438,39.5395085 L6.50055678,38.1138419 C6.60328535,38.0808122 6.71474249,38.1522641 6.7409282,38.2587678 C6.76711392,38.3652715 6.70265678,38.4737974 6.59657106,38.5007604 L0.918299723,39.925753 L0.869956866,39.9318196" id="Fill-181-Copy" fill="#1D1119" transform="translate(3.709094, 39.018766) scale(-1, 1) translate(-3.709094, -39.018766) "></path>
                                <path d="M25.3064201,4.90661831 L27.7631772,7.79839604 L31.4076914,1.57197394 L29.0516486,0.787351731 L25.3064201,4.90661831 Z M27.7927201,8.33967752 L27.6416486,8.26957382 L24.8901344,5.03132201 C24.8256773,4.95447757 24.8270201,4.84123313 24.8948344,4.76775907 L28.84552,0.423351735 C28.8985629,0.364707292 28.9804772,0.342462848 29.0543343,0.368077662 L31.7655628,1.27201098 L31.8891057,1.39064801 L31.8743343,1.56186283 L27.9639343,8.24126271 C27.9310343,8.29653678 27.8746343,8.33361086 27.8101772,8.33900345 L27.7927201,8.33967752 L27.7927201,8.33967752 Z" id="Fill-184" fill="#1D1119"></path>
                                <path d="M17.0059426,1.73874252 L18.092314,3.40640175 L20.620914,7.53038689 L22.8856425,4.34875729 L19.4808282,0.447890694 L17.0059426,1.73874252 Z M20.6047997,8.0899471 C20.5389997,8.08852017 20.4745425,8.0514461 20.4396282,7.99482392 L17.7565997,3.62008323 L16.5533997,1.77244623 L16.5278854,1.61269068 L16.6285997,1.48663882 L19.4358425,0.0225499605 C19.5170854,-0.0199167054 19.6164568,-0.00104263167 19.6768854,0.0677129228 L23.2878282,4.20517952 C23.3489282,4.27460915 23.3542996,4.37706841 23.3005853,4.4525647 L20.7706425,8.00628318 C20.7323711,8.05886091 20.6692568,8.09121647 20.6047997,8.0899471 L20.6047997,8.0899471 Z" id="Fill-185" fill="#1D1119"></path>
                                <path d="M25.2861554,48.8909341 C25.1599263,48.892961 25.051944,48.8019947 25.0479591,48.6891865 L23.4970973,5.29108946 C23.4939059,5.17616606 23.5955114,5.07958832 23.7249159,5.07608086 C23.850353,5.08737887 23.9623027,5.16353956 23.9670818,5.27775815 L25.5171497,48.6758548 C25.5211348,48.7900732 25.4163541,48.8887659 25.2861554,48.8909341" id="Fill-186" fill="#1D1119" transform="translate(24.507142, 26.983507) rotate(2.000000) translate(-24.507142, -26.983507) "></path>
                            </g>
                            <g id="Group-83" transform="translate(3.306498, 2.888889)">
                                <path d="M0,5.55032583 C0,2.48463699 2.4755571,-1.8189894e-12 5.52988562,-1.8189894e-12 C8.58421414,-1.8189894e-12 11.0604427,2.48463699 11.0604427,5.55032583 C11.0604427,8.61601467 8.58421414,11.1013257 5.52988562,11.1013257 C2.4755571,11.1013257 0,8.61601467 0,5.55032583" id="Fill-243" stroke="#222D57" stroke-width="1.39999998"></path>
                                <path d="M5.54062848,3.90760734 C5.54062848,3.90760734 4.48648564,2.05727404 3.05701423,3.00097772 C-0.0778857128,5.07038509 5.52048562,9.05011837 5.52048562,9.05011837 C5.52048562,9.05011837 11.0288855,4.9685999 8.096757,3.00097772 C6.65855705,2.03570367 5.54062848,3.90760734 5.54062848,3.90760734" id="Fill-244" fill="#DB5133" fill-rule="nonzero"></path>
                            </g>
                        </g>
                        <g id="Group-73" transform="translate(0.000000, 8.300548)" fill-rule="nonzero">
                            <path d="M39.9272616,10.930319 L44.0162615,12.8756967 C44.0162615,12.8756967 46.4058758,9.32197823 46.8308901,8.41871901 C47.2552329,7.51545976 47.5177614,5.48851906 47.5721472,4.59334869 C47.6258614,3.69817834 48.4235187,1.79998578 47.0323186,2.12084503 C45.5773329,2.45653391 44.2794615,3.23239316 43.7429901,3.92129685 C42.0355473,6.11271161 41.8200187,8.43152642 41.8200187,8.43152642 L39.9272616,10.930319" id="Fill-418" fill="#F1A076"></path>
                            <path d="M15.7048049,104.437199 C15.7048049,104.437199 11.7615049,127.447391 13.1218192,130.635087 C14.4821335,133.822109 17.0187905,135.470894 17.0187905,135.470894 C17.0187905,135.470894 12.6860621,133.966361 11.2310764,133.110961 C10.525405,132.69708 8.26000498,130.664072 8.26000498,130.664072 C8.26000498,130.664072 9.22753355,125.871406 8.72194783,121.771688 C8.31170498,118.451199 8.09617641,114.312384 8.40167641,109.265591 C8.70717641,104.220147 9.40680498,102.920532 9.40680498,102.920532 L15.7048049,104.437199" id="Fill-419" fill="#FEB08A"></path>
                            <path d="M8.02634783,130.194917 C8.02634783,130.194917 14.2028192,134.689643 15.6692192,134.821761 L18.4240905,135.629976 C18.4240905,135.629976 16.6226477,136.893865 14.6258192,136.653894 C12.6276478,136.414598 11.3203764,134.649198 11.3203764,134.649198 L9.99833355,134.258909 L10.4072335,136.242035 L7.63087645,135.52145 L8.02634783,130.194917" id="Fill-420" fill="#1D1119"></path>
                            <path d="M30.8226903,104.139932 C30.8226903,104.139932 29.5160904,127.451436 31.229576,130.46185 C32.9430617,133.473613 35.6502617,134.821761 35.6502617,134.821761 C35.6502617,134.821761 31.1745189,133.821435 29.6315761,133.139272 C28.8842761,132.807628 26.4026761,131.046946 26.4026761,131.046946 C26.4026761,131.046946 26.8203047,126.174739 25.8527761,122.159954 C25.0685475,118.908221 24.3843619,114.82131 24.115119,109.771821 C23.8458762,104.724354 24.3937619,103.353962 24.3937619,103.353962 L30.8226903,104.139932" id="Fill-421" fill="#FEB08A"></path>
                            <path d="M26.1179904,130.608798 C26.1179904,130.608798 32.7637903,134.367435 34.2355617,134.330361 L37.0642902,134.818391 C37.0642902,134.818391 35.4179474,136.280457 33.4070188,136.270346 C31.3947475,136.260909 29.8954475,134.656613 29.8954475,134.656613 L28.5378189,134.420013 L29.1689618,136.343146 L26.328819,135.945443 L26.1179904,130.608798" id="Fill-422" fill="#1D1119"></path>
                            <polyline id="Fill-423" fill="#273976" points="16.6065334 60.6277774 29.8457618 60.3102885 34.5450903 104.765473 6.20140502 104.28688 7.63087645 61.4690219 16.6065334 60.6277774"></polyline>
                            <path d="M11.1411049,28.4623113 C11.1411049,28.4623113 8.07066212,29.1195334 7.35156217,31.1107483 C6.6331336,33.101963 6.3840336,46.7020813 6.24706217,51.6646144 C6.11009074,56.6284959 3.20683365,62.3432959 5.04251936,63.3207033 C6.87686217,64.2987848 7.42206217,64.9998219 7.42206217,64.9998219 L7.32000502,67.5107478 C7.32000502,67.5107478 14.5029477,65.5532367 18.0245905,65.2006959 C21.5462334,64.8488293 30.6024617,64.1875626 30.6024617,64.1875626 L30.4923475,62.0608589 C30.4923475,62.0608589 31.0993189,61.6934885 31.0476189,56.8192589 C31.2960475,53.3322737 31.0476189,40.9448147 31.0476189,40.9448147 C31.0476189,40.9448147 40.3213902,36.9131778 41.7951758,34.7729926 C43.2689615,32.6341556 49.4937759,13.6077411 49.4937759,13.6077411 L44.6789615,12.0256893 L44.1901615,12.8595189 L39.993733,10.4456597 C39.993733,10.4456597 34.2496617,21.4101484 31.4061617,21.9810891 C28.5633332,22.5520299 20.5196191,24.8620817 18.861862,25.4134743 C17.2034334,25.9655409 16.6864334,26.621415 16.6864334,26.621415 L18.1575334,28.1562816 C18.1575334,28.1562816 18.6423048,29.8016964 16.0754335,29.9648223 C14.077262,30.0922223 11.1411049,28.4623113 11.1411049,28.4623113" id="Fill-424" fill="url(#linearGradient-1)"></path>
                            <path d="M10.9759335,32.1852223 C10.8711906,32.1852223 10.7839049,32.1036593 10.7772737,31.9978297 C10.7718192,31.8872815 10.8550764,31.7935852 10.9651906,31.7868445 C11.1337192,31.7774075 27.9288332,30.781126 32.4932046,27.9169853 C37.0582474,25.0535187 43.5596901,13.2902523 43.6248187,13.1716152 C43.6771901,13.0745485 43.7993901,13.0401708 43.8940615,13.0934226 C43.9900758,13.1466745 44.0249901,13.2680078 43.9719473,13.3644004 C43.7040473,13.851756 37.3550188,25.3373039 32.7033617,28.2553705 C28.0530475,31.1734371 11.6822764,32.1447778 10.9873478,32.1852223 L10.9759335,32.1852223" id="Fill-425" fill="#1D1119"></path>
                            <path d="M19.2788191,43.9309628 C16.775062,43.9309628 13.7187192,43.1031999 12.3651192,41.0647999 C12.3040192,40.9731258 12.3288621,40.8490962 12.4201764,40.7891036 C12.5108192,40.7277629 12.6336906,40.7520295 12.6954621,40.8443777 C14.3042049,43.2669999 18.6846048,43.8696221 21.0990619,43.3586739 C23.5591762,42.840311 28.9306046,41.6694444 28.9306046,41.6694444 L29.0152046,42.0583851 C29.0152046,42.0583851 23.6417619,43.2292517 21.1809762,43.7496369 C20.6210048,43.8682739 19.9703905,43.9309628 19.2788191,43.9309628" id="Fill-426" fill="#1D1119"></path>
                            <path d="M25.736619,30.0396446 L25.6345618,30.0120075 L21.9450619,27.8023928 C21.8510619,27.7457705 21.8195048,27.6237631 21.8759048,27.5293928 C21.9316334,27.4336742 22.0538333,27.4026668 22.1485047,27.4599631 L25.8380047,29.6689038 C25.9320047,29.7262001 25.9635618,29.8482075 25.9071618,29.9425779 C25.8695618,30.0052668 25.8037618,30.0396446 25.736619,30.0396446" id="Fill-427" fill="#1D1119"></path>
                            <path d="M8.31237641,65.0362219 C8.23449069,65.0362219 8.16063355,64.9910589 8.12907641,64.9142144 C8.08744783,64.8117552 8.13511926,64.6958144 8.23650498,64.6526737 C8.42719069,64.5744811 12.8633192,62.7457181 16.3352763,62.7457181 C16.3970477,62.7457181 16.4581477,62.7463922 16.5185763,62.7477404 C19.9596476,62.7996441 25.6406047,62.0150219 25.6976761,62.007607 C25.807119,61.9900811 25.9064904,62.0669256 25.9219333,62.1767996 C25.9367047,62.2853256 25.8615047,62.3871107 25.7534047,62.4012663 C25.6956618,62.4107033 19.9838191,63.2013922 16.5111905,63.1461181 C13.0942906,63.0867996 8.43524783,65.0018441 8.38824783,65.0220663 L8.31237641,65.0362219" id="Fill-428" fill="#1D1119"></path>
                            <path d="M44.468133,12.1018597 L49.3037616,13.5531411 L50.6513187,10.0445856 C50.6513187,10.0445856 53.600233,7.73655605 53.7358616,6.24752642 C53.8714902,4.75714869 53.1920044,4.25091907 53.1107616,3.69008945 C53.0301902,3.12858575 53.2309473,1.62472652 52.6051759,1.54923022 C51.9807473,1.474408 49.0533187,4.22058573 49.0533187,4.22058573 C49.0533187,4.22058573 49.515933,0.351400615 48.9734187,0.0204302502 C48.4322473,-0.309191966 47.1370615,3.45888205 47.1370615,3.45888205 C47.1370615,3.45888205 47.1471329,6.65331901 46.9040758,7.45142272 C46.6603472,8.24952642 44.468133,12.1018597 44.468133,12.1018597" id="Fill-429" fill="#FEB08A"></path>
                            <path d="M14.0262335,22.3295854 C14.0262335,22.3295854 11.9951621,20.059978 10.9880192,21.6804521 C9.98087641,23.3002521 17.1450191,28.1562816 19.7562048,25.8529705 C20.2886476,25.3824669 20.7834905,23.2052076 20.0684191,20.8250521 C19.9771048,20.5203706 21.0010334,19.1526744 20.6935191,19.085941 C19.5218762,18.830467 18.6590905,17.9501262 18.6335763,17.3731188 C18.546962,15.4547041 17.5794334,14.3040597 17.5794334,14.3040597 C17.5794334,14.3040597 15.7195763,14.6646892 14.8554477,16.2568522 C13.9913192,17.8490151 15.120662,20.5729484 14.5734477,21.451941 C14.0262335,22.3295854 14.0262335,22.3295854 14.0262335,22.3295854" id="Fill-430" fill="#FEB08A"></path>
                            <path d="M12.2791764,24.5526817 L11.8219335,28.9826964 C11.8219335,28.9826964 14.631862,31.2617409 18.0668905,29.1094223 C18.1541763,28.9712371 16.9738048,25.2233854 16.9738048,25.2233854 L13.3689049,22.7724521 L12.2791764,24.5526817" id="Fill-431" fill="#FEB08A"></path>
                            <path d="M12.6679335,26.6544446 L13.4132192,24.8128743 C13.4132192,24.8128743 10.3622478,22.1954447 11.4022906,21.5914743 C12.4416621,20.987504 13.8603906,22.4724891 13.8603906,22.4724891 C13.8603906,22.4724891 15.0709763,21.7936966 15.0756763,20.8681928 C15.0797049,19.9426892 14.7789049,17.0057485 15.9988906,15.8800448 C17.2182048,14.7543411 18.0178763,14.6255929 18.0178763,14.6255929 C18.0178763,14.6255929 16.8260905,11.7459485 13.2608049,12.5319189 C9.69619069,13.3178893 7.1454336,14.1416078 5.95364788,16.7347707 C4.7618622,19.3265855 4.95523364,21.6743854 6.11479074,23.2800298 C8.16197641,26.1158594 12.6679335,26.6544446 12.6679335,26.6544446" id="Fill-432" fill="#202C52"></path>
                            <path d="M13.8530049,12.1989263 C13.4964764,12.1989263 13.1070478,12.2400448 12.6827049,12.3337411 C9.32421926,13.0738745 6.65999074,13.8483856 5.45410502,16.4725559 C4.34154792,18.8897855 4.39660506,21.2342151 5.60316217,22.9045706 C7.44421931,25.4559409 11.3687192,26.1293409 11.9938192,26.221689 L12.6759906,24.537178 C12.2550049,24.1691335 10.3924621,22.4879928 10.473705,21.5995632 C10.4898193,21.4209336 10.5831478,21.2773558 10.7436192,21.1843336 C11.2384621,20.897178 12.0280621,20.9120077 12.7901335,20.9248151 C13.4246335,20.9356003 14.0779335,20.9477336 14.288762,20.7401188 C14.3377763,20.6929336 14.3606049,20.6349632 14.3606049,20.5587928 C14.3612763,20.4293706 14.3559049,20.260178 14.349862,20.0613262 C14.3095763,18.8136151 14.2350477,16.4900818 15.3200763,15.4877337 C16.2681335,14.6127855 16.9684334,14.3276523 17.2551334,14.2406967 C17.024162,13.7823263 16.0660335,12.1989263 13.8530049,12.1989263 Z M12.1375049,26.4677261 L12.0522335,26.457615 C12.0065764,26.4522224 7.47309074,25.8812816 5.4205336,23.0373632 C4.16496221,21.2989262 4.10251935,18.8715855 5.24931931,16.3775115 C6.49884788,13.6589708 9.21410498,12.8669337 12.6350335,12.1126448 C16.2479906,11.3158893 17.5062477,14.243393 17.5190048,14.2730523 L17.5733905,14.4044966 L17.4337334,14.4280892 C17.4337334,14.4280892 16.6461477,14.5709929 15.4724906,15.65423 C14.4633335,16.5864744 14.5358477,18.8419262 14.5747906,20.0539114 C14.5808335,20.2561336 14.5868763,20.4286966 14.5855335,20.560141 C14.5855335,20.696978 14.5385335,20.8115706 14.4458763,20.9018966 C14.1679049,21.1762447 13.5273621,21.1634373 12.7861049,21.1506299 C12.0871478,21.1384966 11.2975478,21.1236669 10.8557478,21.3798151 C10.7577192,21.4371114 10.7073621,21.5132817 10.6979621,21.6204595 C10.633505,22.3214966 12.2536621,23.8779335 12.8841335,24.4178669 L12.9452335,24.4711187 L12.1375049,26.4677261 L12.1375049,26.4677261 Z" id="Fill-433" fill="#273976"></path>
                            <path d="M0.517090839,18.275704 C-0.147623434,16.8318374 0.525147982,15.099467 2.01974796,14.4065189 C3.51367651,13.7135708 5.26341931,14.3229337 5.92746217,15.7668004 C6.59217645,17.211341 5.91940502,18.9430373 4.42480506,19.6359855 C2.93087652,20.3289336 1.18113369,19.7195707 0.517090839,18.275704" id="Fill-434" fill="#202C52"></path>
                            <path d="M3.1584908,13.5760597 C2.73750509,13.5760597 2.31584795,13.6690819 1.9197051,13.8531041 C1.22343369,14.1753115 0.689647982,14.7408596 0.416376557,15.4439189 C0.143776561,16.1463041 0.163919418,16.9019411 0.472105127,17.5719707 C1.10996226,18.957867 2.7965908,19.5449855 4.23076221,18.8776522 C4.92770507,18.5547707 5.46081931,17.9892225 5.73409074,17.2861633 C6.00601931,16.5837781 5.98654788,15.8288152 5.67769074,15.1587855 C5.36950502,14.4880818 4.80953364,13.9825263 4.1011765,13.7358152 C3.79500507,13.6293115 3.47674793,13.5760597 3.1584908,13.5760597 Z M2.99533365,19.3778151 C1.84853368,19.3778151 0.764176549,18.7462077 0.267990845,17.6670151 C-0.0670520067,16.9403633 -0.0885377205,16.1213633 0.206890846,15.3616818 C0.500976554,14.6033485 1.07639083,13.9953337 1.82503368,13.6475115 C2.57434795,13.3003634 3.40893365,13.2552004 4.17436221,13.5221337 C4.94180507,13.7890671 5.54810502,14.3364152 5.88247645,15.0637411 C6.21684788,15.7903929 6.2383336,16.6087189 5.94357645,17.3684003 C5.64949074,18.1260596 5.07474793,18.7354225 4.32610506,19.0825707 C3.89303364,19.2834447 3.43914793,19.3778151 2.99533365,19.3778151 L2.99533365,19.3778151 Z" id="Fill-435" fill="#273976"></path>
                            <path d="M17.2517763,26.639615 C16.864362,26.639615 15.5181477,26.5816446 14.4687049,25.8219631 C14.3794049,25.7579261 14.359262,25.6332224 14.4237192,25.5442447 C14.4868335,25.4545928 14.6110477,25.4336965 14.7003477,25.4990817 C15.7994763,26.294489 17.3283191,26.2446076 17.3410763,26.239889 C17.4652905,26.2405631 17.5438477,26.3207779 17.5478763,26.430652 C17.5525763,26.5405261 17.4673048,26.6335483 17.357862,26.6382668 C17.3491334,26.6382668 17.3122048,26.639615 17.2517763,26.639615" id="Fill-436" fill="#1D1119"></path>
                            <path d="M15.5221763,30.2688297 C13.5864477,30.2688297 11.4989764,28.9779779 11.3955764,28.9132668 C11.3022478,28.8546223 11.2740478,28.733289 11.3317906,28.6395927 C11.3908764,28.5458964 11.5117335,28.5162372 11.6057335,28.5755557 C11.6332621,28.5930816 14.4646763,30.3423038 16.431962,29.7450742 C17.3887477,29.4538742 17.7311763,29.0804371 17.851362,28.8202446 C17.978262,28.5438742 17.8862763,28.3281705 17.8822477,28.3194076 C17.8386048,28.2189705 17.8822477,28.1016816 17.9809477,28.0565187 C18.0796477,28.0100076 18.1964763,28.0524742 18.2428048,28.1515631 C18.2495191,28.1663928 18.4146905,28.5276964 18.2186334,28.9719112 C17.9997477,29.4673557 17.437762,29.8556223 16.5474477,30.125926 C16.2191192,30.2263631 15.872662,30.2688297 15.5221763,30.2688297" id="Fill-437" fill="#1D1119"></path>
                        </g>
                    </g>
                    <g id="Group-60" transform="translate(49.357143, 133.722222) scale(-1, 1) translate(-49.357143, -133.722222) translate(0.357143, 72.222222)">
                        <path d="M63.015531,89.3376226 L76.0705527,114.57654 L78.0287741,111.042976 C78.0287741,111.042976 75.8096691,104.142985 75.189672,101.685884 C74.5703127,99.2294237 69.6422289,86.8222483 69.016491,85.8853864 C68.3901153,84.9478842 63.015531,89.3376226 63.015531,89.3376226" id="Fill-187" fill="#FEB08A" fill-rule="nonzero"></path>
                        <path d="M82.4070256,116.560407 L81.293327,112.763651 L78.0102763,109.344073 L74.6124113,113.35023 C74.6124113,113.35023 75.738867,114.540038 74.6200656,116.865864 C73.5012646,119.19297 70.8362975,121.652632 70.8362975,121.652632 L78.1761191,118.582697 L78.8547991,114.596391 L80.3671584,113.459093 L81.771082,116.666068 L82.4070256,116.560407" id="Fill-188" fill="#FFCF5B" fill-rule="nonzero"></path>
                        <path d="M39.453089,89.735933 L42.6908517,117.988433 L45.7755288,115.387889 C45.7755288,115.387889 46.1512266,108.146581 46.444003,105.629285 C46.7374173,103.111989 46.5371302,89.7564248 46.2851766,88.6575493 C46.0319473,87.557393 39.453089,89.735933 39.453089,89.735933" id="Fill-189" fill="#FEB08A" fill-rule="nonzero"></path>
                        <path d="M47.9072473,122.108575 L48.2140565,118.163254 L46.3604438,113.793367 L41.7634075,116.320908 C41.7634075,116.320908 42.3936103,117.835384 40.5227753,119.60793 C38.6513026,121.381755 35.287882,122.727173 35.287882,122.727173 L43.2349439,122.484473 L45.2850167,119.00278 L47.1022716,118.482158 L47.274493,121.980501 L47.9072473,122.108575" id="Fill-190" fill="#FFCF5B" fill-rule="nonzero"></path>
                        <path d="M3.61381073,36.8439144 C3.61381073,36.8439144 5.9203021,38.2175088 6.27431282,38.3872069 C6.62832348,38.5569051 7.73372991,39.1934332 7.73372991,39.1934332 L10.1684305,45.1488775 C10.1684305,45.1488775 8.88825129,44.8863256 8.30397415,44.8402189 C7.71969705,44.7941123 7.13541991,44.8709567 6.70486634,44.5622982 C6.27431282,44.2536397 4.72176855,43.2809171 4.49022642,43.1726945 C4.25996,43.064472 2.92173575,42.678969 2.81457575,42.5553775 C2.7067779,42.4317861 1.76147364,41.6921583 1.86097935,41.1042983 C1.88458007,40.9653379 0.815531526,40.8065261 0.984563664,40.1059609 C1.1535958,39.4060361 1.58478722,39.6064721 1.58478722,39.6064721 L1.32262794,39.2670758 C1.32262794,39.2670758 0.0162965515,39.1434843 0.000350123368,38.6644873 C-0.0149584476,38.1861306 0.476829395,37.9856947 0.476829395,37.9856947 L3.61381073,36.8439144" id="Fill-191" fill="#F1A57E" fill-rule="nonzero"></path>
                        <path d="M3.30445003,34.5769925 L0.444936539,36.6908551 C0.363290827,36.7504095 0.40475154,36.9495647 0.40475154,36.9495647 L4.9112121,43.171403 C4.97117067,43.2540108 5.08662282,43.2725815 5.16890639,43.2117464 L8.02841986,41.0978838 C8.11070343,41.0383294 8.12856343,40.9224223 8.06924272,40.8391742 L3.5621443,34.6173359 C3.50218573,34.5347281 3.3867336,34.5161573 3.30445003,34.5769925" id="Fill-193" fill="#E8EEFB" fill-rule="nonzero"></path>
                        <path d="M3.38482003,34.688417 L0.538063678,36.7894721 L0.534874393,36.8944928 L5.0228371,43.0913567 L5.08853639,43.1016027 L7.94804991,40.9864594 L7.96654777,40.956362 L7.95825562,40.9198608 L3.45051931,34.6973822 L3.41288573,34.678171 L3.38482003,34.688417 Z M4.80150067,43.2514493 L0.294402257,37.029611 L0.270801544,36.977741 C0.257406545,36.9105021 0.221686545,36.6831706 0.364566541,36.580071 L3.22408003,34.4649277 C3.29360645,34.4156192 3.37525217,34.394487 3.46519002,34.4072944 C3.54874931,34.4220229 3.62337859,34.4681296 3.67249359,34.5372896 L8.17895415,40.7578471 C8.23062058,40.8276475 8.25103201,40.9121764 8.23763701,40.9973457 C8.22360415,41.0837957 8.17831629,41.158719 8.10942772,41.2086679 L5.24863853,43.3244515 C5.19186924,43.3647949 5.1255321,43.3852867 5.06110853,43.3852867 C4.96096496,43.3852867 4.86273496,43.3378993 4.80150067,43.2514493 L4.80150067,43.2514493 Z" id="Fill-194" fill="#0C5DF5" fill-rule="nonzero"></path>
                        <path d="M1.90435364,35.4254833 L1.54205079,35.6899562 C1.66069222,35.8526103 1.8469465,35.9986147 1.98599935,35.8897517 C2.11994934,35.784731 2.00385935,35.4645459 1.90435364,35.4254833" id="Fill-195" fill="#0C5DF5" fill-rule="nonzero"></path>
                        <polyline id="Fill-196" fill="#0C0C0C" fill-rule="nonzero" points="1.91455935 35.6528147 1.78571221 35.6316825 1.7665765 35.7610373 1.89542364 35.7828099 1.91455935 35.6528147"></polyline>
                        <path d="M10.9797848,41.2931968 L8.28164915,39.0467776 L7.5895742,38.6996969 L5.51334924,38.9078172 L4.31354,40.529235 C4.31354,40.529235 4.52275713,41.1702457 6.27431282,40.2743676 C6.81011277,40.000289 7.49708491,41.8720916 7.49708491,41.8720916 L9.27287915,43.0298812 L9.64156053,44.7204589 L13.6415626,42.6597471 L10.9797848,41.2931968 Z" id="Fill-197" fill="#FEB08A" fill-rule="nonzero"></path>
                        <g id="Group-2" transform="translate(42.858065, 13.949634) rotate(21.000000) translate(-42.858065, -13.949634) translate(31.858065, 3.449634)">
                            <path d="M15.8864695,17.2272704 C15.8864695,17.2272704 15.6615015,19.7401148 12.770733,20.1025643 C9.87996448,20.465014 6.94476571,21.6402074 8.5520835,20.169179 C9.62362873,19.1884934 9.42126294,17.652655 7.94498609,15.5616638 C11.0532693,9.72265729 12.8384463,8.064268 13.300517,10.586496 C13.7625876,13.1087239 14.6245718,15.3223154 15.8864695,17.2272704 Z" id="Fill-198" fill="#FEB08A" fill-rule="nonzero"></path>
                            <path d="M11.0687347,8.70073919 C11.0687347,8.70073919 11.429124,7.06715442 13.1762146,7.30857405 C14.9233053,7.55063405 11.1280554,15.5328505 8.71823119,16.3800604 C6.31032052,17.2272704 3.77994132,12.7510816 3.05661134,10.8767177 C2.33455708,9.00235363 0.947855686,5.91833002 3.84053774,5.13259558 C6.73194409,4.34686116 11.0687347,8.70073919 11.0687347,8.70073919" id="Fill-199" fill="#FFB69E" fill-rule="nonzero"></path>
                            <path d="M10.7919047,9.4493321 C9.60357686,9.279634 9.14863182,8.58800559 7.94795725,6.66904059 C6.74728269,4.75007558 4.75171979,8.58937984 1.79364351,7.72980607 C-0.00859588746,4.96898591 0.100136834,1.63108354 5.94526203,0.345708812 C11.7903872,-0.939665918 18.1132337,6.11476522 20.1522867,8.41809078 C23.1464068,11.8002654 20.9884779,14.7872533 15.1929631,16.2638464 C14.7483707,16.3771206 13.8262938,14.8358515 12.4267325,11.6400391 C12.4267325,11.6400391 13.7541132,8.55089252 12.7392825,7.53206331 C11.7244518,6.51323405 11.9789568,9.61838988 10.7919047,9.4493321 Z" id="Fill-202" fill="#202C52" fill-rule="nonzero"></path>
                            <path d="M1.9473778,6.90642146 C1.9473778,6.90642146 2.61011135,9.68370766 2.96093277,10.5046625 C3.31111633,11.3262576 4.79158271,14.026059 5.22022271,14.5735757 C5.64822486,15.1198116 7.71360619,16.8411271 8.49242976,16.4505012 C8.71706669,16.3376478 9.76688162,17.615523 8.87309878,18.0508377 C6.66810745,19.1247732 2.67439341,19.8978087 2.2032667,17.337868 C1.54053315,13.7389866 -4.54747351e-13,7.84520437 -4.54747351e-13,7.84520437 C-4.54747351e-13,7.84520437 0.5504707,5.61927706 1.20746354,5.34199669 C1.86445638,5.06407595 1.9473778,6.90642146 1.9473778,6.90642146 Z" id="Fill-203" fill="#202C52" fill-rule="nonzero"></path>
                            <path d="M9.10158328,15.8876156 C11.2128904,15.231236 11.4680332,13.4497257 11.469309,13.4317953" id="Fill-207" stroke="#0C0C0C" stroke-width="0.4" stroke-linecap="round" stroke-linejoin="round"></path>
                        </g>
                        <path d="M51.7114272,47.9191088 L36.4506955,49.7518489 L35.2764005,91.2632163 C35.2764005,91.2632163 35.7975298,93.7516956 45.841228,94.2755185 C55.8855644,94.8006222 63.060181,93.4910648 67.1035575,89.6930281 C71.1475718,85.894992 74.5390577,78.9546579 74.5390577,78.9546579 L51.7114272,47.9191088" id="Fill-200" fill="#273976" fill-rule="nonzero"></path>
                        <path d="M44.0903102,20.54968 C44.0903102,20.54968 42.4758939,23.2014536 40.8621153,23.127811 C39.2483368,23.0541684 37.1210833,22.0961744 37.1210833,22.0961744 C37.1210833,22.0961744 33.8935263,24.8203098 32.1317649,27.1045109 C30.3712792,29.3867908 28.5221314,34.8088066 27.202405,36.7222332 C25.880765,38.6382213 26.4714208,42.8025497 22.5096902,40.7405571 C18.5485974,38.6785646 18.5352024,38.9641698 17.3602696,41.7632286 C16.9679875,42.6981693 11.5315312,40.0015698 11.5315312,40.0015698 L8.47555772,44.2625941 C8.47555772,44.2625941 15.3573982,47.974821 15.8887332,48.8073026 C18.6047289,53.0689674 17.8284567,53.5428414 21.7161959,53.0273433 C25.604573,52.5124855 27.6584729,53.7644096 29.2722514,50.9666314 C30.8860299,48.1669322 34.9198384,42.7180208 34.9198384,42.7180208 L36.7536776,50.37621 C36.7536776,50.37621 50.4714329,50.007997 51.9391422,47.9460044 C53.4062137,45.8840118 53.8463351,46.4731526 53.1861529,43.8963023 C52.5253329,41.3175308 53.9930422,38.9603276 53.9930422,38.9603276 L57.3060722,41.1145334 C57.3060722,41.1145334 58.9944796,41.7721938 59.5806703,46.2643918 C60.1681368,50.7572303 61.1478853,48.3616048 63.9359589,49.9087396 C65.8488925,50.9698333 67.6132053,55.0092891 67.6132053,55.0092891 L71.7752232,54.2805481 C71.7752232,54.2805481 69.8642032,49.5257981 70.1295518,49.3740303 C72.3307968,48.1214658 73.2678089,48.6600174 71.5813146,44.9048856 C69.8935446,41.1478327 67.6380818,40.7290305 65.5101903,38.298825 C63.3822989,35.8679791 56.2868921,26.7140971 56.2868921,26.7140971 C56.2868921,26.7140971 53.4994564,23.620468 52.032385,22.5894717 C50.5653135,21.5591158 44.0903102,20.54968 44.0903102,20.54968 Z" id="Fill-201" fill="url(#linearGradient-2)" fill-rule="nonzero"></path>
                        <path d="M34.9740562,42.9184567 C34.8783777,42.9184567 34.7865262,42.8633849 34.743152,42.7698908 C34.7284812,42.7365915 33.2371713,39.4796679 32.7179556,38.2463146 C32.269542,37.1768962 32.8314941,36.0024569 33.4814706,34.643591 C33.6619841,34.2664129 33.8495141,33.8745063 34.024287,33.4646692 C34.7756827,31.7042911 34.7214648,29.2766472 34.7201891,29.2529535" id="Fill-206" stroke="#0C0C0C" stroke-width="0.4" stroke-linecap="round" stroke-linejoin="round"></path>
                        <path d="M16.6763281,47.3297473 C16.5385358,47.3315064 16.4217189,47.2193762 16.417798,47.0804297 C16.4138647,46.9229147 16.3195083,43.2072234 17.0757419,41.7286531 C17.5815953,40.7378183 18.0047878,40.149673 18.2656503,40.0723732 L18.3785593,40.0647657 C18.3983374,40.0679805 20.3723184,40.3920187 22.4683376,41.0036313 C23.405007,41.2783083 23.7978242,41.0557505 24.1740602,40.8408651 C24.5898321,40.6023154 25.0209106,40.3580135 25.8908308,40.9809656 C27.5406804,42.1634201 26.7631698,43.3064619 26.7555224,43.317982" id="Fill-208" stroke="#0C0C0C" stroke-width="0.4" stroke-linecap="round" stroke-linejoin="round" transform="translate(21.678623, 43.697257) rotate(10.000000) translate(-21.678623, -43.697257) "></path>
                        <path d="M16.0488354,43.4506045 L15.9557082,43.4326741 L11.1405248,41.5122034 C11.0097641,41.4596931 10.9459784,41.3117675 10.9976448,41.1804916 C11.0493112,41.0485753 11.197932,40.9870997 11.3286926,41.037689 L16.1432382,42.9581597 C16.2739989,43.0100297 16.3377846,43.1579552 16.2854803,43.2892312 C16.2459332,43.3897693 16.1502546,43.4506045 16.0488354,43.4506045" id="Fill-209" fill="#1D1119" fill-rule="nonzero"></path>
                        <path d="M15.389929,44.7089322 L15.2891475,44.6884404 L10.8700734,42.7679697 C10.7405884,42.7116171 10.6812677,42.5611301 10.7373991,42.4317752 C10.7928927,42.3017801 10.9427891,42.2403046 11.0722741,42.2985783 L15.4907104,44.2190489 C15.6201954,44.2747611 15.6788782,44.4258885 15.6233847,44.5552433 C15.581924,44.6519393 15.488159,44.7089322 15.389929,44.7089322" id="Fill-210" fill="#1D1119" fill-rule="nonzero"></path>
                        <path d="M14.7310225,45.96726 L14.6123811,45.9384433 L10.456742,43.7528593 C10.331722,43.6862608 10.2838827,43.5325719 10.349582,43.4076997 C10.4152812,43.2821871 10.5702805,43.2360804 10.693387,43.2994771 L14.8490261,45.4857015 C14.9734082,45.5510193 15.0212475,45.7059889 14.9561861,45.8308611 C14.9102604,45.9179514 14.8222361,45.96726 14.7310225,45.96726" id="Fill-211" fill="#1D1119" fill-rule="nonzero"></path>
                        <path d="M70.5333153,53.4493474 C70.4344475,53.4493474 70.3400446,53.3910737 70.2992218,53.293097 L68.9131582,49.9811014 C68.8589403,49.8517466 68.9201746,49.7019 69.0496596,49.6474685 C69.1785068,49.5943177 69.3284032,49.6545126 69.382621,49.7838674 L70.7686846,53.0958629 C70.8229025,53.2252177 70.7616682,53.3750644 70.6321832,53.4294959 L70.5333153,53.4493474" id="Fill-212" fill="#1D1119" fill-rule="nonzero"></path>
                        <path d="M69.016491,53.7151011 C68.9125203,53.7151011 68.8149282,53.651064 68.7772946,53.5466837 L67.6565796,50.4338433 C67.6081025,50.3012866 67.676991,50.1552822 67.8090275,50.1072544 C67.9417018,50.0579459 68.0871332,50.1271059 68.1356103,50.2603029 L69.2563253,53.3725029 C69.3041646,53.5057 69.235276,53.6517044 69.1032396,53.6997322 L69.016491,53.7151011" id="Fill-213" fill="#1D1119" fill-rule="nonzero"></path>
                        <path d="M68.0935118,53.9136159 C68.0010225,53.9136159 67.9117225,53.8630266 67.8670725,53.7746555 L66.2832732,50.6624555 C66.2201253,50.5369429 66.2698782,50.383254 66.3948982,50.319217 C66.520556,50.25518 66.6730039,50.3051289 66.7367896,50.4306414 L68.3205889,53.5422011 C68.3837368,53.6677137 68.3339839,53.8220429 68.2089639,53.88608 L68.0935118,53.9136159" id="Fill-214" fill="#1D1119" fill-rule="nonzero"></path>
                        <path d="M72.6988403,62.8941695 L72.4532653,61.7248532 C72.4532653,61.7248532 72.9788596,61.2503387 73.191266,61.3739302 C73.4585282,61.5301806 73.3749689,63.0734732 73.3749689,63.0734732 L72.6988403,62.8941695 Z M74.0294098,64.9414336 C74.5365063,64.7634106 75.6776327,61.2964454 75.6916656,60.880845 C75.743332,59.5437517 72.6452603,57.0802469 72.4283889,56.6537602 C72.2083282,56.2343176 71.521356,54.325374 71.521356,54.325374 L68.0692732,54.9292428 L69.6403153,57.5304273 C69.6403153,57.5304273 70.128276,59.796698 70.101486,60.2910639 C70.0772475,60.7790261 71.1265225,62.8768795 71.1265225,62.8768795 C71.1265225,62.8768795 70.1078646,62.6469865 70.1046753,63.1445543 C70.0995725,63.6485258 71.3669946,63.9917643 71.3669946,63.9917643 C71.3669946,63.9917643 72.0654482,65.5222495 72.6395196,65.588848 C73.2142289,65.6554465 73.1804225,64.6910487 73.1804225,64.6910487 C73.1804225,64.6910487 73.8265713,65.0125147 74.0294098,64.9414336 L74.0294098,64.9414336 Z" id="Fill-236" fill="#FEB08A" fill-rule="nonzero"></path>
                        <g id="Group-61" transform="translate(48.379899, 57.467566)" fill-rule="nonzero">
                            <polyline id="Fill-215" fill="#BDBDBD" points="30.4021841 32.2504374 30.1591605 35.7289291 30.5233769 36.003648 35.4476339 35.1493939 30.4021841 32.2504374"></polyline>
                            <polyline id="Fill-216" fill="#FDDA64" points="43.5318351 20.3914188 45.1245644 22.9221625 45.5155708 22.9266451 48.4905364 19.8221296 43.5318351 20.3914188"></polyline>
                            <polyline id="Fill-217" fill="#C19311" points="48.4905364 19.8221296 34.313524 4.96169522 33.3561004 5.9529885 43.6568551 20.9165225 48.4905364 19.8221296"></polyline>
                            <path d="M26.5686628,11.6016954 L26.4455564,11.5331758 C26.3301042,11.3442665 23.61666,6.88792924 24.1397029,4.85795522 C24.2360193,4.48205782 24.4375821,4.20541783 24.7380129,4.03636006 C26.8244435,2.85999972 31.5560677,7.40598883 31.7563548,7.60066142 C31.813124,7.65573327 31.8156755,7.7479466 31.759544,7.80557994 C31.705964,7.86321327 31.6134748,7.86513438 31.5560677,7.80878179 C31.5082284,7.76267512 26.781707,3.21412453 24.8796171,4.28866597 C24.6467993,4.41930152 24.496265,4.629343 24.4190843,4.93031707 C23.9272964,6.84118221 26.6643414,11.3359417 26.6924071,11.3807676 C26.7338678,11.4492872 26.7121807,11.5382987 26.6445678,11.5805632 L26.5686628,11.6016954" id="Fill-218" fill="#130C5C"></path>
                            <path d="M22.4053693,13.3787231 L33.4645361,4.50767264 C33.4645361,4.50767264 33.6565311,4.79391818 33.9926819,5.29468781 C36.2685561,8.69057179 45.1430622,21.9545628 45.5155865,22.9266451 C45.5270522,22.8530025 32.938304,30.2518415 32.938304,30.2518415 L22.4053693,13.3787231" id="Fill-219" fill="#FFCF5B"></path>
                            <path d="M30.7466269,8.46259994 C30.6337262,8.30827068 30.6668948,8.09182549 30.8206184,7.97912031 C30.9737041,7.86577475 31.1892998,7.89907401 31.3022005,8.0527629 C31.4151012,8.20645179 31.3819327,8.42353734 31.2288469,8.53624253 C31.0757612,8.64958809 30.8595277,8.61628883 30.7466269,8.46259994" id="Fill-220" fill="#C19311"></path>
                            <path d="M25.8950857,12.0979824 L25.7656007,12.0166554 C25.6335642,11.7464191 22.5661093,5.372813 24.6761407,4.17916265 C26.7657606,2.99896009 30.9182105,7.89907401 31.0936212,8.10783475 C31.1452877,8.16931031 31.1369955,8.26088327 31.0757612,8.3121129 C31.0151648,8.36206179 30.9245891,8.35565809 30.8729227,8.2948229 C30.8301862,8.24551438 26.7000614,3.36140971 24.8171071,4.43210893 C23.2613736,5.31133744 25.1615499,10.1141151 26.0245707,11.8898621 C26.0596528,11.9622239 26.0296735,12.0486739 25.9588714,12.0838943 L25.8950857,12.0979824" id="Fill-222" fill="#130C5C"></path>
                            <polyline id="Fill-223" fill="#6A90F6" points="12.0433804 26.7970434 9.969069 28.9474071 10.0570933 29.3309889 13.763681 31.4999233 12.0433804 26.7970434"></polyline>
                            <polyline id="Fill-224" fill="#3858D8" points="13.763681 31.4999233 24.80435 14.1638172 23.6185736 13.463252 11.5643497 27.0423053 13.763681 31.4999233"></polyline>
                            <path d="M21.5225751,12.3637361 L21.4498594,12.3438846 C21.3809708,12.3041816 21.3573701,12.2151702 21.3981929,12.1460102 C21.4313615,12.0890172 24.7182393,6.40124776 23.2313943,4.80096226 C23.049605,4.60500893 22.8110465,4.50767264 22.5016858,4.50319004 C20.5051929,4.50319004 16.8292224,8.20389031 16.7922267,8.24167216 C16.7360952,8.29994586 16.6442438,8.29866512 16.5881124,8.2429529 L16.5874745,8.03867475 C16.7424738,7.88114364 20.3865515,4.21310227 22.4787229,4.21310227 C22.8926922,4.21950597 23.2065179,4.3507819 23.4418872,4.60308782 C25.0748014,6.36026406 21.7879237,12.050595 21.6463194,12.2920146 L21.5225751,12.3637361" id="Fill-225" fill="#130C5C"></path>
                            <path d="M13.8478781,4.53136634 L25.0435464,13.2282361 C25.0435464,13.2282361 24.8113664,13.4837439 24.4056893,13.9294416 C21.6558872,16.9513493 10.9099082,28.738006 10.0570933,29.3309889 C10.1310847,29.3239449 5.68434189e-14,18.7872911 5.68434189e-14,18.7872911 L13.8478781,4.53136634" id="Fill-226" fill="#436DF6"></path>
                            <path d="M15.5528702,7.58721364 C15.5528702,7.36436475 15.7321081,7.18378036 15.9540824,7.18378036 C16.1754188,7.18378036 16.3552945,7.36436475 16.3552945,7.58721364 C16.3552945,7.80942216 16.1754188,7.98936623 15.9540824,7.98936623 C15.7321081,7.98936623 15.5528702,7.80942216 15.5528702,7.58721364" id="Fill-227" fill="#3858D8"></path>
                            <path d="M20.8834422,11.8239039 L20.7973315,11.7957276 C20.7341837,11.7489806 20.7201508,11.658048 20.7673522,11.5927302 C20.8049858,11.5408602 24.5562236,6.36474665 23.0770329,4.7740667 C21.8580879,3.46322859 17.6584366,6.44991591 16.1428881,7.71208586 C16.0822917,7.76203475 15.9904402,7.75435031 15.9394117,7.69351512 C15.8883831,7.6313992 15.8973131,7.53982623 15.9579095,7.48923697 C16.1900895,7.29584512 21.6399408,2.80044528 23.2881636,4.57619226 C24.9287321,6.34169332 21.1609101,11.5440621 20.9995322,11.7649898 L20.8834422,11.8239039" id="Fill-229" fill="#130C5C"></path>
                            <polygon id="Fill-230" fill="#D8D8D8" points="35.4476339 10.8588658 31.731014 10.4960973 30.1591605 32.8299725 35.4476339 35.1493939"></polygon>
                            <path d="M27.9687592,12.2644787 C27.8985949,12.2644787 27.8379985,12.2151702 27.826517,12.1447294 C27.813122,12.0685254 26.4946714,4.50639189 23.9566379,4.19773339 C23.6396229,4.15931116 23.3493979,4.2534456 23.0649136,4.48654041 C21.2827408,5.94594443 20.7641629,12.0704465 20.7590601,12.131922 C20.7507679,12.2113279 20.6825172,12.270242 20.6034229,12.2644787 C20.5236908,12.2574346 20.4650079,12.1882746 20.4707487,12.1082283 C20.4917979,11.8520802 21.0059108,5.79993999 22.8831243,4.26177042 C23.2262915,3.98064784 23.603265,3.86153895 23.9904443,3.91020709 C26.7408842,4.24448042 28.0555078,11.7758761 28.1103635,12.0960613 C28.1250342,12.1748268 28.072092,12.2497502 27.9923599,12.2625576 L27.9687592,12.2644787" id="Fill-231" fill="#130C5C"></path>
                            <path d="M15.3870274,11.0420117 L31.8609633,10.3702632 C31.8609633,10.3702632 31.8456548,10.7724158 31.8163133,11.4755424 C31.621129,16.2386171 30.8416677,34.8336914 30.5233769,36.003648 C30.5846112,35.9428128 13.6845868,34.1728292 13.6845868,34.1728292 L15.3870274,11.0420117" id="Fill-232" fill="url(#radialGradient-3)"></path>
                            <path d="M26.5935392,12.2017224 C26.5935392,11.9788735 26.7740528,11.7989295 26.9953892,11.7989295 C27.2173635,11.7989295 27.3972392,11.9788735 27.3972392,12.2017224 C27.3972392,12.4239309 27.2173635,12.6045153 26.9953892,12.6045153 C26.7740528,12.6045153 26.5935392,12.4239309 26.5935392,12.2017224" id="Fill-233" fill="#3C41C7"></path>
                            <path d="M19.2409601,12.2017224 C19.2409601,11.9788735 19.420198,11.7989295 19.6421723,11.7989295 C19.8635087,11.7989295 20.0440223,11.9788735 20.0440223,12.2017224 C20.0440223,12.4239309 19.8635087,12.6045153 19.6421723,12.6045153 C19.420198,12.6045153 19.2409601,12.4239309 19.2409601,12.2017224" id="Fill-234" fill="#3C41C7"></path>
                            <path d="M19.6421723,12.2644787 C19.5375637,12.2484694 19.4858973,12.1735461 19.4992923,12.0947806 C19.5624401,11.7502613 21.0556637,3.67134896 23.8335314,4.00178006 C26.5954528,4.33797449 27.1191335,11.7931661 27.1395449,12.1107898 C27.1446478,12.1908361 27.0846892,12.2593557 27.0055949,12.2644787 C26.920122,12.2644787 26.8556985,12.206205 26.8518713,12.1293605 C26.8467685,12.0544372 26.3250014,4.59732448 23.7990871,4.28866597 L23.6606721,4.28034116 C21.2342637,4.28034116 19.7978094,12.0659639 19.7837766,12.1460102 C19.7710194,12.2158105 19.710423,12.2644787 19.6421723,12.2644787" id="Fill-235" fill="#130C5C"></path>
                            <path d="M24.25962,4.16189177 C24.2940643,3.27049624 23.2943295,1.90415299 21.2604158,0.0628620248 C21.2604158,0.0628620248 21.7483765,2.3291327 21.7215865,2.82349861 C21.6973479,3.31146082 22.7466229,5.40931411 22.7466229,5.40931411 C22.7466229,5.40931411 22.987095,6.52419887 22.987095,6.52419887 C22.987095,6.52419887 23.6855486,8.05468401 24.25962,8.12128253 C24.8343293,8.18788105 24.8005229,7.22348332 24.8005229,7.22348332 C24.8005229,7.22348332 24.2455871,4.57749213 24.25962,4.16189177 Z" id="Path" fill="#FEB08A"></path>
                        </g>
                    </g>
                    <g id="Group-59" transform="translate(19.704082, 0.000000)">
                        <path d="M1.84575711,0 L44.1229278,0 C45.1428278,0 45.9686849,0.959881467 45.9686849,2.14422959 L45.9686849,59.3542435 C45.9686849,60.5385916 45.1428278,61.4984731 44.1229278,61.4984731 L1.84575711,61.4984731 C0.825857128,61.4984731 0,60.5385916 0,59.3542435 L0,2.14422959 C0,0.959881467 0.825857128,0 1.84575711,0" id="Fill-237" stroke="#222D57" stroke-width="0.4" stroke-linecap="round" stroke-linejoin="round"></path>
                        <path d="M32.2285709,8.24662208 C32.2285709,5.18160731 34.7047994,2.69629625 37.7591279,2.69629625 C40.812785,2.69629625 43.289685,5.18160731 43.289685,8.24662208 C43.289685,11.3123109 40.812785,13.797622 37.7591279,13.797622 C34.7047994,13.797622 32.2285709,11.3123109 32.2285709,8.24662208" id="Fill-239" stroke="#222D57" stroke-width="0.4"></path>
                        <path d="M16.6220728,13.7104891 C16.6220728,13.7104891 18.1505671,20.7721068 22.4377292,21.1161054 C26.7248913,21.4593004 28.4739187,13.7104891 28.4739187,13.7104891 C28.4739187,13.7104891 30.081805,12.7379695 32.655225,14.8011578 C28.7161041,24.1381499 33.3120124,30.1388371 33.3120124,30.1388371 L34.9142855,53.2518509 L11.4142855,53.2518509 L11.9299318,30.0423889 C11.9299318,30.0423889 16.1986494,27.3506796 12.9957078,15.0872876 C14.8289387,13.7104891 16.6220728,13.7104891 16.6220728,13.7104891" id="Fill-240" stroke="#202C52" stroke-width="0.4" fill="#FFBF00" fill-rule="nonzero"></path>
                        <path d="M37.7698708,6.60390361 C37.7698708,6.60390361 36.7157279,4.75357029 35.2862565,5.69794805 C32.1513566,7.76668134 37.7497279,11.7470887 37.7497279,11.7470887 C37.7497279,11.7470887 43.2581279,7.66489615 40.3259993,5.69794805 C38.8871279,4.73267399 37.7698708,6.60390361 37.7698708,6.60390361" id="Fill-241" fill="#DB5133" fill-rule="nonzero"></path>
                    </g>
                </g>
                <g id="Group-69" transform="translate(157.000000, 29.000000)">
                    <path d="M0.753435157,0 L16.2469166,0 C16.5958039,0 16.8785714,0.491819312 16.8785714,1.09781682 L16.8785714,14.660087 C16.8785714,15.2657565 16.5958039,15.7575758 16.2469166,15.7575758 L0.753435157,15.7575758 C0.403844424,15.7575758 0.121428571,15.2657565 0.121428571,14.660087 L0.121428571,1.09781682 C0.121428571,0.491819312 0.403844424,0 0.753435157,0" id="Fill-131" stroke="#222D57" stroke-width="0.4" stroke-linecap="round" stroke-linejoin="round"></path>
                    <path d="M14.1846244,3.03326444 C14.2449678,2.82187764 14.44058,2.66666667 14.6719965,2.66666667 C14.951021,2.66666667 15.1785714,2.89288216 15.1785714,3.17105653 C15.1785714,3.44887744 14.951021,3.6754464 14.6719965,3.6754464 C14.4480657,3.6754464 14.2576604,3.52988735 14.1909015,3.32904731 L12.3964919,3.40787588 C12.3826471,3.40787588 12.1430269,3.40186704 12.0940379,3.55597634 C12.0123895,3.81647763 10.0478587,11.1748436 10.0283341,11.2490706 L9.98466999,11.3204699 C9.71274537,11.5668327 9.58530293,11.6824146 9.49087482,11.6824146 L9.45857045,11.6778196 L9.07545471,11.6778196 C9.25268709,11.7908107 9.37053221,11.9887419 9.37053221,12.2133141 C9.37053221,12.5635947 9.08440793,12.8484848 8.7333199,12.8484848 C8.38187691,12.8484848 8.09575263,12.5635947 8.09575263,12.2133141 C8.09575263,11.9887419 8.21359775,11.7908107 8.39092392,11.6778196 L6.65421533,11.6778196 C6.83163535,11.7908107 6.94948047,11.9887419 6.94948047,12.2133141 C6.94948047,12.5635947 6.66335619,12.8484848 6.31155819,12.8484848 C5.96011519,12.8484848 5.67399091,12.5635947 5.67399091,12.2133141 C5.67399091,11.9887419 5.79183603,11.7908107 5.96916221,11.6778196 L5.4631251,11.6778196 C5.38112176,11.6778196 5.31402806,11.6110154 5.31402806,11.5293657 C5.31402806,11.4477161 5.38112176,11.3812653 5.4631251,11.3812653 L9.45786048,11.3812653 C9.49158479,11.3561695 9.57287816,11.2921929 9.75179461,11.1306609 C9.78664039,11.0001 9.88455621,10.6333704 10.0199505,10.1266557 L6.49444904,10.106242 L6.49331456,10.1063289 C6.49121715,10.1063289 6.48912795,10.1062853 6.48704797,10.1061991 L4.31188306,10.0936042 C4.24656436,10.0932508 4.18870051,10.0504819 4.17024088,9.98791918 L2.80174316,5.4501777 C2.79697407,5.43427733 2.79502898,5.41818657 2.79561749,5.40244199 C2.79372591,5.39285135 2.79285714,5.3829281 2.79285714,5.37276955 C2.79322333,5.2911199 2.85925202,5.22502255 2.94161037,5.22502255 L11.3235382,5.2591951 C11.5871442,4.27883404 11.7845946,3.54936244 11.8103986,3.46725745 C11.9044717,3.16822884 12.2310652,3.10566612 12.3968469,3.11202843 L14.1846244,3.03326444 Z M7.8087323,8.30699952 L7.8383924,6.99581508 L6.26856081,6.98602419 L6.43356573,8.29471152 L7.8087323,8.30699952 Z M7.80202843,8.60336 L6.47097287,8.59139535 L6.62472441,9.81082996 L7.77456415,9.81747491 L7.80202843,8.60336 Z M5.13903015,8.283144 L6.13347736,8.29203001 L5.96848425,6.98415268 L4.8059888,6.9769023 L5.13903015,8.283144 Z M5.21474335,8.58010332 L5.52691371,9.80448572 L6.32486039,9.80909707 L6.170903,8.58869808 L5.21474335,8.58010332 Z M9.23498747,8.31974405 L9.47160712,7.00600131 L8.13610699,6.9976719 L8.10653199,8.30966056 L9.23498747,8.31974405 Z M9.18167144,8.61576136 L8.09985099,8.60603704 L8.07250382,9.8191967 L8.96399144,9.82434861 L9.18167144,8.61576136 Z M10.5000515,8.33104819 C10.6147545,7.90235142 10.7342991,7.45579704 10.8525049,7.01461382 L9.77360202,7.0078848 L9.53681674,8.32244107 L10.5000515,8.33104819 Z M10.4209025,8.62690061 L9.48349352,8.61847442 L9.26597031,9.82609377 L10.0506987,9.8306287 C10.0669035,9.83069828 10.082476,9.83335408 10.0970352,9.83819501 C10.1934324,9.47750187 10.3037391,9.06490095 10.4209025,8.62690061 Z M3.96375303,8.27264213 L4.831468,8.28039573 L4.49853618,6.97498473 L3.57074405,6.96919821 L3.96375303,8.27264213 Z M4.05330964,8.56966337 L4.42370583,9.79811025 L5.21971891,9.8027104 L4.90720033,8.57733886 L4.05330964,8.56966337 Z M7.84509652,6.69944393 L7.87129085,5.54147127 L6.08551676,5.53426507 L6.23116771,6.68945207 L7.84509652,6.69944393 Z M4.73033105,6.68016044 L5.93107244,6.68759418 L5.78542334,5.53305411 L4.43647524,5.52761067 L4.73033105,6.68016044 Z M9.52494841,6.70984383 L9.73403146,5.54898802 L8.16890577,5.54267224 L8.14278813,6.70128693 L9.52494841,6.70984383 Z M10.9318435,6.71855394 C11.0398182,6.31571874 11.1454824,5.92185435 11.244015,5.55508131 L10.0332545,5.55019549 C10.0334514,5.55997125 10.0326669,5.56991025 10.0308191,5.57989813 L9.82695006,6.71171355 L10.9318435,6.71855394 Z M3.48126297,6.67242744 L4.42285874,6.67825687 L4.12908175,5.52637023 L3.13449843,5.52235675 L3.48126297,6.67242744 Z M6.31155819,11.8746978 C6.12412192,11.8746978 5.97147498,12.0266864 5.97147498,12.2133141 C5.97147498,12.4006489 6.12412192,12.5522839 6.31155819,12.5522839 C6.49934946,12.5522839 6.6519964,12.4006489 6.6519964,12.2133141 C6.6519964,12.0266864 6.49934946,11.8746978 6.31155819,11.8746978 Z M8.7333199,11.8746978 C8.54588363,11.8746978 8.3932367,12.0266864 8.3932367,12.2133141 C8.3932367,12.4006489 8.54588363,12.5522839 8.7333199,12.5522839 C8.92075617,12.5522839 9.07304814,12.4006489 9.07304814,12.2133141 C9.07304814,12.0266864 8.92075617,11.8746978 8.7333199,11.8746978 Z M14.6719965,2.96286758 C14.5566238,2.96286758 14.4632607,3.05618148 14.4632607,3.17105653 C14.4632607,3.28557813 14.5566238,3.37924548 14.6719965,3.37924548 C14.7870142,3.37924548 14.8810874,3.28557813 14.8810874,3.17105653 C14.8810874,3.05618148 14.7870142,2.96286758 14.6719965,2.96286758 Z" id="Combined-Shape" fill="#8374F1" fill-rule="nonzero"></path>
                </g>
                <g id="Group-63" transform="translate(99.000000, 44.000000)">
                    <path d="M0.818782609,0 L20.9105217,0 C21.3629565,0 21.7297826,0.556105263 21.7297826,1.24152632 L21.7297826,16.5789474 C21.7297826,17.2643684 21.3629565,17.8204737 20.9105217,17.8204737 L0.818782609,17.8204737 C0.366347826,17.8204737 0,17.2643684 0,16.5789474 L0,1.24152632 C0,0.556105263 0.366347826,0 0.818782609,0" id="Fill-286" stroke="#222D57" stroke-width="0.4" stroke-linecap="round" stroke-linejoin="round"></path>
                    <g id="Group-62" transform="translate(5.359870, 2.690716)" fill="#FC68A2" fill-rule="nonzero">
                        <path d="M9.94126114,2.82690484 C9.98537239,2.84755568 10.0191152,2.88365227 10.0372852,2.92670488 L10.1649565,2.92670488 C10.6293478,2.92670488 11.0095652,3.30328383 11.0095652,3.7632312 L11.0095652,9.98365225 C11.0095652,10.4426523 10.6336522,10.8144944 10.1706957,10.8144944 L0.844608696,10.8144944 C0.380217391,10.8144944 1.77635684e-15,10.4379154 1.77635684e-15,9.97796804 L1.77635684e-15,3.75754698 C1.77635684e-15,3.29854698 0.375434783,2.92670488 0.838391304,2.92670488 L2.21220234,2.92670488 L2.3123913,1.29249435 C2.31573913,1.23612593 2.34395652,1.18449435 2.38986957,1.15086277 C2.43578261,1.11675751 2.49413043,1.10444172 2.54913043,1.1172312 L3.92817515,1.43535166 L3.98821739,0.182652248 C3.99108696,0.118704879 4.02647826,0.0599680374 4.08243478,0.0272838269 C4.13791304,-0.00634775204 4.20630435,-0.00871617309 4.2656087,0.0192311953 L9.834,2.68133646 C9.89422557,2.7101224 9.93248817,2.76586691 9.94126114,2.82690484 Z M8.58327245,2.50919769 L4.36078261,0.490546985 L4.31123854,1.52371739 L8.58327245,2.50919769 Z M2.24585005,3.30991541 L0.992391304,3.30991541 C0.659043478,3.30991541 0.386913043,3.57991541 0.386913043,3.90959962 L0.386913043,4.42304433 L10.6226522,4.38632837 L10.6226522,3.90391541 C10.6226522,3.57565225 10.3538696,3.30991541 10.022913,3.30991541 L2.53625548,3.30991541 C2.50059007,3.35046808 2.44802232,3.37575751 2.39034783,3.37575751 C2.3305564,3.37240096 2.28019928,3.34744393 2.24585005,3.30991541 Z M2.59958374,2.92670488 L8.68739697,2.92670488 L2.68447826,1.54212593 L2.59958374,2.92670488 Z M0.386913043,8.93693728 L10.6226522,8.90022302 L10.6226522,4.76954233 L0.386913043,4.8062583 L0.386913043,8.93693728 Z M0.386913043,9.32015127 L0.386913043,9.83775752 C0.386913043,10.165547 0.655217391,10.4312838 0.986652174,10.4312838 L10.0171739,10.4312838 C10.3500435,10.4312838 10.6226522,10.1612838 10.6226522,9.83159962 L10.6226522,9.28343529 L0.386913043,9.32015127 Z" id="Combined-Shape"></path>
                    </g>
                </g>
            </g>
        </g>
    </g>
</svg>